<?xml version="1.0" encoding="UTF-8" standalone="no"?>
<!DOCTYPE svg PUBLIC "-//W3C//DTD SVG 1.1//EN"
 "http://www.w3.org/Graphics/SVG/1.1/DTD/svg11.dtd">
<!-- Generated by graphviz version 2.40.1 (20161225.0304)
 -->
<!-- Title: include/ess_context.h Pages: 1 -->
<svg width="152pt" height="140pt"
 viewBox="0.00 0.00 151.50 140.00" xmlns="http://www.w3.org/2000/svg" xmlns:xlink="http://www.w3.org/1999/xlink">
<g id="graph0" class="graph" transform="scale(1 1) rotate(0) translate(4 136)">
<title>include/ess_context.h</title>
<polygon fill="#ffffff" stroke="transparent" points="-4,4 -4,-136 147.5,-136 147.5,4 -4,4"/>
<!-- Node0 -->
<g id="node1" class="node">
<title>Node0</title>
<polygon fill="#bfbfbf" stroke="#000000" points="25.5,-112.5 25.5,-131.5 137.5,-131.5 137.5,-112.5 25.5,-112.5"/>
<text text-anchor="middle" x="81.5" y="-119.5" font-family="Helvetica,sans-Serif" font-size="10.00" fill="#000000">include/ess_context.h</text>
</g>
<!-- Node1 -->
<g id="node2" class="node">
<title>Node1</title>
<g id="a_node2"><a xlink:href="../../da/dfe/ess_8h.html" target="_top" xlink:title="ess.h">
<polygon fill="#ffffff" stroke="#000000" points="37,-56.5 37,-75.5 78,-75.5 78,-56.5 37,-56.5"/>
<text text-anchor="middle" x="57.5" y="-63.5" font-family="Helvetica,sans-Serif" font-size="10.00" fill="#000000">ess.h</text>
</a>
</g>
</g>
<!-- Node0&#45;&gt;Node1 -->
<g id="edge1" class="edge">
<title>Node0&#45;&gt;Node1</title>
<path fill="none" stroke="#191970" d="M77.3195,-112.2455C74.119,-104.7776 69.604,-94.2427 65.6916,-85.1137"/>
<polygon fill="#191970" stroke="#191970" points="68.7888,-83.4554 61.6326,-75.6427 62.3548,-86.2129 68.7888,-83.4554"/>
</g>
<!-- Node3 -->
<g id="node4" class="node">
<title>Node3</title>
<g id="a_node4"><a xlink:href="../../d7/d35/ess__format_8h.html" target="_top" xlink:title="ess_format.h">
<polygon fill="#ffffff" stroke="#000000" points="69.5,-.5 69.5,-19.5 143.5,-19.5 143.5,-.5 69.5,-.5"/>
<text text-anchor="middle" x="106.5" y="-7.5" font-family="Helvetica,sans-Serif" font-size="10.00" fill="#000000">ess_format.h</text>
</a>
</g>
</g>
<!-- Node0&#45;&gt;Node3 -->
<g id="edge4" class="edge">
<title>Node0&#45;&gt;Node3</title>
<path fill="none" stroke="#191970" d="M83.6315,-112.4509C87.7274,-94.1013 96.7699,-53.5908 102.1765,-29.3693"/>
<polygon fill="#191970" stroke="#191970" points="105.6112,-30.0472 104.3739,-19.5249 98.7794,-28.5222 105.6112,-30.0472"/>
</g>
<!-- Node2 -->
<g id="node3" class="node">
<title>Node2</title>
<g id="a_node3"><a xlink:href="../../db/d16/config_8h.html" target="_top" xlink:title="File containing configurations. ">
<polygon fill="#ffffff" stroke="#000000" points="0,-.5 0,-19.5 51,-19.5 51,-.5 0,-.5"/>
<text text-anchor="middle" x="25.5" y="-7.5" font-family="Helvetica,sans-Serif" font-size="10.00" fill="#000000">config.h</text>
</a>
</g>
</g>
<!-- Node1&#45;&gt;Node2 -->
<g id="edge2" class="edge">
<title>Node1&#45;&gt;Node2</title>
<path fill="none" stroke="#191970" d="M51.926,-56.2455C47.5669,-48.617 41.3789,-37.7881 36.0867,-28.5267"/>
<polygon fill="#191970" stroke="#191970" points="39.0104,-26.5886 31.0101,-19.6427 32.9327,-30.0616 39.0104,-26.5886"/>
</g>
<!-- Node1&#45;&gt;Node3 -->
<g id="edge3" class="edge">
<title>Node1&#45;&gt;Node3</title>
<path fill="none" stroke="#191970" d="M66.0351,-56.2455C72.9912,-48.2958 82.9883,-36.8706 91.3051,-27.3656"/>
<polygon fill="#191970" stroke="#191970" points="94.1116,-29.4732 98.0627,-19.6427 88.8436,-24.8637 94.1116,-29.4732"/>
</g>
</g>
</svg>
