<?xml version="1.0" encoding="UTF-8" standalone="no"?>
<!DOCTYPE svg PUBLIC "-//W3C//DTD SVG 1.1//EN"
 "http://www.w3.org/Graphics/SVG/1.1/DTD/svg11.dtd">
<!-- Generated by graphviz version 2.40.1 (20161225.0304)
 -->
<!-- Title: include/ess_context.h Pages: 1 -->
<svg width="448pt" height="140pt"
 viewBox="0.00 0.00 448.00 140.00" xmlns="http://www.w3.org/2000/svg" xmlns:xlink="http://www.w3.org/1999/xlink">
<g id="graph0" class="graph" transform="scale(1 1) rotate(0) translate(4 136)">
<title>include/ess_context.h</title>
<polygon fill="#ffffff" stroke="transparent" points="-4,4 -4,-136 444,-136 444,4 -4,4"/>
<!-- Node0 -->
<g id="node1" class="node">
<title>Node0</title>
<polygon fill="#bfbfbf" stroke="#000000" points="290.5,-112.5 290.5,-131.5 402.5,-131.5 402.5,-112.5 290.5,-112.5"/>
<text text-anchor="middle" x="346.5" y="-119.5" font-family="Helvetica,sans-Serif" font-size="10.00" fill="#000000">include/ess_context.h</text>
</g>
<!-- Node1 -->
<g id="node2" class="node">
<title>Node1</title>
<g id="a_node2"><a xlink:href="../../da/dfe/ess_8h.html" target="_top" xlink:title="ess.h">
<polygon fill="#ffffff" stroke="#000000" points="222,-56.5 222,-75.5 263,-75.5 263,-56.5 222,-56.5"/>
<text text-anchor="middle" x="242.5" y="-63.5" font-family="Helvetica,sans-Serif" font-size="10.00" fill="#000000">ess.h</text>
</a>
</g>
</g>
<!-- Node0&#45;&gt;Node1 -->
<g id="edge1" class="edge">
<title>Node0&#45;&gt;Node1</title>
<path fill="none" stroke="#191970" d="M328.3846,-112.2455C312.055,-103.4527 287.829,-90.4079 269.2661,-80.4125"/>
<polygon fill="#191970" stroke="#191970" points="270.8719,-77.3021 260.4078,-75.6427 267.5532,-83.4654 270.8719,-77.3021"/>
</g>
<!-- Node7 -->
<g id="node8" class="node">
<title>Node7</title>
<g id="a_node8"><a xlink:href="../../d7/d35/ess__format_8h.html" target="_top" xlink:title="ess_format.h">
<polygon fill="#ffffff" stroke="#000000" points="364.5,-.5 364.5,-19.5 438.5,-19.5 438.5,-.5 364.5,-.5"/>
<text text-anchor="middle" x="401.5" y="-7.5" font-family="Helvetica,sans-Serif" font-size="10.00" fill="#000000">ess_format.h</text>
</a>
</g>
</g>
<!-- Node0&#45;&gt;Node7 -->
<g id="edge8" class="edge">
<title>Node0&#45;&gt;Node7</title>
<path fill="none" stroke="#191970" d="M348.33,-112.19C351.055,-98.9235 356.913,-74.7651 366.5,-56 371.7182,-45.7861 379.2537,-35.5232 385.997,-27.2909"/>
<polygon fill="#191970" stroke="#191970" points="388.7848,-29.4157 392.6072,-19.5344 383.4571,-24.8753 388.7848,-29.4157"/>
</g>
<!-- Node8 -->
<g id="node9" class="node">
<title>Node8</title>
<g id="a_node9"><a xlink:href="../../d1/dea/ess__error_8h.html" target="_top" xlink:title="ess_error.h">
<polygon fill="#ffffff" stroke="#000000" points="375,-56.5 375,-75.5 440,-75.5 440,-56.5 375,-56.5"/>
<text text-anchor="middle" x="407.5" y="-63.5" font-family="Helvetica,sans-Serif" font-size="10.00" fill="#000000">ess_error.h</text>
</a>
</g>
</g>
<!-- Node0&#45;&gt;Node8 -->
<g id="edge9" class="edge">
<title>Node0&#45;&gt;Node8</title>
<path fill="none" stroke="#191970" d="M357.1254,-112.2455C366.0473,-104.0549 378.988,-92.1749 389.5192,-82.5069"/>
<polygon fill="#191970" stroke="#191970" points="391.9968,-84.9837 396.9964,-75.6427 387.2629,-79.8271 391.9968,-84.9837"/>
</g>
<!-- Node2 -->
<g id="node3" class="node">
<title>Node2</title>
<polygon fill="#ffffff" stroke="#bfbfbf" points="0,-.5 0,-19.5 47,-19.5 47,-.5 0,-.5"/>
<text text-anchor="middle" x="23.5" y="-7.5" font-family="Helvetica,sans-Serif" font-size="10.00" fill="#000000">errno.h</text>
</g>
<!-- Node1&#45;&gt;Node2 -->
<g id="edge2" class="edge">
<title>Node1&#45;&gt;Node2</title>
<path fill="none" stroke="#191970" d="M221.7662,-61.2424C188.9284,-53.6286 122.748,-37.9645 56.9513,-20.0208"/>
<polygon fill="#191970" stroke="#191970" points="57.8202,-16.6299 47.2504,-17.3575 55.967,-23.3801 57.8202,-16.6299"/>
</g>
<!-- Node3 -->
<g id="node4" class="node">
<title>Node3</title>
<polygon fill="#ffffff" stroke="#bfbfbf" points="65.5,-.5 65.5,-19.5 109.5,-19.5 109.5,-.5 65.5,-.5"/>
<text text-anchor="middle" x="87.5" y="-7.5" font-family="Helvetica,sans-Serif" font-size="10.00" fill="#000000">time.h</text>
</g>
<!-- Node1&#45;&gt;Node3 -->
<g id="edge3" class="edge">
<title>Node1&#45;&gt;Node3</title>
<path fill="none" stroke="#191970" d="M221.9172,-58.5636C195.7261,-49.1011 150.2064,-32.6552 119.4777,-21.5532"/>
<polygon fill="#191970" stroke="#191970" points="120.2673,-18.1171 109.673,-18.0109 117.8887,-24.7006 120.2673,-18.1171"/>
</g>
<!-- Node4 -->
<g id="node5" class="node">
<title>Node4</title>
<polygon fill="#ffffff" stroke="#bfbfbf" points="127.5,-.5 127.5,-19.5 189.5,-19.5 189.5,-.5 127.5,-.5"/>
<text text-anchor="middle" x="158.5" y="-7.5" font-family="Helvetica,sans-Serif" font-size="10.00" fill="#000000">sys/time.h</text>
</g>
<!-- Node1&#45;&gt;Node4 -->
<g id="edge4" class="edge">
<title>Node1&#45;&gt;Node4</title>
<path fill="none" stroke="#191970" d="M227.8683,-56.2455C215.1006,-47.7337 196.3562,-35.2375 181.5701,-25.3801"/>
<polygon fill="#191970" stroke="#191970" points="183.226,-22.2775 172.964,-19.6427 179.3431,-28.1019 183.226,-22.2775"/>
</g>
<!-- Node5 -->
<g id="node6" class="node">
<title>Node5</title>
<polygon fill="#ffffff" stroke="#bfbfbf" points="208,-.5 208,-19.5 277,-19.5 277,-.5 208,-.5"/>
<text text-anchor="middle" x="242.5" y="-7.5" font-family="Helvetica,sans-Serif" font-size="10.00" fill="#000000">sys/signal.h</text>
</g>
<!-- Node1&#45;&gt;Node5 -->
<g id="edge5" class="edge">
<title>Node1&#45;&gt;Node5</title>
<path fill="none" stroke="#191970" d="M242.5,-56.2455C242.5,-48.9382 242.5,-38.6944 242.5,-29.7046"/>
<polygon fill="#191970" stroke="#191970" points="246.0001,-29.6426 242.5,-19.6427 239.0001,-29.6427 246.0001,-29.6426"/>
</g>
<!-- Node6 -->
<g id="node7" class="node">
<title>Node6</title>
<g id="a_node7"><a xlink:href="../../db/d16/config_8h.html" target="_top" xlink:title="File containing configurations. ">
<polygon fill="#ffffff" stroke="#000000" points="295,-.5 295,-19.5 346,-19.5 346,-.5 295,-.5"/>
<text text-anchor="middle" x="320.5" y="-7.5" font-family="Helvetica,sans-Serif" font-size="10.00" fill="#000000">config.h</text>
</a>
</g>
</g>
<!-- Node1&#45;&gt;Node6 -->
<g id="edge6" class="edge">
<title>Node1&#45;&gt;Node6</title>
<path fill="none" stroke="#191970" d="M256.0866,-56.2455C267.8305,-47.814 285.0199,-35.4729 298.6882,-25.6598"/>
<polygon fill="#191970" stroke="#191970" points="300.9871,-28.3179 307.0691,-19.6427 296.9046,-22.6316 300.9871,-28.3179"/>
</g>
<!-- Node1&#45;&gt;Node7 -->
<g id="edge7" class="edge">
<title>Node1&#45;&gt;Node7</title>
<path fill="none" stroke="#191970" d="M263.2865,-58.679C288.9599,-49.6368 333.0909,-34.0938 364.5795,-23.0035"/>
<polygon fill="#191970" stroke="#191970" points="366.05,-26.1963 374.3194,-19.573 363.7246,-19.5939 366.05,-26.1963"/>
</g>
</g>
</svg>
