<?xml version="1.0" encoding="UTF-8" standalone="no"?>
<!DOCTYPE svg PUBLIC "-//W3C//DTD SVG 1.1//EN"
 "http://www.w3.org/Graphics/SVG/1.1/DTD/svg11.dtd">
<!-- Generated by graphviz version 2.40.1 (20161225.0304)
 -->
<!-- Title: include/ess.h Pages: 1 -->
<svg width="372pt" height="151pt"
 viewBox="0.00 0.00 371.50 151.00" xmlns="http://www.w3.org/2000/svg" xmlns:xlink="http://www.w3.org/1999/xlink">
<g id="graph0" class="graph" transform="scale(1 1) rotate(0) translate(4 147)">
<title>include/ess.h</title>
<polygon fill="#ffffff" stroke="transparent" points="-4,4 -4,-147 367.5,-147 367.5,4 -4,4"/>
<!-- Node3 -->
<g id="node1" class="node">
<title>Node3</title>
<polygon fill="#bfbfbf" stroke="#000000" points="85,-123.5 85,-142.5 159,-142.5 159,-123.5 85,-123.5"/>
<text text-anchor="middle" x="122" y="-130.5" font-family="Helvetica,sans-Serif" font-size="10.00" fill="#000000">include/ess.h</text>
</g>
<!-- Node4 -->
<g id="node2" class="node">
<title>Node4</title>
<g id="a_node2"><a xlink:href="../../de/dc0/ess__backend_8h.html" target="_top" xlink:title="include/ess_backend.h">
<polygon fill="#ffffff" stroke="#000000" points="130,-67.5 130,-86.5 246,-86.5 246,-67.5 130,-67.5"/>
<text text-anchor="middle" x="188" y="-74.5" font-family="Helvetica,sans-Serif" font-size="10.00" fill="#000000">include/ess_backend.h</text>
</a>
</g>
</g>
<!-- Node3&#45;&gt;Node4 -->
<g id="edge1" class="edge">
<title>Node3&#45;&gt;Node4</title>
<path fill="none" stroke="#191970" d="M141.2755,-116.645C152.7538,-106.9058 166.9277,-94.8795 176.6354,-86.6427"/>
<polygon fill="#191970" stroke="#191970" points="138.857,-114.1069 133.4963,-123.2455 143.3859,-119.4445 138.857,-114.1069"/>
</g>
<!-- Node8 -->
<g id="node6" class="node">
<title>Node8</title>
<g id="a_node6"><a xlink:href="../../d7/d36/ess__context_8h.html" target="_top" xlink:title="include/ess_context.h">
<polygon fill="#ffffff" stroke="#000000" points="0,-67.5 0,-86.5 112,-86.5 112,-67.5 0,-67.5"/>
<text text-anchor="middle" x="56" y="-74.5" font-family="Helvetica,sans-Serif" font-size="10.00" fill="#000000">include/ess_context.h</text>
</a>
</g>
</g>
<!-- Node3&#45;&gt;Node8 -->
<g id="edge5" class="edge">
<title>Node3&#45;&gt;Node8</title>
<path fill="none" stroke="#191970" d="M102.7245,-116.645C91.2462,-106.9058 77.0723,-94.8795 67.3646,-86.6427"/>
<polygon fill="#191970" stroke="#191970" points="100.6141,-119.4445 110.5037,-123.2455 105.143,-114.1069 100.6141,-119.4445"/>
</g>
<!-- Node5 -->
<g id="node3" class="node">
<title>Node5</title>
<g id="a_node3"><a xlink:href="../../d8/d50/ess__backend_8c.html" target="_top" xlink:title="src/ess_backend.c">
<polygon fill="#ffffff" stroke="#000000" points="121.5,-6 121.5,-25 220.5,-25 220.5,-6 121.5,-6"/>
<text text-anchor="middle" x="171" y="-13" font-family="Helvetica,sans-Serif" font-size="10.00" fill="#000000">src/ess_backend.c</text>
</a>
</g>
</g>
<!-- Node4&#45;&gt;Node5 -->
<g id="edge2" class="edge">
<title>Node4&#45;&gt;Node5</title>
<path fill="none" stroke="#191970" d="M182.6328,-57.5832C179.6577,-46.8205 176.0873,-33.9042 173.6937,-25.2449"/>
<polygon fill="#191970" stroke="#191970" points="179.3059,-58.6846 185.3438,-67.3906 186.0529,-56.8195 179.3059,-58.6846"/>
</g>
<!-- Node6 -->
<g id="node4" class="node">
<title>Node6</title>
<g id="a_node4"><a xlink:href="../../dc/d43/ess__context_8c.html" target="_top" xlink:title="src/ess_context.c">
<polygon fill="#ffffff" stroke="#000000" points="8.5,-6 8.5,-25 103.5,-25 103.5,-6 8.5,-6"/>
<text text-anchor="middle" x="56" y="-13" font-family="Helvetica,sans-Serif" font-size="10.00" fill="#000000">src/ess_context.c</text>
</a>
</g>
</g>
<!-- Node4&#45;&gt;Node6 -->
<g id="edge3" class="edge">
<title>Node4&#45;&gt;Node6</title>
<path fill="none" stroke="#191970" d="M158.0278,-63.0357C133.1106,-51.4265 98.3153,-35.2151 76.4802,-25.0419"/>
<polygon fill="#191970" stroke="#191970" points="156.8324,-66.3399 167.375,-67.3906 159.7887,-59.9948 156.8324,-66.3399"/>
</g>
<!-- Node7 -->
<g id="node5" class="node">
<title>Node7</title>
<g id="a_node5"><a xlink:href="../../d1/df2/null__backend_8c.html" target="_top" xlink:title="all generic backend null functions source cource ">
<polygon fill="#ffffff" stroke="#000000" points="238.5,-.5 238.5,-30.5 363.5,-30.5 363.5,-.5 238.5,-.5"/>
<text text-anchor="start" x="246.5" y="-18.5" font-family="Helvetica,sans-Serif" font-size="10.00" fill="#000000">src/platform/generic</text>
<text text-anchor="middle" x="301" y="-7.5" font-family="Helvetica,sans-Serif" font-size="10.00" fill="#000000">/backend/null_backend.c</text>
</a>
</g>
</g>
<!-- Node4&#45;&gt;Node7 -->
<g id="edge4" class="edge">
<title>Node4&#45;&gt;Node7</title>
<path fill="none" stroke="#191970" d="M214.8421,-62.3912C232.4965,-52.7829 255.5427,-40.24 273.3571,-30.5446"/>
<polygon fill="#191970" stroke="#191970" points="212.7665,-59.536 205.6563,-67.3906 216.1128,-65.6844 212.7665,-59.536"/>
</g>
<!-- Node8&#45;&gt;Node5 -->
<g id="edge6" class="edge">
<title>Node8&#45;&gt;Node5</title>
<path fill="none" stroke="#191970" d="M82.9811,-62.571C104.6231,-50.9972 134.3869,-35.0801 153.1574,-25.0419"/>
<polygon fill="#191970" stroke="#191970" points="81.1364,-59.5884 73.9688,-67.3906 84.4375,-65.7611 81.1364,-59.5884"/>
</g>
<!-- Node8&#45;&gt;Node6 -->
<g id="edge7" class="edge">
<title>Node8&#45;&gt;Node6</title>
<path fill="none" stroke="#191970" d="M56,-57.2462C56,-46.5519 56,-33.814 56,-25.2449"/>
<polygon fill="#191970" stroke="#191970" points="52.5001,-57.3906 56,-67.3906 59.5001,-57.3907 52.5001,-57.3906"/>
</g>
</g>
</svg>
