<?xml version="1.0" encoding="UTF-8" standalone="no"?>
<!DOCTYPE svg PUBLIC "-//W3C//DTD SVG 1.1//EN"
 "http://www.w3.org/Graphics/SVG/1.1/DTD/svg11.dtd">
<!-- Generated by graphviz version 2.40.1 (20161225.0304)
 -->
<!-- Title: include/ess.h Pages: 1 -->
<svg width="762pt" height="218pt"
 viewBox="0.00 0.00 762.00 218.00" xmlns="http://www.w3.org/2000/svg" xmlns:xlink="http://www.w3.org/1999/xlink">
<g id="graph0" class="graph" transform="scale(1 1) rotate(0) translate(4 214)">
<title>include/ess.h</title>
<polygon fill="#ffffff" stroke="transparent" points="-4,4 -4,-214 758,-214 758,4 -4,4"/>
<!-- Node7 -->
<g id="node1" class="node">
<title>Node7</title>
<polygon fill="#bfbfbf" stroke="#000000" points="455.5,-190.5 455.5,-209.5 529.5,-209.5 529.5,-190.5 455.5,-190.5"/>
<text text-anchor="middle" x="492.5" y="-197.5" font-family="Helvetica,sans-Serif" font-size="10.00" fill="#000000">include/ess.h</text>
</g>
<!-- Node8 -->
<g id="node2" class="node">
<title>Node8</title>
<g id="a_node2"><a xlink:href="../../de/dc0/ess__backend_8h.html" target="_top" xlink:title="include/ess_backend.h">
<polygon fill="#ffffff" stroke="#000000" points="260.5,-129 260.5,-148 376.5,-148 376.5,-129 260.5,-129"/>
<text text-anchor="middle" x="318.5" y="-136" font-family="Helvetica,sans-Serif" font-size="10.00" fill="#000000">include/ess_backend.h</text>
</a>
</g>
</g>
<!-- Node7&#45;&gt;Node8 -->
<g id="edge1" class="edge">
<title>Node7&#45;&gt;Node8</title>
<path fill="none" stroke="#191970" d="M455.5791,-186.9504C422.5932,-175.2916 375.0434,-158.4852 345.4966,-148.0419"/>
<polygon fill="#191970" stroke="#191970" points="454.7177,-190.3581 465.3125,-190.3906 457.0505,-183.7582 454.7177,-190.3581"/>
</g>
<!-- Node13 -->
<g id="node7" class="node">
<title>Node13</title>
<g id="a_node7"><a xlink:href="../../d7/d36/ess__context_8h.html" target="_top" xlink:title="include/ess_context.h">
<polygon fill="#ffffff" stroke="#000000" points="394.5,-129 394.5,-148 506.5,-148 506.5,-129 394.5,-129"/>
<text text-anchor="middle" x="450.5" y="-136" font-family="Helvetica,sans-Serif" font-size="10.00" fill="#000000">include/ess_context.h</text>
</a>
</g>
</g>
<!-- Node7&#45;&gt;Node13 -->
<g id="edge6" class="edge">
<title>Node7&#45;&gt;Node13</title>
<path fill="none" stroke="#191970" d="M480.1506,-181.9169C472.6298,-170.9043 463.3151,-157.265 457.155,-148.2449"/>
<polygon fill="#191970" stroke="#191970" points="477.4075,-184.1065 485.9375,-190.3906 483.1882,-180.1587 477.4075,-184.1065"/>
</g>
<!-- Node15 -->
<g id="node9" class="node">
<title>Node15</title>
<g id="a_node9"><a xlink:href="../../d6/de1/ess__server_8h.html" target="_top" xlink:title="include/ess_server.h">
<polygon fill="#ffffff" stroke="#000000" points="647,-62 647,-81 754,-81 754,-62 647,-62"/>
<text text-anchor="middle" x="700.5" y="-69" font-family="Helvetica,sans-Serif" font-size="10.00" fill="#000000">include/ess_server.h</text>
</a>
</g>
</g>
<!-- Node7&#45;&gt;Node15 -->
<g id="edge13" class="edge">
<title>Node7&#45;&gt;Node15</title>
<path fill="none" stroke="#191970" d="M502.8687,-181.5878C513.5099,-164.2285 531.5822,-138.611 553.5,-123 571.8916,-109.9005 628.8441,-91.9758 666.221,-81.0958"/>
<polygon fill="#191970" stroke="#191970" points="499.815,-179.8758 497.7442,-190.2663 505.8426,-183.435 499.815,-179.8758"/>
</g>
<!-- Node17 -->
<g id="node11" class="node">
<title>Node17</title>
<g id="a_node11"><a xlink:href="../../d5/d24/esp32__platform_8c.html" target="_top" xlink:title="all esp32 platform functions source ">
<polygon fill="#ffffff" stroke="#000000" points="562.5,-123.5 562.5,-153.5 660.5,-153.5 660.5,-123.5 562.5,-123.5"/>
<text text-anchor="start" x="570.5" y="-141.5" font-family="Helvetica,sans-Serif" font-size="10.00" fill="#000000">src/platform/esp32</text>
<text text-anchor="middle" x="611.5" y="-130.5" font-family="Helvetica,sans-Serif" font-size="10.00" fill="#000000">/esp32_platform.c</text>
</a>
</g>
</g>
<!-- Node7&#45;&gt;Node17 -->
<g id="edge14" class="edge">
<title>Node7&#45;&gt;Node17</title>
<path fill="none" stroke="#191970" d="M519.996,-185.7899C538.684,-176.1318 563.3685,-163.3747 582.3893,-153.5446"/>
<polygon fill="#191970" stroke="#191970" points="518.3706,-182.6901 511.0938,-190.3906 521.5844,-188.9087 518.3706,-182.6901"/>
</g>
<!-- Node9 -->
<g id="node3" class="node">
<title>Node9</title>
<g id="a_node3"><a xlink:href="../../d2/de0/esp32__probe__backends_8c.html" target="_top" xlink:title="examples/esp32_probe\l_backends.c">
<polygon fill="#ffffff" stroke="#000000" points="143,-56.5 143,-86.5 260,-86.5 260,-56.5 143,-56.5"/>
<text text-anchor="start" x="151" y="-74.5" font-family="Helvetica,sans-Serif" font-size="10.00" fill="#000000">examples/esp32_probe</text>
<text text-anchor="middle" x="201.5" y="-63.5" font-family="Helvetica,sans-Serif" font-size="10.00" fill="#000000">_backends.c</text>
</a>
</g>
</g>
<!-- Node8&#45;&gt;Node9 -->
<g id="edge2" class="edge">
<title>Node8&#45;&gt;Node9</title>
<path fill="none" stroke="#191970" d="M292.8882,-123.8334C273.5795,-112.7763 247.1901,-97.6644 227.732,-86.5218"/>
<polygon fill="#191970" stroke="#191970" points="291.3196,-126.9684 301.7368,-128.9005 294.7982,-120.8939 291.3196,-126.9684"/>
</g>
<!-- Node10 -->
<g id="node4" class="node">
<title>Node10</title>
<g id="a_node4"><a xlink:href="../../d8/d50/ess__backend_8c.html" target="_top" xlink:title="src/ess_backend.c">
<polygon fill="#ffffff" stroke="#000000" points="278,-62 278,-81 377,-81 377,-62 278,-62"/>
<text text-anchor="middle" x="327.5" y="-69" font-family="Helvetica,sans-Serif" font-size="10.00" fill="#000000">src/ess_backend.c</text>
</a>
</g>
</g>
<!-- Node8&#45;&gt;Node10 -->
<g id="edge3" class="edge">
<title>Node8&#45;&gt;Node10</title>
<path fill="none" stroke="#191970" d="M321.1212,-118.9863C322.7947,-106.5286 324.8906,-90.9258 326.2129,-81.0817"/>
<polygon fill="#191970" stroke="#191970" points="317.652,-118.5236 319.7895,-128.9005 324.5897,-119.4555 317.652,-118.5236"/>
</g>
<!-- Node11 -->
<g id="node5" class="node">
<title>Node11</title>
<g id="a_node5"><a xlink:href="../../dc/d43/ess__context_8c.html" target="_top" xlink:title="src/ess_context.c">
<polygon fill="#ffffff" stroke="#000000" points="395,-62 395,-81 490,-81 490,-62 395,-62"/>
<text text-anchor="middle" x="442.5" y="-69" font-family="Helvetica,sans-Serif" font-size="10.00" fill="#000000">src/ess_context.c</text>
</a>
</g>
</g>
<!-- Node8&#45;&gt;Node11 -->
<g id="edge4" class="edge">
<title>Node8&#45;&gt;Node11</title>
<path fill="none" stroke="#191970" d="M345.2294,-124.0575C369.2906,-111.0567 403.9714,-92.3179 424.7668,-81.0817"/>
<polygon fill="#191970" stroke="#191970" points="343.4002,-121.0675 336.2662,-128.9005 346.7279,-127.2261 343.4002,-121.0675"/>
</g>
<!-- Node12 -->
<g id="node6" class="node">
<title>Node12</title>
<g id="a_node6"><a xlink:href="../../d1/df2/null__backend_8c.html" target="_top" xlink:title="all generic backend null functions source cource ">
<polygon fill="#ffffff" stroke="#000000" points="0,-56.5 0,-86.5 125,-86.5 125,-56.5 0,-56.5"/>
<text text-anchor="start" x="8" y="-74.5" font-family="Helvetica,sans-Serif" font-size="10.00" fill="#000000">src/platform/generic</text>
<text text-anchor="middle" x="62.5" y="-63.5" font-family="Helvetica,sans-Serif" font-size="10.00" fill="#000000">/backend/null_backend.c</text>
</a>
</g>
</g>
<!-- Node8&#45;&gt;Node12 -->
<g id="edge5" class="edge">
<title>Node8&#45;&gt;Node12</title>
<path fill="none" stroke="#191970" d="M272.2462,-126.3945C229.5475,-115.2195 165.9814,-98.583 120.0249,-86.5553"/>
<polygon fill="#191970" stroke="#191970" points="271.533,-129.8257 282.0933,-128.9717 273.3053,-123.0537 271.533,-129.8257"/>
</g>
<!-- Node13&#45;&gt;Node9 -->
<g id="edge8" class="edge">
<title>Node13&#45;&gt;Node9</title>
<path fill="none" stroke="#191970" d="M405.2478,-126.3237C363.719,-115.1493 302.0575,-98.5576 257.452,-86.5553"/>
<polygon fill="#191970" stroke="#191970" points="404.5228,-129.7531 415.0888,-128.9717 406.3417,-122.9935 404.5228,-129.7531"/>
</g>
<!-- Node13&#45;&gt;Node10 -->
<g id="edge11" class="edge">
<title>Node13&#45;&gt;Node10</title>
<path fill="none" stroke="#191970" d="M423.9862,-124.0575C400.119,-111.0567 365.7178,-92.3179 345.0902,-81.0817"/>
<polygon fill="#191970" stroke="#191970" points="422.4212,-127.1906 432.8771,-128.9005 425.7697,-121.0434 422.4212,-127.1906"/>
</g>
<!-- Node13&#45;&gt;Node11 -->
<g id="edge12" class="edge">
<title>Node13&#45;&gt;Node11</title>
<path fill="none" stroke="#191970" d="M448.1248,-118.6079C446.645,-106.214 444.8076,-90.8263 443.6441,-81.0817"/>
<polygon fill="#191970" stroke="#191970" points="444.6928,-119.3861 449.3538,-128.9005 451.6434,-118.5561 444.6928,-119.3861"/>
</g>
<!-- Node14 -->
<g id="node8" class="node">
<title>Node14</title>
<g id="a_node8"><a xlink:href="../../df/dbb/esp32__create__context_8c.html" target="_top" xlink:title="examples/esp32_create\l_context.c">
<polygon fill="#ffffff" stroke="#000000" points="508.5,-56.5 508.5,-86.5 628.5,-86.5 628.5,-56.5 508.5,-56.5"/>
<text text-anchor="start" x="516.5" y="-74.5" font-family="Helvetica,sans-Serif" font-size="10.00" fill="#000000">examples/esp32_create</text>
<text text-anchor="middle" x="568.5" y="-63.5" font-family="Helvetica,sans-Serif" font-size="10.00" fill="#000000">_context.c</text>
</a>
</g>
</g>
<!-- Node13&#45;&gt;Node14 -->
<g id="edge7" class="edge">
<title>Node13&#45;&gt;Node14</title>
<path fill="none" stroke="#191970" d="M476.3307,-123.8334C495.8044,-112.7763 522.4194,-97.6644 542.0438,-86.5218"/>
<polygon fill="#191970" stroke="#191970" points="474.3744,-120.9193 467.4065,-128.9005 477.8307,-127.0065 474.3744,-120.9193"/>
</g>
<!-- Node13&#45;&gt;Node15 -->
<g id="edge9" class="edge">
<title>Node13&#45;&gt;Node15</title>
<path fill="none" stroke="#191970" d="M495.9633,-126.3158C544.4449,-113.3228 620.2308,-93.0122 664.6645,-81.1039"/>
<polygon fill="#191970" stroke="#191970" points="494.8065,-123.0023 486.0534,-128.9717 496.6186,-129.7637 494.8065,-123.0023"/>
</g>
<!-- Node16 -->
<g id="node10" class="node">
<title>Node16</title>
<g id="a_node10"><a xlink:href="../../d0/d9b/ess__server_8c.html" target="_top" xlink:title="src/ess_server.c">
<polygon fill="#ffffff" stroke="#000000" points="656,-.5 656,-19.5 745,-19.5 745,-.5 656,-.5"/>
<text text-anchor="middle" x="700.5" y="-7.5" font-family="Helvetica,sans-Serif" font-size="10.00" fill="#000000">src/ess_server.c</text>
</a>
</g>
</g>
<!-- Node15&#45;&gt;Node16 -->
<g id="edge10" class="edge">
<title>Node15&#45;&gt;Node16</title>
<path fill="none" stroke="#191970" d="M700.5,-51.7462C700.5,-41.0519 700.5,-28.314 700.5,-19.7449"/>
<polygon fill="#191970" stroke="#191970" points="697.0001,-51.8906 700.5,-61.8906 704.0001,-51.8907 697.0001,-51.8906"/>
</g>
</g>
</svg>
