<?xml version="1.0" encoding="UTF-8" standalone="no"?>
<!DOCTYPE svg PUBLIC "-//W3C//DTD SVG 1.1//EN"
 "http://www.w3.org/Graphics/SVG/1.1/DTD/svg11.dtd">
<!-- Generated by graphviz version 2.40.1 (20161225.0304)
 -->
<!-- Title: app_main Pages: 1 -->
<svg width="531pt" height="28pt"
 viewBox="0.00 0.00 531.00 28.00" xmlns="http://www.w3.org/2000/svg" xmlns:xlink="http://www.w3.org/1999/xlink">
<g id="graph0" class="graph" transform="scale(1 1) rotate(0) translate(4 24)">
<title>app_main</title>
<polygon fill="#ffffff" stroke="transparent" points="-4,4 -4,-24 527,-24 527,4 -4,4"/>
<!-- Node0 -->
<g id="node1" class="node">
<title>Node0</title>
<polygon fill="#bfbfbf" stroke="#000000" points="0,-.5 0,-19.5 59,-19.5 59,-.5 0,-.5"/>
<text text-anchor="middle" x="29.5" y="-7.5" font-family="Helvetica,sans-Serif" font-size="10.00" fill="#000000">app_main</text>
</g>
<!-- Node1 -->
<g id="node2" class="node">
<title>Node1</title>
<g id="a_node2"><a xlink:href="../../d7/d36/ess__context_8h.html#ab105a63f0da1117385f72c8d6530023c" target="_top" xlink:title="initialisiert the context ">
<polygon fill="#ffffff" stroke="#000000" points="95,-.5 95,-19.5 197,-19.5 197,-.5 95,-.5"/>
<text text-anchor="middle" x="146" y="-7.5" font-family="Helvetica,sans-Serif" font-size="10.00" fill="#000000">ess_context_create</text>
</a>
</g>
</g>
<!-- Node0&#45;&gt;Node1 -->
<g id="edge1" class="edge">
<title>Node0&#45;&gt;Node1</title>
<path fill="none" stroke="#191970" d="M59.1993,-10C66.9519,-10 75.601,-10 84.3526,-10"/>
<polygon fill="#191970" stroke="#191970" points="84.6259,-13.5001 94.6259,-10 84.6259,-6.5001 84.6259,-13.5001"/>
</g>
<!-- Node2 -->
<g id="node3" class="node">
<title>Node2</title>
<g id="a_node3"><a xlink:href="../../de/dc0/ess__backend_8h.html#a37052d2bd2290bab5b09bae97dc72719" target="_top" xlink:title="get ess_error_t entry ">
<polygon fill="#ffffff" stroke="#000000" points="233,-.5 233,-19.5 371,-19.5 371,-.5 233,-.5"/>
<text text-anchor="middle" x="302" y="-7.5" font-family="Helvetica,sans-Serif" font-size="10.00" fill="#000000">ess_backend_get_by_name</text>
</a>
</g>
</g>
<!-- Node1&#45;&gt;Node2 -->
<g id="edge2" class="edge">
<title>Node1&#45;&gt;Node2</title>
<path fill="none" stroke="#191970" d="M197.0802,-10C205.3192,-10 214.0149,-10 222.7317,-10"/>
<polygon fill="#191970" stroke="#191970" points="222.9482,-13.5001 232.9481,-10 222.9481,-6.5001 222.9482,-13.5001"/>
</g>
<!-- Node3 -->
<g id="node4" class="node">
<title>Node3</title>
<g id="a_node4"><a xlink:href="../../d8/d50/ess__backend_8c.html#a6ba1bf553b596dd14d47748bec40bc9c" target="_top" xlink:title="get the size of backends ">
<polygon fill="#ffffff" stroke="#000000" points="407,-.5 407,-19.5 523,-19.5 523,-.5 407,-.5"/>
<text text-anchor="middle" x="465" y="-7.5" font-family="Helvetica,sans-Serif" font-size="10.00" fill="#000000">ess_backend_get_size</text>
</a>
</g>
</g>
<!-- Node2&#45;&gt;Node3 -->
<g id="edge3" class="edge">
<title>Node2&#45;&gt;Node3</title>
<path fill="none" stroke="#191970" d="M371.1267,-10C379.5778,-10 388.2107,-10 396.6504,-10"/>
<polygon fill="#191970" stroke="#191970" points="396.8239,-13.5001 406.8238,-10 396.8238,-6.5001 396.8239,-13.5001"/>
</g>
</g>
</svg>
