<?xml version="1.0" encoding="UTF-8" standalone="no"?>
<!DOCTYPE svg PUBLIC "-//W3C//DTD SVG 1.1//EN"
 "http://www.w3.org/Graphics/SVG/1.1/DTD/svg11.dtd">
<!-- Generated by graphviz version 2.40.1 (20161225.0304)
 -->
<!-- Title: ess_format_to_string Pages: 1 -->
<svg width="276pt" height="66pt"
 viewBox="0.00 0.00 276.00 66.00" xmlns="http://www.w3.org/2000/svg" xmlns:xlink="http://www.w3.org/1999/xlink">
<g id="graph0" class="graph" transform="scale(1 1) rotate(0) translate(4 62)">
<title>ess_format_to_string</title>
<polygon fill="#ffffff" stroke="transparent" points="-4,4 -4,-62 272,-62 272,4 -4,4"/>
<!-- Node7 -->
<g id="node1" class="node">
<title>Node7</title>
<polygon fill="#bfbfbf" stroke="#000000" points="0,-19.5 0,-38.5 108,-38.5 108,-19.5 0,-19.5"/>
<text text-anchor="middle" x="54" y="-26.5" font-family="Helvetica,sans-Serif" font-size="10.00" fill="#000000">ess_format_to_string</text>
</g>
<!-- Node8 -->
<g id="node2" class="node">
<title>Node8</title>
<g id="a_node2"><a xlink:href="../../d1/df2/null__backend_8c.html#a7803f75b72fc331857edf7116f6f5b93" target="_top" xlink:title="ess_backend_null_probe">
<polygon fill="#ffffff" stroke="#000000" points="144,-38.5 144,-57.5 268,-57.5 268,-38.5 144,-38.5"/>
<text text-anchor="middle" x="206" y="-45.5" font-family="Helvetica,sans-Serif" font-size="10.00" fill="#000000">ess_backend_null_probe</text>
</a>
</g>
</g>
<!-- Node7&#45;&gt;Node8 -->
<g id="edge1" class="edge">
<title>Node7&#45;&gt;Node8</title>
<path fill="none" stroke="#191970" d="M117.9597,-36.995C126.534,-38.0668 135.3182,-39.1648 143.8606,-40.2326"/>
<polygon fill="#191970" stroke="#191970" points="118.3744,-33.5196 108.0175,-35.7522 117.5061,-40.4656 118.3744,-33.5196"/>
</g>
<!-- Node9 -->
<g id="node3" class="node">
<title>Node9</title>
<g id="a_node3"><a xlink:href="../../d1/df2/null__backend_8c.html#aa97e6a9fc27e6df65b68bda236c763c7" target="_top" xlink:title="ess_backend_null_open">
<polygon fill="#ffffff" stroke="#000000" points="145.5,-.5 145.5,-19.5 266.5,-19.5 266.5,-.5 145.5,-.5"/>
<text text-anchor="middle" x="206" y="-7.5" font-family="Helvetica,sans-Serif" font-size="10.00" fill="#000000">ess_backend_null_open</text>
</a>
</g>
</g>
<!-- Node7&#45;&gt;Node9 -->
<g id="edge2" class="edge">
<title>Node7&#45;&gt;Node9</title>
<path fill="none" stroke="#191970" d="M118.1118,-20.986C127.1644,-19.8545 136.4477,-18.694 145.4308,-17.5712"/>
<polygon fill="#191970" stroke="#191970" points="117.5061,-17.5344 108.0175,-22.2478 118.3744,-24.4804 117.5061,-17.5344"/>
</g>
</g>
</svg>
