<?xml version="1.0" encoding="UTF-8" standalone="no"?>
<!DOCTYPE svg PUBLIC "-//W3C//DTD SVG 1.1//EN"
 "http://www.w3.org/Graphics/SVG/1.1/DTD/svg11.dtd">
<!-- Generated by graphviz version 2.40.1 (20161225.0304)
 -->
<!-- Title: include/ess_error.h Pages: 1 -->
<svg width="1415pt" height="207pt"
 viewBox="0.00 0.00 1415.00 207.00" xmlns="http://www.w3.org/2000/svg" xmlns:xlink="http://www.w3.org/1999/xlink">
<g id="graph0" class="graph" transform="scale(1 1) rotate(0) translate(4 203)">
<title>include/ess_error.h</title>
<polygon fill="#ffffff" stroke="transparent" points="-4,4 -4,-203 1411,-203 1411,4 -4,4"/>
<!-- Node1 -->
<g id="node1" class="node">
<title>Node1</title>
<polygon fill="#bfbfbf" stroke="#000000" points="893.5,-179.5 893.5,-198.5 992.5,-198.5 992.5,-179.5 893.5,-179.5"/>
<text text-anchor="middle" x="943" y="-186.5" font-family="Helvetica,sans-Serif" font-size="10.00" fill="#000000">include/ess_error.h</text>
</g>
<!-- Node2 -->
<g id="node2" class="node">
<title>Node2</title>
<g id="a_node2"><a xlink:href="../../de/dc0/ess__backend_8h.html" target="_top" xlink:title="include/ess_backend.h">
<polygon fill="#ffffff" stroke="#000000" points="375,-123.5 375,-142.5 491,-142.5 491,-123.5 375,-123.5"/>
<text text-anchor="middle" x="433" y="-130.5" font-family="Helvetica,sans-Serif" font-size="10.00" fill="#000000">include/ess_backend.h</text>
</a>
</g>
</g>
<!-- Node1&#45;&gt;Node2 -->
<g id="edge1" class="edge">
<title>Node1&#45;&gt;Node2</title>
<path fill="none" stroke="#191970" d="M883.0616,-182.4185C784.3368,-171.5782 588.7611,-150.1032 491.192,-139.3897"/>
<polygon fill="#191970" stroke="#191970" points="882.8482,-185.916 893.1705,-183.5285 883.6123,-178.9579 882.8482,-185.916"/>
</g>
<!-- Node7 -->
<g id="node7" class="node">
<title>Node7</title>
<g id="a_node7"><a xlink:href="../../d7/d36/ess__context_8h.html" target="_top" xlink:title="include/ess_context.h">
<polygon fill="#ffffff" stroke="#000000" points="565,-123.5 565,-142.5 677,-142.5 677,-123.5 565,-123.5"/>
<text text-anchor="middle" x="621" y="-130.5" font-family="Helvetica,sans-Serif" font-size="10.00" fill="#000000">include/ess_context.h</text>
</a>
</g>
</g>
<!-- Node1&#45;&gt;Node7 -->
<g id="edge6" class="edge">
<title>Node1&#45;&gt;Node7</title>
<path fill="none" stroke="#191970" d="M883.4039,-178.6355C823.9768,-168.3003 733.4629,-152.5588 675.7861,-142.528"/>
<polygon fill="#191970" stroke="#191970" points="882.9413,-182.1075 893.3932,-180.3727 884.1408,-175.211 882.9413,-182.1075"/>
</g>
<!-- Node11 -->
<g id="node11" class="node">
<title>Node11</title>
<g id="a_node11"><a xlink:href="../../d1/db7/ess__mutex_8h.html" target="_top" xlink:title="all platform specific mutex functions ">
<polygon fill="#ffffff" stroke="#000000" points="889.5,-123.5 889.5,-142.5 996.5,-142.5 996.5,-123.5 889.5,-123.5"/>
<text text-anchor="middle" x="943" y="-130.5" font-family="Helvetica,sans-Serif" font-size="10.00" fill="#000000">include/ess_mutex.h</text>
</a>
</g>
</g>
<!-- Node1&#45;&gt;Node11 -->
<g id="edge13" class="edge">
<title>Node1&#45;&gt;Node11</title>
<path fill="none" stroke="#191970" d="M943,-169.1575C943,-160.155 943,-149.9199 943,-142.6427"/>
<polygon fill="#191970" stroke="#191970" points="939.5001,-169.2455 943,-179.2455 946.5001,-169.2456 939.5001,-169.2455"/>
</g>
<!-- Node12 -->
<g id="node12" class="node">
<title>Node12</title>
<g id="a_node12"><a xlink:href="../../dc/df3/ess__task_8h.html" target="_top" xlink:title="include/ess_task.h">
<polygon fill="#ffffff" stroke="#000000" points="999,-62 999,-81 1097,-81 1097,-62 999,-62"/>
<text text-anchor="middle" x="1048" y="-69" font-family="Helvetica,sans-Serif" font-size="10.00" fill="#000000">include/ess_task.h</text>
</a>
</g>
</g>
<!-- Node1&#45;&gt;Node12 -->
<g id="edge23" class="edge">
<title>Node1&#45;&gt;Node12</title>
<path fill="none" stroke="#191970" d="M968.1358,-173.6712C980.1938,-165.5329 994.3052,-154.7845 1005,-143 1022.7169,-123.4779 1036.9762,-95.5754 1043.7394,-81.0755"/>
<polygon fill="#191970" stroke="#191970" points="965.8732,-170.968 959.4057,-179.3599 969.6948,-176.8328 965.8732,-170.968"/>
</g>
<!-- Node13 -->
<g id="node13" class="node">
<title>Node13</title>
<g id="a_node13"><a xlink:href="../../dc/d7b/ess__platform_8h.html" target="_top" xlink:title="all platform specific functions ">
<polygon fill="#ffffff" stroke="#000000" points="241.5,-123.5 241.5,-142.5 356.5,-142.5 356.5,-123.5 241.5,-123.5"/>
<text text-anchor="middle" x="299" y="-130.5" font-family="Helvetica,sans-Serif" font-size="10.00" fill="#000000">include/ess_platform.h</text>
</a>
</g>
</g>
<!-- Node1&#45;&gt;Node13 -->
<g id="edge15" class="edge">
<title>Node1&#45;&gt;Node13</title>
<path fill="none" stroke="#191970" d="M883.4229,-185.6025C778.5961,-179.323 554.4154,-164.5456 366,-143 362.962,-142.6526 359.85,-142.2726 356.7103,-141.8702"/>
<polygon fill="#191970" stroke="#191970" points="883.302,-189.1014 893.4922,-186.2015 883.7177,-182.1138 883.302,-189.1014"/>
</g>
<!-- Node15 -->
<g id="node15" class="node">
<title>Node15</title>
<g id="a_node15"><a xlink:href="../../d0/d20/ess__ringbuffer_8h.html" target="_top" xlink:title="all platform ringbuffer specific functions ">
<polygon fill="#ffffff" stroke="#000000" points="1053,-123.5 1053,-142.5 1173,-142.5 1173,-123.5 1053,-123.5"/>
<text text-anchor="middle" x="1113" y="-130.5" font-family="Helvetica,sans-Serif" font-size="10.00" fill="#000000">include/ess_ringbuffer.h</text>
</a>
</g>
</g>
<!-- Node1&#45;&gt;Node15 -->
<g id="edge18" class="edge">
<title>Node1&#45;&gt;Node15</title>
<path fill="none" stroke="#191970" d="M981.886,-176.1905C1013.0312,-165.9309 1056.0223,-151.7691 1084.1573,-142.5011"/>
<polygon fill="#191970" stroke="#191970" points="980.6269,-172.9202 972.224,-179.3733 982.8171,-179.5687 980.6269,-172.9202"/>
</g>
<!-- Node16 -->
<g id="node16" class="node">
<title>Node16</title>
<g id="a_node16"><a xlink:href="../../d8/da1/ess__socket_8h.html" target="_top" xlink:title="include/ess_socket.h">
<polygon fill="#ffffff" stroke="#000000" points="762.5,-123.5 762.5,-142.5 871.5,-142.5 871.5,-123.5 762.5,-123.5"/>
<text text-anchor="middle" x="817" y="-130.5" font-family="Helvetica,sans-Serif" font-size="10.00" fill="#000000">include/ess_socket.h</text>
</a>
</g>
</g>
<!-- Node1&#45;&gt;Node16 -->
<g id="edge19" class="edge">
<title>Node1&#45;&gt;Node16</title>
<path fill="none" stroke="#191970" d="M912.0564,-175.2473C889.1735,-165.0771 858.5986,-151.4883 838.3775,-142.5011"/>
<polygon fill="#191970" stroke="#191970" points="910.7802,-178.5102 921.3398,-179.3733 913.6232,-172.1135 910.7802,-178.5102"/>
</g>
<!-- Node18 -->
<g id="node18" class="node">
<title>Node18</title>
<g id="a_node18"><a xlink:href="../../da/dd0/ess__spinlock_8h.html" target="_top" xlink:title="all platform specific spinlock functions ">
<polygon fill="#ffffff" stroke="#000000" points="1191,-123.5 1191,-142.5 1307,-142.5 1307,-123.5 1191,-123.5"/>
<text text-anchor="middle" x="1249" y="-130.5" font-family="Helvetica,sans-Serif" font-size="10.00" fill="#000000">include/ess_spinlock.h</text>
</a>
</g>
</g>
<!-- Node1&#45;&gt;Node18 -->
<g id="edge22" class="edge">
<title>Node1&#45;&gt;Node18</title>
<path fill="none" stroke="#191970" d="M1002.3712,-178.1347C1058.8815,-167.7929 1143.0773,-152.3846 1197.0073,-142.515"/>
<polygon fill="#191970" stroke="#191970" points="1001.7108,-174.6973 992.5043,-179.9404 1002.971,-181.583 1001.7108,-174.6973"/>
</g>
<!-- Node19 -->
<g id="node19" class="node">
<title>Node19</title>
<g id="a_node19"><a xlink:href="../../d4/dbf/ess__error_8c.html" target="_top" xlink:title="src/ess_error.c">
<polygon fill="#ffffff" stroke="#000000" points="1325,-123.5 1325,-142.5 1407,-142.5 1407,-123.5 1325,-123.5"/>
<text text-anchor="middle" x="1366" y="-130.5" font-family="Helvetica,sans-Serif" font-size="10.00" fill="#000000">src/ess_error.c</text>
</a>
</g>
</g>
<!-- Node1&#45;&gt;Node19 -->
<g id="edge24" class="edge">
<title>Node1&#45;&gt;Node19</title>
<path fill="none" stroke="#191970" d="M1002.6804,-183.0292C1076.4914,-175.3252 1205.8791,-160.7769 1316,-143 1318.884,-142.5344 1321.8553,-142.0227 1324.8434,-141.4845"/>
<polygon fill="#191970" stroke="#191970" points="1002.2275,-179.5573 992.642,-184.0704 1002.9498,-186.5199 1002.2275,-179.5573"/>
</g>
<!-- Node3 -->
<g id="node3" class="node">
<title>Node3</title>
<g id="a_node3"><a xlink:href="../../d2/de0/esp32__probe__backends_8c.html" target="_top" xlink:title="examples/esp32_probe\l_backends.c">
<polygon fill="#ffffff" stroke="#000000" points="489.5,-56.5 489.5,-86.5 606.5,-86.5 606.5,-56.5 489.5,-56.5"/>
<text text-anchor="start" x="497.5" y="-74.5" font-family="Helvetica,sans-Serif" font-size="10.00" fill="#000000">examples/esp32_probe</text>
<text text-anchor="middle" x="548" y="-63.5" font-family="Helvetica,sans-Serif" font-size="10.00" fill="#000000">_backends.c</text>
</a>
</g>
</g>
<!-- Node2&#45;&gt;Node3 -->
<g id="edge2" class="edge">
<title>Node2&#45;&gt;Node3</title>
<path fill="none" stroke="#191970" d="M459.8195,-118.6574C477.8493,-109.0154 501.5703,-96.3298 519.8678,-86.5446"/>
<polygon fill="#191970" stroke="#191970" points="458.1364,-115.5884 450.9688,-123.3906 461.4375,-121.7611 458.1364,-115.5884"/>
</g>
<!-- Node4 -->
<g id="node4" class="node">
<title>Node4</title>
<g id="a_node4"><a xlink:href="../../d8/d50/ess__backend_8c.html" target="_top" xlink:title="src/ess_backend.c">
<polygon fill="#ffffff" stroke="#000000" points="259.5,-62 259.5,-81 358.5,-81 358.5,-62 259.5,-62"/>
<text text-anchor="middle" x="309" y="-69" font-family="Helvetica,sans-Serif" font-size="10.00" fill="#000000">src/ess_backend.c</text>
</a>
</g>
</g>
<!-- Node2&#45;&gt;Node4 -->
<g id="edge3" class="edge">
<title>Node2&#45;&gt;Node4</title>
<path fill="none" stroke="#191970" d="M404.5331,-118.8813C381.1482,-107.2832 348.66,-91.1701 328.2389,-81.0419"/>
<polygon fill="#191970" stroke="#191970" points="403.1112,-122.0829 413.625,-123.3906 406.2215,-115.8118 403.1112,-122.0829"/>
</g>
<!-- Node5 -->
<g id="node5" class="node">
<title>Node5</title>
<g id="a_node5"><a xlink:href="../../dc/d43/ess__context_8c.html" target="_top" xlink:title="src/ess_context.c">
<polygon fill="#ffffff" stroke="#000000" points="376.5,-62 376.5,-81 471.5,-81 471.5,-62 376.5,-62"/>
<text text-anchor="middle" x="424" y="-69" font-family="Helvetica,sans-Serif" font-size="10.00" fill="#000000">src/ess_context.c</text>
</a>
</g>
</g>
<!-- Node2&#45;&gt;Node5 -->
<g id="edge4" class="edge">
<title>Node2&#45;&gt;Node5</title>
<path fill="none" stroke="#191970" d="M430.1092,-113.2462C428.5442,-102.5519 426.6801,-89.814 425.4261,-81.2449"/>
<polygon fill="#191970" stroke="#191970" points="426.6826,-114.0028 431.5938,-123.3906 433.6088,-112.9892 426.6826,-114.0028"/>
</g>
<!-- Node6 -->
<g id="node6" class="node">
<title>Node6</title>
<g id="a_node6"><a xlink:href="../../d1/df2/null__backend_8c.html" target="_top" xlink:title="all generic backend null functions source cource ">
<polygon fill="#ffffff" stroke="#000000" points="116.5,-56.5 116.5,-86.5 241.5,-86.5 241.5,-56.5 116.5,-56.5"/>
<text text-anchor="start" x="124.5" y="-74.5" font-family="Helvetica,sans-Serif" font-size="10.00" fill="#000000">src/platform/generic</text>
<text text-anchor="middle" x="179" y="-63.5" font-family="Helvetica,sans-Serif" font-size="10.00" fill="#000000">/backend/null_backend.c</text>
</a>
</g>
</g>
<!-- Node2&#45;&gt;Node6 -->
<g id="edge5" class="edge">
<title>Node2&#45;&gt;Node6</title>
<path fill="none" stroke="#191970" d="M383.6457,-121.05C342.992,-111.2067 285.1125,-97.1926 241.2751,-86.5784"/>
<polygon fill="#191970" stroke="#191970" points="383.0484,-124.5065 393.5912,-123.4581 384.6957,-117.7031 383.0484,-124.5065"/>
</g>
<!-- Node7&#45;&gt;Node3 -->
<g id="edge8" class="edge">
<title>Node7&#45;&gt;Node3</title>
<path fill="none" stroke="#191970" d="M601.7276,-116.7637C590.6106,-107.398 576.7268,-95.7014 565.8578,-86.5446"/>
<polygon fill="#191970" stroke="#191970" points="599.6909,-119.6243 609.5938,-123.3906 604.201,-114.2709 599.6909,-119.6243"/>
</g>
<!-- Node7&#45;&gt;Node4 -->
<g id="edge11" class="edge">
<title>Node7&#45;&gt;Node4</title>
<path fill="none" stroke="#191970" d="M555.0006,-122.5723C503.5568,-114.0771 430.4469,-101.1979 367,-87 359.1681,-85.2474 350.8004,-83.1468 342.9277,-81.0662"/>
<polygon fill="#191970" stroke="#191970" points="554.5564,-126.0461 564.9912,-124.212 555.6901,-119.1385 554.5564,-126.0461"/>
</g>
<!-- Node7&#45;&gt;Node5 -->
<g id="edge12" class="edge">
<title>Node7&#45;&gt;Node5</title>
<path fill="none" stroke="#191970" d="M580.6392,-120.4001C543.2484,-108.7273 488.4502,-91.6202 454.5651,-81.0419"/>
<polygon fill="#191970" stroke="#191970" points="579.6301,-123.7515 590.2188,-123.3906 581.7161,-117.0696 579.6301,-123.7515"/>
</g>
<!-- Node8 -->
<g id="node8" class="node">
<title>Node8</title>
<g id="a_node8"><a xlink:href="../../df/dbb/esp32__create__context_8c.html" target="_top" xlink:title="examples/esp32_create\l_context.c">
<polygon fill="#ffffff" stroke="#000000" points="625,-56.5 625,-86.5 745,-86.5 745,-56.5 625,-56.5"/>
<text text-anchor="start" x="633" y="-74.5" font-family="Helvetica,sans-Serif" font-size="10.00" fill="#000000">examples/esp32_create</text>
<text text-anchor="middle" x="685" y="-63.5" font-family="Helvetica,sans-Serif" font-size="10.00" fill="#000000">_context.c</text>
</a>
</g>
</g>
<!-- Node7&#45;&gt;Node8 -->
<g id="edge7" class="edge">
<title>Node7&#45;&gt;Node8</title>
<path fill="none" stroke="#191970" d="M638.4724,-116.2101C648.1191,-106.9403 660.0017,-95.5218 669.3438,-86.5446"/>
<polygon fill="#191970" stroke="#191970" points="635.7854,-113.9381 631,-123.3906 640.6356,-118.9854 635.7854,-113.9381"/>
</g>
<!-- Node9 -->
<g id="node9" class="node">
<title>Node9</title>
<g id="a_node9"><a xlink:href="../../d6/de1/ess__server_8h.html" target="_top" xlink:title="include/ess_server.h">
<polygon fill="#ffffff" stroke="#000000" points="763.5,-62 763.5,-81 870.5,-81 870.5,-62 763.5,-62"/>
<text text-anchor="middle" x="817" y="-69" font-family="Helvetica,sans-Serif" font-size="10.00" fill="#000000">include/ess_server.h</text>
</a>
</g>
</g>
<!-- Node7&#45;&gt;Node9 -->
<g id="edge9" class="edge">
<title>Node7&#45;&gt;Node9</title>
<path fill="none" stroke="#191970" d="M661.6318,-120.2507C698.8206,-108.5818 753.0205,-91.5752 786.5901,-81.0419"/>
<polygon fill="#191970" stroke="#191970" points="660.1185,-117.0573 651.625,-123.3906 662.2142,-123.7362 660.1185,-117.0573"/>
</g>
<!-- Node10 -->
<g id="node10" class="node">
<title>Node10</title>
<g id="a_node10"><a xlink:href="../../d0/d9b/ess__server_8c.html" target="_top" xlink:title="src/ess_server.c">
<polygon fill="#ffffff" stroke="#000000" points="772.5,-.5 772.5,-19.5 861.5,-19.5 861.5,-.5 772.5,-.5"/>
<text text-anchor="middle" x="817" y="-7.5" font-family="Helvetica,sans-Serif" font-size="10.00" fill="#000000">src/ess_server.c</text>
</a>
</g>
</g>
<!-- Node9&#45;&gt;Node10 -->
<g id="edge10" class="edge">
<title>Node9&#45;&gt;Node10</title>
<path fill="none" stroke="#191970" d="M817,-51.7462C817,-41.0519 817,-28.314 817,-19.7449"/>
<polygon fill="#191970" stroke="#191970" points="813.5001,-51.8906 817,-61.8906 820.5001,-51.8907 813.5001,-51.8906"/>
</g>
<!-- Node11&#45;&gt;Node12 -->
<g id="edge14" class="edge">
<title>Node11&#45;&gt;Node12</title>
<path fill="none" stroke="#191970" d="M968.1684,-118.2585C987.8817,-106.7122 1014.7243,-90.99 1031.709,-81.0419"/>
<polygon fill="#191970" stroke="#191970" points="966.2662,-115.3164 959.4063,-123.3906 969.804,-121.3566 966.2662,-115.3164"/>
</g>
<!-- Node13&#45;&gt;Node4 -->
<g id="edge16" class="edge">
<title>Node13&#45;&gt;Node4</title>
<path fill="none" stroke="#191970" d="M302.212,-113.2462C303.9509,-102.5519 306.0221,-89.814 307.4155,-81.2449"/>
<polygon fill="#191970" stroke="#191970" points="298.7129,-112.9585 300.5625,-123.3906 305.6221,-114.082 298.7129,-112.9585"/>
</g>
<!-- Node14 -->
<g id="node14" class="node">
<title>Node14</title>
<g id="a_node14"><a xlink:href="../../d5/d24/esp32__platform_8c.html" target="_top" xlink:title="all esp32 platform functions source ">
<polygon fill="#ffffff" stroke="#000000" points="0,-56.5 0,-86.5 98,-86.5 98,-56.5 0,-56.5"/>
<text text-anchor="start" x="8" y="-74.5" font-family="Helvetica,sans-Serif" font-size="10.00" fill="#000000">src/platform/esp32</text>
<text text-anchor="middle" x="49" y="-63.5" font-family="Helvetica,sans-Serif" font-size="10.00" fill="#000000">/esp32_platform.c</text>
</a>
</g>
</g>
<!-- Node13&#45;&gt;Node14 -->
<g id="edge17" class="edge">
<title>Node13&#45;&gt;Node14</title>
<path fill="none" stroke="#191970" d="M247.7356,-121.0999C209.0097,-112.0178 154.5817,-99.0556 107,-87 104.07,-86.2576 101.0595,-85.4845 98.0244,-84.6972"/>
<polygon fill="#191970" stroke="#191970" points="247.1906,-124.5669 257.7252,-123.4383 248.7861,-117.7511 247.1906,-124.5669"/>
</g>
<!-- Node16&#45;&gt;Node9 -->
<g id="edge20" class="edge">
<title>Node16&#45;&gt;Node9</title>
<path fill="none" stroke="#191970" d="M817,-113.2462C817,-102.5519 817,-89.814 817,-81.2449"/>
<polygon fill="#191970" stroke="#191970" points="813.5001,-113.3906 817,-123.3906 820.5001,-113.3907 813.5001,-113.3906"/>
</g>
<!-- Node17 -->
<g id="node17" class="node">
<title>Node17</title>
<g id="a_node17"><a xlink:href="../../d7/d06/ess__socket_8c.html" target="_top" xlink:title="src/ess_socket.c">
<polygon fill="#ffffff" stroke="#000000" points="889,-62 889,-81 981,-81 981,-62 889,-62"/>
<text text-anchor="middle" x="935" y="-69" font-family="Helvetica,sans-Serif" font-size="10.00" fill="#000000">src/ess_socket.c</text>
</a>
</g>
</g>
<!-- Node16&#45;&gt;Node17 -->
<g id="edge21" class="edge">
<title>Node16&#45;&gt;Node17</title>
<path fill="none" stroke="#191970" d="M844.3867,-118.7264C866.6174,-107.1401 897.3454,-91.1251 916.692,-81.0419"/>
<polygon fill="#191970" stroke="#191970" points="842.6877,-115.665 835.4375,-123.3906 845.923,-121.8725 842.6877,-115.665"/>
</g>
</g>
</svg>
