<?xml version="1.0" encoding="UTF-8" standalone="no"?>
<!DOCTYPE svg PUBLIC "-//W3C//DTD SVG 1.1//EN"
 "http://www.w3.org/Graphics/SVG/1.1/DTD/svg11.dtd">
<!-- Generated by graphviz version 2.40.1 (20161225.0304)
 -->
<!-- Title: app_main Pages: 1 -->
<svg width="371pt" height="151pt"
 viewBox="0.00 0.00 371.00 151.00" xmlns="http://www.w3.org/2000/svg" xmlns:xlink="http://www.w3.org/1999/xlink">
<g id="graph0" class="graph" transform="scale(1 1) rotate(0) translate(4 147)">
<title>app_main</title>
<polygon fill="#ffffff" stroke="transparent" points="-4,4 -4,-147 367,-147 367,4 -4,4"/>
<!-- Node0 -->
<g id="node1" class="node">
<title>Node0</title>
<polygon fill="#bfbfbf" stroke="#000000" points="0,-79.5 0,-98.5 59,-98.5 59,-79.5 0,-79.5"/>
<text text-anchor="middle" x="29.5" y="-86.5" font-family="Helvetica,sans-Serif" font-size="10.00" fill="#000000">app_main</text>
</g>
<!-- Node1 -->
<g id="node2" class="node">
<title>Node1</title>
<g id="a_node2"><a xlink:href="../../de/dc0/ess__backend_8h.html#a6ba1bf553b596dd14d47748bec40bc9c" target="_top" xlink:title="get the size of backends ">
<polygon fill="#ffffff" stroke="#000000" points="95,-123.5 95,-142.5 211,-142.5 211,-123.5 95,-123.5"/>
<text text-anchor="middle" x="153" y="-130.5" font-family="Helvetica,sans-Serif" font-size="10.00" fill="#000000">ess_backend_get_size</text>
</a>
</g>
</g>
<!-- Node0&#45;&gt;Node1 -->
<g id="edge1" class="edge">
<title>Node0&#45;&gt;Node1</title>
<path fill="none" stroke="#191970" d="M53.6601,-98.5393C65.9805,-103.3228 81.233,-109.1209 95,-114 100.7583,-116.0408 106.8648,-118.126 112.8706,-120.1323"/>
<polygon fill="#191970" stroke="#191970" points="112.2105,-123.6001 122.8036,-123.4121 114.4054,-116.9531 112.2105,-123.6001"/>
</g>
<!-- Node2 -->
<g id="node3" class="node">
<title>Node2</title>
<g id="a_node3"><a xlink:href="../../de/dc0/ess__backend_8h.html#a05e69e3798aee93680d0a024d444212d" target="_top" xlink:title="get ess_error_t entry ">
<polygon fill="#ffffff" stroke="#000000" points="98.5,-74 98.5,-104 207.5,-104 207.5,-74 98.5,-74"/>
<text text-anchor="start" x="106.5" y="-92" font-family="Helvetica,sans-Serif" font-size="10.00" fill="#000000">ess_backend_get_by</text>
<text text-anchor="middle" x="153" y="-81" font-family="Helvetica,sans-Serif" font-size="10.00" fill="#000000">_index</text>
</a>
</g>
</g>
<!-- Node0&#45;&gt;Node2 -->
<g id="edge2" class="edge">
<title>Node0&#45;&gt;Node2</title>
<path fill="none" stroke="#191970" d="M59.0813,-89C67.8586,-89 77.839,-89 87.9378,-89"/>
<polygon fill="#191970" stroke="#191970" points="88.036,-92.5001 98.036,-89 88.0359,-85.5001 88.036,-92.5001"/>
</g>
<!-- Node4 -->
<g id="node5" class="node">
<title>Node4</title>
<g id="a_node5"><a xlink:href="../../d2/de0/esp32__probe__backends_8c.html#ae7d1698df37e2015be52c4216ca36129" target="_top" xlink:title="probe the given backend ">
<polygon fill="#ffffff" stroke="#000000" points="111.5,-35.5 111.5,-54.5 194.5,-54.5 194.5,-35.5 111.5,-35.5"/>
<text text-anchor="middle" x="153" y="-42.5" font-family="Helvetica,sans-Serif" font-size="10.00" fill="#000000">probe_backend</text>
</a>
</g>
</g>
<!-- Node0&#45;&gt;Node4 -->
<g id="edge4" class="edge">
<title>Node0&#45;&gt;Node4</title>
<path fill="none" stroke="#191970" d="M55.2795,-79.4247C67.3269,-74.9832 81.8774,-69.6662 95,-65 101.5405,-62.6743 108.5098,-60.2366 115.2657,-57.8946"/>
<polygon fill="#191970" stroke="#191970" points="116.6261,-61.1277 124.9365,-54.5559 114.3417,-54.5109 116.6261,-61.1277"/>
</g>
<!-- Node3 -->
<g id="node4" class="node">
<title>Node3</title>
<g id="a_node4"><a xlink:href="../../d8/d50/ess__backend_8c.html#a6ba1bf553b596dd14d47748bec40bc9c" target="_top" xlink:title="get the size of backends ">
<polygon fill="#ffffff" stroke="#000000" points="247,-79.5 247,-98.5 363,-98.5 363,-79.5 247,-79.5"/>
<text text-anchor="middle" x="305" y="-86.5" font-family="Helvetica,sans-Serif" font-size="10.00" fill="#000000">ess_backend_get_size</text>
</a>
</g>
</g>
<!-- Node2&#45;&gt;Node3 -->
<g id="edge3" class="edge">
<title>Node2&#45;&gt;Node3</title>
<path fill="none" stroke="#191970" d="M207.8755,-89C217.2793,-89 227.1518,-89 236.8519,-89"/>
<polygon fill="#191970" stroke="#191970" points="236.8712,-92.5001 246.8711,-89 236.8711,-85.5001 236.8712,-92.5001"/>
</g>
<!-- Node5 -->
<g id="node6" class="node">
<title>Node5</title>
<g id="a_node6"><a xlink:href="../../de/dc0/ess__backend_8h.html#af8adb16ee5aa757492d0cd9b59ed47e7" target="_top" xlink:title="checked the backend ">
<polygon fill="#ffffff" stroke="#000000" points="253,-38.5 253,-57.5 357,-57.5 357,-38.5 253,-38.5"/>
<text text-anchor="middle" x="305" y="-45.5" font-family="Helvetica,sans-Serif" font-size="10.00" fill="#000000">ess_backend_probe</text>
</a>
</g>
</g>
<!-- Node4&#45;&gt;Node5 -->
<g id="edge5" class="edge">
<title>Node4&#45;&gt;Node5</title>
<path fill="none" stroke="#191970" d="M194.5347,-45.8198C209.4569,-46.1143 226.6282,-46.4532 242.9165,-46.7747"/>
<polygon fill="#191970" stroke="#191970" points="242.849,-50.2739 252.9162,-46.972 242.9872,-43.2753 242.849,-50.2739"/>
</g>
<!-- Node6 -->
<g id="node7" class="node">
<title>Node6</title>
<g id="a_node7"><a xlink:href="../../d7/d35/ess__format_8h.html#af281a1ccc7baa8074d7277c065d879e8" target="_top" xlink:title="Help to get the string of the format. ">
<polygon fill="#ffffff" stroke="#000000" points="251,-.5 251,-19.5 359,-19.5 359,-.5 251,-.5"/>
<text text-anchor="middle" x="305" y="-7.5" font-family="Helvetica,sans-Serif" font-size="10.00" fill="#000000">ess_format_to_string</text>
</a>
</g>
</g>
<!-- Node4&#45;&gt;Node6 -->
<g id="edge6" class="edge">
<title>Node4&#45;&gt;Node6</title>
<path fill="none" stroke="#191970" d="M194.5347,-35.4361C212.7985,-31.2306 234.4313,-26.2494 253.6908,-21.8146"/>
<polygon fill="#191970" stroke="#191970" points="254.556,-25.2071 263.5156,-19.5523 252.9852,-18.3856 254.556,-25.2071"/>
</g>
</g>
</svg>
