<?xml version="1.0" encoding="UTF-8" standalone="no"?>
<!DOCTYPE svg PUBLIC "-//W3C//DTD SVG 1.1//EN"
 "http://www.w3.org/Graphics/SVG/1.1/DTD/svg11.dtd">
<!-- Generated by graphviz version 2.40.1 (20161225.0304)
 -->
<!-- Title: probe_backend Pages: 1 -->
<svg width="235pt" height="66pt"
 viewBox="0.00 0.00 235.00 66.00" xmlns="http://www.w3.org/2000/svg" xmlns:xlink="http://www.w3.org/1999/xlink">
<g id="graph0" class="graph" transform="scale(1 1) rotate(0) translate(4 62)">
<title>probe_backend</title>
<polygon fill="#ffffff" stroke="transparent" points="-4,4 -4,-62 231,-62 231,4 -4,4"/>
<!-- Node8 -->
<g id="node1" class="node">
<title>Node8</title>
<polygon fill="#bfbfbf" stroke="#000000" points="0,-19.5 0,-38.5 83,-38.5 83,-19.5 0,-19.5"/>
<text text-anchor="middle" x="41.5" y="-26.5" font-family="Helvetica,sans-Serif" font-size="10.00" fill="#000000">probe_backend</text>
</g>
<!-- Node9 -->
<g id="node2" class="node">
<title>Node9</title>
<g id="a_node2"><a xlink:href="../../de/dc0/ess__backend_8h.html#af8adb16ee5aa757492d0cd9b59ed47e7" target="_top" xlink:title="checked the backend ">
<polygon fill="#ffffff" stroke="#000000" points="121,-38.5 121,-57.5 225,-57.5 225,-38.5 121,-38.5"/>
<text text-anchor="middle" x="173" y="-45.5" font-family="Helvetica,sans-Serif" font-size="10.00" fill="#000000">ess_backend_probe</text>
</a>
</g>
</g>
<!-- Node8&#45;&gt;Node9 -->
<g id="edge1" class="edge">
<title>Node8&#45;&gt;Node9</title>
<path fill="none" stroke="#191970" d="M83.1074,-35.0117C91.8382,-36.2732 101.2285,-37.63 110.531,-38.9741"/>
<polygon fill="#191970" stroke="#191970" points="110.1576,-42.4564 120.5553,-40.4224 111.1587,-35.5283 110.1576,-42.4564"/>
</g>
<!-- Node10 -->
<g id="node3" class="node">
<title>Node10</title>
<g id="a_node3"><a xlink:href="../../d7/d35/ess__format_8h.html#af281a1ccc7baa8074d7277c065d879e8" target="_top" xlink:title="Help to get the string of the format. ">
<polygon fill="#ffffff" stroke="#000000" points="119,-.5 119,-19.5 227,-19.5 227,-.5 119,-.5"/>
<text text-anchor="middle" x="173" y="-7.5" font-family="Helvetica,sans-Serif" font-size="10.00" fill="#000000">ess_format_to_string</text>
</a>
</g>
</g>
<!-- Node8&#45;&gt;Node10 -->
<g id="edge2" class="edge">
<title>Node8&#45;&gt;Node10</title>
<path fill="none" stroke="#191970" d="M83.1074,-22.9883C91.2198,-21.8162 99.9015,-20.5618 108.5532,-19.3117"/>
<polygon fill="#191970" stroke="#191970" points="109.263,-22.7456 118.6597,-17.8514 108.2619,-15.8175 109.263,-22.7456"/>
</g>
</g>
</svg>
