<?xml version="1.0" encoding="UTF-8" standalone="no"?>
<!DOCTYPE svg PUBLIC "-//W3C//DTD SVG 1.1//EN"
 "http://www.w3.org/Graphics/SVG/1.1/DTD/svg11.dtd">
<!-- Generated by graphviz version 2.40.1 (20161225.0304)
 -->
<!-- Title: ess_context_create Pages: 1 -->
<svg width="402pt" height="28pt"
 viewBox="0.00 0.00 402.00 28.00" xmlns="http://www.w3.org/2000/svg" xmlns:xlink="http://www.w3.org/1999/xlink">
<g id="graph0" class="graph" transform="scale(1 1) rotate(0) translate(4 24)">
<title>ess_context_create</title>
<polygon fill="#ffffff" stroke="transparent" points="-4,4 -4,-24 398,-24 398,4 -4,4"/>
<!-- Node3 -->
<g id="node1" class="node">
<title>Node3</title>
<polygon fill="#bfbfbf" stroke="#000000" points="0,-.5 0,-19.5 102,-19.5 102,-.5 0,-.5"/>
<text text-anchor="middle" x="51" y="-7.5" font-family="Helvetica,sans-Serif" font-size="10.00" fill="#000000">ess_context_create</text>
</g>
<!-- Node4 -->
<g id="node2" class="node">
<title>Node4</title>
<g id="a_node2"><a xlink:href="../../de/dc0/ess__backend_8h.html#a9da07e785f1062832e5b0eadae2fd1b1" target="_top" xlink:title="checked the backend with the specified name and returns it if successful. ">
<polygon fill="#ffffff" stroke="#000000" points="138,-.5 138,-19.5 242,-19.5 242,-.5 138,-.5"/>
<text text-anchor="middle" x="190" y="-7.5" font-family="Helvetica,sans-Serif" font-size="10.00" fill="#000000">ess_backend_probe</text>
</a>
</g>
</g>
<!-- Node3&#45;&gt;Node4 -->
<g id="edge1" class="edge">
<title>Node3&#45;&gt;Node4</title>
<path fill="none" stroke="#191970" d="M102.3635,-10C110.6107,-10 119.2242,-10 127.6936,-10"/>
<polygon fill="#191970" stroke="#191970" points="127.9187,-13.5001 137.9187,-10 127.9187,-6.5001 127.9187,-13.5001"/>
</g>
<!-- Node5 -->
<g id="node3" class="node">
<title>Node5</title>
<g id="a_node3"><a xlink:href="../../d8/d50/ess__backend_8c.html#a6ba1bf553b596dd14d47748bec40bc9c" target="_top" xlink:title="get the size of using backends ">
<polygon fill="#ffffff" stroke="#000000" points="278,-.5 278,-19.5 394,-19.5 394,-.5 278,-.5"/>
<text text-anchor="middle" x="336" y="-7.5" font-family="Helvetica,sans-Serif" font-size="10.00" fill="#000000">ess_backend_get_size</text>
</a>
</g>
</g>
<!-- Node4&#45;&gt;Node5 -->
<g id="edge2" class="edge">
<title>Node4&#45;&gt;Node5</title>
<path fill="none" stroke="#191970" d="M242.297,-10C250.5892,-10 259.2699,-10 267.8605,-10"/>
<polygon fill="#191970" stroke="#191970" points="267.875,-13.5001 277.875,-10 267.8749,-6.5001 267.875,-13.5001"/>
</g>
</g>
</svg>
