<?xml version="1.0" encoding="UTF-8" standalone="no"?>
<!DOCTYPE svg PUBLIC "-//W3C//DTD SVG 1.1//EN"
 "http://www.w3.org/Graphics/SVG/1.1/DTD/svg11.dtd">
<!-- Generated by graphviz version 2.40.1 (20161225.0304)
 -->
<!-- Title: ess_context_init Pages: 1 -->
<svg width="388pt" height="66pt"
 viewBox="0.00 0.00 388.00 66.00" xmlns="http://www.w3.org/2000/svg" xmlns:xlink="http://www.w3.org/1999/xlink">
<g id="graph0" class="graph" transform="scale(1 1) rotate(0) translate(4 62)">
<title>ess_context_init</title>
<polygon fill="#ffffff" stroke="transparent" points="-4,4 -4,-62 384,-62 384,4 -4,4"/>
<!-- Node14 -->
<g id="node1" class="node">
<title>Node14</title>
<polygon fill="#bfbfbf" stroke="#000000" points="0,-19.5 0,-38.5 88,-38.5 88,-19.5 0,-19.5"/>
<text text-anchor="middle" x="44" y="-26.5" font-family="Helvetica,sans-Serif" font-size="10.00" fill="#000000">ess_context_init</text>
</g>
<!-- Node15 -->
<g id="node2" class="node">
<title>Node15</title>
<g id="a_node2"><a xlink:href="../../de/dc0/ess__backend_8h.html#a9da07e785f1062832e5b0eadae2fd1b1" target="_top" xlink:title="checked the backend with the specified name and returns it if successful. ">
<polygon fill="#ffffff" stroke="#000000" points="124,-38.5 124,-57.5 228,-57.5 228,-38.5 124,-38.5"/>
<text text-anchor="middle" x="176" y="-45.5" font-family="Helvetica,sans-Serif" font-size="10.00" fill="#000000">ess_backend_probe</text>
</a>
</g>
</g>
<!-- Node14&#45;&gt;Node15 -->
<g id="edge1" class="edge">
<title>Node14&#45;&gt;Node15</title>
<path fill="none" stroke="#191970" d="M88.3213,-35.3796C96.5038,-36.5574 105.1864,-37.8071 113.7832,-39.0446"/>
<polygon fill="#191970" stroke="#191970" points="113.4038,-42.5259 123.8005,-40.4864 114.4012,-35.5973 113.4038,-42.5259"/>
</g>
<!-- Node17 -->
<g id="node4" class="node">
<title>Node17</title>
<g id="a_node4"><a xlink:href="../../dc/d43/ess__context_8c.html#a26ae0093adaa4a6945fed6cfd31d4ae7" target="_top" xlink:title="initialisiert the context with a user backend ">
<polygon fill="#ffffff" stroke="#000000" points="124,-.5 124,-19.5 228,-19.5 228,-.5 124,-.5"/>
<text text-anchor="middle" x="176" y="-7.5" font-family="Helvetica,sans-Serif" font-size="10.00" fill="#000000">ess_context_init_ex</text>
</a>
</g>
</g>
<!-- Node14&#45;&gt;Node17 -->
<g id="edge3" class="edge">
<title>Node14&#45;&gt;Node17</title>
<path fill="none" stroke="#191970" d="M88.3213,-22.6204C96.5038,-21.4426 105.1864,-20.1929 113.7832,-18.9554"/>
<polygon fill="#191970" stroke="#191970" points="114.4012,-22.4027 123.8005,-17.5136 113.4038,-15.4741 114.4012,-22.4027"/>
</g>
<!-- Node16 -->
<g id="node3" class="node">
<title>Node16</title>
<g id="a_node3"><a xlink:href="../../d8/d50/ess__backend_8c.html#a6ba1bf553b596dd14d47748bec40bc9c" target="_top" xlink:title="get the size of using backends ">
<polygon fill="#ffffff" stroke="#000000" points="264,-38.5 264,-57.5 380,-57.5 380,-38.5 264,-38.5"/>
<text text-anchor="middle" x="322" y="-45.5" font-family="Helvetica,sans-Serif" font-size="10.00" fill="#000000">ess_backend_get_size</text>
</a>
</g>
</g>
<!-- Node15&#45;&gt;Node16 -->
<g id="edge2" class="edge">
<title>Node15&#45;&gt;Node16</title>
<path fill="none" stroke="#191970" d="M228.297,-48C236.5892,-48 245.2699,-48 253.8605,-48"/>
<polygon fill="#191970" stroke="#191970" points="253.875,-51.5001 263.875,-48 253.8749,-44.5001 253.875,-51.5001"/>
</g>
</g>
</svg>
