<?xml version="1.0" encoding="UTF-8" standalone="no"?>
<!DOCTYPE svg PUBLIC "-//W3C//DTD SVG 1.1//EN"
 "http://www.w3.org/Graphics/SVG/1.1/DTD/svg11.dtd">
<!-- Generated by graphviz version 2.40.1 (20161225.0304)
 -->
<!-- Title: src/platform/generic/backend/udp_backend.c Pages: 1 -->
<svg width="152pt" height="95pt"
 viewBox="0.00 0.00 151.50 95.00" xmlns="http://www.w3.org/2000/svg" xmlns:xlink="http://www.w3.org/1999/xlink">
<g id="graph0" class="graph" transform="scale(1 1) rotate(0) translate(4 91)">
<title>src/platform/generic/backend/udp_backend.c</title>
<polygon fill="#ffffff" stroke="transparent" points="-4,4 -4,-91 147.5,-91 147.5,4 -4,4"/>
<!-- Node0 -->
<g id="node1" class="node">
<title>Node0</title>
<polygon fill="#bfbfbf" stroke="#000000" points="14.5,-56.5 14.5,-86.5 139.5,-86.5 139.5,-56.5 14.5,-56.5"/>
<text text-anchor="start" x="22.5" y="-74.5" font-family="Helvetica,sans-Serif" font-size="10.00" fill="#000000">src/platform/generic</text>
<text text-anchor="middle" x="77" y="-63.5" font-family="Helvetica,sans-Serif" font-size="10.00" fill="#000000">/backend/udp_backend.c</text>
</g>
<!-- Node1 -->
<g id="node2" class="node">
<title>Node1</title>
<g id="a_node2"><a xlink:href="../../d7/d35/ess__format_8h.html" target="_top" xlink:title="ess_format.h">
<polygon fill="#ffffff" stroke="#000000" points="0,-.5 0,-19.5 74,-19.5 74,-.5 0,-.5"/>
<text text-anchor="middle" x="37" y="-7.5" font-family="Helvetica,sans-Serif" font-size="10.00" fill="#000000">ess_format.h</text>
</a>
</g>
</g>
<!-- Node0&#45;&gt;Node1 -->
<g id="edge1" class="edge">
<title>Node0&#45;&gt;Node1</title>
<path fill="none" stroke="#191970" d="M67.1124,-56.2977C61.6178,-47.8498 54.7414,-37.2773 48.9473,-28.369"/>
<polygon fill="#191970" stroke="#191970" points="51.7908,-26.3215 43.4045,-19.8469 45.9228,-30.1381 51.7908,-26.3215"/>
</g>
<!-- Node2 -->
<g id="node3" class="node">
<title>Node2</title>
<g id="a_node3"><a xlink:href="../../db/d16/config_8h.html" target="_top" xlink:title="File containing configurations. ">
<polygon fill="#ffffff" stroke="#000000" points="92.5,-.5 92.5,-19.5 143.5,-19.5 143.5,-.5 92.5,-.5"/>
<text text-anchor="middle" x="118" y="-7.5" font-family="Helvetica,sans-Serif" font-size="10.00" fill="#000000">config.h</text>
</a>
</g>
</g>
<!-- Node0&#45;&gt;Node2 -->
<g id="edge2" class="edge">
<title>Node0&#45;&gt;Node2</title>
<path fill="none" stroke="#191970" d="M87.1348,-56.2977C92.7668,-47.8498 99.8151,-37.2773 105.754,-28.369"/>
<polygon fill="#191970" stroke="#191970" points="108.8005,-30.1089 111.4354,-19.8469 102.9762,-26.226 108.8005,-30.1089"/>
</g>
</g>
</svg>
