<?xml version="1.0" encoding="UTF-8" standalone="no"?>
<!DOCTYPE svg PUBLIC "-//W3C//DTD SVG 1.1//EN"
 "http://www.w3.org/Graphics/SVG/1.1/DTD/svg11.dtd">
<!-- Generated by graphviz version 2.40.1 (20161225.0304)
 -->
<!-- Title: ess_platform_task Pages: 1 -->
<svg width="134pt" height="128pt"
 viewBox="0.00 0.00 133.50 128.00" xmlns="http://www.w3.org/2000/svg" xmlns:xlink="http://www.w3.org/1999/xlink">
<g id="graph0" class="graph" transform="scale(1 1) rotate(0) translate(4 124)">
<title>ess_platform_task</title>
<polygon fill="#ffffff" stroke="transparent" points="-4,4 -4,-124 129.5,-124 129.5,4 -4,4"/>
<!-- Node1 -->
<g id="node1" class="node">
<title>Node1</title>
<polygon fill="#bfbfbf" stroke="#000000" points="4,-.5 4,-19.5 101,-19.5 101,-.5 4,-.5"/>
<text text-anchor="middle" x="52.5" y="-7.5" font-family="Helvetica,sans-Serif" font-size="10.00" fill="#000000">ess_platform_task</text>
</g>
<!-- Node2 -->
<g id="node2" class="node">
<title>Node2</title>
<g id="a_node2"><a xlink:href="../../d3/dfd/structess__platform__mutex.html" target="_top" xlink:title="ess_platform_mutex">
<polygon fill="#ffffff" stroke="#000000" points="0,-100.5 0,-119.5 105,-119.5 105,-100.5 0,-100.5"/>
<text text-anchor="middle" x="52.5" y="-107.5" font-family="Helvetica,sans-Serif" font-size="10.00" fill="#000000">ess_platform_mutex</text>
</a>
</g>
</g>
<!-- Node2&#45;&gt;Node1 -->
<g id="edge1" class="edge">
<title>Node2&#45;&gt;Node1</title>
<path fill="none" stroke="#9a32cd" stroke-dasharray="5,2" d="M52.5,-90.2332C52.5,-68.9448 52.5,-35.9485 52.5,-19.7063"/>
<polygon fill="#9a32cd" stroke="#9a32cd" points="49.0001,-90.4115 52.5,-100.4116 56.0001,-90.4116 49.0001,-90.4115"/>
<text text-anchor="middle" x="89" y="-74" font-family="Helvetica,sans-Serif" font-size="10.00" fill="#000000"> continuemutex2</text>
<text text-anchor="middle" x="89" y="-63" font-family="Helvetica,sans-Serif" font-size="10.00" fill="#000000">continuemutex</text>
<text text-anchor="middle" x="89" y="-52" font-family="Helvetica,sans-Serif" font-size="10.00" fill="#000000">contextMutext</text>
<text text-anchor="middle" x="89" y="-41" font-family="Helvetica,sans-Serif" font-size="10.00" fill="#000000">runningMutex</text>
</g>
</g>
</svg>
