<?xml version="1.0" encoding="UTF-8" standalone="no"?>
<!DOCTYPE svg PUBLIC "-//W3C//DTD SVG 1.1//EN"
 "http://www.w3.org/Graphics/SVG/1.1/DTD/svg11.dtd">
<!-- Generated by graphviz version 2.40.1 (20161225.0304)
 -->
<!-- Title: include/ess_format.h Pages: 1 -->
<svg width="822pt" height="229pt"
 viewBox="0.00 0.00 822.00 229.00" xmlns="http://www.w3.org/2000/svg" xmlns:xlink="http://www.w3.org/1999/xlink">
<g id="graph0" class="graph" transform="scale(1 1) rotate(0) translate(4 225)">
<title>include/ess_format.h</title>
<polygon fill="#ffffff" stroke="transparent" points="-4,4 -4,-225 818,-225 818,4 -4,4"/>
<!-- Node1 -->
<g id="node1" class="node">
<title>Node1</title>
<polygon fill="#bfbfbf" stroke="#000000" points="298,-201.5 298,-220.5 405,-220.5 405,-201.5 298,-201.5"/>
<text text-anchor="middle" x="351.5" y="-208.5" font-family="Helvetica,sans-Serif" font-size="10.00" fill="#000000">include/ess_format.h</text>
</g>
<!-- Node2 -->
<g id="node2" class="node">
<title>Node2</title>
<g id="a_node2"><a xlink:href="../../da/dfe/ess_8h.html" target="_top" xlink:title="include/ess.h">
<polygon fill="#ffffff" stroke="#000000" points="155.5,-134.5 155.5,-153.5 229.5,-153.5 229.5,-134.5 155.5,-134.5"/>
<text text-anchor="middle" x="192.5" y="-141.5" font-family="Helvetica,sans-Serif" font-size="10.00" fill="#000000">include/ess.h</text>
</a>
</g>
</g>
<!-- Node1&#45;&gt;Node2 -->
<g id="edge1" class="edge">
<title>Node1&#45;&gt;Node2</title>
<path fill="none" stroke="#191970" d="M319.2535,-197.4118C288.3498,-184.3895 242.4935,-165.0664 215.2386,-153.5817"/>
<polygon fill="#191970" stroke="#191970" points="318.1448,-200.7427 328.7192,-201.4005 320.863,-194.292 318.1448,-200.7427"/>
</g>
<!-- Node6 -->
<g id="node6" class="node">
<title>Node6</title>
<g id="a_node6"><a xlink:href="../../d1/df2/null__backend_8c.html" target="_top" xlink:title="all generic backend null functions source cource ">
<polygon fill="#ffffff" stroke="#000000" points="230,-.5 230,-30.5 355,-30.5 355,-.5 230,-.5"/>
<text text-anchor="start" x="238" y="-18.5" font-family="Helvetica,sans-Serif" font-size="10.00" fill="#000000">src/platform/generic</text>
<text text-anchor="middle" x="292.5" y="-7.5" font-family="Helvetica,sans-Serif" font-size="10.00" fill="#000000">/backend/null_backend.c</text>
</a>
</g>
</g>
<!-- Node1&#45;&gt;Node6 -->
<g id="edge13" class="edge">
<title>Node1&#45;&gt;Node6</title>
<path fill="none" stroke="#191970" d="M325.6108,-195.8376C314.8988,-188.0819 303.5782,-177.6043 297.5,-165 275.955,-120.322 283.7759,-59.0919 289.1364,-30.8788"/>
<polygon fill="#191970" stroke="#191970" points="323.7104,-198.7774 333.9594,-201.4625 327.6218,-192.9721 323.7104,-198.7774"/>
</g>
<!-- Node7 -->
<g id="node7" class="node">
<title>Node7</title>
<g id="a_node7"><a xlink:href="../../d7/d36/ess__context_8h.html" target="_top" xlink:title="include/ess_context.h">
<polygon fill="#ffffff" stroke="#000000" points="4.5,-67.5 4.5,-86.5 116.5,-86.5 116.5,-67.5 4.5,-67.5"/>
<text text-anchor="middle" x="60.5" y="-74.5" font-family="Helvetica,sans-Serif" font-size="10.00" fill="#000000">include/ess_context.h</text>
</a>
</g>
</g>
<!-- Node1&#45;&gt;Node7 -->
<g id="edge9" class="edge">
<title>Node1&#45;&gt;Node7</title>
<path fill="none" stroke="#191970" d="M287.4002,-206.1144C245.1859,-200.682 189.9067,-189.2123 146.5,-165 110.4942,-144.9159 79.8982,-105.0979 67.0198,-86.7163"/>
<polygon fill="#191970" stroke="#191970" points="287.2149,-209.6173 297.5618,-207.3388 288.0523,-202.6676 287.2149,-209.6173"/>
</g>
<!-- Node8 -->
<g id="node8" class="node">
<title>Node8</title>
<g id="a_node8"><a xlink:href="../../de/d96/ess__format_8c.html" target="_top" xlink:title="src/ess_format.c">
<polygon fill="#ffffff" stroke="#000000" points="306.5,-134.5 306.5,-153.5 396.5,-153.5 396.5,-134.5 306.5,-134.5"/>
<text text-anchor="middle" x="351.5" y="-141.5" font-family="Helvetica,sans-Serif" font-size="10.00" fill="#000000">src/ess_format.c</text>
</a>
</g>
</g>
<!-- Node1&#45;&gt;Node8 -->
<g id="edge10" class="edge">
<title>Node1&#45;&gt;Node8</title>
<path fill="none" stroke="#191970" d="M351.5,-191.1079C351.5,-178.714 351.5,-163.3263 351.5,-153.5817"/>
<polygon fill="#191970" stroke="#191970" points="348.0001,-191.4005 351.5,-201.4005 355.0001,-191.4006 348.0001,-191.4005"/>
</g>
<!-- Node9 -->
<g id="node9" class="node">
<title>Node9</title>
<g id="a_node9"><a xlink:href="../../d3/d85/i2s__gerneric__backend_8c.html" target="_top" xlink:title="all esp32 backend generic_i2s functions source ">
<polygon fill="#ffffff" stroke="#000000" points="414.5,-123.5 414.5,-164.5 526.5,-164.5 526.5,-123.5 414.5,-123.5"/>
<text text-anchor="start" x="422.5" y="-152.5" font-family="Helvetica,sans-Serif" font-size="10.00" fill="#000000">src/platform/esp32</text>
<text text-anchor="start" x="422.5" y="-141.5" font-family="Helvetica,sans-Serif" font-size="10.00" fill="#000000">/backend/i2s_gerneric</text>
<text text-anchor="middle" x="470.5" y="-130.5" font-family="Helvetica,sans-Serif" font-size="10.00" fill="#000000">_backend.c</text>
</a>
</g>
</g>
<!-- Node1&#45;&gt;Node9 -->
<g id="edge11" class="edge">
<title>Node1&#45;&gt;Node9</title>
<path fill="none" stroke="#191970" d="M377.6127,-196.2979C394.1067,-187.0114 415.6621,-174.8751 433.8555,-164.6318"/>
<polygon fill="#191970" stroke="#191970" points="375.5465,-193.4446 368.5498,-201.4005 378.9808,-199.5442 375.5465,-193.4446"/>
</g>
<!-- Node10 -->
<g id="node10" class="node">
<title>Node10</title>
<g id="a_node10"><a xlink:href="../../d2/d00/uart__backend_8c.html" target="_top" xlink:title="all esp32 backend uart functions source UART 1 ">
<polygon fill="#ffffff" stroke="#000000" points="544.5,-129 544.5,-159 670.5,-159 670.5,-129 544.5,-129"/>
<text text-anchor="start" x="552.5" y="-147" font-family="Helvetica,sans-Serif" font-size="10.00" fill="#000000">src/platform/esp32</text>
<text text-anchor="middle" x="607.5" y="-136" font-family="Helvetica,sans-Serif" font-size="10.00" fill="#000000">/backend/uart_backend.c</text>
</a>
</g>
</g>
<!-- Node1&#45;&gt;Node10 -->
<g id="edge12" class="edge">
<title>Node1&#45;&gt;Node10</title>
<path fill="none" stroke="#191970" d="M401.5096,-199.0532C438.5916,-190.0599 490.3241,-177.2302 535.5,-165 542.4126,-163.1286 549.6783,-161.092 556.8264,-159.0476"/>
<polygon fill="#191970" stroke="#191970" points="400.3538,-195.7318 391.4568,-201.4844 401.9993,-202.5356 400.3538,-195.7318"/>
</g>
<!-- Node11 -->
<g id="node11" class="node">
<title>Node11</title>
<g id="a_node11"><a xlink:href="../../d5/da1/udp__backend_8c.html" target="_top" xlink:title="src/platform/generic\l/backend/udp_backend.c">
<polygon fill="#ffffff" stroke="#000000" points="689,-129 689,-159 814,-159 814,-129 689,-129"/>
<text text-anchor="start" x="697" y="-147" font-family="Helvetica,sans-Serif" font-size="10.00" fill="#000000">src/platform/generic</text>
<text text-anchor="middle" x="751.5" y="-136" font-family="Helvetica,sans-Serif" font-size="10.00" fill="#000000">/backend/udp_backend.c</text>
</a>
</g>
</g>
<!-- Node1&#45;&gt;Node11 -->
<g id="edge14" class="edge">
<title>Node1&#45;&gt;Node11</title>
<path fill="none" stroke="#191970" d="M415.3419,-204.8087C481.7912,-197.7214 588.6465,-184.5134 679.5,-165 687.2656,-163.3321 695.4184,-161.2667 703.333,-159.088"/>
<polygon fill="#191970" stroke="#191970" points="414.6115,-201.3661 405.0327,-205.8936 415.3442,-208.3277 414.6115,-201.3661"/>
</g>
<!-- Node3 -->
<g id="node3" class="node">
<title>Node3</title>
<g id="a_node3"><a xlink:href="../../de/dc0/ess__backend_8h.html" target="_top" xlink:title="include/ess_backend.h">
<polygon fill="#ffffff" stroke="#000000" points="134.5,-67.5 134.5,-86.5 250.5,-86.5 250.5,-67.5 134.5,-67.5"/>
<text text-anchor="middle" x="192.5" y="-74.5" font-family="Helvetica,sans-Serif" font-size="10.00" fill="#000000">include/ess_backend.h</text>
</a>
</g>
</g>
<!-- Node2&#45;&gt;Node3 -->
<g id="edge2" class="edge">
<title>Node2&#45;&gt;Node3</title>
<path fill="none" stroke="#191970" d="M192.5,-124.1079C192.5,-111.714 192.5,-96.3263 192.5,-86.5817"/>
<polygon fill="#191970" stroke="#191970" points="189.0001,-124.4005 192.5,-134.4005 196.0001,-124.4006 189.0001,-124.4005"/>
</g>
<!-- Node2&#45;&gt;Node7 -->
<g id="edge6" class="edge">
<title>Node2&#45;&gt;Node7</title>
<path fill="none" stroke="#191970" d="M164.3855,-129.7298C138.7596,-116.7227 101.6122,-97.8676 79.3773,-86.5817"/>
<polygon fill="#191970" stroke="#191970" points="163.0864,-132.9954 173.5876,-134.4005 166.2547,-126.7534 163.0864,-132.9954"/>
</g>
<!-- Node4 -->
<g id="node4" class="node">
<title>Node4</title>
<g id="a_node4"><a xlink:href="../../d8/d50/ess__backend_8c.html" target="_top" xlink:title="src/ess_backend.c">
<polygon fill="#ffffff" stroke="#000000" points="113,-6 113,-25 212,-25 212,-6 113,-6"/>
<text text-anchor="middle" x="162.5" y="-13" font-family="Helvetica,sans-Serif" font-size="10.00" fill="#000000">src/ess_backend.c</text>
</a>
</g>
</g>
<!-- Node3&#45;&gt;Node4 -->
<g id="edge3" class="edge">
<title>Node3&#45;&gt;Node4</title>
<path fill="none" stroke="#191970" d="M183.3551,-58.253C178.0417,-47.3606 171.5657,-34.0846 167.2536,-25.2449"/>
<polygon fill="#191970" stroke="#191970" points="180.2825,-59.9374 187.8125,-67.3906 186.5739,-56.8684 180.2825,-59.9374"/>
</g>
<!-- Node5 -->
<g id="node5" class="node">
<title>Node5</title>
<g id="a_node5"><a xlink:href="../../dc/d43/ess__context_8c.html" target="_top" xlink:title="src/ess_context.c">
<polygon fill="#ffffff" stroke="#000000" points="0,-6 0,-25 95,-25 95,-6 0,-6"/>
<text text-anchor="middle" x="47.5" y="-13" font-family="Helvetica,sans-Serif" font-size="10.00" fill="#000000">src/ess_context.c</text>
</a>
</g>
</g>
<!-- Node3&#45;&gt;Node5 -->
<g id="edge4" class="edge">
<title>Node3&#45;&gt;Node5</title>
<path fill="none" stroke="#191970" d="M160.3001,-63.3428C132.8824,-51.7139 94.195,-35.3051 69.9972,-25.0419"/>
<polygon fill="#191970" stroke="#191970" points="159.2709,-66.708 169.8438,-67.3906 162.0042,-60.2637 159.2709,-66.708"/>
</g>
<!-- Node3&#45;&gt;Node6 -->
<g id="edge5" class="edge">
<title>Node3&#45;&gt;Node6</title>
<path fill="none" stroke="#191970" d="M216.6893,-62.1236C232.2548,-52.5508 252.4183,-40.1502 268.0372,-30.5446"/>
<polygon fill="#191970" stroke="#191970" points="214.8095,-59.1707 208.125,-67.3906 218.4766,-65.1333 214.8095,-59.1707"/>
</g>
<!-- Node7&#45;&gt;Node4 -->
<g id="edge7" class="edge">
<title>Node7&#45;&gt;Node4</title>
<path fill="none" stroke="#191970" d="M85.2097,-62.1015C104.3351,-50.57 130.2497,-34.945 146.6744,-25.0419"/>
<polygon fill="#191970" stroke="#191970" points="83.1941,-59.2298 76.4375,-67.3906 86.8085,-65.2244 83.1941,-59.2298"/>
</g>
<!-- Node7&#45;&gt;Node5 -->
<g id="edge8" class="edge">
<title>Node7&#45;&gt;Node5</title>
<path fill="none" stroke="#191970" d="M56.3956,-57.5832C54.1206,-46.8205 51.3903,-33.9042 49.5599,-25.2449"/>
<polygon fill="#191970" stroke="#191970" points="52.9762,-58.3307 58.4688,-67.3906 59.8249,-56.8829 52.9762,-58.3307"/>
</g>
</g>
</svg>
