<?xml version="1.0" encoding="UTF-8" standalone="no"?>
<!DOCTYPE svg PUBLIC "-//W3C//DTD SVG 1.1//EN"
 "http://www.w3.org/Graphics/SVG/1.1/DTD/svg11.dtd">
<!-- Generated by graphviz version 2.40.1 (20161225.0304)
 -->
<!-- Title: include/ess_format.h Pages: 1 -->
<!--zoomable 296 -->
<svg id="main" version="1.1" xmlns="http://www.w3.org/2000/svg" xmlns:xlink="http://www.w3.org/1999/xlink" xml:space="preserve" onload="init(evt)">
<style type="text/css"><![CDATA[
.edge:hover path { stroke: red; }
.edge:hover polygon { stroke: red; fill: red; }
]]></style>
<script type="text/javascript"><![CDATA[
var edges = document.getElementsByTagName('g');
if (edges && edges.length) {
  for (var i=0;i<edges.length;i++) {
    if (edges[i].id.substr(0,4)=='edge') {
      edges[i].setAttribute('class','edge');
    }
  }
}
]]></script>
        <defs>
                <circle id="rim" cx="0" cy="0" r="7"/>
                <circle id="rim2" cx="0" cy="0" r="3.5"/>
                <g id="zoomPlus">
                        <use xlink:href="#rim" fill="#404040">
                                <set attributeName="fill" to="#808080" begin="zoomplus.mouseover" end="zoomplus.mouseout"/>
                        </use>
                        <path d="M-4,0h8M0,-4v8" fill="none" stroke="white" stroke-width="1.5" pointer-events="none"/>
                </g>
                <g id="zoomMin">
                        <use xlink:href="#rim" fill="#404040">
                                <set attributeName="fill" to="#808080" begin="zoomminus.mouseover" end="zoomminus.mouseout"/>
                        </use>
                        <path d="M-4,0h8" fill="none" stroke="white" stroke-width="1.5" pointer-events="none"/>
                </g>
                <g id="dirArrow">
                        <path fill="none" stroke="white" stroke-width="1.5" d="M0,-3.0v7 M-2.5,-0.5L0,-3.0L2.5,-0.5"/>
                </g>
               <g id="resetDef">
                       <use xlink:href="#rim2" fill="#404040">
                               <set attributeName="fill" to="#808080" begin="reset.mouseover" end="reset.mouseout"/>
                       </use>
               </g>
        </defs>

<script type="text/javascript">
var viewWidth = 1109;
var viewHeight = 296;
var sectionId = 'dynsection-0';
</script>
<script xlink:href="../../svgpan.js"/>
<svg id="graph" class="graph">
<g id="viewport">
<title>include/ess_format.h</title>
<polygon fill="#ffffff" stroke="transparent" points="-4,4 -4,-292 1104.5,-292 1104.5,4 -4,4"/>
<!-- Node1 -->
<g id="node1" class="node">
<title>Node1</title>
<polygon fill="#bfbfbf" stroke="#000000" points="511.5,-268.5 511.5,-287.5 618.5,-287.5 618.5,-268.5 511.5,-268.5"/>
<text text-anchor="middle" x="565" y="-275.5" font-family="Helvetica,sans-Serif" font-size="10.00" fill="#000000">include/ess_format.h</text>
</g>
<!-- Node2 -->
<g id="node2" class="node">
<title>Node2</title>
<g id="a_node2"><a xlink:href="../../df/dbb/esp32__create__context_8c.html" target="_top" xlink:title="examples/esp32_create\l_context.c">
<polygon fill="#ffffff" stroke="#000000" points="0,-56.5 0,-86.5 120,-86.5 120,-56.5 0,-56.5"/>
<text text-anchor="start" x="8" y="-74.5" font-family="Helvetica,sans-Serif" font-size="10.00" fill="#000000">examples/esp32_create</text>
<text text-anchor="middle" x="60" y="-63.5" font-family="Helvetica,sans-Serif" font-size="10.00" fill="#000000">_context.c</text>
</a>
</g>
</g>
<!-- Node1&#45;&gt;Node2 -->
<g id="edge1" class="edge">
<title>Node1&#45;&gt;Node2</title>
<path fill="none" stroke="#191970" d="M501.1268,-275.1953C411.6322,-270.3699 254.2363,-258.3541 204,-232 138.0296,-197.3917 87.6087,-119.6042 68.4261,-86.6802"/>
<polygon fill="#191970" stroke="#191970" points="500.9919,-278.6929 511.1615,-275.7215 501.3586,-271.7025 500.9919,-278.6929"/>
</g>
<!-- Node3 -->
<g id="node3" class="node">
<title>Node3</title>
<g id="a_node3"><a xlink:href="../../d2/de0/esp32__probe__backends_8c.html" target="_top" xlink:title="examples/esp32_probe\l_backends.c">
<polygon fill="#ffffff" stroke="#000000" points="138.5,-56.5 138.5,-86.5 255.5,-86.5 255.5,-56.5 138.5,-56.5"/>
<text text-anchor="start" x="146.5" y="-74.5" font-family="Helvetica,sans-Serif" font-size="10.00" fill="#000000">examples/esp32_probe</text>
<text text-anchor="middle" x="197" y="-63.5" font-family="Helvetica,sans-Serif" font-size="10.00" fill="#000000">_backends.c</text>
</a>
</g>
</g>
<!-- Node1&#45;&gt;Node3 -->
<g id="edge2" class="edge">
<title>Node1&#45;&gt;Node3</title>
<path fill="none" stroke="#191970" d="M501.1861,-268.6567C396.2829,-251.7604 195.2576,-212.3756 158,-154 143.8512,-131.8315 164.45,-103.7239 180.6823,-86.7007"/>
<polygon fill="#191970" stroke="#191970" points="500.9111,-272.1568 511.3365,-270.2697 502.0098,-265.2436 500.9111,-272.1568"/>
</g>
<!-- Node4 -->
<g id="node4" class="node">
<title>Node4</title>
<g id="a_node4"><a xlink:href="../../da/dfe/ess_8h.html" target="_top" xlink:title="include/ess.h">
<polygon fill="#ffffff" stroke="#000000" points="434,-201.5 434,-220.5 508,-220.5 508,-201.5 434,-201.5"/>
<text text-anchor="middle" x="471" y="-208.5" font-family="Helvetica,sans-Serif" font-size="10.00" fill="#000000">include/ess.h</text>
</a>
</g>
</g>
<!-- Node1&#45;&gt;Node4 -->
<g id="edge3" class="edge">
<title>Node1&#45;&gt;Node4</title>
<path fill="none" stroke="#191970" d="M543.268,-262.5102C525.109,-249.567 499.7886,-231.5195 484.4429,-220.5817"/>
<polygon fill="#191970" stroke="#191970" points="541.3574,-265.4464 551.5321,-268.4005 545.4204,-259.7462 541.3574,-265.4464"/>
</g>
<!-- Node8 -->
<g id="node8" class="node">
<title>Node8</title>
<g id="a_node8"><a xlink:href="../../d1/df2/null__backend_8c.html" target="_top" xlink:title="all generic backend null functions source cource ">
<polygon fill="#ffffff" stroke="#000000" points="628.5,-56.5 628.5,-86.5 753.5,-86.5 753.5,-56.5 628.5,-56.5"/>
<text text-anchor="start" x="636.5" y="-74.5" font-family="Helvetica,sans-Serif" font-size="10.00" fill="#000000">src/platform/generic</text>
<text text-anchor="middle" x="691" y="-63.5" font-family="Helvetica,sans-Serif" font-size="10.00" fill="#000000">/backend/null_backend.c</text>
</a>
</g>
</g>
<!-- Node1&#45;&gt;Node8 -->
<g id="edge22" class="edge">
<title>Node1&#45;&gt;Node8</title>
<path fill="none" stroke="#191970" d="M566.3235,-258.3236C568.227,-239.8151 572.8437,-211.7711 584,-190 606.1217,-146.8302 648,-107.3065 672.2865,-86.6173"/>
<polygon fill="#191970" stroke="#191970" points="562.8204,-258.2122 565.4548,-268.4743 569.7949,-258.8092 562.8204,-258.2122"/>
</g>
<!-- Node9 -->
<g id="node9" class="node">
<title>Node9</title>
<g id="a_node9"><a xlink:href="../../d7/d36/ess__context_8h.html" target="_top" xlink:title="include/ess_context.h">
<polygon fill="#ffffff" stroke="#000000" points="167,-129 167,-148 279,-148 279,-129 167,-129"/>
<text text-anchor="middle" x="223" y="-136" font-family="Helvetica,sans-Serif" font-size="10.00" fill="#000000">include/ess_context.h</text>
</a>
</g>
</g>
<!-- Node1&#45;&gt;Node9 -->
<g id="edge18" class="edge">
<title>Node1&#45;&gt;Node9</title>
<path fill="none" stroke="#191970" d="M522.5046,-265.4454C494.5142,-256.8327 457.2213,-244.7011 425,-232 355.9726,-204.7905 276.8613,-165.8015 241.6199,-148.0076"/>
<polygon fill="#191970" stroke="#191970" points="521.7832,-268.8844 532.3693,-268.4538 523.8252,-262.1889 521.7832,-268.8844"/>
</g>
<!-- Node13 -->
<g id="node13" class="node">
<title>Node13</title>
<g id="a_node13"><a xlink:href="../../de/d96/ess__format_8c.html" target="_top" xlink:title="src/ess_format.c">
<polygon fill="#ffffff" stroke="#000000" points="593,-201.5 593,-220.5 683,-220.5 683,-201.5 593,-201.5"/>
<text text-anchor="middle" x="638" y="-208.5" font-family="Helvetica,sans-Serif" font-size="10.00" fill="#000000">src/ess_format.c</text>
</a>
</g>
</g>
<!-- Node1&#45;&gt;Node13 -->
<g id="edge19" class="edge">
<title>Node1&#45;&gt;Node13</title>
<path fill="none" stroke="#191970" d="M583.0429,-261.44C597.046,-248.5879 615.9679,-231.2212 627.5603,-220.5817"/>
<polygon fill="#191970" stroke="#191970" points="580.4599,-259.0601 575.4591,-268.4005 585.1931,-264.2173 580.4599,-259.0601"/>
</g>
<!-- Node14 -->
<g id="node14" class="node">
<title>Node14</title>
<g id="a_node14"><a xlink:href="../../d3/d85/i2s__gerneric__backend_8c.html" target="_top" xlink:title="all esp32 backend generic_i2s functions source ">
<polygon fill="#ffffff" stroke="#000000" points="701,-190.5 701,-231.5 813,-231.5 813,-190.5 701,-190.5"/>
<text text-anchor="start" x="709" y="-219.5" font-family="Helvetica,sans-Serif" font-size="10.00" fill="#000000">src/platform/esp32</text>
<text text-anchor="start" x="709" y="-208.5" font-family="Helvetica,sans-Serif" font-size="10.00" fill="#000000">/backend/i2s_gerneric</text>
<text text-anchor="middle" x="757" y="-197.5" font-family="Helvetica,sans-Serif" font-size="10.00" fill="#000000">_backend.c</text>
</a>
</g>
</g>
<!-- Node1&#45;&gt;Node14 -->
<g id="edge20" class="edge">
<title>Node1&#45;&gt;Node14</title>
<path fill="none" stroke="#191970" d="M602.2827,-264.9899C630.224,-255.2395 668.9402,-241.7292 700.6526,-230.6629"/>
<polygon fill="#191970" stroke="#191970" points="600.7974,-261.8011 592.5089,-268.4005 603.1038,-268.4103 600.7974,-261.8011"/>
</g>
<!-- Node15 -->
<g id="node15" class="node">
<title>Node15</title>
<g id="a_node15"><a xlink:href="../../d2/d00/uart__backend_8c.html" target="_top" xlink:title="all esp32 backend uart functions source UART 1 ">
<polygon fill="#ffffff" stroke="#000000" points="831,-196 831,-226 957,-226 957,-196 831,-196"/>
<text text-anchor="start" x="839" y="-214" font-family="Helvetica,sans-Serif" font-size="10.00" fill="#000000">src/platform/esp32</text>
<text text-anchor="middle" x="894" y="-203" font-family="Helvetica,sans-Serif" font-size="10.00" fill="#000000">/backend/uart_backend.c</text>
</a>
</g>
</g>
<!-- Node1&#45;&gt;Node15 -->
<g id="edge21" class="edge">
<title>Node1&#45;&gt;Node15</title>
<path fill="none" stroke="#191970" d="M629.1206,-268.471C681.349,-260.2432 756.841,-247.2877 822,-232 829.4792,-230.2452 837.3353,-228.1838 844.9973,-226.0504"/>
<polygon fill="#191970" stroke="#191970" points="628.335,-265.0512 618.9951,-270.0528 629.4155,-271.9673 628.335,-265.0512"/>
</g>
<!-- Node16 -->
<g id="node16" class="node">
<title>Node16</title>
<g id="a_node16"><a xlink:href="../../d5/da1/udp__backend_8c.html" target="_top" xlink:title="src/platform/generic\l/backend/udp_backend.c">
<polygon fill="#ffffff" stroke="#000000" points="975.5,-196 975.5,-226 1100.5,-226 1100.5,-196 975.5,-196"/>
<text text-anchor="start" x="983.5" y="-214" font-family="Helvetica,sans-Serif" font-size="10.00" fill="#000000">src/platform/generic</text>
<text text-anchor="middle" x="1038" y="-203" font-family="Helvetica,sans-Serif" font-size="10.00" fill="#000000">/backend/udp_backend.c</text>
</a>
</g>
</g>
<!-- Node1&#45;&gt;Node16 -->
<g id="edge23" class="edge">
<title>Node1&#45;&gt;Node16</title>
<path fill="none" stroke="#191970" d="M628.9878,-274.0196C708.5749,-268.3007 848.3254,-255.7318 966,-232 974.0412,-230.3783 982.4851,-228.283 990.6465,-226.0454"/>
<polygon fill="#191970" stroke="#191970" points="628.3684,-270.5545 618.6392,-274.7489 628.8606,-277.5372 628.3684,-270.5545"/>
</g>
<!-- Node5 -->
<g id="node5" class="node">
<title>Node5</title>
<g id="a_node5"><a xlink:href="../../de/dc0/ess__backend_8h.html" target="_top" xlink:title="include/ess_backend.h">
<polygon fill="#ffffff" stroke="#000000" points="413,-129 413,-148 529,-148 529,-129 413,-129"/>
<text text-anchor="middle" x="471" y="-136" font-family="Helvetica,sans-Serif" font-size="10.00" fill="#000000">include/ess_backend.h</text>
</a>
</g>
</g>
<!-- Node4&#45;&gt;Node5 -->
<g id="edge4" class="edge">
<title>Node4&#45;&gt;Node5</title>
<path fill="none" stroke="#191970" d="M471,-191.1054C471,-177.1237 471,-159.0346 471,-148.1228"/>
<polygon fill="#191970" stroke="#191970" points="467.5001,-191.2223 471,-201.2223 474.5001,-191.2224 467.5001,-191.2223"/>
</g>
<!-- Node4&#45;&gt;Node9 -->
<g id="edge9" class="edge">
<title>Node4&#45;&gt;Node9</title>
<path fill="none" stroke="#191970" d="M428.6641,-198.6236C379.7195,-184.3152 300.2087,-161.0711 255.7491,-148.0738"/>
<polygon fill="#191970" stroke="#191970" points="427.7429,-202.0007 438.3233,-201.4473 429.7071,-195.2819 427.7429,-202.0007"/>
</g>
<!-- Node10 -->
<g id="node10" class="node">
<title>Node10</title>
<g id="a_node10"><a xlink:href="../../d6/de1/ess__server_8h.html" target="_top" xlink:title="include/ess_server.h">
<polygon fill="#ffffff" stroke="#000000" points="503.5,-62 503.5,-81 610.5,-81 610.5,-62 503.5,-62"/>
<text text-anchor="middle" x="557" y="-69" font-family="Helvetica,sans-Serif" font-size="10.00" fill="#000000">include/ess_server.h</text>
</a>
</g>
</g>
<!-- Node4&#45;&gt;Node10 -->
<g id="edge16" class="edge">
<title>Node4&#45;&gt;Node10</title>
<path fill="none" stroke="#191970" d="M495.9422,-195.6938C510.3499,-185.5867 527.6218,-171.0758 538,-154 552.2749,-130.5127 555.8331,-97.3182 556.7143,-81.1305"/>
<polygon fill="#191970" stroke="#191970" points="493.7858,-192.9256 487.4287,-201.4013 497.6838,-198.7399 493.7858,-192.9256"/>
</g>
<!-- Node12 -->
<g id="node12" class="node">
<title>Node12</title>
<g id="a_node12"><a xlink:href="../../d5/d24/esp32__platform_8c.html" target="_top" xlink:title="all esp32 platform functions source ">
<polygon fill="#ffffff" stroke="#000000" points="297,-123.5 297,-153.5 395,-153.5 395,-123.5 297,-123.5"/>
<text text-anchor="start" x="305" y="-141.5" font-family="Helvetica,sans-Serif" font-size="10.00" fill="#000000">src/platform/esp32</text>
<text text-anchor="middle" x="346" y="-130.5" font-family="Helvetica,sans-Serif" font-size="10.00" fill="#000000">/esp32_platform.c</text>
</a>
</g>
</g>
<!-- Node4&#45;&gt;Node12 -->
<g id="edge17" class="edge">
<title>Node4&#45;&gt;Node12</title>
<path fill="none" stroke="#191970" d="M445.5761,-196.2541C424.2303,-183.8736 393.8481,-166.2519 372.2684,-153.7357"/>
<polygon fill="#191970" stroke="#191970" points="443.9946,-199.3829 454.401,-201.3726 447.5067,-193.3277 443.9946,-199.3829"/>
</g>
<!-- Node5&#45;&gt;Node3 -->
<g id="edge5" class="edge">
<title>Node5&#45;&gt;Node3</title>
<path fill="none" stroke="#191970" d="M422.1781,-126.5618C375.5912,-115.1701 305.3495,-97.9942 255.7263,-85.8601"/>
<polygon fill="#191970" stroke="#191970" points="421.4883,-129.9962 432.0335,-128.9717 423.151,-123.1965 421.4883,-129.9962"/>
</g>
<!-- Node6 -->
<g id="node6" class="node">
<title>Node6</title>
<g id="a_node6"><a xlink:href="../../d8/d50/ess__backend_8c.html" target="_top" xlink:title="src/ess_backend.c">
<polygon fill="#ffffff" stroke="#000000" points="386.5,-62 386.5,-81 485.5,-81 485.5,-62 386.5,-62"/>
<text text-anchor="middle" x="436" y="-69" font-family="Helvetica,sans-Serif" font-size="10.00" fill="#000000">src/ess_backend.c</text>
</a>
</g>
</g>
<!-- Node5&#45;&gt;Node6 -->
<g id="edge6" class="edge">
<title>Node5&#45;&gt;Node6</title>
<path fill="none" stroke="#191970" d="M461.1986,-119.7374C454.6291,-107.1614 446.2517,-91.1246 441.0053,-81.0817"/>
<polygon fill="#191970" stroke="#191970" points="458.2529,-121.6576 465.9854,-128.9005 464.4573,-118.4165 458.2529,-121.6576"/>
</g>
<!-- Node7 -->
<g id="node7" class="node">
<title>Node7</title>
<g id="a_node7"><a xlink:href="../../dc/d43/ess__context_8c.html" target="_top" xlink:title="src/ess_context.c">
<polygon fill="#ffffff" stroke="#000000" points="273.5,-62 273.5,-81 368.5,-81 368.5,-62 273.5,-62"/>
<text text-anchor="middle" x="321" y="-69" font-family="Helvetica,sans-Serif" font-size="10.00" fill="#000000">src/ess_context.c</text>
</a>
</g>
</g>
<!-- Node5&#45;&gt;Node7 -->
<g id="edge7" class="edge">
<title>Node5&#45;&gt;Node7</title>
<path fill="none" stroke="#191970" d="M440.1993,-124.7424C411.0501,-111.7224 368.0524,-92.5167 342.4515,-81.0817"/>
<polygon fill="#191970" stroke="#191970" points="438.9506,-128.0179 449.5087,-128.9005 441.8055,-121.6265 438.9506,-128.0179"/>
</g>
<!-- Node5&#45;&gt;Node8 -->
<g id="edge8" class="edge">
<title>Node5&#45;&gt;Node8</title>
<path fill="none" stroke="#191970" d="M512.3962,-125.893C549.0977,-114.7157 602.7586,-98.3735 641.6748,-86.5218"/>
<polygon fill="#191970" stroke="#191970" points="511.0672,-122.6389 502.5206,-128.9005 513.1065,-129.3353 511.0672,-122.6389"/>
</g>
<!-- Node9&#45;&gt;Node2 -->
<g id="edge10" class="edge">
<title>Node9&#45;&gt;Node2</title>
<path fill="none" stroke="#191970" d="M190.213,-125.0231C163.105,-113.8806 124.6395,-98.0696 96.5455,-86.5218"/>
<polygon fill="#191970" stroke="#191970" points="189.0663,-128.3359 199.6461,-128.9005 191.7276,-121.8615 189.0663,-128.3359"/>
</g>
<!-- Node9&#45;&gt;Node3 -->
<g id="edge11" class="edge">
<title>Node9&#45;&gt;Node3</title>
<path fill="none" stroke="#191970" d="M215.6001,-119.4311C211.5499,-108.9939 206.603,-96.2463 202.8293,-86.5218"/>
<polygon fill="#191970" stroke="#191970" points="212.3941,-120.8441 219.2748,-128.9005 218.92,-118.3116 212.3941,-120.8441"/>
</g>
<!-- Node9&#45;&gt;Node6 -->
<g id="edge14" class="edge">
<title>Node9&#45;&gt;Node6</title>
<path fill="none" stroke="#191970" d="M263.2758,-125.8311C304.6581,-112.8141 368.1583,-92.8399 405.5389,-81.0817"/>
<polygon fill="#191970" stroke="#191970" points="262.0067,-122.5611 253.5177,-128.9005 264.1071,-129.2386 262.0067,-122.5611"/>
</g>
<!-- Node9&#45;&gt;Node7 -->
<g id="edge15" class="edge">
<title>Node9&#45;&gt;Node7</title>
<path fill="none" stroke="#191970" d="M245.3991,-123.1864C264.3483,-110.2312 290.9136,-92.0693 306.985,-81.0817"/>
<polygon fill="#191970" stroke="#191970" points="243.3208,-120.3674 237.041,-128.9005 247.2715,-126.146 243.3208,-120.3674"/>
</g>
<!-- Node9&#45;&gt;Node10 -->
<g id="edge12" class="edge">
<title>Node9&#45;&gt;Node10</title>
<path fill="none" stroke="#191970" d="M271.3775,-126.6196C276.9714,-125.3481 282.6032,-124.1139 288,-123 379.0243,-104.2118 403.0435,-106.1135 494,-87 502.4876,-85.2164 511.569,-83.1035 520.1191,-81.0207"/>
<polygon fill="#191970" stroke="#191970" points="270.3596,-123.2627 261.4084,-128.9306 271.9405,-130.0818 270.3596,-123.2627"/>
</g>
<!-- Node11 -->
<g id="node11" class="node">
<title>Node11</title>
<g id="a_node11"><a xlink:href="../../d0/d9b/ess__server_8c.html" target="_top" xlink:title="src/ess_server.c">
<polygon fill="#ffffff" stroke="#000000" points="512.5,-.5 512.5,-19.5 601.5,-19.5 601.5,-.5 512.5,-.5"/>
<text text-anchor="middle" x="557" y="-7.5" font-family="Helvetica,sans-Serif" font-size="10.00" fill="#000000">src/ess_server.c</text>
</a>
</g>
</g>
<!-- Node10&#45;&gt;Node11 -->
<g id="edge13" class="edge">
<title>Node10&#45;&gt;Node11</title>
<path fill="none" stroke="#191970" d="M557,-51.7462C557,-41.0519 557,-28.314 557,-19.7449"/>
<polygon fill="#191970" stroke="#191970" points="553.5001,-51.8906 557,-61.8906 560.5001,-51.8907 553.5001,-51.8906"/>
</g>
</g>
</svg>
        <g id="navigator" transform="translate(0 0)" fill="#404254">
                <rect fill="#f2f5e9" fill-opacity="0.5" stroke="#606060" stroke-width=".5" x="0" y="0" width="60" height="60"/>
                <use id="zoomplus" xlink:href="#zoomPlus" x="17" y="9" onmousedown="handleZoom(evt,'in')"/>
                <use id="zoomminus" xlink:href="#zoomMin" x="42" y="9" onmousedown="handleZoom(evt,'out')"/>
                <use id="reset" xlink:href="#resetDef" x="30" y="36" onmousedown="handleReset()"/>
                <g id="arrowUp" xlink:href="#dirArrow" transform="translate(30 24)" onmousedown="handlePan(0,-1)">
                  <use xlink:href="#rim" fill="#404040">
                        <set attributeName="fill" to="#808080" begin="arrowUp.mouseover" end="arrowUp.mouseout"/>
                  </use>
                  <path fill="none" stroke="white" stroke-width="1.5" d="M0,-3.0v7 M-2.5,-0.5L0,-3.0L2.5,-0.5"/>
                </g>
                <g id="arrowRight" xlink:href="#dirArrow" transform="rotate(90) translate(36 -43)" onmousedown="handlePan(1,0)">
                  <use xlink:href="#rim" fill="#404040">
                        <set attributeName="fill" to="#808080" begin="arrowRight.mouseover" end="arrowRight.mouseout"/>
                  </use>
                  <path fill="none" stroke="white" stroke-width="1.5" d="M0,-3.0v7 M-2.5,-0.5L0,-3.0L2.5,-0.5"/>
                </g>
                <g id="arrowDown" xlink:href="#dirArrow" transform="rotate(180) translate(-30 -48)" onmousedown="handlePan(0,1)">
                  <use xlink:href="#rim" fill="#404040">
                        <set attributeName="fill" to="#808080" begin="arrowDown.mouseover" end="arrowDown.mouseout"/>
                  </use>
                  <path fill="none" stroke="white" stroke-width="1.5" d="M0,-3.0v7 M-2.5,-0.5L0,-3.0L2.5,-0.5"/>
                </g>
                <g id="arrowLeft" xlink:href="#dirArrow" transform="rotate(270) translate(-36 17)" onmousedown="handlePan(-1,0)">
                  <use xlink:href="#rim" fill="#404040">
                        <set attributeName="fill" to="#808080" begin="arrowLeft.mouseover" end="arrowLeft.mouseout"/>
                  </use>
                  <path fill="none" stroke="white" stroke-width="1.5" d="M0,-3.0v7 M-2.5,-0.5L0,-3.0L2.5,-0.5"/>
                </g>
        </g>
        <svg viewBox="0 0 15 15" width="100%" height="30px" preserveAspectRatio="xMaxYMin meet">
         <g id="arrow_out" transform="scale(0.3 0.3)">
          <a xlink:href="ess__format_8h__dep__incl_org.svg" target="_base">
           <rect id="button" ry="5" rx="5" y="6" x="6" height="38" width="38"
                fill="#f2f5e9" fill-opacity="0.5" stroke="#606060" stroke-width="1.0"/>
           <path id="arrow"
             d="M 11.500037,31.436501 C 11.940474,20.09759 22.043105,11.32322 32.158766,21.979434 L 37.068811,17.246167 C 37.068811,17.246167 37.088388,32 37.088388,32 L 22.160133,31.978069 C 22.160133,31.978069 26.997745,27.140456 26.997745,27.140456 C 18.528582,18.264221 13.291696,25.230495 11.500037,31.436501 z"
             style="fill:#404040;"/>
          </a>
         </g>
        </svg>
</svg>
