<?xml version="1.0" encoding="UTF-8" standalone="no"?>
<!DOCTYPE svg PUBLIC "-//W3C//DTD SVG 1.1//EN"
 "http://www.w3.org/Graphics/SVG/1.1/DTD/svg11.dtd">
<!-- Generated by graphviz version 2.40.1 (20161225.0304)
 -->
<!-- Title: src/ess_socket.c Pages: 1 -->
<svg width="1037pt" height="84pt"
 viewBox="0.00 0.00 1037.00 84.00" xmlns="http://www.w3.org/2000/svg" xmlns:xlink="http://www.w3.org/1999/xlink">
<g id="graph0" class="graph" transform="scale(1 1) rotate(0) translate(4 80)">
<title>src/ess_socket.c</title>
<polygon fill="#ffffff" stroke="transparent" points="-4,4 -4,-80 1033,-80 1033,4 -4,4"/>
<!-- Node0 -->
<g id="node1" class="node">
<title>Node0</title>
<polygon fill="#bfbfbf" stroke="#000000" points="488.5,-56.5 488.5,-75.5 580.5,-75.5 580.5,-56.5 488.5,-56.5"/>
<text text-anchor="middle" x="534.5" y="-63.5" font-family="Helvetica,sans-Serif" font-size="10.00" fill="#000000">src/ess_socket.c</text>
</g>
<!-- Node1 -->
<g id="node2" class="node">
<title>Node1</title>
<g id="a_node2"><a xlink:href="../../d8/da1/ess__socket_8h.html" target="_top" xlink:title="ess_socket.h">
<polygon fill="#ffffff" stroke="#000000" points="0,-.5 0,-19.5 75,-19.5 75,-.5 0,-.5"/>
<text text-anchor="middle" x="37.5" y="-7.5" font-family="Helvetica,sans-Serif" font-size="10.00" fill="#000000">ess_socket.h</text>
</a>
</g>
</g>
<!-- Node0&#45;&gt;Node1 -->
<g id="edge1" class="edge">
<title>Node0&#45;&gt;Node1</title>
<path fill="none" stroke="#191970" d="M488.1811,-63.0018C407.9771,-57.4347 237.9139,-43.9782 85.128,-20.1189"/>
<polygon fill="#191970" stroke="#191970" points="85.5143,-16.6365 75.0904,-18.5322 84.4213,-23.5507 85.5143,-16.6365"/>
</g>
<!-- Node2 -->
<g id="node3" class="node">
<title>Node2</title>
<polygon fill="#ffffff" stroke="#bfbfbf" points="93,-.5 93,-19.5 152,-19.5 152,-.5 93,-.5"/>
<text text-anchor="middle" x="122.5" y="-7.5" font-family="Helvetica,sans-Serif" font-size="10.00" fill="#000000">esp_log.h</text>
</g>
<!-- Node0&#45;&gt;Node2 -->
<g id="edge2" class="edge">
<title>Node0&#45;&gt;Node2</title>
<path fill="none" stroke="#191970" d="M488.4174,-62.3486C419.3822,-56.4377 284.9164,-43.2211 162.2241,-20.1409"/>
<polygon fill="#191970" stroke="#191970" points="162.7624,-16.6806 152.2836,-18.2441 161.4503,-23.5565 162.7624,-16.6806"/>
</g>
<!-- Node3 -->
<g id="node4" class="node">
<title>Node3</title>
<g id="a_node4"><a xlink:href="../../db/d16/config_8h.html" target="_top" xlink:title="File containing configurations. ">
<polygon fill="#ffffff" stroke="#000000" points="170,-.5 170,-19.5 221,-19.5 221,-.5 170,-.5"/>
<text text-anchor="middle" x="195.5" y="-7.5" font-family="Helvetica,sans-Serif" font-size="10.00" fill="#000000">config.h</text>
</a>
</g>
</g>
<!-- Node0&#45;&gt;Node3 -->
<g id="edge3" class="edge">
<title>Node0&#45;&gt;Node3</title>
<path fill="none" stroke="#191970" d="M488.3282,-60.8817C430.4488,-54.0539 328.0786,-40.6201 230.9997,-19.8641"/>
<polygon fill="#191970" stroke="#191970" points="231.533,-16.3984 221.0184,-17.6996 230.0495,-23.2394 231.533,-16.3984"/>
</g>
<!-- Node4 -->
<g id="node5" class="node">
<title>Node4</title>
<polygon fill="#ffffff" stroke="#bfbfbf" points="239.5,-.5 239.5,-19.5 287.5,-19.5 287.5,-.5 239.5,-.5"/>
<text text-anchor="middle" x="263.5" y="-7.5" font-family="Helvetica,sans-Serif" font-size="10.00" fill="#000000">stdlib.h</text>
</g>
<!-- Node0&#45;&gt;Node4 -->
<g id="edge4" class="edge">
<title>Node0&#45;&gt;Node4</title>
<path fill="none" stroke="#191970" d="M488.1207,-58.4971C442.0938,-50.7258 369.3756,-37.5749 297.6781,-20.102"/>
<polygon fill="#191970" stroke="#191970" points="298.1182,-16.6057 287.5709,-17.6079 296.4411,-23.4018 298.1182,-16.6057"/>
</g>
<!-- Node5 -->
<g id="node6" class="node">
<title>Node5</title>
<polygon fill="#ffffff" stroke="#bfbfbf" points="305.5,-.5 305.5,-19.5 351.5,-19.5 351.5,-.5 305.5,-.5"/>
<text text-anchor="middle" x="328.5" y="-7.5" font-family="Helvetica,sans-Serif" font-size="10.00" fill="#000000">stdio.h</text>
</g>
<!-- Node0&#45;&gt;Node5 -->
<g id="edge5" class="edge">
<title>Node0&#45;&gt;Node5</title>
<path fill="none" stroke="#191970" d="M496.3499,-56.434C463.0781,-47.9754 413.2971,-35.0427 361.272,-20.138"/>
<polygon fill="#191970" stroke="#191970" points="362.1133,-16.7381 351.5352,-17.3327 360.1753,-23.4645 362.1133,-16.7381"/>
</g>
<!-- Node6 -->
<g id="node7" class="node">
<title>Node6</title>
<polygon fill="#ffffff" stroke="#bfbfbf" points="370,-.5 370,-19.5 443,-19.5 443,-.5 370,-.5"/>
<text text-anchor="middle" x="406.5" y="-7.5" font-family="Helvetica,sans-Serif" font-size="10.00" fill="#000000">sys/socket.h</text>
</g>
<!-- Node0&#45;&gt;Node6 -->
<g id="edge6" class="edge">
<title>Node0&#45;&gt;Node6</title>
<path fill="none" stroke="#191970" d="M512.496,-56.3733C491.8565,-47.3435 460.7842,-33.7494 437.6111,-23.6111"/>
<polygon fill="#191970" stroke="#191970" points="438.7813,-20.3028 428.2169,-19.5011 435.9755,-26.7159 438.7813,-20.3028"/>
</g>
<!-- Node7 -->
<g id="node8" class="node">
<title>Node7</title>
<polygon fill="#ffffff" stroke="#bfbfbf" points="461.5,-.5 461.5,-19.5 529.5,-19.5 529.5,-.5 461.5,-.5"/>
<text text-anchor="middle" x="495.5" y="-7.5" font-family="Helvetica,sans-Serif" font-size="10.00" fill="#000000">sys/types.h</text>
</g>
<!-- Node0&#45;&gt;Node7 -->
<g id="edge7" class="edge">
<title>Node0&#45;&gt;Node7</title>
<path fill="none" stroke="#191970" d="M527.7067,-56.2455C522.2822,-48.4564 514.5339,-37.3308 507.9967,-27.9439"/>
<polygon fill="#191970" stroke="#191970" points="510.8025,-25.8485 502.2154,-19.6427 505.0583,-29.849 510.8025,-25.8485"/>
</g>
<!-- Node8 -->
<g id="node9" class="node">
<title>Node8</title>
<polygon fill="#ffffff" stroke="#bfbfbf" points="548,-.5 548,-19.5 599,-19.5 599,-.5 548,-.5"/>
<text text-anchor="middle" x="573.5" y="-7.5" font-family="Helvetica,sans-Serif" font-size="10.00" fill="#000000">unistd.h</text>
</g>
<!-- Node0&#45;&gt;Node8 -->
<g id="edge8" class="edge">
<title>Node0&#45;&gt;Node8</title>
<path fill="none" stroke="#191970" d="M541.2933,-56.2455C546.7178,-48.4564 554.4661,-37.3308 561.0033,-27.9439"/>
<polygon fill="#191970" stroke="#191970" points="563.9417,-29.849 566.7846,-19.6427 558.1975,-25.8485 563.9417,-29.849"/>
</g>
<!-- Node9 -->
<g id="node10" class="node">
<title>Node9</title>
<polygon fill="#ffffff" stroke="#bfbfbf" points="617,-.5 617,-19.5 666,-19.5 666,-.5 617,-.5"/>
<text text-anchor="middle" x="641.5" y="-7.5" font-family="Helvetica,sans-Serif" font-size="10.00" fill="#000000">stdint.h</text>
</g>
<!-- Node0&#45;&gt;Node9 -->
<g id="edge9" class="edge">
<title>Node0&#45;&gt;Node9</title>
<path fill="none" stroke="#191970" d="M553.138,-56.2455C569.9386,-47.4527 594.8634,-34.4079 613.9618,-24.4125"/>
<polygon fill="#191970" stroke="#191970" points="615.8386,-27.3807 623.0756,-19.6427 612.5927,-21.1787 615.8386,-27.3807"/>
</g>
<!-- Node10 -->
<g id="node11" class="node">
<title>Node10</title>
<polygon fill="#ffffff" stroke="#bfbfbf" points="684,-.5 684,-19.5 733,-19.5 733,-.5 684,-.5"/>
<text text-anchor="middle" x="708.5" y="-7.5" font-family="Helvetica,sans-Serif" font-size="10.00" fill="#000000">netdb.h</text>
</g>
<!-- Node0&#45;&gt;Node10 -->
<g id="edge10" class="edge">
<title>Node0&#45;&gt;Node10</title>
<path fill="none" stroke="#191970" d="M564.4117,-56.3733C594.8357,-46.5816 641.9361,-31.4229 673.9377,-21.1235"/>
<polygon fill="#191970" stroke="#191970" points="675.3101,-24.3587 683.757,-17.9633 673.1655,-17.6953 675.3101,-24.3587"/>
</g>
<!-- Node11 -->
<g id="node12" class="node">
<title>Node11</title>
<polygon fill="#ffffff" stroke="#bfbfbf" points="751,-.5 751,-19.5 800,-19.5 800,-.5 751,-.5"/>
<text text-anchor="middle" x="775.5" y="-7.5" font-family="Helvetica,sans-Serif" font-size="10.00" fill="#000000">string.h</text>
</g>
<!-- Node0&#45;&gt;Node11 -->
<g id="edge11" class="edge">
<title>Node0&#45;&gt;Node11</title>
<path fill="none" stroke="#191970" d="M580.5953,-56.8624C620.6746,-48.6807 680.4995,-35.9023 740.6467,-20.361"/>
<polygon fill="#191970" stroke="#191970" points="741.8992,-23.6515 750.6916,-17.7401 740.1319,-16.8782 741.8992,-23.6515"/>
</g>
<!-- Node12 -->
<g id="node13" class="node">
<title>Node12</title>
<polygon fill="#ffffff" stroke="#bfbfbf" points="818,-.5 818,-19.5 865,-19.5 865,-.5 818,-.5"/>
<text text-anchor="middle" x="841.5" y="-7.5" font-family="Helvetica,sans-Serif" font-size="10.00" fill="#000000">errno.h</text>
</g>
<!-- Node0&#45;&gt;Node12 -->
<g id="edge12" class="edge">
<title>Node0&#45;&gt;Node12</title>
<path fill="none" stroke="#191970" d="M580.625,-60.2537C633.5307,-53.2274 722.9797,-40.0205 808.0243,-20.1229"/>
<polygon fill="#191970" stroke="#191970" points="808.9146,-23.5089 817.835,-17.7925 807.2969,-16.6984 808.9146,-23.5089"/>
</g>
<!-- Node13 -->
<g id="node14" class="node">
<title>Node13</title>
<polygon fill="#ffffff" stroke="#bfbfbf" points="883.5,-.5 883.5,-19.5 945.5,-19.5 945.5,-.5 883.5,-.5"/>
<text text-anchor="middle" x="914.5" y="-7.5" font-family="Helvetica,sans-Serif" font-size="10.00" fill="#000000">sys/ioctl.h</text>
</g>
<!-- Node0&#45;&gt;Node13 -->
<g id="edge13" class="edge">
<title>Node0&#45;&gt;Node13</title>
<path fill="none" stroke="#191970" d="M580.6816,-61.3892C644.4025,-54.6674 763.0196,-40.8635 873.1805,-20.0905"/>
<polygon fill="#191970" stroke="#191970" points="873.964,-23.5042 883.13,-18.1906 872.6509,-16.6285 873.964,-23.5042"/>
</g>
<!-- Node14 -->
<g id="node15" class="node">
<title>Node14</title>
<polygon fill="#ffffff" stroke="#bfbfbf" points="964,-.5 964,-19.5 1029,-19.5 1029,-.5 964,-.5"/>
<text text-anchor="middle" x="996.5" y="-7.5" font-family="Helvetica,sans-Serif" font-size="10.00" fill="#000000">netinet/in.h</text>
</g>
<!-- Node0&#45;&gt;Node14 -->
<g id="edge14" class="edge">
<title>Node0&#45;&gt;Node14</title>
<path fill="none" stroke="#191970" d="M580.7535,-62.8295C656.5804,-57.2189 812.1871,-43.9756 953.4225,-19.9967"/>
<polygon fill="#191970" stroke="#191970" points="954.3036,-23.3966 963.5653,-18.2516 953.1166,-16.498 954.3036,-23.3966"/>
</g>
</g>
</svg>
