<?xml version="1.0" encoding="UTF-8" standalone="no"?>
<!DOCTYPE svg PUBLIC "-//W3C//DTD SVG 1.1//EN"
 "http://www.w3.org/Graphics/SVG/1.1/DTD/svg11.dtd">
<!-- Generated by graphviz version 2.40.1 (20161225.0304)
 -->
<!-- Title: src/ess_socket.c Pages: 1 -->
<svg width="1037pt" height="140pt"
 viewBox="0.00 0.00 1037.00 140.00" xmlns="http://www.w3.org/2000/svg" xmlns:xlink="http://www.w3.org/1999/xlink">
<g id="graph0" class="graph" transform="scale(1 1) rotate(0) translate(4 136)">
<title>src/ess_socket.c</title>
<polygon fill="#ffffff" stroke="transparent" points="-4,4 -4,-136 1033,-136 1033,4 -4,4"/>
<!-- Node0 -->
<g id="node1" class="node">
<title>Node0</title>
<polygon fill="#bfbfbf" stroke="#000000" points="488.5,-112.5 488.5,-131.5 580.5,-131.5 580.5,-112.5 488.5,-112.5"/>
<text text-anchor="middle" x="534.5" y="-119.5" font-family="Helvetica,sans-Serif" font-size="10.00" fill="#000000">src/ess_socket.c</text>
</g>
<!-- Node1 -->
<g id="node2" class="node">
<title>Node1</title>
<g id="a_node2"><a xlink:href="../../d8/da1/ess__socket_8h.html" target="_top" xlink:title="ess_socket.h">
<polygon fill="#ffffff" stroke="#000000" points="0,-56.5 0,-75.5 75,-75.5 75,-56.5 0,-56.5"/>
<text text-anchor="middle" x="37.5" y="-63.5" font-family="Helvetica,sans-Serif" font-size="10.00" fill="#000000">ess_socket.h</text>
</a>
</g>
</g>
<!-- Node0&#45;&gt;Node1 -->
<g id="edge1" class="edge">
<title>Node0&#45;&gt;Node1</title>
<path fill="none" stroke="#191970" d="M488.2944,-118.928C408.2845,-113.2493 238.6224,-99.6266 85.2232,-75.9561"/>
<polygon fill="#191970" stroke="#191970" points="85.5639,-72.467 75.1437,-74.3825 84.4841,-79.3832 85.5639,-72.467"/>
</g>
<!-- Node3 -->
<g id="node4" class="node">
<title>Node3</title>
<polygon fill="#ffffff" stroke="#bfbfbf" points="93,-56.5 93,-75.5 152,-75.5 152,-56.5 93,-56.5"/>
<text text-anchor="middle" x="122.5" y="-63.5" font-family="Helvetica,sans-Serif" font-size="10.00" fill="#000000">esp_log.h</text>
</g>
<!-- Node0&#45;&gt;Node3 -->
<g id="edge3" class="edge">
<title>Node0&#45;&gt;Node3</title>
<path fill="none" stroke="#191970" d="M488.2671,-118.221C419.3502,-112.1673 285.4818,-98.79 162.2124,-75.9189"/>
<polygon fill="#191970" stroke="#191970" points="162.697,-72.4488 152.2223,-74.0399 161.403,-79.3281 162.697,-72.4488"/>
</g>
<!-- Node4 -->
<g id="node5" class="node">
<title>Node4</title>
<g id="a_node5"><a xlink:href="../../db/d16/config_8h.html" target="_top" xlink:title="File containing configurations. ">
<polygon fill="#ffffff" stroke="#000000" points="170,-56.5 170,-75.5 221,-75.5 221,-56.5 170,-56.5"/>
<text text-anchor="middle" x="195.5" y="-63.5" font-family="Helvetica,sans-Serif" font-size="10.00" fill="#000000">config.h</text>
</a>
</g>
</g>
<!-- Node0&#45;&gt;Node4 -->
<g id="edge4" class="edge">
<title>Node0&#45;&gt;Node4</title>
<path fill="none" stroke="#191970" d="M488.3282,-116.8817C430.4488,-110.0539 328.0786,-96.6201 230.9997,-75.8641"/>
<polygon fill="#191970" stroke="#191970" points="231.533,-72.3984 221.0184,-73.6996 230.0495,-79.2394 231.533,-72.3984"/>
</g>
<!-- Node5 -->
<g id="node6" class="node">
<title>Node5</title>
<polygon fill="#ffffff" stroke="#bfbfbf" points="239.5,-56.5 239.5,-75.5 287.5,-75.5 287.5,-56.5 239.5,-56.5"/>
<text text-anchor="middle" x="263.5" y="-63.5" font-family="Helvetica,sans-Serif" font-size="10.00" fill="#000000">stdlib.h</text>
</g>
<!-- Node0&#45;&gt;Node5 -->
<g id="edge5" class="edge">
<title>Node0&#45;&gt;Node5</title>
<path fill="none" stroke="#191970" d="M488.1207,-114.4971C442.0938,-106.7258 369.3756,-93.5749 297.6781,-76.102"/>
<polygon fill="#191970" stroke="#191970" points="298.1182,-72.6057 287.5709,-73.6079 296.4411,-79.4018 298.1182,-72.6057"/>
</g>
<!-- Node6 -->
<g id="node7" class="node">
<title>Node6</title>
<polygon fill="#ffffff" stroke="#bfbfbf" points="305.5,-56.5 305.5,-75.5 351.5,-75.5 351.5,-56.5 305.5,-56.5"/>
<text text-anchor="middle" x="328.5" y="-63.5" font-family="Helvetica,sans-Serif" font-size="10.00" fill="#000000">stdio.h</text>
</g>
<!-- Node0&#45;&gt;Node6 -->
<g id="edge6" class="edge">
<title>Node0&#45;&gt;Node6</title>
<path fill="none" stroke="#191970" d="M497.2771,-112.497C462.1737,-103.4419 408.1333,-89.2612 361.5,-76 361.3992,-75.9713 361.2983,-75.9426 361.1972,-75.9138"/>
<polygon fill="#191970" stroke="#191970" points="362.1295,-72.5399 351.5492,-73.0948 360.1662,-79.259 362.1295,-72.5399"/>
</g>
<!-- Node7 -->
<g id="node8" class="node">
<title>Node7</title>
<polygon fill="#ffffff" stroke="#bfbfbf" points="370,-56.5 370,-75.5 443,-75.5 443,-56.5 370,-56.5"/>
<text text-anchor="middle" x="406.5" y="-63.5" font-family="Helvetica,sans-Serif" font-size="10.00" fill="#000000">sys/socket.h</text>
</g>
<!-- Node0&#45;&gt;Node7 -->
<g id="edge7" class="edge">
<title>Node0&#45;&gt;Node7</title>
<path fill="none" stroke="#191970" d="M512.496,-112.3733C491.8565,-103.3435 460.7842,-89.7494 437.6111,-79.6111"/>
<polygon fill="#191970" stroke="#191970" points="438.7813,-76.3028 428.2169,-75.5011 435.9755,-82.7159 438.7813,-76.3028"/>
</g>
<!-- Node8 -->
<g id="node9" class="node">
<title>Node8</title>
<polygon fill="#ffffff" stroke="#bfbfbf" points="461.5,-56.5 461.5,-75.5 529.5,-75.5 529.5,-56.5 461.5,-56.5"/>
<text text-anchor="middle" x="495.5" y="-63.5" font-family="Helvetica,sans-Serif" font-size="10.00" fill="#000000">sys/types.h</text>
</g>
<!-- Node0&#45;&gt;Node8 -->
<g id="edge8" class="edge">
<title>Node0&#45;&gt;Node8</title>
<path fill="none" stroke="#191970" d="M527.7067,-112.2455C522.2822,-104.4564 514.5339,-93.3308 507.9967,-83.9439"/>
<polygon fill="#191970" stroke="#191970" points="510.8025,-81.8485 502.2154,-75.6427 505.0583,-85.849 510.8025,-81.8485"/>
</g>
<!-- Node9 -->
<g id="node10" class="node">
<title>Node9</title>
<polygon fill="#ffffff" stroke="#bfbfbf" points="548,-56.5 548,-75.5 599,-75.5 599,-56.5 548,-56.5"/>
<text text-anchor="middle" x="573.5" y="-63.5" font-family="Helvetica,sans-Serif" font-size="10.00" fill="#000000">unistd.h</text>
</g>
<!-- Node0&#45;&gt;Node9 -->
<g id="edge9" class="edge">
<title>Node0&#45;&gt;Node9</title>
<path fill="none" stroke="#191970" d="M541.2933,-112.2455C546.7178,-104.4564 554.4661,-93.3308 561.0033,-83.9439"/>
<polygon fill="#191970" stroke="#191970" points="563.9417,-85.849 566.7846,-75.6427 558.1975,-81.8485 563.9417,-85.849"/>
</g>
<!-- Node10 -->
<g id="node11" class="node">
<title>Node10</title>
<polygon fill="#ffffff" stroke="#bfbfbf" points="617,-56.5 617,-75.5 666,-75.5 666,-56.5 617,-56.5"/>
<text text-anchor="middle" x="641.5" y="-63.5" font-family="Helvetica,sans-Serif" font-size="10.00" fill="#000000">stdint.h</text>
</g>
<!-- Node0&#45;&gt;Node10 -->
<g id="edge10" class="edge">
<title>Node0&#45;&gt;Node10</title>
<path fill="none" stroke="#191970" d="M553.138,-112.2455C569.9386,-103.4527 594.8634,-90.4079 613.9618,-80.4125"/>
<polygon fill="#191970" stroke="#191970" points="615.8386,-83.3807 623.0756,-75.6427 612.5927,-77.1787 615.8386,-83.3807"/>
</g>
<!-- Node11 -->
<g id="node12" class="node">
<title>Node11</title>
<polygon fill="#ffffff" stroke="#bfbfbf" points="684,-56.5 684,-75.5 733,-75.5 733,-56.5 684,-56.5"/>
<text text-anchor="middle" x="708.5" y="-63.5" font-family="Helvetica,sans-Serif" font-size="10.00" fill="#000000">netdb.h</text>
</g>
<!-- Node0&#45;&gt;Node11 -->
<g id="edge11" class="edge">
<title>Node0&#45;&gt;Node11</title>
<path fill="none" stroke="#191970" d="M564.4117,-112.3733C594.8357,-102.5816 641.9361,-87.4229 673.9377,-77.1235"/>
<polygon fill="#191970" stroke="#191970" points="675.3101,-80.3587 683.757,-73.9633 673.1655,-73.6953 675.3101,-80.3587"/>
</g>
<!-- Node12 -->
<g id="node13" class="node">
<title>Node12</title>
<polygon fill="#ffffff" stroke="#bfbfbf" points="751,-56.5 751,-75.5 800,-75.5 800,-56.5 751,-56.5"/>
<text text-anchor="middle" x="775.5" y="-63.5" font-family="Helvetica,sans-Serif" font-size="10.00" fill="#000000">string.h</text>
</g>
<!-- Node0&#45;&gt;Node12 -->
<g id="edge12" class="edge">
<title>Node0&#45;&gt;Node12</title>
<path fill="none" stroke="#191970" d="M580.5953,-112.8624C620.6746,-104.6807 680.4995,-91.9023 740.6467,-76.361"/>
<polygon fill="#191970" stroke="#191970" points="741.8992,-79.6515 750.6916,-73.7401 740.1319,-72.8782 741.8992,-79.6515"/>
</g>
<!-- Node13 -->
<g id="node14" class="node">
<title>Node13</title>
<polygon fill="#ffffff" stroke="#bfbfbf" points="818,-56.5 818,-75.5 865,-75.5 865,-56.5 818,-56.5"/>
<text text-anchor="middle" x="841.5" y="-63.5" font-family="Helvetica,sans-Serif" font-size="10.00" fill="#000000">errno.h</text>
</g>
<!-- Node0&#45;&gt;Node13 -->
<g id="edge13" class="edge">
<title>Node0&#45;&gt;Node13</title>
<path fill="none" stroke="#191970" d="M580.625,-116.2537C633.5307,-109.2274 722.9797,-96.0205 808.0243,-76.1229"/>
<polygon fill="#191970" stroke="#191970" points="808.9146,-79.5089 817.835,-73.7925 807.2969,-72.6984 808.9146,-79.5089"/>
</g>
<!-- Node14 -->
<g id="node15" class="node">
<title>Node14</title>
<polygon fill="#ffffff" stroke="#bfbfbf" points="883.5,-56.5 883.5,-75.5 945.5,-75.5 945.5,-56.5 883.5,-56.5"/>
<text text-anchor="middle" x="914.5" y="-63.5" font-family="Helvetica,sans-Serif" font-size="10.00" fill="#000000">sys/ioctl.h</text>
</g>
<!-- Node0&#45;&gt;Node14 -->
<g id="edge14" class="edge">
<title>Node0&#45;&gt;Node14</title>
<path fill="none" stroke="#191970" d="M580.6816,-117.3892C644.4025,-110.6674 763.0196,-96.8635 873.1805,-76.0905"/>
<polygon fill="#191970" stroke="#191970" points="873.964,-79.5042 883.13,-74.1906 872.6509,-72.6285 873.964,-79.5042"/>
</g>
<!-- Node15 -->
<g id="node16" class="node">
<title>Node15</title>
<polygon fill="#ffffff" stroke="#bfbfbf" points="964,-56.5 964,-75.5 1029,-75.5 1029,-56.5 964,-56.5"/>
<text text-anchor="middle" x="996.5" y="-63.5" font-family="Helvetica,sans-Serif" font-size="10.00" fill="#000000">netinet/in.h</text>
</g>
<!-- Node0&#45;&gt;Node15 -->
<g id="edge15" class="edge">
<title>Node0&#45;&gt;Node15</title>
<path fill="none" stroke="#191970" d="M580.7535,-118.8295C656.5804,-113.2189 812.1871,-99.9756 953.4225,-75.9967"/>
<polygon fill="#191970" stroke="#191970" points="954.3036,-79.3966 963.5653,-74.2516 953.1166,-72.498 954.3036,-79.3966"/>
</g>
<!-- Node2 -->
<g id="node3" class="node">
<title>Node2</title>
<g id="a_node3"><a xlink:href="../../d1/dea/ess__error_8h.html" target="_top" xlink:title="ess_error.h">
<polygon fill="#ffffff" stroke="#000000" points="5,-.5 5,-19.5 70,-19.5 70,-.5 5,-.5"/>
<text text-anchor="middle" x="37.5" y="-7.5" font-family="Helvetica,sans-Serif" font-size="10.00" fill="#000000">ess_error.h</text>
</a>
</g>
</g>
<!-- Node1&#45;&gt;Node2 -->
<g id="edge2" class="edge">
<title>Node1&#45;&gt;Node2</title>
<path fill="none" stroke="#191970" d="M37.5,-56.2455C37.5,-48.9382 37.5,-38.6944 37.5,-29.7046"/>
<polygon fill="#191970" stroke="#191970" points="41.0001,-29.6426 37.5,-19.6427 34.0001,-29.6427 41.0001,-29.6426"/>
</g>
</g>
</svg>
