<?xml version="1.0" encoding="UTF-8" standalone="no"?>
<!DOCTYPE svg PUBLIC "-//W3C//DTD SVG 1.1//EN"
 "http://www.w3.org/Graphics/SVG/1.1/DTD/svg11.dtd">
<!-- Generated by graphviz version 2.40.1 (20161225.0304)
 -->
<!-- Title: src/ess_context.c Pages: 1 -->
<svg width="502pt" height="196pt"
 viewBox="0.00 0.00 501.50 196.00" xmlns="http://www.w3.org/2000/svg" xmlns:xlink="http://www.w3.org/1999/xlink">
<g id="graph0" class="graph" transform="scale(1 1) rotate(0) translate(4 192)">
<title>src/ess_context.c</title>
<polygon fill="#ffffff" stroke="transparent" points="-4,4 -4,-192 497.5,-192 497.5,4 -4,4"/>
<!-- Node0 -->
<g id="node1" class="node">
<title>Node0</title>
<polygon fill="#bfbfbf" stroke="#000000" points="213.5,-168.5 213.5,-187.5 308.5,-187.5 308.5,-168.5 213.5,-168.5"/>
<text text-anchor="middle" x="261" y="-175.5" font-family="Helvetica,sans-Serif" font-size="10.00" fill="#000000">src/ess_context.c</text>
</g>
<!-- Node1 -->
<g id="node2" class="node">
<title>Node1</title>
<g id="a_node2"><a xlink:href="../../d7/d36/ess__context_8h.html" target="_top" xlink:title="ess_context.h">
<polygon fill="#ffffff" stroke="#000000" points="0,-112.5 0,-131.5 78,-131.5 78,-112.5 0,-112.5"/>
<text text-anchor="middle" x="39" y="-119.5" font-family="Helvetica,sans-Serif" font-size="10.00" fill="#000000">ess_context.h</text>
</a>
</g>
</g>
<!-- Node0&#45;&gt;Node1 -->
<g id="edge1" class="edge">
<title>Node0&#45;&gt;Node1</title>
<path fill="none" stroke="#191970" d="M223.0891,-168.4369C185.335,-158.9133 127.2735,-144.2672 86.4736,-133.9753"/>
<polygon fill="#191970" stroke="#191970" points="87.3069,-130.576 76.7546,-131.5237 85.5947,-137.3633 87.3069,-130.576"/>
</g>
<!-- Node3 -->
<g id="node4" class="node">
<title>Node3</title>
<g id="a_node4"><a xlink:href="../../db/d16/config_8h.html" target="_top" xlink:title="File containing configurations. ">
<polygon fill="#ffffff" stroke="#000000" points="159.5,-.5 159.5,-19.5 210.5,-19.5 210.5,-.5 159.5,-.5"/>
<text text-anchor="middle" x="185" y="-7.5" font-family="Helvetica,sans-Serif" font-size="10.00" fill="#000000">config.h</text>
</a>
</g>
</g>
<!-- Node0&#45;&gt;Node3 -->
<g id="edge12" class="edge">
<title>Node0&#45;&gt;Node3</title>
<path fill="none" stroke="#191970" d="M252.7907,-168.3035C245.518,-159.3416 234.9973,-145.4215 228,-132 210.0836,-97.6347 196.7824,-54.1623 190.0156,-29.4772"/>
<polygon fill="#191970" stroke="#191970" points="193.3294,-28.3197 187.3732,-19.5576 186.5652,-30.1215 193.3294,-28.3197"/>
</g>
<!-- Node5 -->
<g id="node6" class="node">
<title>Node5</title>
<g id="a_node6"><a xlink:href="../../de/dc0/ess__backend_8h.html" target="_top" xlink:title="ess_backend.h">
<polygon fill="#ffffff" stroke="#000000" points="96.5,-112.5 96.5,-131.5 179.5,-131.5 179.5,-112.5 96.5,-112.5"/>
<text text-anchor="middle" x="138" y="-119.5" font-family="Helvetica,sans-Serif" font-size="10.00" fill="#000000">ess_backend.h</text>
</a>
</g>
</g>
<!-- Node0&#45;&gt;Node5 -->
<g id="edge6" class="edge">
<title>Node0&#45;&gt;Node5</title>
<path fill="none" stroke="#191970" d="M239.8555,-168.3733C220.1108,-159.3838 190.4302,-145.8706 168.1945,-135.7471"/>
<polygon fill="#191970" stroke="#191970" points="169.42,-132.4594 158.8685,-131.5011 166.5194,-138.8302 169.42,-132.4594"/>
</g>
<!-- Node6 -->
<g id="node7" class="node">
<title>Node6</title>
<polygon fill="#ffffff" stroke="#bfbfbf" points="236.5,-112.5 236.5,-131.5 285.5,-131.5 285.5,-112.5 236.5,-112.5"/>
<text text-anchor="middle" x="261" y="-119.5" font-family="Helvetica,sans-Serif" font-size="10.00" fill="#000000">string.h</text>
</g>
<!-- Node0&#45;&gt;Node6 -->
<g id="edge8" class="edge">
<title>Node0&#45;&gt;Node6</title>
<path fill="none" stroke="#191970" d="M261,-168.2455C261,-160.9382 261,-150.6944 261,-141.7046"/>
<polygon fill="#191970" stroke="#191970" points="264.5001,-141.6426 261,-131.6427 257.5001,-141.6427 264.5001,-141.6426"/>
</g>
<!-- Node7 -->
<g id="node8" class="node">
<title>Node7</title>
<polygon fill="#ffffff" stroke="#bfbfbf" points="304,-112.5 304,-131.5 352,-131.5 352,-112.5 304,-112.5"/>
<text text-anchor="middle" x="328" y="-119.5" font-family="Helvetica,sans-Serif" font-size="10.00" fill="#000000">stdlib.h</text>
</g>
<!-- Node0&#45;&gt;Node7 -->
<g id="edge9" class="edge">
<title>Node0&#45;&gt;Node7</title>
<path fill="none" stroke="#191970" d="M272.6705,-168.2455C282.5661,-159.9746 296.9627,-147.9416 308.5901,-138.2232"/>
<polygon fill="#191970" stroke="#191970" points="311.035,-140.7413 316.4632,-131.6427 306.5458,-135.3703 311.035,-140.7413"/>
</g>
<!-- Node8 -->
<g id="node9" class="node">
<title>Node8</title>
<polygon fill="#ffffff" stroke="#bfbfbf" points="370,-112.5 370,-131.5 416,-131.5 416,-112.5 370,-112.5"/>
<text text-anchor="middle" x="393" y="-119.5" font-family="Helvetica,sans-Serif" font-size="10.00" fill="#000000">stdio.h</text>
</g>
<!-- Node0&#45;&gt;Node8 -->
<g id="edge10" class="edge">
<title>Node0&#45;&gt;Node8</title>
<path fill="none" stroke="#191970" d="M283.6916,-168.3733C305.0711,-159.3032 337.3057,-145.6279 361.2362,-135.4755"/>
<polygon fill="#191970" stroke="#191970" points="362.7656,-138.6287 370.6045,-131.5011 360.0317,-132.1846 362.7656,-138.6287"/>
</g>
<!-- Node9 -->
<g id="node10" class="node">
<title>Node9</title>
<polygon fill="#ffffff" stroke="#bfbfbf" points="434.5,-112.5 434.5,-131.5 493.5,-131.5 493.5,-112.5 434.5,-112.5"/>
<text text-anchor="middle" x="464" y="-119.5" font-family="Helvetica,sans-Serif" font-size="10.00" fill="#000000">esp_log.h</text>
</g>
<!-- Node0&#45;&gt;Node9 -->
<g id="edge11" class="edge">
<title>Node0&#45;&gt;Node9</title>
<path fill="none" stroke="#191970" d="M295.8969,-168.3733C331.6454,-158.5116 387.1288,-143.2059 424.4753,-132.9034"/>
<polygon fill="#191970" stroke="#191970" points="425.7873,-136.1722 434.4965,-130.1389 423.9258,-129.4243 425.7873,-136.1722"/>
</g>
<!-- Node2 -->
<g id="node3" class="node">
<title>Node2</title>
<g id="a_node3"><a xlink:href="../../da/dfe/ess_8h.html" target="_top" xlink:title="ess.h">
<polygon fill="#ffffff" stroke="#000000" points="92.5,-56.5 92.5,-75.5 133.5,-75.5 133.5,-56.5 92.5,-56.5"/>
<text text-anchor="middle" x="113" y="-63.5" font-family="Helvetica,sans-Serif" font-size="10.00" fill="#000000">ess.h</text>
</a>
</g>
</g>
<!-- Node1&#45;&gt;Node2 -->
<g id="edge2" class="edge">
<title>Node1&#45;&gt;Node2</title>
<path fill="none" stroke="#191970" d="M51.8898,-112.2455C62.9254,-103.8943 79.0292,-91.7076 91.9353,-81.9408"/>
<polygon fill="#191970" stroke="#191970" points="94.3959,-84.4681 100.2579,-75.6427 90.1717,-78.8862 94.3959,-84.4681"/>
</g>
<!-- Node4 -->
<g id="node5" class="node">
<title>Node4</title>
<g id="a_node5"><a xlink:href="../../d7/d35/ess__format_8h.html" target="_top" xlink:title="ess_format.h">
<polygon fill="#ffffff" stroke="#000000" points="45,-.5 45,-19.5 119,-19.5 119,-.5 45,-.5"/>
<text text-anchor="middle" x="82" y="-7.5" font-family="Helvetica,sans-Serif" font-size="10.00" fill="#000000">ess_format.h</text>
</a>
</g>
</g>
<!-- Node1&#45;&gt;Node4 -->
<g id="edge5" class="edge">
<title>Node1&#45;&gt;Node4</title>
<path fill="none" stroke="#191970" d="M42.6662,-112.4509C49.7428,-94.0186 65.4045,-53.2254 74.6888,-29.043"/>
<polygon fill="#191970" stroke="#191970" points="78.0263,-30.115 78.3431,-19.5249 71.4914,-27.606 78.0263,-30.115"/>
</g>
<!-- Node2&#45;&gt;Node3 -->
<g id="edge3" class="edge">
<title>Node2&#45;&gt;Node3</title>
<path fill="none" stroke="#191970" d="M125.5414,-56.2455C136.2787,-47.8943 151.9473,-35.7076 164.5047,-25.9408"/>
<polygon fill="#191970" stroke="#191970" points="166.8575,-28.5449 172.6023,-19.6427 162.5599,-23.0194 166.8575,-28.5449"/>
</g>
<!-- Node2&#45;&gt;Node4 -->
<g id="edge4" class="edge">
<title>Node2&#45;&gt;Node4</title>
<path fill="none" stroke="#191970" d="M107.6002,-56.2455C103.3773,-48.617 97.3827,-37.7881 92.2559,-28.5267"/>
<polygon fill="#191970" stroke="#191970" points="95.2432,-26.6965 87.3379,-19.6427 89.119,-30.0867 95.2432,-26.6965"/>
</g>
<!-- Node5&#45;&gt;Node2 -->
<g id="edge7" class="edge">
<title>Node5&#45;&gt;Node2</title>
<path fill="none" stroke="#191970" d="M133.6453,-112.2455C130.2756,-104.6973 125.507,-94.0158 121.4017,-84.8197"/>
<polygon fill="#191970" stroke="#191970" points="124.5773,-83.3473 117.3048,-75.6427 118.1853,-86.2009 124.5773,-83.3473"/>
</g>
</g>
</svg>
