<?xml version="1.0" encoding="UTF-8" standalone="no"?>
<!DOCTYPE svg PUBLIC "-//W3C//DTD SVG 1.1//EN"
 "http://www.w3.org/Graphics/SVG/1.1/DTD/svg11.dtd">
<!-- Generated by graphviz version 2.40.1 (20161225.0304)
 -->
<!-- Title: src/ess_context.c Pages: 1 -->
<!--zoomable 196 -->
<svg id="main" version="1.1" xmlns="http://www.w3.org/2000/svg" xmlns:xlink="http://www.w3.org/1999/xlink" xml:space="preserve" onload="init(evt)">
<style type="text/css"><![CDATA[
.edge:hover path { stroke: red; }
.edge:hover polygon { stroke: red; fill: red; }
]]></style>
<script type="text/javascript"><![CDATA[
var edges = document.getElementsByTagName('g');
if (edges && edges.length) {
  for (var i=0;i<edges.length;i++) {
    if (edges[i].id.substr(0,4)=='edge') {
      edges[i].setAttribute('class','edge');
    }
  }
}
]]></script>
        <defs>
                <circle id="rim" cx="0" cy="0" r="7"/>
                <circle id="rim2" cx="0" cy="0" r="3.5"/>
                <g id="zoomPlus">
                        <use xlink:href="#rim" fill="#404040">
                                <set attributeName="fill" to="#808080" begin="zoomplus.mouseover" end="zoomplus.mouseout"/>
                        </use>
                        <path d="M-4,0h8M0,-4v8" fill="none" stroke="white" stroke-width="1.5" pointer-events="none"/>
                </g>
                <g id="zoomMin">
                        <use xlink:href="#rim" fill="#404040">
                                <set attributeName="fill" to="#808080" begin="zoomminus.mouseover" end="zoomminus.mouseout"/>
                        </use>
                        <path d="M-4,0h8" fill="none" stroke="white" stroke-width="1.5" pointer-events="none"/>
                </g>
                <g id="dirArrow">
                        <path fill="none" stroke="white" stroke-width="1.5" d="M0,-3.0v7 M-2.5,-0.5L0,-3.0L2.5,-0.5"/>
                </g>
               <g id="resetDef">
                       <use xlink:href="#rim2" fill="#404040">
                               <set attributeName="fill" to="#808080" begin="reset.mouseover" end="reset.mouseout"/>
                       </use>
               </g>
        </defs>

<script type="text/javascript">
var viewWidth = 618;
var viewHeight = 196;
var sectionId = 'dynsection-0';
</script>
<script xlink:href="../../svgpan.js"/>
<svg id="graph" class="graph">
<g id="viewport">
<title>src/ess_context.c</title>
<polygon fill="#ffffff" stroke="transparent" points="-4,4 -4,-192 613.5,-192 613.5,4 -4,4"/>
<!-- Node0 -->
<g id="node1" class="node">
<title>Node0</title>
<polygon fill="#bfbfbf" stroke="#000000" points="329.5,-168.5 329.5,-187.5 424.5,-187.5 424.5,-168.5 329.5,-168.5"/>
<text text-anchor="middle" x="377" y="-175.5" font-family="Helvetica,sans-Serif" font-size="10.00" fill="#000000">src/ess_context.c</text>
</g>
<!-- Node1 -->
<g id="node2" class="node">
<title>Node1</title>
<g id="a_node2"><a xlink:href="../../d7/d36/ess__context_8h.html" target="_top" xlink:title="ess_context.h">
<polygon fill="#ffffff" stroke="#000000" points="116,-112.5 116,-131.5 194,-131.5 194,-112.5 116,-112.5"/>
<text text-anchor="middle" x="155" y="-119.5" font-family="Helvetica,sans-Serif" font-size="10.00" fill="#000000">ess_context.h</text>
</a>
</g>
</g>
<!-- Node0&#45;&gt;Node1 -->
<g id="edge1" class="edge">
<title>Node0&#45;&gt;Node1</title>
<path fill="none" stroke="#191970" d="M339.0891,-168.4369C301.335,-158.9133 243.2735,-144.2672 202.4736,-133.9753"/>
<polygon fill="#191970" stroke="#191970" points="203.3069,-130.576 192.7546,-131.5237 201.5947,-137.3633 203.3069,-130.576"/>
</g>
<!-- Node7 -->
<g id="node8" class="node">
<title>Node7</title>
<g id="a_node8"><a xlink:href="../../db/d16/config_8h.html" target="_top" xlink:title="File containing configurations. ">
<polygon fill="#ffffff" stroke="#000000" points="387.5,-.5 387.5,-19.5 438.5,-19.5 438.5,-.5 387.5,-.5"/>
<text text-anchor="middle" x="413" y="-7.5" font-family="Helvetica,sans-Serif" font-size="10.00" fill="#000000">config.h</text>
</a>
</g>
</g>
<!-- Node0&#45;&gt;Node7 -->
<g id="edge18" class="edge">
<title>Node0&#45;&gt;Node7</title>
<path fill="none" stroke="#191970" d="M367.3508,-168.4346C359.35,-159.7723 348.5738,-146.2221 344,-132 341.2786,-123.5379 341.3954,-120.4987 344,-112 354.2592,-78.5244 379.6293,-46.1368 396.5788,-27.1444"/>
<polygon fill="#191970" stroke="#191970" points="399.2901,-29.3665 403.474,-19.6327 394.1333,-24.6328 399.2901,-29.3665"/>
</g>
<!-- Node10 -->
<g id="node11" class="node">
<title>Node10</title>
<g id="a_node11"><a xlink:href="../../de/dc0/ess__backend_8h.html" target="_top" xlink:title="ess_backend.h">
<polygon fill="#ffffff" stroke="#000000" points="212.5,-112.5 212.5,-131.5 295.5,-131.5 295.5,-112.5 212.5,-112.5"/>
<text text-anchor="middle" x="254" y="-119.5" font-family="Helvetica,sans-Serif" font-size="10.00" fill="#000000">ess_backend.h</text>
</a>
</g>
</g>
<!-- Node0&#45;&gt;Node10 -->
<g id="edge11" class="edge">
<title>Node0&#45;&gt;Node10</title>
<path fill="none" stroke="#191970" d="M355.8555,-168.3733C336.1108,-159.3838 306.4302,-145.8706 284.1945,-135.7471"/>
<polygon fill="#191970" stroke="#191970" points="285.42,-132.4594 274.8685,-131.5011 282.5194,-138.8302 285.42,-132.4594"/>
</g>
<!-- Node11 -->
<g id="node12" class="node">
<title>Node11</title>
<polygon fill="#ffffff" stroke="#bfbfbf" points="352.5,-112.5 352.5,-131.5 401.5,-131.5 401.5,-112.5 352.5,-112.5"/>
<text text-anchor="middle" x="377" y="-119.5" font-family="Helvetica,sans-Serif" font-size="10.00" fill="#000000">string.h</text>
</g>
<!-- Node0&#45;&gt;Node11 -->
<g id="edge14" class="edge">
<title>Node0&#45;&gt;Node11</title>
<path fill="none" stroke="#191970" d="M377,-168.2455C377,-160.9382 377,-150.6944 377,-141.7046"/>
<polygon fill="#191970" stroke="#191970" points="380.5001,-141.6426 377,-131.6427 373.5001,-141.6427 380.5001,-141.6426"/>
</g>
<!-- Node12 -->
<g id="node13" class="node">
<title>Node12</title>
<polygon fill="#ffffff" stroke="#bfbfbf" points="420,-112.5 420,-131.5 468,-131.5 468,-112.5 420,-112.5"/>
<text text-anchor="middle" x="444" y="-119.5" font-family="Helvetica,sans-Serif" font-size="10.00" fill="#000000">stdlib.h</text>
</g>
<!-- Node0&#45;&gt;Node12 -->
<g id="edge15" class="edge">
<title>Node0&#45;&gt;Node12</title>
<path fill="none" stroke="#191970" d="M388.6705,-168.2455C398.5661,-159.9746 412.9627,-147.9416 424.5901,-138.2232"/>
<polygon fill="#191970" stroke="#191970" points="427.035,-140.7413 432.4632,-131.6427 422.5458,-135.3703 427.035,-140.7413"/>
</g>
<!-- Node13 -->
<g id="node14" class="node">
<title>Node13</title>
<polygon fill="#ffffff" stroke="#bfbfbf" points="486,-112.5 486,-131.5 532,-131.5 532,-112.5 486,-112.5"/>
<text text-anchor="middle" x="509" y="-119.5" font-family="Helvetica,sans-Serif" font-size="10.00" fill="#000000">stdio.h</text>
</g>
<!-- Node0&#45;&gt;Node13 -->
<g id="edge16" class="edge">
<title>Node0&#45;&gt;Node13</title>
<path fill="none" stroke="#191970" d="M399.6916,-168.3733C421.0711,-159.3032 453.3057,-145.6279 477.2362,-135.4755"/>
<polygon fill="#191970" stroke="#191970" points="478.7656,-138.6287 486.6045,-131.5011 476.0317,-132.1846 478.7656,-138.6287"/>
</g>
<!-- Node14 -->
<g id="node15" class="node">
<title>Node14</title>
<polygon fill="#ffffff" stroke="#bfbfbf" points="550.5,-112.5 550.5,-131.5 609.5,-131.5 609.5,-112.5 550.5,-112.5"/>
<text text-anchor="middle" x="580" y="-119.5" font-family="Helvetica,sans-Serif" font-size="10.00" fill="#000000">esp_log.h</text>
</g>
<!-- Node0&#45;&gt;Node14 -->
<g id="edge17" class="edge">
<title>Node0&#45;&gt;Node14</title>
<path fill="none" stroke="#191970" d="M411.8969,-168.3733C447.6454,-158.5116 503.1288,-143.2059 540.4753,-132.9034"/>
<polygon fill="#191970" stroke="#191970" points="541.7873,-136.1722 550.4965,-130.1389 539.9258,-129.4243 541.7873,-136.1722"/>
</g>
<!-- Node2 -->
<g id="node3" class="node">
<title>Node2</title>
<g id="a_node3"><a xlink:href="../../da/dfe/ess_8h.html" target="_top" xlink:title="ess.h">
<polygon fill="#ffffff" stroke="#000000" points="224.5,-56.5 224.5,-75.5 265.5,-75.5 265.5,-56.5 224.5,-56.5"/>
<text text-anchor="middle" x="245" y="-63.5" font-family="Helvetica,sans-Serif" font-size="10.00" fill="#000000">ess.h</text>
</a>
</g>
</g>
<!-- Node1&#45;&gt;Node2 -->
<g id="edge2" class="edge">
<title>Node1&#45;&gt;Node2</title>
<path fill="none" stroke="#191970" d="M170.6768,-112.2455C184.4856,-103.6534 204.8193,-91.0014 220.7292,-81.1018"/>
<polygon fill="#191970" stroke="#191970" points="222.8613,-83.8974 229.5028,-75.6427 219.1632,-77.954 222.8613,-83.8974"/>
</g>
<!-- Node8 -->
<g id="node9" class="node">
<title>Node8</title>
<g id="a_node9"><a xlink:href="../../d7/d35/ess__format_8h.html" target="_top" xlink:title="ess_format.h">
<polygon fill="#ffffff" stroke="#000000" points="0,-.5 0,-19.5 74,-19.5 74,-.5 0,-.5"/>
<text text-anchor="middle" x="37" y="-7.5" font-family="Helvetica,sans-Serif" font-size="10.00" fill="#000000">ess_format.h</text>
</a>
</g>
</g>
<!-- Node1&#45;&gt;Node8 -->
<g id="edge9" class="edge">
<title>Node1&#45;&gt;Node8</title>
<path fill="none" stroke="#191970" d="M144.9394,-112.4509C124.823,-93.3574 79.427,-50.2697 54.3906,-26.5063"/>
<polygon fill="#191970" stroke="#191970" points="56.6977,-23.8706 47.0351,-19.5249 51.8787,-28.9478 56.6977,-23.8706"/>
</g>
<!-- Node9 -->
<g id="node10" class="node">
<title>Node9</title>
<g id="a_node10"><a xlink:href="../../d1/dea/ess__error_8h.html" target="_top" xlink:title="ess_error.h">
<polygon fill="#ffffff" stroke="#000000" points="132.5,-56.5 132.5,-75.5 197.5,-75.5 197.5,-56.5 132.5,-56.5"/>
<text text-anchor="middle" x="165" y="-63.5" font-family="Helvetica,sans-Serif" font-size="10.00" fill="#000000">ess_error.h</text>
</a>
</g>
</g>
<!-- Node1&#45;&gt;Node9 -->
<g id="edge10" class="edge">
<title>Node1&#45;&gt;Node9</title>
<path fill="none" stroke="#191970" d="M156.7419,-112.2455C158.0467,-104.9382 159.876,-94.6944 161.4813,-85.7046"/>
<polygon fill="#191970" stroke="#191970" points="164.9656,-86.1022 163.2781,-75.6427 158.0746,-84.8717 164.9656,-86.1022"/>
</g>
<!-- Node3 -->
<g id="node4" class="node">
<title>Node3</title>
<polygon fill="#ffffff" stroke="#bfbfbf" points="259.5,-.5 259.5,-19.5 306.5,-19.5 306.5,-.5 259.5,-.5"/>
<text text-anchor="middle" x="283" y="-7.5" font-family="Helvetica,sans-Serif" font-size="10.00" fill="#000000">errno.h</text>
</g>
<!-- Node2&#45;&gt;Node3 -->
<g id="edge3" class="edge">
<title>Node2&#45;&gt;Node3</title>
<path fill="none" stroke="#191970" d="M251.6191,-56.2455C256.9046,-48.4564 264.4541,-37.3308 270.8238,-27.9439"/>
<polygon fill="#191970" stroke="#191970" points="273.7379,-29.8827 276.4568,-19.6427 267.9455,-25.9522 273.7379,-29.8827"/>
</g>
<!-- Node4 -->
<g id="node5" class="node">
<title>Node4</title>
<polygon fill="#ffffff" stroke="#bfbfbf" points="325,-.5 325,-19.5 369,-19.5 369,-.5 325,-.5"/>
<text text-anchor="middle" x="347" y="-7.5" font-family="Helvetica,sans-Serif" font-size="10.00" fill="#000000">time.h</text>
</g>
<!-- Node2&#45;&gt;Node4 -->
<g id="edge4" class="edge">
<title>Node2&#45;&gt;Node4</title>
<path fill="none" stroke="#191970" d="M262.767,-56.2455C278.7095,-47.4928 302.3259,-34.527 320.4989,-24.5496"/>
<polygon fill="#191970" stroke="#191970" points="322.3552,-27.5233 329.4366,-19.6427 318.9863,-21.3873 322.3552,-27.5233"/>
</g>
<!-- Node5 -->
<g id="node6" class="node">
<title>Node5</title>
<polygon fill="#ffffff" stroke="#bfbfbf" points="92,-.5 92,-19.5 154,-19.5 154,-.5 92,-.5"/>
<text text-anchor="middle" x="123" y="-7.5" font-family="Helvetica,sans-Serif" font-size="10.00" fill="#000000">sys/time.h</text>
</g>
<!-- Node2&#45;&gt;Node5 -->
<g id="edge5" class="edge">
<title>Node2&#45;&gt;Node5</title>
<path fill="none" stroke="#191970" d="M224.3044,-56.5004C204.762,-47.5301 175.2302,-33.9745 153.0862,-23.8101"/>
<polygon fill="#191970" stroke="#191970" points="154.3456,-20.5371 143.7972,-19.5462 151.4254,-26.8989 154.3456,-20.5371"/>
</g>
<!-- Node6 -->
<g id="node7" class="node">
<title>Node6</title>
<polygon fill="#ffffff" stroke="#bfbfbf" points="172.5,-.5 172.5,-19.5 241.5,-19.5 241.5,-.5 172.5,-.5"/>
<text text-anchor="middle" x="207" y="-7.5" font-family="Helvetica,sans-Serif" font-size="10.00" fill="#000000">sys/signal.h</text>
</g>
<!-- Node2&#45;&gt;Node6 -->
<g id="edge6" class="edge">
<title>Node2&#45;&gt;Node6</title>
<path fill="none" stroke="#191970" d="M238.3809,-56.2455C233.0954,-48.4564 225.5459,-37.3308 219.1762,-27.9439"/>
<polygon fill="#191970" stroke="#191970" points="222.0545,-25.9522 213.5432,-19.6427 216.2621,-29.8827 222.0545,-25.9522"/>
</g>
<!-- Node2&#45;&gt;Node7 -->
<g id="edge7" class="edge">
<title>Node2&#45;&gt;Node7</title>
<path fill="none" stroke="#191970" d="M265.6001,-59.1333C293.5115,-49.8295 343.7504,-33.0832 377.7288,-21.7571"/>
<polygon fill="#191970" stroke="#191970" points="378.8986,-25.0565 387.2786,-18.5738 376.685,-18.4157 378.8986,-25.0565"/>
</g>
<!-- Node2&#45;&gt;Node8 -->
<g id="edge8" class="edge">
<title>Node2&#45;&gt;Node8</title>
<path fill="none" stroke="#191970" d="M224.2957,-60.4258C191.4067,-51.571 126.4441,-34.0811 82.3612,-22.2126"/>
<polygon fill="#191970" stroke="#191970" points="83.0309,-18.7684 72.4648,-19.5482 81.2111,-25.5277 83.0309,-18.7684"/>
</g>
<!-- Node10&#45;&gt;Node2 -->
<g id="edge12" class="edge">
<title>Node10&#45;&gt;Node2</title>
<path fill="none" stroke="#191970" d="M252.4323,-112.2455C251.2579,-104.9382 249.6116,-94.6944 248.1668,-85.7046"/>
<polygon fill="#191970" stroke="#191970" points="251.5922,-84.9606 246.5497,-75.6427 244.6809,-86.0714 251.5922,-84.9606"/>
</g>
<!-- Node10&#45;&gt;Node9 -->
<g id="edge13" class="edge">
<title>Node10&#45;&gt;Node9</title>
<path fill="none" stroke="#191970" d="M238.4974,-112.2455C224.842,-103.6534 204.7343,-91.0014 189.0011,-81.1018"/>
<polygon fill="#191970" stroke="#191970" points="190.6529,-78.006 180.325,-75.6427 186.9249,-83.9307 190.6529,-78.006"/>
</g>
</g>
</svg>
        <g id="navigator" transform="translate(0 0)" fill="#404254">
                <rect fill="#f2f5e9" fill-opacity="0.5" stroke="#606060" stroke-width=".5" x="0" y="0" width="60" height="60"/>
                <use id="zoomplus" xlink:href="#zoomPlus" x="17" y="9" onmousedown="handleZoom(evt,'in')"/>
                <use id="zoomminus" xlink:href="#zoomMin" x="42" y="9" onmousedown="handleZoom(evt,'out')"/>
                <use id="reset" xlink:href="#resetDef" x="30" y="36" onmousedown="handleReset()"/>
                <g id="arrowUp" xlink:href="#dirArrow" transform="translate(30 24)" onmousedown="handlePan(0,-1)">
                  <use xlink:href="#rim" fill="#404040">
                        <set attributeName="fill" to="#808080" begin="arrowUp.mouseover" end="arrowUp.mouseout"/>
                  </use>
                  <path fill="none" stroke="white" stroke-width="1.5" d="M0,-3.0v7 M-2.5,-0.5L0,-3.0L2.5,-0.5"/>
                </g>
                <g id="arrowRight" xlink:href="#dirArrow" transform="rotate(90) translate(36 -43)" onmousedown="handlePan(1,0)">
                  <use xlink:href="#rim" fill="#404040">
                        <set attributeName="fill" to="#808080" begin="arrowRight.mouseover" end="arrowRight.mouseout"/>
                  </use>
                  <path fill="none" stroke="white" stroke-width="1.5" d="M0,-3.0v7 M-2.5,-0.5L0,-3.0L2.5,-0.5"/>
                </g>
                <g id="arrowDown" xlink:href="#dirArrow" transform="rotate(180) translate(-30 -48)" onmousedown="handlePan(0,1)">
                  <use xlink:href="#rim" fill="#404040">
                        <set attributeName="fill" to="#808080" begin="arrowDown.mouseover" end="arrowDown.mouseout"/>
                  </use>
                  <path fill="none" stroke="white" stroke-width="1.5" d="M0,-3.0v7 M-2.5,-0.5L0,-3.0L2.5,-0.5"/>
                </g>
                <g id="arrowLeft" xlink:href="#dirArrow" transform="rotate(270) translate(-36 17)" onmousedown="handlePan(-1,0)">
                  <use xlink:href="#rim" fill="#404040">
                        <set attributeName="fill" to="#808080" begin="arrowLeft.mouseover" end="arrowLeft.mouseout"/>
                  </use>
                  <path fill="none" stroke="white" stroke-width="1.5" d="M0,-3.0v7 M-2.5,-0.5L0,-3.0L2.5,-0.5"/>
                </g>
        </g>
        <svg viewBox="0 0 15 15" width="100%" height="30px" preserveAspectRatio="xMaxYMin meet">
         <g id="arrow_out" transform="scale(0.3 0.3)">
          <a xlink:href="ess__context_8c__incl_org.svg" target="_base">
           <rect id="button" ry="5" rx="5" y="6" x="6" height="38" width="38"
                fill="#f2f5e9" fill-opacity="0.5" stroke="#606060" stroke-width="1.0"/>
           <path id="arrow"
             d="M 11.500037,31.436501 C 11.940474,20.09759 22.043105,11.32322 32.158766,21.979434 L 37.068811,17.246167 C 37.068811,17.246167 37.088388,32 37.088388,32 L 22.160133,31.978069 C 22.160133,31.978069 26.997745,27.140456 26.997745,27.140456 C 18.528582,18.264221 13.291696,25.230495 11.500037,31.436501 z"
             style="fill:#404040;"/>
          </a>
         </g>
        </svg>
</svg>
