<?xml version="1.0" encoding="UTF-8" standalone="no"?>
<!DOCTYPE svg PUBLIC "-//W3C//DTD SVG 1.1//EN"
 "http://www.w3.org/Graphics/SVG/1.1/DTD/svg11.dtd">
<!-- Generated by graphviz version 2.40.1 (20161225.0304)
 -->
<!-- Title: include/ess_task.h Pages: 1 -->
<svg width="127pt" height="140pt"
 viewBox="0.00 0.00 126.50 140.00" xmlns="http://www.w3.org/2000/svg" xmlns:xlink="http://www.w3.org/1999/xlink">
<g id="graph0" class="graph" transform="scale(1 1) rotate(0) translate(4 136)">
<title>include/ess_task.h</title>
<polygon fill="#ffffff" stroke="transparent" points="-4,4 -4,-136 122.5,-136 122.5,4 -4,4"/>
<!-- Node0 -->
<g id="node1" class="node">
<title>Node0</title>
<polygon fill="#bfbfbf" stroke="#000000" points="0,-112.5 0,-131.5 98,-131.5 98,-112.5 0,-112.5"/>
<text text-anchor="middle" x="49" y="-119.5" font-family="Helvetica,sans-Serif" font-size="10.00" fill="#000000">include/ess_task.h</text>
</g>
<!-- Node1 -->
<g id="node2" class="node">
<title>Node1</title>
<g id="a_node2"><a xlink:href="../../d1/dea/ess__error_8h.html" target="_top" xlink:title="ess_error.h">
<polygon fill="#ffffff" stroke="#000000" points="16.5,-.5 16.5,-19.5 81.5,-19.5 81.5,-.5 16.5,-.5"/>
<text text-anchor="middle" x="49" y="-7.5" font-family="Helvetica,sans-Serif" font-size="10.00" fill="#000000">ess_error.h</text>
</a>
</g>
</g>
<!-- Node0&#45;&gt;Node1 -->
<g id="edge1" class="edge">
<title>Node0&#45;&gt;Node1</title>
<path fill="none" stroke="#191970" d="M44.9944,-112.2187C40.2186,-99.385 33.2104,-76.1282 36,-56 37.2357,-47.0835 39.7581,-37.4647 42.255,-29.3395"/>
<polygon fill="#191970" stroke="#191970" points="45.6247,-30.296 45.4124,-19.7033 38.9726,-28.1164 45.6247,-30.296"/>
</g>
<!-- Node2 -->
<g id="node3" class="node">
<title>Node2</title>
<g id="a_node3"><a xlink:href="../../d1/db7/ess__mutex_8h.html" target="_top" xlink:title="all platform specific mutex functions ">
<polygon fill="#ffffff" stroke="#000000" points="45.5,-56.5 45.5,-75.5 118.5,-75.5 118.5,-56.5 45.5,-56.5"/>
<text text-anchor="middle" x="82" y="-63.5" font-family="Helvetica,sans-Serif" font-size="10.00" fill="#000000">ess_mutex.h</text>
</a>
</g>
</g>
<!-- Node0&#45;&gt;Node2 -->
<g id="edge2" class="edge">
<title>Node0&#45;&gt;Node2</title>
<path fill="none" stroke="#191970" d="M54.7482,-112.2455C59.2435,-104.617 65.6248,-93.7881 71.0825,-84.5267"/>
<polygon fill="#191970" stroke="#191970" points="74.2561,-86.035 76.3177,-75.6427 68.2253,-82.4811 74.2561,-86.035"/>
</g>
<!-- Node2&#45;&gt;Node1 -->
<g id="edge3" class="edge">
<title>Node2&#45;&gt;Node1</title>
<path fill="none" stroke="#191970" d="M76.2518,-56.2455C71.7565,-48.617 65.3752,-37.7881 59.9175,-28.5267"/>
<polygon fill="#191970" stroke="#191970" points="62.7747,-26.4811 54.6823,-19.6427 56.7439,-30.035 62.7747,-26.4811"/>
</g>
</g>
</svg>
