<?xml version="1.0" encoding="UTF-8" standalone="no"?>
<!DOCTYPE svg PUBLIC "-//W3C//DTD SVG 1.1//EN"
 "http://www.w3.org/Graphics/SVG/1.1/DTD/svg11.dtd">
<!-- Generated by graphviz version 2.40.1 (20161225.0304)
 -->
<!-- Title: include/ess_platform.h Pages: 1 -->
<svg width="224pt" height="95pt"
 viewBox="0.00 0.00 223.50 95.00" xmlns="http://www.w3.org/2000/svg" xmlns:xlink="http://www.w3.org/1999/xlink">
<g id="graph0" class="graph" transform="scale(1 1) rotate(0) translate(4 91)">
<title>include/ess_platform.h</title>
<polygon fill="#ffffff" stroke="transparent" points="-4,4 -4,-91 219.5,-91 219.5,4 -4,4"/>
<!-- Node2 -->
<g id="node1" class="node">
<title>Node2</title>
<polygon fill="#bfbfbf" stroke="#000000" points="50,-67.5 50,-86.5 165,-86.5 165,-67.5 50,-67.5"/>
<text text-anchor="middle" x="107.5" y="-74.5" font-family="Helvetica,sans-Serif" font-size="10.00" fill="#000000">include/ess_platform.h</text>
</g>
<!-- Node3 -->
<g id="node2" class="node">
<title>Node3</title>
<g id="a_node2"><a xlink:href="../../d8/d50/ess__backend_8c.html" target="_top" xlink:title="src/ess_backend.c">
<polygon fill="#ffffff" stroke="#000000" points="0,-6 0,-25 99,-25 99,-6 0,-6"/>
<text text-anchor="middle" x="49.5" y="-13" font-family="Helvetica,sans-Serif" font-size="10.00" fill="#000000">src/ess_backend.c</text>
</a>
</g>
</g>
<!-- Node2&#45;&gt;Node3 -->
<g id="edge1" class="edge">
<title>Node2&#45;&gt;Node3</title>
<path fill="none" stroke="#191970" d="M91.3739,-59.9007C80.8358,-48.7268 67.4523,-34.5356 58.6903,-25.2449"/>
<polygon fill="#191970" stroke="#191970" points="89.0302,-62.5169 98.4375,-67.3906 94.1227,-57.7142 89.0302,-62.5169"/>
</g>
<!-- Node4 -->
<g id="node3" class="node">
<title>Node4</title>
<g id="a_node3"><a xlink:href="../../d5/d24/esp32__platform_8c.html" target="_top" xlink:title="all esp32 platform functions source ">
<polygon fill="#ffffff" stroke="#000000" points="117.5,-.5 117.5,-30.5 215.5,-30.5 215.5,-.5 117.5,-.5"/>
<text text-anchor="start" x="125.5" y="-18.5" font-family="Helvetica,sans-Serif" font-size="10.00" fill="#000000">src/platform/esp32</text>
<text text-anchor="middle" x="166.5" y="-7.5" font-family="Helvetica,sans-Serif" font-size="10.00" fill="#000000">/esp32_platform.c</text>
</a>
</g>
</g>
<!-- Node2&#45;&gt;Node4 -->
<g id="edge2" class="edge">
<title>Node2&#45;&gt;Node4</title>
<path fill="none" stroke="#191970" d="M123.8748,-59.9314C132.7192,-50.7122 143.5408,-39.4321 152.067,-30.5446"/>
<polygon fill="#191970" stroke="#191970" points="121.116,-57.7514 116.7188,-67.3906 126.1673,-62.5974 121.116,-57.7514"/>
</g>
</g>
</svg>
