<?xml version="1.0" encoding="UTF-8" standalone="no"?>
<!DOCTYPE svg PUBLIC "-//W3C//DTD SVG 1.1//EN"
 "http://www.w3.org/Graphics/SVG/1.1/DTD/svg11.dtd">
<!-- Generated by graphviz version 2.40.1 (20161225.0304)
 -->
<!-- Title: src/platform/esp32 Pages: 1 -->
<svg width="182pt" height="159pt"
 viewBox="0.00 0.00 182.00 159.00" xmlns="http://www.w3.org/2000/svg" xmlns:xlink="http://www.w3.org/1999/xlink">
<g id="graph0" class="graph" transform="scale(1 1) rotate(0) translate(4 155)">
<title>src/platform/esp32</title>
<polygon fill="#ffffff" stroke="transparent" points="-4,4 -4,-155 178,-155 178,4 -4,4"/>
<g id="clust1" class="cluster">
<title>clusterdir_4b68c2fef3e151b6b93d5e93b14f1857</title>
<g id="a_clust1"><a xlink:href="dir_4b68c2fef3e151b6b93d5e93b14f1857.html" target="_top" xlink:title="platform">
<polygon fill="#ddddee" stroke="#000000" points="8,-56 8,-143 166,-143 166,-56 8,-56"/>
<text text-anchor="middle" x="87" y="-131" font-family="Helvetica,sans-Serif" font-size="10.00" fill="#000000">platform</text>
</a>
</g>
</g>
<g id="clust2" class="cluster">
<title>clusterdir_2b8428e6daeb259b576eff207602ed43</title>
<g id="a_clust2"><a xlink:href="dir_2b8428e6daeb259b576eff207602ed43.html" target="_top">
<polygon fill="#eeeeff" stroke="#000000" points="16,-64 16,-116 158,-116 158,-64 16,-64"/>
</a>
</g>
</g>
<!-- dir_2b8428e6daeb259b576eff207602ed43 -->
<g id="node1" class="node">
<title>dir_2b8428e6daeb259b576eff207602ed43</title>
<text text-anchor="middle" x="123" y="-87.5" font-family="Helvetica,sans-Serif" font-size="10.00" fill="#000000">esp32</text>
</g>
<!-- dir_39ac347d0d7c5a744a4643f64b63b108 -->
<g id="node2" class="node">
<title>dir_39ac347d0d7c5a744a4643f64b63b108</title>
<g id="a_node2"><a xlink:href="dir_39ac347d0d7c5a744a4643f64b63b108.html" target="_top" xlink:title="backend">
<polygon fill="#ffffff" stroke="#000000" points="78,-108 24,-108 24,-72 78,-72 78,-108"/>
<text text-anchor="middle" x="51" y="-87.5" font-family="Helvetica,sans-Serif" font-size="10.00" fill="#000000">backend</text>
</a>
</g>
</g>
<!-- dir_d44c64559bbebec7f509842c48db8b23 -->
<g id="node3" class="node">
<title>dir_d44c64559bbebec7f509842c48db8b23</title>
<g id="a_node3"><a xlink:href="dir_d44c64559bbebec7f509842c48db8b23.html" target="_top" xlink:title="include">
<polygon fill="#ffffff" stroke="#ff0000" points="78,-36 24,-36 24,0 78,0 78,-36"/>
<text text-anchor="middle" x="51" y="-15.5" font-family="Helvetica,sans-Serif" font-size="10.00" fill="#000000">include</text>
</a>
</g>
</g>
<!-- dir_39ac347d0d7c5a744a4643f64b63b108&#45;&gt;dir_d44c64559bbebec7f509842c48db8b23 -->
<g id="edge1" class="edge">
<title>dir_39ac347d0d7c5a744a4643f64b63b108&#45;&gt;dir_d44c64559bbebec7f509842c48db8b23</title>
<path fill="none" stroke="#000000" d="M51,-71.8314C51,-64.131 51,-54.9743 51,-46.4166"/>
<polygon fill="#000000" stroke="#000000" points="54.5001,-46.4132 51,-36.4133 47.5001,-46.4133 54.5001,-46.4132"/>
<g id="a_edge1&#45;headlabel"><a xlink:href="dir_000007_000001.html" target="_top" xlink:title="4">
<text text-anchor="middle" x="57.3393" y="-47.5079" font-family="Helvetica,sans-Serif" font-size="10.00" fill="#000000">4</text>
</a>
</g>
</g>
</g>
</svg>
