<?xml version="1.0" encoding="UTF-8" standalone="no"?>
<!DOCTYPE svg PUBLIC "-//W3C//DTD SVG 1.1//EN"
 "http://www.w3.org/Graphics/SVG/1.1/DTD/svg11.dtd">
<!-- Generated by graphviz version 2.40.1 (20161225.0304)
 -->
<!-- Title: include/ess.h Pages: 1 -->
<svg width="447pt" height="84pt"
 viewBox="0.00 0.00 446.50 84.00" xmlns="http://www.w3.org/2000/svg" xmlns:xlink="http://www.w3.org/1999/xlink">
<g id="graph0" class="graph" transform="scale(1 1) rotate(0) translate(4 80)">
<title>include/ess.h</title>
<polygon fill="#ffffff" stroke="transparent" points="-4,4 -4,-80 442.5,-80 442.5,4 -4,4"/>
<!-- Node0 -->
<g id="node1" class="node">
<title>Node0</title>
<polygon fill="#bfbfbf" stroke="#000000" points="163.5,-56.5 163.5,-75.5 237.5,-75.5 237.5,-56.5 163.5,-56.5"/>
<text text-anchor="middle" x="200.5" y="-63.5" font-family="Helvetica,sans-Serif" font-size="10.00" fill="#000000">include/ess.h</text>
</g>
<!-- Node1 -->
<g id="node2" class="node">
<title>Node1</title>
<polygon fill="#ffffff" stroke="#bfbfbf" points="0,-.5 0,-19.5 47,-19.5 47,-.5 0,-.5"/>
<text text-anchor="middle" x="23.5" y="-7.5" font-family="Helvetica,sans-Serif" font-size="10.00" fill="#000000">errno.h</text>
</g>
<!-- Node0&#45;&gt;Node1 -->
<g id="edge1" class="edge">
<title>Node0&#45;&gt;Node1</title>
<path fill="none" stroke="#191970" d="M170.0726,-56.3733C138.5889,-46.4123 89.5495,-30.897 56.9835,-20.5937"/>
<polygon fill="#191970" stroke="#191970" points="57.6221,-17.1247 47.0321,-17.4452 55.5105,-23.7987 57.6221,-17.1247"/>
</g>
<!-- Node2 -->
<g id="node3" class="node">
<title>Node2</title>
<polygon fill="#ffffff" stroke="#bfbfbf" points="65.5,-.5 65.5,-19.5 109.5,-19.5 109.5,-.5 65.5,-.5"/>
<text text-anchor="middle" x="87.5" y="-7.5" font-family="Helvetica,sans-Serif" font-size="10.00" fill="#000000">time.h</text>
</g>
<!-- Node0&#45;&gt;Node2 -->
<g id="edge2" class="edge">
<title>Node0&#45;&gt;Node2</title>
<path fill="none" stroke="#191970" d="M181.0746,-56.3733C163.0979,-47.4644 136.1559,-34.1127 115.791,-24.0203"/>
<polygon fill="#191970" stroke="#191970" points="117.1861,-20.8055 106.6719,-19.5011 114.0778,-27.0776 117.1861,-20.8055"/>
</g>
<!-- Node3 -->
<g id="node4" class="node">
<title>Node3</title>
<polygon fill="#ffffff" stroke="#bfbfbf" points="127.5,-.5 127.5,-19.5 189.5,-19.5 189.5,-.5 127.5,-.5"/>
<text text-anchor="middle" x="158.5" y="-7.5" font-family="Helvetica,sans-Serif" font-size="10.00" fill="#000000">sys/time.h</text>
</g>
<!-- Node0&#45;&gt;Node3 -->
<g id="edge3" class="edge">
<title>Node0&#45;&gt;Node3</title>
<path fill="none" stroke="#191970" d="M193.1842,-56.2455C187.2821,-48.3761 178.8258,-37.101 171.7406,-27.6542"/>
<polygon fill="#191970" stroke="#191970" points="174.5321,-25.5427 165.732,-19.6427 168.932,-29.7427 174.5321,-25.5427"/>
</g>
<!-- Node4 -->
<g id="node5" class="node">
<title>Node4</title>
<polygon fill="#ffffff" stroke="#bfbfbf" points="208,-.5 208,-19.5 277,-19.5 277,-.5 208,-.5"/>
<text text-anchor="middle" x="242.5" y="-7.5" font-family="Helvetica,sans-Serif" font-size="10.00" fill="#000000">sys/signal.h</text>
</g>
<!-- Node0&#45;&gt;Node4 -->
<g id="edge4" class="edge">
<title>Node0&#45;&gt;Node4</title>
<path fill="none" stroke="#191970" d="M207.8158,-56.2455C213.7179,-48.3761 222.1742,-37.101 229.2594,-27.6542"/>
<polygon fill="#191970" stroke="#191970" points="232.068,-29.7427 235.268,-19.6427 226.4679,-25.5427 232.068,-29.7427"/>
</g>
<!-- Node5 -->
<g id="node6" class="node">
<title>Node5</title>
<g id="a_node6"><a xlink:href="../../db/d16/config_8h.html" target="_top" xlink:title="File containing configurations. ">
<polygon fill="#ffffff" stroke="#000000" points="295,-.5 295,-19.5 346,-19.5 346,-.5 295,-.5"/>
<text text-anchor="middle" x="320.5" y="-7.5" font-family="Helvetica,sans-Serif" font-size="10.00" fill="#000000">config.h</text>
</a>
</g>
</g>
<!-- Node0&#45;&gt;Node5 -->
<g id="edge5" class="edge">
<title>Node0&#45;&gt;Node5</title>
<path fill="none" stroke="#191970" d="M221.1287,-56.3733C240.3919,-47.3838 269.3486,-33.8706 291.0419,-23.7471"/>
<polygon fill="#191970" stroke="#191970" points="292.5587,-26.9017 300.1405,-19.5011 289.5985,-20.5584 292.5587,-26.9017"/>
</g>
<!-- Node6 -->
<g id="node7" class="node">
<title>Node6</title>
<g id="a_node7"><a xlink:href="../../d7/d35/ess__format_8h.html" target="_top" xlink:title="ess_format.h">
<polygon fill="#ffffff" stroke="#000000" points="364.5,-.5 364.5,-19.5 438.5,-19.5 438.5,-.5 364.5,-.5"/>
<text text-anchor="middle" x="401.5" y="-7.5" font-family="Helvetica,sans-Serif" font-size="10.00" fill="#000000">ess_format.h</text>
</a>
</g>
</g>
<!-- Node0&#45;&gt;Node6 -->
<g id="edge6" class="edge">
<title>Node0&#45;&gt;Node6</title>
<path fill="none" stroke="#191970" d="M235.0531,-56.3733C268.9104,-46.9404 320.646,-32.5265 357.4426,-22.2747"/>
<polygon fill="#191970" stroke="#191970" points="358.704,-25.5566 367.3978,-19.5011 356.8253,-18.8135 358.704,-25.5566"/>
</g>
</g>
</svg>
