<?xml version="1.0" encoding="UTF-8" standalone="no"?>
<!DOCTYPE svg PUBLIC "-//W3C//DTD SVG 1.1//EN"
 "http://www.w3.org/Graphics/SVG/1.1/DTD/svg11.dtd">
<!-- Generated by graphviz version 2.40.1 (20161225.0304)
 -->
<!-- Title: ess_backend_get_by_name Pages: 1 -->
<svg width="379pt" height="28pt"
 viewBox="0.00 0.00 379.00 28.00" xmlns="http://www.w3.org/2000/svg" xmlns:xlink="http://www.w3.org/1999/xlink">
<g id="graph0" class="graph" transform="scale(1 1) rotate(0) translate(4 24)">
<title>ess_backend_get_by_name</title>
<polygon fill="#ffffff" stroke="transparent" points="-4,4 -4,-24 375,-24 375,4 -4,4"/>
<!-- Node6 -->
<g id="node1" class="node">
<title>Node6</title>
<polygon fill="#bfbfbf" stroke="#000000" points="0,-.5 0,-19.5 138,-19.5 138,-.5 0,-.5"/>
<text text-anchor="middle" x="69" y="-7.5" font-family="Helvetica,sans-Serif" font-size="10.00" fill="#000000">ess_backend_get_by_name</text>
</g>
<!-- Node7 -->
<g id="node2" class="node">
<title>Node7</title>
<g id="a_node2"><a xlink:href="../../dc/d43/ess__context_8c.html#ab105a63f0da1117385f72c8d6530023c" target="_top" xlink:title="initialisiert the context ">
<polygon fill="#ffffff" stroke="#000000" points="174,-.5 174,-19.5 276,-19.5 276,-.5 174,-.5"/>
<text text-anchor="middle" x="225" y="-7.5" font-family="Helvetica,sans-Serif" font-size="10.00" fill="#000000">ess_context_create</text>
</a>
</g>
</g>
<!-- Node6&#45;&gt;Node7 -->
<g id="edge1" class="edge">
<title>Node6&#45;&gt;Node7</title>
<path fill="none" stroke="#191970" d="M148.3962,-10C156.9815,-10 165.5443,-10 173.6682,-10"/>
<polygon fill="#191970" stroke="#191970" points="148.3324,-6.5001 138.3324,-10 148.3323,-13.5001 148.3324,-6.5001"/>
</g>
<!-- Node8 -->
<g id="node3" class="node">
<title>Node8</title>
<g id="a_node3"><a xlink:href="../../df/dbb/esp32__create__context_8c.html#abce06be17fc37d675118a678a8100a36" target="_top" xlink:title="app_main">
<polygon fill="#ffffff" stroke="#000000" points="312,-.5 312,-19.5 371,-19.5 371,-.5 312,-.5"/>
<text text-anchor="middle" x="341.5" y="-7.5" font-family="Helvetica,sans-Serif" font-size="10.00" fill="#000000">app_main</text>
</a>
</g>
</g>
<!-- Node7&#45;&gt;Node8 -->
<g id="edge2" class="edge">
<title>Node7&#45;&gt;Node8</title>
<path fill="none" stroke="#191970" d="M286.1796,-10C295.1137,-10 303.9557,-10 311.862,-10"/>
<polygon fill="#191970" stroke="#191970" points="286.0986,-6.5001 276.0986,-10 286.0986,-13.5001 286.0986,-6.5001"/>
</g>
</g>
</svg>
