<?xml version="1.0" encoding="UTF-8" standalone="no"?>
<!DOCTYPE svg PUBLIC "-//W3C//DTD SVG 1.1//EN"
 "http://www.w3.org/Graphics/SVG/1.1/DTD/svg11.dtd">
<!-- Generated by graphviz version 2.40.1 (20161225.0304)
 -->
<!-- Title: ess_backend_get_size Pages: 1 -->
<!--zoomable 135 -->
<svg id="main" version="1.1" xmlns="http://www.w3.org/2000/svg" xmlns:xlink="http://www.w3.org/1999/xlink" xml:space="preserve" onload="init(evt)">
<style type="text/css"><![CDATA[
.edge:hover path { stroke: red; }
.edge:hover polygon { stroke: red; fill: red; }
]]></style>
<script type="text/javascript"><![CDATA[
var edges = document.getElementsByTagName('g');
if (edges && edges.length) {
  for (var i=0;i<edges.length;i++) {
    if (edges[i].id.substr(0,4)=='edge') {
      edges[i].setAttribute('class','edge');
    }
  }
}
]]></script>
        <defs>
                <circle id="rim" cx="0" cy="0" r="7"/>
                <circle id="rim2" cx="0" cy="0" r="3.5"/>
                <g id="zoomPlus">
                        <use xlink:href="#rim" fill="#404040">
                                <set attributeName="fill" to="#808080" begin="zoomplus.mouseover" end="zoomplus.mouseout"/>
                        </use>
                        <path d="M-4,0h8M0,-4v8" fill="none" stroke="white" stroke-width="1.5" pointer-events="none"/>
                </g>
                <g id="zoomMin">
                        <use xlink:href="#rim" fill="#404040">
                                <set attributeName="fill" to="#808080" begin="zoomminus.mouseover" end="zoomminus.mouseout"/>
                        </use>
                        <path d="M-4,0h8" fill="none" stroke="white" stroke-width="1.5" pointer-events="none"/>
                </g>
                <g id="dirArrow">
                        <path fill="none" stroke="white" stroke-width="1.5" d="M0,-3.0v7 M-2.5,-0.5L0,-3.0L2.5,-0.5"/>
                </g>
               <g id="resetDef">
                       <use xlink:href="#rim2" fill="#404040">
                               <set attributeName="fill" to="#808080" begin="reset.mouseover" end="reset.mouseout"/>
                       </use>
               </g>
        </defs>

<script type="text/javascript">
var viewWidth = 531;
var viewHeight = 135;
var sectionId = 'dynsection-6';
</script>
<script xlink:href="../../svgpan.js"/>
<svg id="graph" class="graph">
<g id="viewport">
<title>ess_backend_get_size</title>
<polygon fill="#ffffff" stroke="transparent" points="-4,4 -4,-130.7217 527,-130.7217 527,4 -4,4"/>
<!-- Node10 -->
<g id="node1" class="node">
<title>Node10</title>
<polygon fill="#bfbfbf" stroke="#000000" points="0,-60.5 0,-79.5 116,-79.5 116,-60.5 0,-60.5"/>
<text text-anchor="middle" x="58" y="-67.5" font-family="Helvetica,sans-Serif" font-size="10.00" fill="#000000">ess_backend_get_size</text>
</g>
<!-- Node11 -->
<g id="node2" class="node">
<title>Node11</title>
<g id="a_node2"><a xlink:href="../../d2/de0/esp32__probe__backends_8c.html#abce06be17fc37d675118a678a8100a36" target="_top" xlink:title="app_main">
<polygon fill="#ffffff" stroke="#000000" points="347.5,-104.5 347.5,-123.5 406.5,-123.5 406.5,-104.5 347.5,-104.5"/>
<text text-anchor="middle" x="377" y="-111.5" font-family="Helvetica,sans-Serif" font-size="10.00" fill="#000000">app_main</text>
</a>
</g>
</g>
<!-- Node10&#45;&gt;Node11 -->
<g id="edge1" class="edge">
<title>Node10&#45;&gt;Node11</title>
<path fill="none" stroke="#191970" d="M80.3624,-84.9221C98.7248,-96.2274 125.8714,-110.8319 152,-117 220.4377,-133.1559 303.8714,-125.1094 347.3785,-118.9079"/>
<polygon fill="#191970" stroke="#191970" points="82.1752,-81.9273 71.8548,-79.5312 78.4284,-87.8402 82.1752,-81.9273"/>
</g>
<!-- Node12 -->
<g id="node3" class="node">
<title>Node12</title>
<g id="a_node3"><a xlink:href="../../d8/d50/ess__backend_8c.html#a05e69e3798aee93680d0a024d444212d" target="_top" xlink:title="get ess_error_t entry ">
<polygon fill="#ffffff" stroke="#000000" points="166.5,-77 166.5,-107 275.5,-107 275.5,-77 166.5,-77"/>
<text text-anchor="start" x="174.5" y="-95" font-family="Helvetica,sans-Serif" font-size="10.00" fill="#000000">ess_backend_get_by</text>
<text text-anchor="middle" x="221" y="-84" font-family="Helvetica,sans-Serif" font-size="10.00" fill="#000000">_index</text>
</a>
</g>
</g>
<!-- Node10&#45;&gt;Node12 -->
<g id="edge2" class="edge">
<title>Node10&#45;&gt;Node12</title>
<path fill="none" stroke="#191970" d="M126.4363,-79.2368C139.7317,-81.0313 153.5033,-82.89 166.2859,-84.6153"/>
<polygon fill="#191970" stroke="#191970" points="126.7647,-75.7495 116.3863,-77.8804 125.8283,-82.6866 126.7647,-75.7495"/>
</g>
<!-- Node13 -->
<g id="node4" class="node">
<title>Node13</title>
<g id="a_node4"><a xlink:href="../../d8/d50/ess__backend_8c.html#a37052d2bd2290bab5b09bae97dc72719" target="_top" xlink:title="get ess_error_t entry ">
<polygon fill="#ffffff" stroke="#000000" points="152,-38.5 152,-57.5 290,-57.5 290,-38.5 152,-38.5"/>
<text text-anchor="middle" x="221" y="-45.5" font-family="Helvetica,sans-Serif" font-size="10.00" fill="#000000">ess_backend_get_by_name</text>
</a>
</g>
</g>
<!-- Node10&#45;&gt;Node13 -->
<g id="edge4" class="edge">
<title>Node10&#45;&gt;Node13</title>
<path fill="none" stroke="#191970" d="M126.511,-60.7531C134.9085,-59.6197 143.4949,-58.4608 151.901,-57.3262"/>
<polygon fill="#191970" stroke="#191970" points="125.8283,-57.3134 116.3863,-62.1196 126.7647,-64.2505 125.8283,-57.3134"/>
</g>
<!-- Node16 -->
<g id="node7" class="node">
<title>Node16</title>
<g id="a_node7"><a xlink:href="../../d8/d50/ess__backend_8c.html#ae71b9ae1d68437b482da322b848eafb8" target="_top" xlink:title="checked the backend with the specified name and returns it if successful. ">
<polygon fill="#ffffff" stroke="#000000" points="161.5,-.5 161.5,-19.5 280.5,-19.5 280.5,-.5 161.5,-.5"/>
<text text-anchor="middle" x="221" y="-7.5" font-family="Helvetica,sans-Serif" font-size="10.00" fill="#000000">ess_backend_probe_ex</text>
</a>
</g>
</g>
<!-- Node10&#45;&gt;Node16 -->
<g id="edge7" class="edge">
<title>Node10&#45;&gt;Node16</title>
<path fill="none" stroke="#191970" d="M87.1051,-56.0222C105.4581,-47.531 129.8044,-36.8514 152,-29 161.7224,-25.5608 172.3936,-22.3545 182.3763,-19.5916"/>
<polygon fill="#191970" stroke="#191970" points="85.4114,-52.9505 77.8377,-60.3593 88.3785,-59.2906 85.4114,-52.9505"/>
</g>
<!-- Node12&#45;&gt;Node11 -->
<g id="edge3" class="edge">
<title>Node12&#45;&gt;Node11</title>
<path fill="none" stroke="#191970" d="M285.5931,-101.1093C306.9834,-104.1259 329.7605,-107.338 347.2271,-109.8013"/>
<polygon fill="#191970" stroke="#191970" points="285.952,-97.6253 275.5612,-99.6945 284.9745,-104.5568 285.952,-97.6253"/>
</g>
<!-- Node14 -->
<g id="node5" class="node">
<title>Node14</title>
<g id="a_node5"><a xlink:href="../../dc/d43/ess__context_8c.html#ab105a63f0da1117385f72c8d6530023c" target="_top" xlink:title="initialisiert the context ">
<polygon fill="#ffffff" stroke="#000000" points="326,-38.5 326,-57.5 428,-57.5 428,-38.5 326,-38.5"/>
<text text-anchor="middle" x="377" y="-45.5" font-family="Helvetica,sans-Serif" font-size="10.00" fill="#000000">ess_context_create</text>
</a>
</g>
</g>
<!-- Node13&#45;&gt;Node14 -->
<g id="edge5" class="edge">
<title>Node13&#45;&gt;Node14</title>
<path fill="none" stroke="#191970" d="M300.3962,-48C308.9815,-48 317.5443,-48 325.6682,-48"/>
<polygon fill="#191970" stroke="#191970" points="300.3324,-44.5001 290.3324,-48 300.3323,-51.5001 300.3324,-44.5001"/>
</g>
<!-- Node15 -->
<g id="node6" class="node">
<title>Node15</title>
<g id="a_node6"><a xlink:href="../../df/dbb/esp32__create__context_8c.html#abce06be17fc37d675118a678a8100a36" target="_top" xlink:title="app_main">
<polygon fill="#ffffff" stroke="#000000" points="464,-38.5 464,-57.5 523,-57.5 523,-38.5 464,-38.5"/>
<text text-anchor="middle" x="493.5" y="-45.5" font-family="Helvetica,sans-Serif" font-size="10.00" fill="#000000">app_main</text>
</a>
</g>
</g>
<!-- Node14&#45;&gt;Node15 -->
<g id="edge6" class="edge">
<title>Node14&#45;&gt;Node15</title>
<path fill="none" stroke="#191970" d="M438.1796,-48C447.1137,-48 455.9557,-48 463.862,-48"/>
<polygon fill="#191970" stroke="#191970" points="438.0986,-44.5001 428.0986,-48 438.0986,-51.5001 438.0986,-44.5001"/>
</g>
</g>
</svg>
        <g id="navigator" transform="translate(0 0)" fill="#404254">
                <rect fill="#f2f5e9" fill-opacity="0.5" stroke="#606060" stroke-width=".5" x="0" y="0" width="60" height="60"/>
                <use id="zoomplus" xlink:href="#zoomPlus" x="17" y="9" onmousedown="handleZoom(evt,'in')"/>
                <use id="zoomminus" xlink:href="#zoomMin" x="42" y="9" onmousedown="handleZoom(evt,'out')"/>
                <use id="reset" xlink:href="#resetDef" x="30" y="36" onmousedown="handleReset()"/>
                <g id="arrowUp" xlink:href="#dirArrow" transform="translate(30 24)" onmousedown="handlePan(0,-1)">
                  <use xlink:href="#rim" fill="#404040">
                        <set attributeName="fill" to="#808080" begin="arrowUp.mouseover" end="arrowUp.mouseout"/>
                  </use>
                  <path fill="none" stroke="white" stroke-width="1.5" d="M0,-3.0v7 M-2.5,-0.5L0,-3.0L2.5,-0.5"/>
                </g>
                <g id="arrowRight" xlink:href="#dirArrow" transform="rotate(90) translate(36 -43)" onmousedown="handlePan(1,0)">
                  <use xlink:href="#rim" fill="#404040">
                        <set attributeName="fill" to="#808080" begin="arrowRight.mouseover" end="arrowRight.mouseout"/>
                  </use>
                  <path fill="none" stroke="white" stroke-width="1.5" d="M0,-3.0v7 M-2.5,-0.5L0,-3.0L2.5,-0.5"/>
                </g>
                <g id="arrowDown" xlink:href="#dirArrow" transform="rotate(180) translate(-30 -48)" onmousedown="handlePan(0,1)">
                  <use xlink:href="#rim" fill="#404040">
                        <set attributeName="fill" to="#808080" begin="arrowDown.mouseover" end="arrowDown.mouseout"/>
                  </use>
                  <path fill="none" stroke="white" stroke-width="1.5" d="M0,-3.0v7 M-2.5,-0.5L0,-3.0L2.5,-0.5"/>
                </g>
                <g id="arrowLeft" xlink:href="#dirArrow" transform="rotate(270) translate(-36 17)" onmousedown="handlePan(-1,0)">
                  <use xlink:href="#rim" fill="#404040">
                        <set attributeName="fill" to="#808080" begin="arrowLeft.mouseover" end="arrowLeft.mouseout"/>
                  </use>
                  <path fill="none" stroke="white" stroke-width="1.5" d="M0,-3.0v7 M-2.5,-0.5L0,-3.0L2.5,-0.5"/>
                </g>
        </g>
        <svg viewBox="0 0 15 15" width="100%" height="30px" preserveAspectRatio="xMaxYMin meet">
         <g id="arrow_out" transform="scale(0.3 0.3)">
          <a xlink:href="ess__backend_8h_a6ba1bf553b596dd14d47748bec40bc9c_icgraph_org.svg" target="_base">
           <rect id="button" ry="5" rx="5" y="6" x="6" height="38" width="38"
                fill="#f2f5e9" fill-opacity="0.5" stroke="#606060" stroke-width="1.0"/>
           <path id="arrow"
             d="M 11.500037,31.436501 C 11.940474,20.09759 22.043105,11.32322 32.158766,21.979434 L 37.068811,17.246167 C 37.068811,17.246167 37.088388,32 37.088388,32 L 22.160133,31.978069 C 22.160133,31.978069 26.997745,27.140456 26.997745,27.140456 C 18.528582,18.264221 13.291696,25.230495 11.500037,31.436501 z"
             style="fill:#404040;"/>
          </a>
         </g>
        </svg>
</svg>
