<?xml version="1.0" encoding="UTF-8" standalone="no"?>
<!DOCTYPE svg PUBLIC "-//W3C//DTD SVG 1.1//EN"
 "http://www.w3.org/Graphics/SVG/1.1/DTD/svg11.dtd">
<!-- Generated by graphviz version 2.40.1 (20161225.0304)
 -->
<!-- Title: ess_backend_get_size Pages: 1 -->
<svg width="531pt" height="135pt"
 viewBox="0.00 0.00 531.00 134.72" xmlns="http://www.w3.org/2000/svg" xmlns:xlink="http://www.w3.org/1999/xlink">
<g id="graph0" class="graph" transform="scale(1 1) rotate(0) translate(4 130.7217)">
<title>ess_backend_get_size</title>
<polygon fill="#ffffff" stroke="transparent" points="-4,4 -4,-130.7217 527,-130.7217 527,4 -4,4"/>
<!-- Node12 -->
<g id="node1" class="node">
<title>Node12</title>
<polygon fill="#bfbfbf" stroke="#000000" points="0,-60.5 0,-79.5 116,-79.5 116,-60.5 0,-60.5"/>
<text text-anchor="middle" x="58" y="-67.5" font-family="Helvetica,sans-Serif" font-size="10.00" fill="#000000">ess_backend_get_size</text>
</g>
<!-- Node13 -->
<g id="node2" class="node">
<title>Node13</title>
<g id="a_node2"><a xlink:href="../../d2/de0/esp32__probe__backends_8c.html#abce06be17fc37d675118a678a8100a36" target="_top" xlink:title="app_main">
<polygon fill="#ffffff" stroke="#000000" points="347.5,-104.5 347.5,-123.5 406.5,-123.5 406.5,-104.5 347.5,-104.5"/>
<text text-anchor="middle" x="377" y="-111.5" font-family="Helvetica,sans-Serif" font-size="10.00" fill="#000000">app_main</text>
</a>
</g>
</g>
<!-- Node12&#45;&gt;Node13 -->
<g id="edge1" class="edge">
<title>Node12&#45;&gt;Node13</title>
<path fill="none" stroke="#191970" d="M80.3624,-84.9221C98.7248,-96.2274 125.8714,-110.8319 152,-117 220.4377,-133.1559 303.8714,-125.1094 347.3785,-118.9079"/>
<polygon fill="#191970" stroke="#191970" points="82.1752,-81.9273 71.8548,-79.5312 78.4284,-87.8402 82.1752,-81.9273"/>
</g>
<!-- Node14 -->
<g id="node3" class="node">
<title>Node14</title>
<g id="a_node3"><a xlink:href="../../d8/d50/ess__backend_8c.html#a05e69e3798aee93680d0a024d444212d" target="_top" xlink:title="get ess_error_t entry ">
<polygon fill="#ffffff" stroke="#000000" points="166.5,-77 166.5,-107 275.5,-107 275.5,-77 166.5,-77"/>
<text text-anchor="start" x="174.5" y="-95" font-family="Helvetica,sans-Serif" font-size="10.00" fill="#000000">ess_backend_get_by</text>
<text text-anchor="middle" x="221" y="-84" font-family="Helvetica,sans-Serif" font-size="10.00" fill="#000000">_index</text>
</a>
</g>
</g>
<!-- Node12&#45;&gt;Node14 -->
<g id="edge2" class="edge">
<title>Node12&#45;&gt;Node14</title>
<path fill="none" stroke="#191970" d="M126.4363,-79.2368C139.7317,-81.0313 153.5033,-82.89 166.2859,-84.6153"/>
<polygon fill="#191970" stroke="#191970" points="126.7647,-75.7495 116.3863,-77.8804 125.8283,-82.6866 126.7647,-75.7495"/>
</g>
<!-- Node15 -->
<g id="node4" class="node">
<title>Node15</title>
<g id="a_node4"><a xlink:href="../../d8/d50/ess__backend_8c.html#a37052d2bd2290bab5b09bae97dc72719" target="_top" xlink:title="get ess_error_t entry ">
<polygon fill="#ffffff" stroke="#000000" points="152,-38.5 152,-57.5 290,-57.5 290,-38.5 152,-38.5"/>
<text text-anchor="middle" x="221" y="-45.5" font-family="Helvetica,sans-Serif" font-size="10.00" fill="#000000">ess_backend_get_by_name</text>
</a>
</g>
</g>
<!-- Node12&#45;&gt;Node15 -->
<g id="edge4" class="edge">
<title>Node12&#45;&gt;Node15</title>
<path fill="none" stroke="#191970" d="M126.511,-60.7531C134.9085,-59.6197 143.4949,-58.4608 151.901,-57.3262"/>
<polygon fill="#191970" stroke="#191970" points="125.8283,-57.3134 116.3863,-62.1196 126.7647,-64.2505 125.8283,-57.3134"/>
</g>
<!-- Node18 -->
<g id="node7" class="node">
<title>Node18</title>
<g id="a_node7"><a xlink:href="../../d8/d50/ess__backend_8c.html#ae71b9ae1d68437b482da322b848eafb8" target="_top" xlink:title="checked the backend with the specified name and returns it if successful. ">
<polygon fill="#ffffff" stroke="#000000" points="161.5,-.5 161.5,-19.5 280.5,-19.5 280.5,-.5 161.5,-.5"/>
<text text-anchor="middle" x="221" y="-7.5" font-family="Helvetica,sans-Serif" font-size="10.00" fill="#000000">ess_backend_probe_ex</text>
</a>
</g>
</g>
<!-- Node12&#45;&gt;Node18 -->
<g id="edge7" class="edge">
<title>Node12&#45;&gt;Node18</title>
<path fill="none" stroke="#191970" d="M87.1051,-56.0222C105.4581,-47.531 129.8044,-36.8514 152,-29 161.7224,-25.5608 172.3936,-22.3545 182.3763,-19.5916"/>
<polygon fill="#191970" stroke="#191970" points="85.4114,-52.9505 77.8377,-60.3593 88.3785,-59.2906 85.4114,-52.9505"/>
</g>
<!-- Node14&#45;&gt;Node13 -->
<g id="edge3" class="edge">
<title>Node14&#45;&gt;Node13</title>
<path fill="none" stroke="#191970" d="M285.5931,-101.1093C306.9834,-104.1259 329.7605,-107.338 347.2271,-109.8013"/>
<polygon fill="#191970" stroke="#191970" points="285.952,-97.6253 275.5612,-99.6945 284.9745,-104.5568 285.952,-97.6253"/>
</g>
<!-- Node16 -->
<g id="node5" class="node">
<title>Node16</title>
<g id="a_node5"><a xlink:href="../../dc/d43/ess__context_8c.html#ab105a63f0da1117385f72c8d6530023c" target="_top" xlink:title="initialisiert the context ">
<polygon fill="#ffffff" stroke="#000000" points="326,-38.5 326,-57.5 428,-57.5 428,-38.5 326,-38.5"/>
<text text-anchor="middle" x="377" y="-45.5" font-family="Helvetica,sans-Serif" font-size="10.00" fill="#000000">ess_context_create</text>
</a>
</g>
</g>
<!-- Node15&#45;&gt;Node16 -->
<g id="edge5" class="edge">
<title>Node15&#45;&gt;Node16</title>
<path fill="none" stroke="#191970" d="M300.3962,-48C308.9815,-48 317.5443,-48 325.6682,-48"/>
<polygon fill="#191970" stroke="#191970" points="300.3324,-44.5001 290.3324,-48 300.3323,-51.5001 300.3324,-44.5001"/>
</g>
<!-- Node17 -->
<g id="node6" class="node">
<title>Node17</title>
<g id="a_node6"><a xlink:href="../../df/dbb/esp32__create__context_8c.html#abce06be17fc37d675118a678a8100a36" target="_top" xlink:title="app_main">
<polygon fill="#ffffff" stroke="#000000" points="464,-38.5 464,-57.5 523,-57.5 523,-38.5 464,-38.5"/>
<text text-anchor="middle" x="493.5" y="-45.5" font-family="Helvetica,sans-Serif" font-size="10.00" fill="#000000">app_main</text>
</a>
</g>
</g>
<!-- Node16&#45;&gt;Node17 -->
<g id="edge6" class="edge">
<title>Node16&#45;&gt;Node17</title>
<path fill="none" stroke="#191970" d="M438.1796,-48C447.1137,-48 455.9557,-48 463.862,-48"/>
<polygon fill="#191970" stroke="#191970" points="438.0986,-44.5001 428.0986,-48 438.0986,-51.5001 438.0986,-44.5001"/>
</g>
</g>
</svg>
