<?xml version="1.0" encoding="UTF-8" standalone="no"?>
<!DOCTYPE svg PUBLIC "-//W3C//DTD SVG 1.1//EN"
 "http://www.w3.org/Graphics/SVG/1.1/DTD/svg11.dtd">
<!-- Generated by graphviz version 2.40.1 (20161225.0304)
 -->
<!-- Title: ess_backend_probe Pages: 1 -->
<svg width="326pt" height="28pt"
 viewBox="0.00 0.00 326.00 28.00" xmlns="http://www.w3.org/2000/svg" xmlns:xlink="http://www.w3.org/1999/xlink">
<g id="graph0" class="graph" transform="scale(1 1) rotate(0) translate(4 24)">
<title>ess_backend_probe</title>
<polygon fill="#ffffff" stroke="transparent" points="-4,4 -4,-24 322,-24 322,4 -4,4"/>
<!-- Node24 -->
<g id="node1" class="node">
<title>Node24</title>
<polygon fill="#bfbfbf" stroke="#000000" points="0,-.5 0,-19.5 104,-19.5 104,-.5 0,-.5"/>
<text text-anchor="middle" x="52" y="-7.5" font-family="Helvetica,sans-Serif" font-size="10.00" fill="#000000">ess_backend_probe</text>
</g>
<!-- Node25 -->
<g id="node2" class="node">
<title>Node25</title>
<g id="a_node2"><a xlink:href="../../d2/de0/esp32__probe__backends_8c.html#ae7d1698df37e2015be52c4216ca36129" target="_top" xlink:title="probe the given backend ">
<polygon fill="#ffffff" stroke="#000000" points="140,-.5 140,-19.5 223,-19.5 223,-.5 140,-.5"/>
<text text-anchor="middle" x="181.5" y="-7.5" font-family="Helvetica,sans-Serif" font-size="10.00" fill="#000000">probe_backend</text>
</a>
</g>
</g>
<!-- Node24&#45;&gt;Node25 -->
<g id="edge1" class="edge">
<title>Node24&#45;&gt;Node25</title>
<path fill="none" stroke="#191970" d="M114.3491,-10C122.9634,-10 131.6344,-10 139.7512,-10"/>
<polygon fill="#191970" stroke="#191970" points="114.2994,-6.5001 104.2993,-10 114.2993,-13.5001 114.2994,-6.5001"/>
</g>
<!-- Node26 -->
<g id="node3" class="node">
<title>Node26</title>
<g id="a_node3"><a xlink:href="../../d2/de0/esp32__probe__backends_8c.html#abce06be17fc37d675118a678a8100a36" target="_top" xlink:title="app_main">
<polygon fill="#ffffff" stroke="#000000" points="259,-.5 259,-19.5 318,-19.5 318,-.5 259,-.5"/>
<text text-anchor="middle" x="288.5" y="-7.5" font-family="Helvetica,sans-Serif" font-size="10.00" fill="#000000">app_main</text>
</a>
</g>
</g>
<!-- Node25&#45;&gt;Node26 -->
<g id="edge2" class="edge">
<title>Node25&#45;&gt;Node26</title>
<path fill="none" stroke="#191970" d="M233.3146,-10C242.0222,-10 250.7894,-10 258.6923,-10"/>
<polygon fill="#191970" stroke="#191970" points="233.1754,-6.5001 223.1754,-10 233.1753,-13.5001 233.1754,-6.5001"/>
</g>
</g>
</svg>
