<?xml version="1.0" encoding="UTF-8" standalone="no"?>
<!DOCTYPE svg PUBLIC "-//W3C//DTD SVG 1.1//EN"
 "http://www.w3.org/Graphics/SVG/1.1/DTD/svg11.dtd">
<!-- Generated by graphviz version 2.40.1 (20161225.0304)
 -->
<!-- Title: ess_backend_get_size Pages: 1 -->
<svg width="403pt" height="116pt"
 viewBox="0.00 0.00 403.00 115.50" xmlns="http://www.w3.org/2000/svg" xmlns:xlink="http://www.w3.org/1999/xlink">
<g id="graph0" class="graph" transform="scale(1 1) rotate(0) translate(4 111.5)">
<title>ess_backend_get_size</title>
<polygon fill="#ffffff" stroke="transparent" points="-4,4 -4,-111.5 399,-111.5 399,4 -4,4"/>
<!-- Node6 -->
<g id="node1" class="node">
<title>Node6</title>
<polygon fill="#bfbfbf" stroke="#000000" points="0,-38.5 0,-57.5 116,-57.5 116,-38.5 0,-38.5"/>
<text text-anchor="middle" x="58" y="-45.5" font-family="Helvetica,sans-Serif" font-size="10.00" fill="#000000">ess_backend_get_size</text>
</g>
<!-- Node7 -->
<g id="node2" class="node">
<title>Node7</title>
<g id="a_node2"><a xlink:href="../../d8/d50/ess__backend_8c.html#a16cb59b090351d9b9989de80b8bad520" target="_top" xlink:title="ess_backend_create\l_factory_list">
<polygon fill="#ffffff" stroke="#000000" points="158,-77 158,-107 265,-107 265,-77 158,-77"/>
<text text-anchor="start" x="166" y="-95" font-family="Helvetica,sans-Serif" font-size="10.00" fill="#000000">ess_backend_create</text>
<text text-anchor="middle" x="211.5" y="-84" font-family="Helvetica,sans-Serif" font-size="10.00" fill="#000000">_factory_list</text>
</a>
</g>
</g>
<!-- Node6&#45;&gt;Node7 -->
<g id="edge1" class="edge">
<title>Node6&#45;&gt;Node7</title>
<path fill="none" stroke="#191970" d="M100.9513,-60.3118C118.9444,-65.4694 140.0344,-71.5148 158.9424,-76.9346"/>
<polygon fill="#191970" stroke="#191970" points="101.8845,-56.9384 91.3072,-57.5473 99.9556,-63.6674 101.8845,-56.9384"/>
</g>
<!-- Node8 -->
<g id="node3" class="node">
<title>Node8</title>
<g id="a_node3"><a xlink:href="../../d8/d50/ess__backend_8c.html#a38e02fd000a6be3510ec8f9df0a46ed7" target="_top" xlink:title="Check that all backends support the specified format and return all working backends. ">
<polygon fill="#ffffff" stroke="#000000" points="152,-38.5 152,-57.5 271,-57.5 271,-38.5 152,-38.5"/>
<text text-anchor="middle" x="211.5" y="-45.5" font-family="Helvetica,sans-Serif" font-size="10.00" fill="#000000">ess_backend_probe_all</text>
</a>
</g>
</g>
<!-- Node6&#45;&gt;Node8 -->
<g id="edge2" class="edge">
<title>Node6&#45;&gt;Node8</title>
<path fill="none" stroke="#191970" d="M126.038,-48C134.6421,-48 143.3942,-48 151.8542,-48"/>
<polygon fill="#191970" stroke="#191970" points="126.0318,-44.5001 116.0318,-48 126.0317,-51.5001 126.0318,-44.5001"/>
</g>
<!-- Node9 -->
<g id="node4" class="node">
<title>Node9</title>
<g id="a_node4"><a xlink:href="../../d8/d50/ess__backend_8c.html#a2a77a7ddc5730431b3f86ddc2750315b" target="_top" xlink:title="checked the backend with the specified name and returns it if successful. ">
<polygon fill="#ffffff" stroke="#000000" points="159.5,-.5 159.5,-19.5 263.5,-19.5 263.5,-.5 159.5,-.5"/>
<text text-anchor="middle" x="211.5" y="-7.5" font-family="Helvetica,sans-Serif" font-size="10.00" fill="#000000">ess_backend_probe</text>
</a>
</g>
</g>
<!-- Node6&#45;&gt;Node9 -->
<g id="edge3" class="edge">
<title>Node6&#45;&gt;Node9</title>
<path fill="none" stroke="#191970" d="M106.6352,-35.96C128.0799,-30.6512 152.9226,-24.5012 173.044,-19.5201"/>
<polygon fill="#191970" stroke="#191970" points="105.6004,-32.6104 96.7345,-38.411 107.2826,-39.4053 105.6004,-32.6104"/>
</g>
<!-- Node10 -->
<g id="node5" class="node">
<title>Node10</title>
<g id="a_node5"><a xlink:href="../../dc/d43/ess__context_8c.html#a40a2211f2793b0346c879b61b35ff63e" target="_top" xlink:title="initialisiert the context ">
<polygon fill="#ffffff" stroke="#000000" points="307,-.5 307,-19.5 395,-19.5 395,-.5 307,-.5"/>
<text text-anchor="middle" x="351" y="-7.5" font-family="Helvetica,sans-Serif" font-size="10.00" fill="#000000">ess_context_init</text>
</a>
</g>
</g>
<!-- Node9&#45;&gt;Node10 -->
<g id="edge4" class="edge">
<title>Node9&#45;&gt;Node10</title>
<path fill="none" stroke="#191970" d="M273.8693,-10C284.8997,-10 296.179,-10 306.5872,-10"/>
<polygon fill="#191970" stroke="#191970" points="273.8416,-6.5001 263.8415,-10 273.8415,-13.5001 273.8416,-6.5001"/>
</g>
</g>
</svg>
