<?xml version="1.0" encoding="UTF-8" standalone="no"?>
<!DOCTYPE svg PUBLIC "-//W3C//DTD SVG 1.1//EN"
 "http://www.w3.org/Graphics/SVG/1.1/DTD/svg11.dtd">
<!-- Generated by graphviz version 2.40.1 (20161225.0304)
 -->
<!-- Title: ess_format_to_string Pages: 1 -->
<svg width="368pt" height="66pt"
 viewBox="0.00 0.00 368.00 66.00" xmlns="http://www.w3.org/2000/svg" xmlns:xlink="http://www.w3.org/1999/xlink">
<g id="graph0" class="graph" transform="scale(1 1) rotate(0) translate(4 62)">
<title>ess_format_to_string</title>
<polygon fill="#ffffff" stroke="transparent" points="-4,4 -4,-62 364,-62 364,4 -4,4"/>
<!-- Node7 -->
<g id="node1" class="node">
<title>Node7</title>
<polygon fill="#bfbfbf" stroke="#000000" points="0,-19.5 0,-38.5 108,-38.5 108,-19.5 0,-19.5"/>
<text text-anchor="middle" x="54" y="-26.5" font-family="Helvetica,sans-Serif" font-size="10.00" fill="#000000">ess_format_to_string</text>
</g>
<!-- Node8 -->
<g id="node2" class="node">
<title>Node8</title>
<g id="a_node2"><a xlink:href="../../d2/de0/esp32__probe__backends_8c.html#ae7d1698df37e2015be52c4216ca36129" target="_top" xlink:title="probe the given backend ">
<polygon fill="#ffffff" stroke="#000000" points="163,-38.5 163,-57.5 246,-57.5 246,-38.5 163,-38.5"/>
<text text-anchor="middle" x="204.5" y="-45.5" font-family="Helvetica,sans-Serif" font-size="10.00" fill="#000000">probe_backend</text>
</a>
</g>
</g>
<!-- Node7&#45;&gt;Node8 -->
<g id="edge1" class="edge">
<title>Node7&#45;&gt;Node8</title>
<path fill="none" stroke="#191970" d="M118.5249,-37.146C133.4197,-39.0264 148.8869,-40.9791 162.5274,-42.7011"/>
<polygon fill="#191970" stroke="#191970" points="118.6936,-33.6396 108.334,-35.8594 117.8168,-40.5845 118.6936,-33.6396"/>
</g>
<!-- Node10 -->
<g id="node4" class="node">
<title>Node10</title>
<g id="a_node4"><a xlink:href="../../d1/df2/null__backend_8c.html#a8774f3c04ef619c61f2bbab95fd074c0" target="_top" xlink:title="ess_backend_null_open">
<polygon fill="#ffffff" stroke="#000000" points="144,-.5 144,-19.5 265,-19.5 265,-.5 144,-.5"/>
<text text-anchor="middle" x="204.5" y="-7.5" font-family="Helvetica,sans-Serif" font-size="10.00" fill="#000000">ess_backend_null_open</text>
</a>
</g>
</g>
<!-- Node7&#45;&gt;Node10 -->
<g id="edge3" class="edge">
<title>Node7&#45;&gt;Node10</title>
<path fill="none" stroke="#191970" d="M118.4864,-20.8589C126.9081,-19.7957 135.5134,-18.7093 143.8687,-17.6544"/>
<polygon fill="#191970" stroke="#191970" points="117.8168,-17.4155 108.334,-22.1406 118.6936,-24.3604 117.8168,-17.4155"/>
</g>
<!-- Node9 -->
<g id="node3" class="node">
<title>Node9</title>
<g id="a_node3"><a xlink:href="../../d2/de0/esp32__probe__backends_8c.html#abce06be17fc37d675118a678a8100a36" target="_top" xlink:title="app_main">
<polygon fill="#ffffff" stroke="#000000" points="301,-38.5 301,-57.5 360,-57.5 360,-38.5 301,-38.5"/>
<text text-anchor="middle" x="330.5" y="-45.5" font-family="Helvetica,sans-Serif" font-size="10.00" fill="#000000">app_main</text>
</a>
</g>
</g>
<!-- Node8&#45;&gt;Node9 -->
<g id="edge2" class="edge">
<title>Node8&#45;&gt;Node9</title>
<path fill="none" stroke="#191970" d="M256.4179,-48C271.5816,-48 287.6296,-48 300.8977,-48"/>
<polygon fill="#191970" stroke="#191970" points="256.1063,-44.5001 246.1063,-48 256.1063,-51.5001 256.1063,-44.5001"/>
</g>
</g>
</svg>
