<?xml version="1.0" encoding="UTF-8" standalone="no"?>
<!DOCTYPE svg PUBLIC "-//W3C//DTD SVG 1.1//EN"
 "http://www.w3.org/Graphics/SVG/1.1/DTD/svg11.dtd">
<!-- Generated by graphviz version 2.40.1 (20161225.0304)
 -->
<!-- Title: include/ess_backend.h Pages: 1 -->
<svg width="363pt" height="95pt"
 viewBox="0.00 0.00 363.00 95.00" xmlns="http://www.w3.org/2000/svg" xmlns:xlink="http://www.w3.org/1999/xlink">
<g id="graph0" class="graph" transform="scale(1 1) rotate(0) translate(4 91)">
<title>include/ess_backend.h</title>
<polygon fill="#ffffff" stroke="transparent" points="-4,4 -4,-91 359,-91 359,4 -4,4"/>
<!-- Node4 -->
<g id="node1" class="node">
<title>Node4</title>
<polygon fill="#bfbfbf" stroke="#000000" points="106.5,-67.5 106.5,-86.5 222.5,-86.5 222.5,-67.5 106.5,-67.5"/>
<text text-anchor="middle" x="164.5" y="-74.5" font-family="Helvetica,sans-Serif" font-size="10.00" fill="#000000">include/ess_backend.h</text>
</g>
<!-- Node5 -->
<g id="node2" class="node">
<title>Node5</title>
<g id="a_node2"><a xlink:href="../../d8/d50/ess__backend_8c.html" target="_top" xlink:title="src/ess_backend.c">
<polygon fill="#ffffff" stroke="#000000" points="0,-6 0,-25 99,-25 99,-6 0,-6"/>
<text text-anchor="middle" x="49.5" y="-13" font-family="Helvetica,sans-Serif" font-size="10.00" fill="#000000">src/ess_backend.c</text>
</a>
</g>
</g>
<!-- Node4&#45;&gt;Node5 -->
<g id="edge1" class="edge">
<title>Node4&#45;&gt;Node5</title>
<path fill="none" stroke="#191970" d="M137.5189,-62.571C115.8769,-50.9972 86.1131,-35.0801 67.3426,-25.0419"/>
<polygon fill="#191970" stroke="#191970" points="136.0625,-65.7611 146.5313,-67.3906 139.3636,-59.5884 136.0625,-65.7611"/>
</g>
<!-- Node6 -->
<g id="node3" class="node">
<title>Node6</title>
<g id="a_node3"><a xlink:href="../../dc/d43/ess__context_8c.html" target="_top" xlink:title="src/ess_context.c">
<polygon fill="#ffffff" stroke="#000000" points="117,-6 117,-25 212,-25 212,-6 117,-6"/>
<text text-anchor="middle" x="164.5" y="-13" font-family="Helvetica,sans-Serif" font-size="10.00" fill="#000000">src/ess_context.c</text>
</a>
</g>
</g>
<!-- Node4&#45;&gt;Node6 -->
<g id="edge2" class="edge">
<title>Node4&#45;&gt;Node6</title>
<path fill="none" stroke="#191970" d="M164.5,-57.2462C164.5,-46.5519 164.5,-33.814 164.5,-25.2449"/>
<polygon fill="#191970" stroke="#191970" points="161.0001,-57.3906 164.5,-67.3906 168.0001,-57.3907 161.0001,-57.3906"/>
</g>
<!-- Node7 -->
<g id="node4" class="node">
<title>Node7</title>
<g id="a_node4"><a xlink:href="../../d1/df2/null__backend_8c.html" target="_top" xlink:title="all generic backend null functions source cource ">
<polygon fill="#ffffff" stroke="#000000" points="230,-.5 230,-30.5 355,-30.5 355,-.5 230,-.5"/>
<text text-anchor="start" x="238" y="-18.5" font-family="Helvetica,sans-Serif" font-size="10.00" fill="#000000">src/platform/generic</text>
<text text-anchor="middle" x="292.5" y="-7.5" font-family="Helvetica,sans-Serif" font-size="10.00" fill="#000000">/backend/null_backend.c</text>
</a>
</g>
</g>
<!-- Node4&#45;&gt;Node7 -->
<g id="edge3" class="edge">
<title>Node4&#45;&gt;Node7</title>
<path fill="none" stroke="#191970" d="M193.5264,-63.0537C213.6914,-53.3651 240.5415,-40.4644 261.1877,-30.5446"/>
<polygon fill="#191970" stroke="#191970" points="191.9978,-59.9051 184.5,-67.3906 195.0294,-66.2146 191.9978,-59.9051"/>
</g>
</g>
</svg>
