<?xml version="1.0" encoding="UTF-8" standalone="no"?>
<!DOCTYPE svg PUBLIC "-//W3C//DTD SVG 1.1//EN"
 "http://www.w3.org/Graphics/SVG/1.1/DTD/svg11.dtd">
<!-- Generated by graphviz version 2.40.1 (20161225.0304)
 -->
<!-- Title: include/ess_backend.h Pages: 1 -->
<svg width="498pt" height="95pt"
 viewBox="0.00 0.00 498.00 95.00" xmlns="http://www.w3.org/2000/svg" xmlns:xlink="http://www.w3.org/1999/xlink">
<g id="graph0" class="graph" transform="scale(1 1) rotate(0) translate(4 91)">
<title>include/ess_backend.h</title>
<polygon fill="#ffffff" stroke="transparent" points="-4,4 -4,-91 494,-91 494,4 -4,4"/>
<!-- Node9 -->
<g id="node1" class="node">
<title>Node9</title>
<polygon fill="#bfbfbf" stroke="#000000" points="183.5,-67.5 183.5,-86.5 299.5,-86.5 299.5,-67.5 183.5,-67.5"/>
<text text-anchor="middle" x="241.5" y="-74.5" font-family="Helvetica,sans-Serif" font-size="10.00" fill="#000000">include/ess_backend.h</text>
</g>
<!-- Node10 -->
<g id="node2" class="node">
<title>Node10</title>
<g id="a_node2"><a xlink:href="../../d2/de0/esp32__probe__backends_8c.html" target="_top" xlink:title="examples/esp32_probe\l_backends.c">
<polygon fill="#ffffff" stroke="#000000" points="0,-.5 0,-30.5 117,-30.5 117,-.5 0,-.5"/>
<text text-anchor="start" x="8" y="-18.5" font-family="Helvetica,sans-Serif" font-size="10.00" fill="#000000">examples/esp32_probe</text>
<text text-anchor="middle" x="58.5" y="-7.5" font-family="Helvetica,sans-Serif" font-size="10.00" fill="#000000">_backends.c</text>
</a>
</g>
</g>
<!-- Node9&#45;&gt;Node10 -->
<g id="edge1" class="edge">
<title>Node9&#45;&gt;Node10</title>
<path fill="none" stroke="#191970" d="M203.0936,-64.0929C173.9625,-54.303 133.8529,-40.8235 103.2668,-30.5446"/>
<polygon fill="#191970" stroke="#191970" points="202.3122,-67.5226 212.9063,-67.3906 204.5422,-60.8873 202.3122,-67.5226"/>
</g>
<!-- Node11 -->
<g id="node3" class="node">
<title>Node11</title>
<g id="a_node3"><a xlink:href="../../d8/d50/ess__backend_8c.html" target="_top" xlink:title="src/ess_backend.c">
<polygon fill="#ffffff" stroke="#000000" points="135,-6 135,-25 234,-25 234,-6 135,-6"/>
<text text-anchor="middle" x="184.5" y="-13" font-family="Helvetica,sans-Serif" font-size="10.00" fill="#000000">src/ess_backend.c</text>
</a>
</g>
</g>
<!-- Node9&#45;&gt;Node11 -->
<g id="edge2" class="edge">
<title>Node9&#45;&gt;Node11</title>
<path fill="none" stroke="#191970" d="M225.6519,-59.9007C215.2956,-48.7268 202.1428,-34.5356 193.5318,-25.2449"/>
<polygon fill="#191970" stroke="#191970" points="223.2291,-62.4355 232.5938,-67.3906 228.3631,-57.6771 223.2291,-62.4355"/>
</g>
<!-- Node12 -->
<g id="node4" class="node">
<title>Node12</title>
<g id="a_node4"><a xlink:href="../../dc/d43/ess__context_8c.html" target="_top" xlink:title="src/ess_context.c">
<polygon fill="#ffffff" stroke="#000000" points="252,-6 252,-25 347,-25 347,-6 252,-6"/>
<text text-anchor="middle" x="299.5" y="-13" font-family="Helvetica,sans-Serif" font-size="10.00" fill="#000000">src/ess_context.c</text>
</a>
</g>
</g>
<!-- Node9&#45;&gt;Node12 -->
<g id="edge3" class="edge">
<title>Node9&#45;&gt;Node12</title>
<path fill="none" stroke="#191970" d="M257.6261,-59.9007C268.1642,-48.7268 281.5477,-34.5356 290.3097,-25.2449"/>
<polygon fill="#191970" stroke="#191970" points="254.8773,-57.7142 250.5625,-67.3906 259.9698,-62.5169 254.8773,-57.7142"/>
</g>
<!-- Node13 -->
<g id="node5" class="node">
<title>Node13</title>
<g id="a_node5"><a xlink:href="../../d1/df2/null__backend_8c.html" target="_top" xlink:title="all generic backend null functions source cource ">
<polygon fill="#ffffff" stroke="#000000" points="365,-.5 365,-30.5 490,-30.5 490,-.5 365,-.5"/>
<text text-anchor="start" x="373" y="-18.5" font-family="Helvetica,sans-Serif" font-size="10.00" fill="#000000">src/platform/generic</text>
<text text-anchor="middle" x="427.5" y="-7.5" font-family="Helvetica,sans-Serif" font-size="10.00" fill="#000000">/backend/null_backend.c</text>
</a>
</g>
</g>
<!-- Node9&#45;&gt;Node13 -->
<g id="edge4" class="edge">
<title>Node9&#45;&gt;Node13</title>
<path fill="none" stroke="#191970" d="M280.1487,-64.221C309.7885,-54.4207 350.776,-40.8684 381.9993,-30.5446"/>
<polygon fill="#191970" stroke="#191970" points="278.9582,-60.9282 270.5625,-67.3906 281.1557,-67.5743 278.9582,-60.9282"/>
</g>
</g>
</svg>
