<?xml version="1.0" encoding="UTF-8" standalone="no"?>
<!DOCTYPE svg PUBLIC "-//W3C//DTD SVG 1.1//EN"
 "http://www.w3.org/Graphics/SVG/1.1/DTD/svg11.dtd">
<!-- Generated by graphviz version 2.40.1 (20161225.0304)
 -->
<!-- Title: ess_server Pages: 1 -->
<svg width="169pt" height="162pt"
 viewBox="0.00 0.00 168.50 162.00" xmlns="http://www.w3.org/2000/svg" xmlns:xlink="http://www.w3.org/1999/xlink">
<g id="graph0" class="graph" transform="scale(1 1) rotate(0) translate(4 158)">
<title>ess_server</title>
<polygon fill="#ffffff" stroke="transparent" points="-4,4 -4,-158 164.5,-158 164.5,4 -4,4"/>
<!-- Node1 -->
<g id="node1" class="node">
<title>Node1</title>
<polygon fill="#bfbfbf" stroke="#000000" points="29,-.5 29,-19.5 94,-19.5 94,-.5 29,-.5"/>
<text text-anchor="middle" x="61.5" y="-7.5" font-family="Helvetica,sans-Serif" font-size="10.00" fill="#000000">ess_server</text>
</g>
<!-- Node2 -->
<g id="node2" class="node">
<title>Node2</title>
<g id="a_node2"><a xlink:href="../../db/d9d/structess__socket.html" target="_top" xlink:title="hold all socket managment importend data ">
<polygon fill="#ffffff" stroke="#000000" points="0,-67.5 0,-86.5 67,-86.5 67,-67.5 0,-67.5"/>
<text text-anchor="middle" x="33.5" y="-74.5" font-family="Helvetica,sans-Serif" font-size="10.00" fill="#000000">ess_socket</text>
</a>
</g>
</g>
<!-- Node2&#45;&gt;Node1 -->
<g id="edge1" class="edge">
<title>Node2&#45;&gt;Node1</title>
<path fill="none" stroke="#9a32cd" stroke-dasharray="5,2" d="M41.3499,-57.6965C43.9259,-51.4075 46.8164,-44.3989 49.5,-38 52.0772,-31.8547 55.0245,-24.9758 57.3532,-19.574"/>
<polygon fill="#9a32cd" stroke="#9a32cd" points="37.9416,-56.7852 37.4036,-67.3663 44.4227,-59.4302 37.9416,-56.7852"/>
<text text-anchor="middle" x="66" y="-41" font-family="Helvetica,sans-Serif" font-size="10.00" fill="#000000"> socket</text>
</g>
<!-- Node3 -->
<g id="node3" class="node">
<title>Node3</title>
<g id="a_node3"><a xlink:href="../../d3/d9c/structess__context.html" target="_top" xlink:title="ess context ">
<polygon fill="#ffffff" stroke="#000000" points="85.5,-67.5 85.5,-86.5 155.5,-86.5 155.5,-67.5 85.5,-67.5"/>
<text text-anchor="middle" x="120.5" y="-74.5" font-family="Helvetica,sans-Serif" font-size="10.00" fill="#000000">ess_context</text>
</a>
</g>
</g>
<!-- Node3&#45;&gt;Node1 -->
<g id="edge2" class="edge">
<title>Node3&#45;&gt;Node1</title>
<path fill="none" stroke="#9a32cd" stroke-dasharray="5,2" d="M105.2786,-59.7147C94.0302,-46.941 79.1316,-30.0224 69.9376,-19.5817"/>
<polygon fill="#9a32cd" stroke="#9a32cd" points="102.8112,-62.2087 112.0467,-67.4005 108.0646,-57.5825 102.8112,-62.2087"/>
<text text-anchor="middle" x="112.5" y="-41" font-family="Helvetica,sans-Serif" font-size="10.00" fill="#000000"> context</text>
</g>
<!-- Node4 -->
<g id="node4" class="node">
<title>Node4</title>
<g id="a_node4"><a xlink:href="../../dd/db8/structess__backend.html" target="_top" xlink:title="ess backend factory ">
<polygon fill="#ffffff" stroke="#000000" points="83.5,-134.5 83.5,-153.5 157.5,-153.5 157.5,-134.5 83.5,-134.5"/>
<text text-anchor="middle" x="120.5" y="-141.5" font-family="Helvetica,sans-Serif" font-size="10.00" fill="#000000">ess_backend</text>
</a>
</g>
</g>
<!-- Node4&#45;&gt;Node3 -->
<g id="edge3" class="edge">
<title>Node4&#45;&gt;Node3</title>
<path fill="none" stroke="#9a32cd" stroke-dasharray="5,2" d="M120.5,-124.1079C120.5,-111.714 120.5,-96.3263 120.5,-86.5817"/>
<polygon fill="#9a32cd" stroke="#9a32cd" points="117.0001,-124.4005 120.5,-134.4005 124.0001,-124.4006 117.0001,-124.4005"/>
<text text-anchor="middle" x="140.5" y="-108" font-family="Helvetica,sans-Serif" font-size="10.00" fill="#000000"> backend</text>
</g>
</g>
</svg>
