<?xml version="1.0" encoding="UTF-8" standalone="no"?>
<!DOCTYPE svg PUBLIC "-//W3C//DTD SVG 1.1//EN"
 "http://www.w3.org/Graphics/SVG/1.1/DTD/svg11.dtd">
<!-- Generated by graphviz version 2.40.1 (20161225.0304)
 -->
<!-- Title: ess_context_create Pages: 1 -->
<svg width="436pt" height="28pt"
 viewBox="0.00 0.00 436.00 28.00" xmlns="http://www.w3.org/2000/svg" xmlns:xlink="http://www.w3.org/1999/xlink">
<g id="graph0" class="graph" transform="scale(1 1) rotate(0) translate(4 24)">
<title>ess_context_create</title>
<polygon fill="#ffffff" stroke="transparent" points="-4,4 -4,-24 432,-24 432,4 -4,4"/>
<!-- Node3 -->
<g id="node1" class="node">
<title>Node3</title>
<polygon fill="#bfbfbf" stroke="#000000" points="0,-.5 0,-19.5 102,-19.5 102,-.5 0,-.5"/>
<text text-anchor="middle" x="51" y="-7.5" font-family="Helvetica,sans-Serif" font-size="10.00" fill="#000000">ess_context_create</text>
</g>
<!-- Node4 -->
<g id="node2" class="node">
<title>Node4</title>
<g id="a_node2"><a xlink:href="../../de/dc0/ess__backend_8h.html#a37052d2bd2290bab5b09bae97dc72719" target="_top" xlink:title="get ess_error_t entry ">
<polygon fill="#ffffff" stroke="#000000" points="138,-.5 138,-19.5 276,-19.5 276,-.5 138,-.5"/>
<text text-anchor="middle" x="207" y="-7.5" font-family="Helvetica,sans-Serif" font-size="10.00" fill="#000000">ess_backend_get_by_name</text>
</a>
</g>
</g>
<!-- Node3&#45;&gt;Node4 -->
<g id="edge1" class="edge">
<title>Node3&#45;&gt;Node4</title>
<path fill="none" stroke="#191970" d="M102.0802,-10C110.3192,-10 119.0149,-10 127.7317,-10"/>
<polygon fill="#191970" stroke="#191970" points="127.9482,-13.5001 137.9481,-10 127.9481,-6.5001 127.9482,-13.5001"/>
</g>
<!-- Node5 -->
<g id="node3" class="node">
<title>Node5</title>
<g id="a_node3"><a xlink:href="../../d8/d50/ess__backend_8c.html#a6ba1bf553b596dd14d47748bec40bc9c" target="_top" xlink:title="get the size of backends ">
<polygon fill="#ffffff" stroke="#000000" points="312,-.5 312,-19.5 428,-19.5 428,-.5 312,-.5"/>
<text text-anchor="middle" x="370" y="-7.5" font-family="Helvetica,sans-Serif" font-size="10.00" fill="#000000">ess_backend_get_size</text>
</a>
</g>
</g>
<!-- Node4&#45;&gt;Node5 -->
<g id="edge2" class="edge">
<title>Node4&#45;&gt;Node5</title>
<path fill="none" stroke="#191970" d="M276.1267,-10C284.5778,-10 293.2107,-10 301.6504,-10"/>
<polygon fill="#191970" stroke="#191970" points="301.8239,-13.5001 311.8238,-10 301.8238,-6.5001 301.8239,-13.5001"/>
</g>
</g>
</svg>
