<?xml version="1.0" encoding="UTF-8" standalone="no"?>
<!DOCTYPE svg PUBLIC "-//W3C//DTD SVG 1.1//EN"
 "http://www.w3.org/Graphics/SVG/1.1/DTD/svg11.dtd">
<!-- Generated by graphviz version 2.40.1 (20161225.0304)
 -->
<!-- Title: src/ess_backend.c Pages: 1 -->
<svg width="562pt" height="196pt"
 viewBox="0.00 0.00 562.00 196.00" xmlns="http://www.w3.org/2000/svg" xmlns:xlink="http://www.w3.org/1999/xlink">
<g id="graph0" class="graph" transform="scale(1 1) rotate(0) translate(4 192)">
<title>src/ess_backend.c</title>
<polygon fill="#ffffff" stroke="transparent" points="-4,4 -4,-192 558,-192 558,4 -4,4"/>
<!-- Node0 -->
<g id="node1" class="node">
<title>Node0</title>
<polygon fill="#bfbfbf" stroke="#000000" points="240,-168.5 240,-187.5 339,-187.5 339,-168.5 240,-168.5"/>
<text text-anchor="middle" x="289.5" y="-175.5" font-family="Helvetica,sans-Serif" font-size="10.00" fill="#000000">src/ess_backend.c</text>
</g>
<!-- Node1 -->
<g id="node2" class="node">
<title>Node1</title>
<g id="a_node2"><a xlink:href="../../de/dc0/ess__backend_8h.html" target="_top" xlink:title="ess_backend.h">
<polygon fill="#ffffff" stroke="#000000" points="0,-112.5 0,-131.5 83,-131.5 83,-112.5 0,-112.5"/>
<text text-anchor="middle" x="41.5" y="-119.5" font-family="Helvetica,sans-Serif" font-size="10.00" fill="#000000">ess_backend.h</text>
</a>
</g>
</g>
<!-- Node0&#45;&gt;Node1 -->
<g id="edge1" class="edge">
<title>Node0&#45;&gt;Node1</title>
<path fill="none" stroke="#191970" d="M247.1491,-168.4369C204.5772,-158.8239 138.8914,-143.9916 93.2545,-133.6865"/>
<polygon fill="#191970" stroke="#191970" points="93.7879,-130.2189 83.2626,-131.4303 92.2461,-137.047 93.7879,-130.2189"/>
</g>
<!-- Node5 -->
<g id="node6" class="node">
<title>Node5</title>
<g id="a_node6"><a xlink:href="../../d7/d36/ess__context_8h.html" target="_top" xlink:title="ess_context.h">
<polygon fill="#ffffff" stroke="#000000" points="101.5,-112.5 101.5,-131.5 179.5,-131.5 179.5,-112.5 101.5,-112.5"/>
<text text-anchor="middle" x="140.5" y="-119.5" font-family="Helvetica,sans-Serif" font-size="10.00" fill="#000000">ess_context.h</text>
</a>
</g>
</g>
<!-- Node0&#45;&gt;Node5 -->
<g id="edge5" class="edge">
<title>Node0&#45;&gt;Node5</title>
<path fill="none" stroke="#191970" d="M263.886,-168.3733C239.4313,-159.1822 202.3946,-145.2624 175.2791,-135.0713"/>
<polygon fill="#191970" stroke="#191970" points="176.3719,-131.7431 165.7798,-131.5011 173.9091,-138.2956 176.3719,-131.7431"/>
</g>
<!-- Node6 -->
<g id="node7" class="node">
<title>Node6</title>
<polygon fill="#ffffff" stroke="#bfbfbf" points="198,-112.5 198,-131.5 247,-131.5 247,-112.5 198,-112.5"/>
<text text-anchor="middle" x="222.5" y="-119.5" font-family="Helvetica,sans-Serif" font-size="10.00" fill="#000000">string.h</text>
</g>
<!-- Node0&#45;&gt;Node6 -->
<g id="edge8" class="edge">
<title>Node0&#45;&gt;Node6</title>
<path fill="none" stroke="#191970" d="M277.8295,-168.2455C267.9339,-159.9746 253.5373,-147.9416 241.9099,-138.2232"/>
<polygon fill="#191970" stroke="#191970" points="243.9542,-135.3703 234.0368,-131.6427 239.465,-140.7413 243.9542,-135.3703"/>
</g>
<!-- Node7 -->
<g id="node8" class="node">
<title>Node7</title>
<polygon fill="#ffffff" stroke="#bfbfbf" points="265.5,-112.5 265.5,-131.5 313.5,-131.5 313.5,-112.5 265.5,-112.5"/>
<text text-anchor="middle" x="289.5" y="-119.5" font-family="Helvetica,sans-Serif" font-size="10.00" fill="#000000">stdlib.h</text>
</g>
<!-- Node0&#45;&gt;Node7 -->
<g id="edge9" class="edge">
<title>Node0&#45;&gt;Node7</title>
<path fill="none" stroke="#191970" d="M289.5,-168.2455C289.5,-160.9382 289.5,-150.6944 289.5,-141.7046"/>
<polygon fill="#191970" stroke="#191970" points="293.0001,-141.6426 289.5,-131.6427 286.0001,-141.6427 293.0001,-141.6426"/>
</g>
<!-- Node8 -->
<g id="node9" class="node">
<title>Node8</title>
<polygon fill="#ffffff" stroke="#bfbfbf" points="331.5,-112.5 331.5,-131.5 377.5,-131.5 377.5,-112.5 331.5,-112.5"/>
<text text-anchor="middle" x="354.5" y="-119.5" font-family="Helvetica,sans-Serif" font-size="10.00" fill="#000000">stdio.h</text>
</g>
<!-- Node0&#45;&gt;Node8 -->
<g id="edge10" class="edge">
<title>Node0&#45;&gt;Node8</title>
<path fill="none" stroke="#191970" d="M300.8221,-168.2455C310.4223,-159.9746 324.3892,-147.9416 335.6695,-138.2232"/>
<polygon fill="#191970" stroke="#191970" points="338.016,-140.8214 343.3076,-131.6427 333.447,-135.5182 338.016,-140.8214"/>
</g>
<!-- Node9 -->
<g id="node10" class="node">
<title>Node9</title>
<polygon fill="#ffffff" stroke="#bfbfbf" points="396,-112.5 396,-131.5 455,-131.5 455,-112.5 396,-112.5"/>
<text text-anchor="middle" x="425.5" y="-119.5" font-family="Helvetica,sans-Serif" font-size="10.00" fill="#000000">esp_log.h</text>
</g>
<!-- Node0&#45;&gt;Node9 -->
<g id="edge11" class="edge">
<title>Node0&#45;&gt;Node9</title>
<path fill="none" stroke="#191970" d="M312.8792,-168.3733C335.0045,-159.2629 368.4134,-145.5062 393.1019,-135.3404"/>
<polygon fill="#191970" stroke="#191970" points="394.5117,-138.5451 402.4258,-131.5011 391.8464,-132.0723 394.5117,-138.5451"/>
</g>
<!-- Node10 -->
<g id="node11" class="node">
<title>Node10</title>
<g id="a_node11"><a xlink:href="../../dc/d7b/ess__platform_8h.html" target="_top" xlink:title="all platform specific functions ">
<polygon fill="#ffffff" stroke="#000000" points="473,-112.5 473,-131.5 554,-131.5 554,-112.5 473,-112.5"/>
<text text-anchor="middle" x="513.5" y="-119.5" font-family="Helvetica,sans-Serif" font-size="10.00" fill="#000000">ess_platform.h</text>
</a>
</g>
</g>
<!-- Node0&#45;&gt;Node10 -->
<g id="edge12" class="edge">
<title>Node0&#45;&gt;Node10</title>
<path fill="none" stroke="#191970" d="M327.7525,-168.4369C365.8467,-158.9133 424.4313,-144.2672 465.5987,-133.9753"/>
<polygon fill="#191970" stroke="#191970" points="466.5528,-137.3446 475.4053,-131.5237 464.855,-130.5536 466.5528,-137.3446"/>
</g>
<!-- Node2 -->
<g id="node3" class="node">
<title>Node2</title>
<g id="a_node3"><a xlink:href="../../da/dfe/ess_8h.html" target="_top" xlink:title="ess.h">
<polygon fill="#ffffff" stroke="#000000" points="55,-56.5 55,-75.5 96,-75.5 96,-56.5 55,-56.5"/>
<text text-anchor="middle" x="75.5" y="-63.5" font-family="Helvetica,sans-Serif" font-size="10.00" fill="#000000">ess.h</text>
</a>
</g>
</g>
<!-- Node1&#45;&gt;Node2 -->
<g id="edge2" class="edge">
<title>Node1&#45;&gt;Node2</title>
<path fill="none" stroke="#191970" d="M47.4223,-112.2455C52.1027,-104.5367 58.7673,-93.5598 64.4289,-84.2348"/>
<polygon fill="#191970" stroke="#191970" points="67.4475,-86.007 69.6455,-75.6427 61.4639,-82.3741 67.4475,-86.007"/>
</g>
<!-- Node3 -->
<g id="node4" class="node">
<title>Node3</title>
<g id="a_node4"><a xlink:href="../../db/d16/config_8h.html" target="_top" xlink:title="File containing configurations. ">
<polygon fill="#ffffff" stroke="#000000" points="34,-.5 34,-19.5 85,-19.5 85,-.5 34,-.5"/>
<text text-anchor="middle" x="59.5" y="-7.5" font-family="Helvetica,sans-Serif" font-size="10.00" fill="#000000">config.h</text>
</a>
</g>
</g>
<!-- Node2&#45;&gt;Node3 -->
<g id="edge3" class="edge">
<title>Node2&#45;&gt;Node3</title>
<path fill="none" stroke="#191970" d="M72.713,-56.2455C70.6023,-48.8579 67.634,-38.4689 65.0453,-29.4087"/>
<polygon fill="#191970" stroke="#191970" points="68.3677,-28.2964 62.255,-19.6427 61.637,-30.2195 68.3677,-28.2964"/>
</g>
<!-- Node4 -->
<g id="node5" class="node">
<title>Node4</title>
<g id="a_node5"><a xlink:href="../../d7/d35/ess__format_8h.html" target="_top" xlink:title="ess_format.h">
<polygon fill="#ffffff" stroke="#000000" points="103.5,-.5 103.5,-19.5 177.5,-19.5 177.5,-.5 103.5,-.5"/>
<text text-anchor="middle" x="140.5" y="-7.5" font-family="Helvetica,sans-Serif" font-size="10.00" fill="#000000">ess_format.h</text>
</a>
</g>
</g>
<!-- Node2&#45;&gt;Node4 -->
<g id="edge4" class="edge">
<title>Node2&#45;&gt;Node4</title>
<path fill="none" stroke="#191970" d="M86.8221,-56.2455C96.4223,-47.9746 110.3892,-35.9416 121.6695,-26.2232"/>
<polygon fill="#191970" stroke="#191970" points="124.016,-28.8214 129.3076,-19.6427 119.447,-23.5182 124.016,-28.8214"/>
</g>
<!-- Node5&#45;&gt;Node2 -->
<g id="edge6" class="edge">
<title>Node5&#45;&gt;Node2</title>
<path fill="none" stroke="#191970" d="M129.1779,-112.2455C119.5777,-103.9746 105.6108,-91.9416 94.3305,-82.2232"/>
<polygon fill="#191970" stroke="#191970" points="96.553,-79.5182 86.6924,-75.6427 91.984,-84.8214 96.553,-79.5182"/>
</g>
<!-- Node5&#45;&gt;Node4 -->
<g id="edge7" class="edge">
<title>Node5&#45;&gt;Node4</title>
<path fill="none" stroke="#191970" d="M140.5,-112.4509C140.5,-94.184 140.5,-53.9553 140.5,-29.6976"/>
<polygon fill="#191970" stroke="#191970" points="144.0001,-29.5249 140.5,-19.5249 137.0001,-29.5249 144.0001,-29.5249"/>
</g>
</g>
</svg>
