<?xml version="1.0" encoding="UTF-8" standalone="no"?>
<!DOCTYPE svg PUBLIC "-//W3C//DTD SVG 1.1//EN"
 "http://www.w3.org/Graphics/SVG/1.1/DTD/svg11.dtd">
<!-- Generated by graphviz version 2.40.1 (20161225.0304)
 -->
<!-- Title: src/ess_backend.c Pages: 1 -->
<svg width="659pt" height="196pt"
 viewBox="0.00 0.00 658.50 196.00" xmlns="http://www.w3.org/2000/svg" xmlns:xlink="http://www.w3.org/1999/xlink">
<g id="graph0" class="graph" transform="scale(1 1) rotate(0) translate(4 192)">
<title>src/ess_backend.c</title>
<polygon fill="#ffffff" stroke="transparent" points="-4,4 -4,-192 654.5,-192 654.5,4 -4,4"/>
<!-- Node0 -->
<g id="node1" class="node">
<title>Node0</title>
<polygon fill="#bfbfbf" stroke="#000000" points="336.5,-168.5 336.5,-187.5 435.5,-187.5 435.5,-168.5 336.5,-168.5"/>
<text text-anchor="middle" x="386" y="-175.5" font-family="Helvetica,sans-Serif" font-size="10.00" fill="#000000">src/ess_backend.c</text>
</g>
<!-- Node1 -->
<g id="node2" class="node">
<title>Node1</title>
<g id="a_node2"><a xlink:href="../../de/dc0/ess__backend_8h.html" target="_top" xlink:title="ess_backend.h">
<polygon fill="#ffffff" stroke="#000000" points="193.5,-112.5 193.5,-131.5 276.5,-131.5 276.5,-112.5 193.5,-112.5"/>
<text text-anchor="middle" x="235" y="-119.5" font-family="Helvetica,sans-Serif" font-size="10.00" fill="#000000">ess_backend.h</text>
</a>
</g>
</g>
<!-- Node0&#45;&gt;Node1 -->
<g id="edge1" class="edge">
<title>Node0&#45;&gt;Node1</title>
<path fill="none" stroke="#191970" d="M360.0422,-168.3733C335.2593,-159.1822 297.7254,-145.2624 270.246,-135.0713"/>
<polygon fill="#191970" stroke="#191970" points="271.2121,-131.6968 260.6191,-131.5011 268.7781,-138.26 271.2121,-131.6968"/>
</g>
<!-- Node10 -->
<g id="node11" class="node">
<title>Node10</title>
<g id="a_node11"><a xlink:href="../../d7/d36/ess__context_8h.html" target="_top" xlink:title="ess_context.h">
<polygon fill="#ffffff" stroke="#000000" points="97,-112.5 97,-131.5 175,-131.5 175,-112.5 97,-112.5"/>
<text text-anchor="middle" x="136" y="-119.5" font-family="Helvetica,sans-Serif" font-size="10.00" fill="#000000">ess_context.h</text>
</a>
</g>
</g>
<!-- Node0&#45;&gt;Node10 -->
<g id="edge10" class="edge">
<title>Node0&#45;&gt;Node10</title>
<path fill="none" stroke="#191970" d="M343.3075,-168.4369C299.3927,-158.6 231.0795,-143.2978 184.9905,-132.9739"/>
<polygon fill="#191970" stroke="#191970" points="185.7457,-129.5564 175.2225,-130.7858 184.2156,-136.3871 185.7457,-129.5564"/>
</g>
<!-- Node11 -->
<g id="node12" class="node">
<title>Node11</title>
<polygon fill="#ffffff" stroke="#bfbfbf" points="294.5,-112.5 294.5,-131.5 343.5,-131.5 343.5,-112.5 294.5,-112.5"/>
<text text-anchor="middle" x="319" y="-119.5" font-family="Helvetica,sans-Serif" font-size="10.00" fill="#000000">string.h</text>
</g>
<!-- Node0&#45;&gt;Node11 -->
<g id="edge14" class="edge">
<title>Node0&#45;&gt;Node11</title>
<path fill="none" stroke="#191970" d="M374.3295,-168.2455C364.4339,-159.9746 350.0373,-147.9416 338.4099,-138.2232"/>
<polygon fill="#191970" stroke="#191970" points="340.4542,-135.3703 330.5368,-131.6427 335.965,-140.7413 340.4542,-135.3703"/>
</g>
<!-- Node12 -->
<g id="node13" class="node">
<title>Node12</title>
<polygon fill="#ffffff" stroke="#bfbfbf" points="362,-112.5 362,-131.5 410,-131.5 410,-112.5 362,-112.5"/>
<text text-anchor="middle" x="386" y="-119.5" font-family="Helvetica,sans-Serif" font-size="10.00" fill="#000000">stdlib.h</text>
</g>
<!-- Node0&#45;&gt;Node12 -->
<g id="edge15" class="edge">
<title>Node0&#45;&gt;Node12</title>
<path fill="none" stroke="#191970" d="M386,-168.2455C386,-160.9382 386,-150.6944 386,-141.7046"/>
<polygon fill="#191970" stroke="#191970" points="389.5001,-141.6426 386,-131.6427 382.5001,-141.6427 389.5001,-141.6426"/>
</g>
<!-- Node13 -->
<g id="node14" class="node">
<title>Node13</title>
<polygon fill="#ffffff" stroke="#bfbfbf" points="428,-112.5 428,-131.5 474,-131.5 474,-112.5 428,-112.5"/>
<text text-anchor="middle" x="451" y="-119.5" font-family="Helvetica,sans-Serif" font-size="10.00" fill="#000000">stdio.h</text>
</g>
<!-- Node0&#45;&gt;Node13 -->
<g id="edge16" class="edge">
<title>Node0&#45;&gt;Node13</title>
<path fill="none" stroke="#191970" d="M397.3221,-168.2455C406.9223,-159.9746 420.8892,-147.9416 432.1695,-138.2232"/>
<polygon fill="#191970" stroke="#191970" points="434.516,-140.8214 439.8076,-131.6427 429.947,-135.5182 434.516,-140.8214"/>
</g>
<!-- Node14 -->
<g id="node15" class="node">
<title>Node14</title>
<polygon fill="#ffffff" stroke="#bfbfbf" points="492.5,-112.5 492.5,-131.5 551.5,-131.5 551.5,-112.5 492.5,-112.5"/>
<text text-anchor="middle" x="522" y="-119.5" font-family="Helvetica,sans-Serif" font-size="10.00" fill="#000000">esp_log.h</text>
</g>
<!-- Node0&#45;&gt;Node14 -->
<g id="edge17" class="edge">
<title>Node0&#45;&gt;Node14</title>
<path fill="none" stroke="#191970" d="M409.3792,-168.3733C431.5045,-159.2629 464.9134,-145.5062 489.6019,-135.3404"/>
<polygon fill="#191970" stroke="#191970" points="491.0117,-138.5451 498.9258,-131.5011 488.3464,-132.0723 491.0117,-138.5451"/>
</g>
<!-- Node15 -->
<g id="node16" class="node">
<title>Node15</title>
<g id="a_node16"><a xlink:href="../../dc/d7b/ess__platform_8h.html" target="_top" xlink:title="all platform specific functions ">
<polygon fill="#ffffff" stroke="#000000" points="569.5,-112.5 569.5,-131.5 650.5,-131.5 650.5,-112.5 569.5,-112.5"/>
<text text-anchor="middle" x="610" y="-119.5" font-family="Helvetica,sans-Serif" font-size="10.00" fill="#000000">ess_platform.h</text>
</a>
</g>
</g>
<!-- Node0&#45;&gt;Node15 -->
<g id="edge18" class="edge">
<title>Node0&#45;&gt;Node15</title>
<path fill="none" stroke="#191970" d="M424.2525,-168.4369C462.3467,-158.9133 520.9313,-144.2672 562.0987,-133.9753"/>
<polygon fill="#191970" stroke="#191970" points="563.0528,-137.3446 571.9053,-131.5237 561.355,-130.5536 563.0528,-137.3446"/>
</g>
<!-- Node2 -->
<g id="node3" class="node">
<title>Node2</title>
<g id="a_node3"><a xlink:href="../../da/dfe/ess_8h.html" target="_top" xlink:title="ess.h">
<polygon fill="#ffffff" stroke="#000000" points="184.5,-56.5 184.5,-75.5 225.5,-75.5 225.5,-56.5 184.5,-56.5"/>
<text text-anchor="middle" x="205" y="-63.5" font-family="Helvetica,sans-Serif" font-size="10.00" fill="#000000">ess.h</text>
</a>
</g>
</g>
<!-- Node1&#45;&gt;Node2 -->
<g id="edge2" class="edge">
<title>Node1&#45;&gt;Node2</title>
<path fill="none" stroke="#191970" d="M229.7744,-112.2455C225.6877,-104.617 219.8865,-93.7881 214.925,-84.5267"/>
<polygon fill="#191970" stroke="#191970" points="217.9732,-82.8047 210.1657,-75.6427 211.8028,-86.1103 217.9732,-82.8047"/>
</g>
<!-- Node9 -->
<g id="node10" class="node">
<title>Node9</title>
<g id="a_node10"><a xlink:href="../../d1/dea/ess__error_8h.html" target="_top" xlink:title="ess_error.h">
<polygon fill="#ffffff" stroke="#000000" points="243.5,-56.5 243.5,-75.5 308.5,-75.5 308.5,-56.5 243.5,-56.5"/>
<text text-anchor="middle" x="276" y="-63.5" font-family="Helvetica,sans-Serif" font-size="10.00" fill="#000000">ess_error.h</text>
</a>
</g>
</g>
<!-- Node1&#45;&gt;Node9 -->
<g id="edge9" class="edge">
<title>Node1&#45;&gt;Node9</title>
<path fill="none" stroke="#191970" d="M242.1417,-112.2455C247.8444,-104.4564 255.99,-93.3308 262.8625,-83.9439"/>
<polygon fill="#191970" stroke="#191970" points="265.8568,-85.7789 268.9402,-75.6427 260.2087,-81.6437 265.8568,-85.7789"/>
</g>
<!-- Node3 -->
<g id="node4" class="node">
<title>Node3</title>
<polygon fill="#ffffff" stroke="#bfbfbf" points="248.5,-.5 248.5,-19.5 295.5,-19.5 295.5,-.5 248.5,-.5"/>
<text text-anchor="middle" x="272" y="-7.5" font-family="Helvetica,sans-Serif" font-size="10.00" fill="#000000">errno.h</text>
</g>
<!-- Node2&#45;&gt;Node3 -->
<g id="edge3" class="edge">
<title>Node2&#45;&gt;Node3</title>
<path fill="none" stroke="#191970" d="M216.6705,-56.2455C226.5661,-47.9746 240.9627,-35.9416 252.5901,-26.2232"/>
<polygon fill="#191970" stroke="#191970" points="255.035,-28.7413 260.4632,-19.6427 250.5458,-23.3703 255.035,-28.7413"/>
</g>
<!-- Node4 -->
<g id="node5" class="node">
<title>Node4</title>
<polygon fill="#ffffff" stroke="#bfbfbf" points="314,-.5 314,-19.5 358,-19.5 358,-.5 314,-.5"/>
<text text-anchor="middle" x="336" y="-7.5" font-family="Helvetica,sans-Serif" font-size="10.00" fill="#000000">time.h</text>
</g>
<!-- Node2&#45;&gt;Node4 -->
<g id="edge4" class="edge">
<title>Node2&#45;&gt;Node4</title>
<path fill="none" stroke="#191970" d="M225.7573,-57.1266C246.9027,-48.0874 279.965,-33.9539 304.3714,-23.5206"/>
<polygon fill="#191970" stroke="#191970" points="305.7657,-26.731 313.585,-19.582 303.0141,-20.2945 305.7657,-26.731"/>
</g>
<!-- Node5 -->
<g id="node6" class="node">
<title>Node5</title>
<polygon fill="#ffffff" stroke="#bfbfbf" points="376,-.5 376,-19.5 438,-19.5 438,-.5 376,-.5"/>
<text text-anchor="middle" x="407" y="-7.5" font-family="Helvetica,sans-Serif" font-size="10.00" fill="#000000">sys/time.h</text>
</g>
<!-- Node2&#45;&gt;Node5 -->
<g id="edge5" class="edge">
<title>Node2&#45;&gt;Node5</title>
<path fill="none" stroke="#191970" d="M225.6047,-58.9498C228.7423,-57.9291 231.9501,-56.9152 235,-56 259.3254,-48.7002 323.2918,-31.8183 365.9853,-20.6635"/>
<polygon fill="#191970" stroke="#191970" points="367.0197,-24.0109 375.8118,-18.0991 365.252,-17.2377 367.0197,-24.0109"/>
</g>
<!-- Node6 -->
<g id="node7" class="node">
<title>Node6</title>
<polygon fill="#ffffff" stroke="#bfbfbf" points="92.5,-.5 92.5,-19.5 161.5,-19.5 161.5,-.5 92.5,-.5"/>
<text text-anchor="middle" x="127" y="-7.5" font-family="Helvetica,sans-Serif" font-size="10.00" fill="#000000">sys/signal.h</text>
</g>
<!-- Node2&#45;&gt;Node6 -->
<g id="edge6" class="edge">
<title>Node2&#45;&gt;Node6</title>
<path fill="none" stroke="#191970" d="M191.4134,-56.2455C179.6695,-47.814 162.4801,-35.4729 148.8118,-25.6598"/>
<polygon fill="#191970" stroke="#191970" points="150.5954,-22.6316 140.4309,-19.6427 146.5129,-28.3179 150.5954,-22.6316"/>
</g>
<!-- Node7 -->
<g id="node8" class="node">
<title>Node7</title>
<g id="a_node8"><a xlink:href="../../db/d16/config_8h.html" target="_top" xlink:title="File containing configurations. ">
<polygon fill="#ffffff" stroke="#000000" points="179.5,-.5 179.5,-19.5 230.5,-19.5 230.5,-.5 179.5,-.5"/>
<text text-anchor="middle" x="205" y="-7.5" font-family="Helvetica,sans-Serif" font-size="10.00" fill="#000000">config.h</text>
</a>
</g>
</g>
<!-- Node2&#45;&gt;Node7 -->
<g id="edge7" class="edge">
<title>Node2&#45;&gt;Node7</title>
<path fill="none" stroke="#191970" d="M205,-56.2455C205,-48.9382 205,-38.6944 205,-29.7046"/>
<polygon fill="#191970" stroke="#191970" points="208.5001,-29.6426 205,-19.6427 201.5001,-29.6427 208.5001,-29.6426"/>
</g>
<!-- Node8 -->
<g id="node9" class="node">
<title>Node8</title>
<g id="a_node9"><a xlink:href="../../d7/d35/ess__format_8h.html" target="_top" xlink:title="ess_format.h">
<polygon fill="#ffffff" stroke="#000000" points="0,-.5 0,-19.5 74,-19.5 74,-.5 0,-.5"/>
<text text-anchor="middle" x="37" y="-7.5" font-family="Helvetica,sans-Serif" font-size="10.00" fill="#000000">ess_format.h</text>
</a>
</g>
</g>
<!-- Node2&#45;&gt;Node8 -->
<g id="edge8" class="edge">
<title>Node2&#45;&gt;Node8</title>
<path fill="none" stroke="#191970" d="M184.3999,-59.1333C157.286,-50.0953 109.1022,-34.0341 75.2226,-22.7409"/>
<polygon fill="#191970" stroke="#191970" points="76.2353,-19.3892 65.6417,-19.5472 74.0217,-26.03 76.2353,-19.3892"/>
</g>
<!-- Node10&#45;&gt;Node2 -->
<g id="edge11" class="edge">
<title>Node10&#45;&gt;Node2</title>
<path fill="none" stroke="#191970" d="M148.0189,-112.2455C158.2098,-103.9746 173.0362,-91.9416 185.0107,-82.2232"/>
<polygon fill="#191970" stroke="#191970" points="187.5598,-84.662 193.1188,-75.6427 183.1486,-79.2268 187.5598,-84.662"/>
</g>
<!-- Node10&#45;&gt;Node8 -->
<g id="edge12" class="edge">
<title>Node10&#45;&gt;Node8</title>
<path fill="none" stroke="#191970" d="M127.5593,-112.4509C110.8281,-93.5227 73.2535,-51.014 52.1398,-27.1279"/>
<polygon fill="#191970" stroke="#191970" points="54.6646,-24.6994 45.4193,-19.5249 49.4198,-29.3354 54.6646,-24.6994"/>
</g>
<!-- Node10&#45;&gt;Node9 -->
<g id="edge13" class="edge">
<title>Node10&#45;&gt;Node9</title>
<path fill="none" stroke="#191970" d="M160.0669,-112.3733C182.8428,-103.2629 217.2344,-89.5062 242.649,-79.3404"/>
<polygon fill="#191970" stroke="#191970" points="244.2623,-82.4648 252.2472,-75.5011 241.6625,-75.9654 244.2623,-82.4648"/>
</g>
<!-- Node15&#45;&gt;Node9 -->
<g id="edge19" class="edge">
<title>Node15&#45;&gt;Node9</title>
<path fill="none" stroke="#191970" d="M569.3831,-113.5764C566.5486,-113.0299 563.7331,-112.4992 561,-112 475.3107,-96.3478 374.612,-80.7465 318.7785,-72.3411"/>
<polygon fill="#191970" stroke="#191970" points="318.9671,-68.8303 308.5584,-70.8076 317.9283,-75.7528 318.9671,-68.8303"/>
</g>
</g>
</svg>
