<?xml version="1.0" encoding="UTF-8" standalone="no"?>
<!DOCTYPE svg PUBLIC "-//W3C//DTD SVG 1.1//EN"
 "http://www.w3.org/Graphics/SVG/1.1/DTD/svg11.dtd">
<!-- Generated by graphviz version 2.40.1 (20161225.0304)
 -->
<!-- Title: include/ess_server.h Pages: 1 -->
<svg width="450pt" height="196pt"
 viewBox="0.00 0.00 450.00 196.00" xmlns="http://www.w3.org/2000/svg" xmlns:xlink="http://www.w3.org/1999/xlink">
<g id="graph0" class="graph" transform="scale(1 1) rotate(0) translate(4 192)">
<title>include/ess_server.h</title>
<polygon fill="#ffffff" stroke="transparent" points="-4,4 -4,-192 446,-192 446,4 -4,4"/>
<!-- Node0 -->
<g id="node1" class="node">
<title>Node0</title>
<polygon fill="#bfbfbf" stroke="#000000" points="256,-168.5 256,-187.5 363,-187.5 363,-168.5 256,-168.5"/>
<text text-anchor="middle" x="309.5" y="-175.5" font-family="Helvetica,sans-Serif" font-size="10.00" fill="#000000">include/ess_server.h</text>
</g>
<!-- Node1 -->
<g id="node2" class="node">
<title>Node1</title>
<g id="a_node2"><a xlink:href="../../da/dfe/ess_8h.html" target="_top" xlink:title="ess.h">
<polygon fill="#ffffff" stroke="#000000" points="222,-56.5 222,-75.5 263,-75.5 263,-56.5 222,-56.5"/>
<text text-anchor="middle" x="242.5" y="-63.5" font-family="Helvetica,sans-Serif" font-size="10.00" fill="#000000">ess.h</text>
</a>
</g>
</g>
<!-- Node0&#45;&gt;Node1 -->
<g id="edge1" class="edge">
<title>Node0&#45;&gt;Node1</title>
<path fill="none" stroke="#191970" d="M296.2315,-168.4932C285.3938,-160.0645 270.4531,-146.8187 261.5,-132 252.9254,-117.8078 248.0599,-99.5591 245.4041,-85.8488"/>
<polygon fill="#191970" stroke="#191970" points="248.7864,-84.8603 243.66,-75.5882 241.8854,-86.0334 248.7864,-84.8603"/>
</g>
<!-- Node8 -->
<g id="node9" class="node">
<title>Node8</title>
<g id="a_node9"><a xlink:href="../../d7/d36/ess__context_8h.html" target="_top" xlink:title="ess_context.h">
<polygon fill="#ffffff" stroke="#000000" points="270.5,-112.5 270.5,-131.5 348.5,-131.5 348.5,-112.5 270.5,-112.5"/>
<text text-anchor="middle" x="309.5" y="-119.5" font-family="Helvetica,sans-Serif" font-size="10.00" fill="#000000">ess_context.h</text>
</a>
</g>
</g>
<!-- Node0&#45;&gt;Node8 -->
<g id="edge8" class="edge">
<title>Node0&#45;&gt;Node8</title>
<path fill="none" stroke="#191970" d="M309.5,-168.2455C309.5,-160.9382 309.5,-150.6944 309.5,-141.7046"/>
<polygon fill="#191970" stroke="#191970" points="313.0001,-141.6426 309.5,-131.6427 306.0001,-141.6427 313.0001,-141.6426"/>
</g>
<!-- Node10 -->
<g id="node11" class="node">
<title>Node10</title>
<g id="a_node11"><a xlink:href="../../d8/da1/ess__socket_8h.html" target="_top" xlink:title="ess_socket.h">
<polygon fill="#ffffff" stroke="#000000" points="367,-112.5 367,-131.5 442,-131.5 442,-112.5 367,-112.5"/>
<text text-anchor="middle" x="404.5" y="-119.5" font-family="Helvetica,sans-Serif" font-size="10.00" fill="#000000">ess_socket.h</text>
</a>
</g>
</g>
<!-- Node0&#45;&gt;Node10 -->
<g id="edge12" class="edge">
<title>Node0&#45;&gt;Node10</title>
<path fill="none" stroke="#191970" d="M326.0477,-168.2455C340.7599,-159.5731 362.4888,-146.7645 379.3505,-136.825"/>
<polygon fill="#191970" stroke="#191970" points="381.3046,-139.736 388.1419,-131.6427 377.7498,-133.7057 381.3046,-139.736"/>
</g>
<!-- Node2 -->
<g id="node3" class="node">
<title>Node2</title>
<polygon fill="#ffffff" stroke="#bfbfbf" points="0,-.5 0,-19.5 47,-19.5 47,-.5 0,-.5"/>
<text text-anchor="middle" x="23.5" y="-7.5" font-family="Helvetica,sans-Serif" font-size="10.00" fill="#000000">errno.h</text>
</g>
<!-- Node1&#45;&gt;Node2 -->
<g id="edge2" class="edge">
<title>Node1&#45;&gt;Node2</title>
<path fill="none" stroke="#191970" d="M221.7662,-61.2424C188.9284,-53.6286 122.748,-37.9645 56.9513,-20.0208"/>
<polygon fill="#191970" stroke="#191970" points="57.8202,-16.6299 47.2504,-17.3575 55.967,-23.3801 57.8202,-16.6299"/>
</g>
<!-- Node3 -->
<g id="node4" class="node">
<title>Node3</title>
<polygon fill="#ffffff" stroke="#bfbfbf" points="65.5,-.5 65.5,-19.5 109.5,-19.5 109.5,-.5 65.5,-.5"/>
<text text-anchor="middle" x="87.5" y="-7.5" font-family="Helvetica,sans-Serif" font-size="10.00" fill="#000000">time.h</text>
</g>
<!-- Node1&#45;&gt;Node3 -->
<g id="edge3" class="edge">
<title>Node1&#45;&gt;Node3</title>
<path fill="none" stroke="#191970" d="M221.9172,-58.5636C195.7261,-49.1011 150.2064,-32.6552 119.4777,-21.5532"/>
<polygon fill="#191970" stroke="#191970" points="120.2673,-18.1171 109.673,-18.0109 117.8887,-24.7006 120.2673,-18.1171"/>
</g>
<!-- Node4 -->
<g id="node5" class="node">
<title>Node4</title>
<polygon fill="#ffffff" stroke="#bfbfbf" points="127.5,-.5 127.5,-19.5 189.5,-19.5 189.5,-.5 127.5,-.5"/>
<text text-anchor="middle" x="158.5" y="-7.5" font-family="Helvetica,sans-Serif" font-size="10.00" fill="#000000">sys/time.h</text>
</g>
<!-- Node1&#45;&gt;Node4 -->
<g id="edge4" class="edge">
<title>Node1&#45;&gt;Node4</title>
<path fill="none" stroke="#191970" d="M227.8683,-56.2455C215.1006,-47.7337 196.3562,-35.2375 181.5701,-25.3801"/>
<polygon fill="#191970" stroke="#191970" points="183.226,-22.2775 172.964,-19.6427 179.3431,-28.1019 183.226,-22.2775"/>
</g>
<!-- Node5 -->
<g id="node6" class="node">
<title>Node5</title>
<polygon fill="#ffffff" stroke="#bfbfbf" points="208,-.5 208,-19.5 277,-19.5 277,-.5 208,-.5"/>
<text text-anchor="middle" x="242.5" y="-7.5" font-family="Helvetica,sans-Serif" font-size="10.00" fill="#000000">sys/signal.h</text>
</g>
<!-- Node1&#45;&gt;Node5 -->
<g id="edge5" class="edge">
<title>Node1&#45;&gt;Node5</title>
<path fill="none" stroke="#191970" d="M242.5,-56.2455C242.5,-48.9382 242.5,-38.6944 242.5,-29.7046"/>
<polygon fill="#191970" stroke="#191970" points="246.0001,-29.6426 242.5,-19.6427 239.0001,-29.6427 246.0001,-29.6426"/>
</g>
<!-- Node6 -->
<g id="node7" class="node">
<title>Node6</title>
<g id="a_node7"><a xlink:href="../../db/d16/config_8h.html" target="_top" xlink:title="File containing configurations. ">
<polygon fill="#ffffff" stroke="#000000" points="295,-.5 295,-19.5 346,-19.5 346,-.5 295,-.5"/>
<text text-anchor="middle" x="320.5" y="-7.5" font-family="Helvetica,sans-Serif" font-size="10.00" fill="#000000">config.h</text>
</a>
</g>
</g>
<!-- Node1&#45;&gt;Node6 -->
<g id="edge6" class="edge">
<title>Node1&#45;&gt;Node6</title>
<path fill="none" stroke="#191970" d="M256.0866,-56.2455C267.8305,-47.814 285.0199,-35.4729 298.6882,-25.6598"/>
<polygon fill="#191970" stroke="#191970" points="300.9871,-28.3179 307.0691,-19.6427 296.9046,-22.6316 300.9871,-28.3179"/>
</g>
<!-- Node7 -->
<g id="node8" class="node">
<title>Node7</title>
<g id="a_node8"><a xlink:href="../../d7/d35/ess__format_8h.html" target="_top" xlink:title="ess_format.h">
<polygon fill="#ffffff" stroke="#000000" points="364.5,-.5 364.5,-19.5 438.5,-19.5 438.5,-.5 364.5,-.5"/>
<text text-anchor="middle" x="401.5" y="-7.5" font-family="Helvetica,sans-Serif" font-size="10.00" fill="#000000">ess_format.h</text>
</a>
</g>
</g>
<!-- Node1&#45;&gt;Node7 -->
<g id="edge7" class="edge">
<title>Node1&#45;&gt;Node7</title>
<path fill="none" stroke="#191970" d="M263.2865,-58.679C288.9599,-49.6368 333.0909,-34.0938 364.5795,-23.0035"/>
<polygon fill="#191970" stroke="#191970" points="366.05,-26.1963 374.3194,-19.573 363.7246,-19.5939 366.05,-26.1963"/>
</g>
<!-- Node8&#45;&gt;Node1 -->
<g id="edge9" class="edge">
<title>Node8&#45;&gt;Node1</title>
<path fill="none" stroke="#191970" d="M297.8295,-112.2455C287.9339,-103.9746 273.5373,-91.9416 261.9099,-82.2232"/>
<polygon fill="#191970" stroke="#191970" points="263.9542,-79.3703 254.0368,-75.6427 259.465,-84.7413 263.9542,-79.3703"/>
</g>
<!-- Node8&#45;&gt;Node7 -->
<g id="edge10" class="edge">
<title>Node8&#45;&gt;Node7</title>
<path fill="none" stroke="#191970" d="M315.3452,-112.1741C323.4346,-98.8897 338.8266,-74.711 354.5,-56 363.2326,-45.5749 374.0136,-34.8929 383.0464,-26.4498"/>
<polygon fill="#191970" stroke="#191970" points="385.4353,-29.008 390.4389,-19.6692 380.7036,-23.8494 385.4353,-29.008"/>
</g>
<!-- Node9 -->
<g id="node10" class="node">
<title>Node9</title>
<g id="a_node10"><a xlink:href="../../d1/dea/ess__error_8h.html" target="_top" xlink:title="ess_error.h">
<polygon fill="#ffffff" stroke="#000000" points="363,-56.5 363,-75.5 428,-75.5 428,-56.5 363,-56.5"/>
<text text-anchor="middle" x="395.5" y="-63.5" font-family="Helvetica,sans-Serif" font-size="10.00" fill="#000000">ess_error.h</text>
</a>
</g>
</g>
<!-- Node8&#45;&gt;Node9 -->
<g id="edge11" class="edge">
<title>Node8&#45;&gt;Node9</title>
<path fill="none" stroke="#191970" d="M324.4801,-112.2455C337.6751,-103.6534 357.1051,-91.0014 372.3079,-81.1018"/>
<polygon fill="#191970" stroke="#191970" points="374.2215,-84.0325 380.6916,-75.6427 370.4017,-78.1665 374.2215,-84.0325"/>
</g>
<!-- Node10&#45;&gt;Node9 -->
<g id="edge13" class="edge">
<title>Node10&#45;&gt;Node9</title>
<path fill="none" stroke="#191970" d="M402.9323,-112.2455C401.7579,-104.9382 400.1116,-94.6944 398.6668,-85.7046"/>
<polygon fill="#191970" stroke="#191970" points="402.0922,-84.9606 397.0497,-75.6427 395.1809,-86.0714 402.0922,-84.9606"/>
</g>
</g>
</svg>
