<?xml version="1.0" encoding="UTF-8" standalone="no"?>
<!DOCTYPE svg PUBLIC "-//W3C//DTD SVG 1.1//EN"
 "http://www.w3.org/Graphics/SVG/1.1/DTD/svg11.dtd">
<!-- Generated by graphviz version 2.40.1 (20161225.0304)
 -->
<!-- Title: src/platform/generic/backend/null_backend.c Pages: 1 -->
<svg width="230pt" height="207pt"
 viewBox="0.00 0.00 230.00 207.00" xmlns="http://www.w3.org/2000/svg" xmlns:xlink="http://www.w3.org/1999/xlink">
<g id="graph0" class="graph" transform="scale(1 1) rotate(0) translate(4 203)">
<title>src/platform/generic/backend/null_backend.c</title>
<polygon fill="#ffffff" stroke="transparent" points="-4,4 -4,-203 226,-203 226,4 -4,4"/>
<!-- Node0 -->
<g id="node1" class="node">
<title>Node0</title>
<polygon fill="#bfbfbf" stroke="#000000" points="50.5,-168.5 50.5,-198.5 175.5,-198.5 175.5,-168.5 50.5,-168.5"/>
<text text-anchor="start" x="58.5" y="-186.5" font-family="Helvetica,sans-Serif" font-size="10.00" fill="#000000">src/platform/generic</text>
<text text-anchor="middle" x="113" y="-175.5" font-family="Helvetica,sans-Serif" font-size="10.00" fill="#000000">/backend/null_backend.c</text>
</g>
<!-- Node1 -->
<g id="node2" class="node">
<title>Node1</title>
<g id="a_node2"><a xlink:href="../../d7/d35/ess__format_8h.html" target="_top" xlink:title="ess_format.h">
<polygon fill="#ffffff" stroke="#000000" points="0,-.5 0,-19.5 74,-19.5 74,-.5 0,-.5"/>
<text text-anchor="middle" x="37" y="-7.5" font-family="Helvetica,sans-Serif" font-size="10.00" fill="#000000">ess_format.h</text>
</a>
</g>
</g>
<!-- Node0&#45;&gt;Node1 -->
<g id="edge1" class="edge">
<title>Node0&#45;&gt;Node1</title>
<path fill="none" stroke="#191970" d="M69.7481,-168.3832C53.3324,-160.2891 36.3532,-148.503 27,-132 8.6626,-99.6449 20.0688,-54.5146 29.1227,-29.1948"/>
<polygon fill="#191970" stroke="#191970" points="32.4692,-30.242 32.7653,-19.6513 25.9294,-27.7458 32.4692,-30.242"/>
</g>
<!-- Node2 -->
<g id="node3" class="node">
<title>Node2</title>
<g id="a_node3"><a xlink:href="../../db/d16/config_8h.html" target="_top" xlink:title="File containing configurations. ">
<polygon fill="#ffffff" stroke="#000000" points="107.5,-.5 107.5,-19.5 158.5,-19.5 158.5,-.5 107.5,-.5"/>
<text text-anchor="middle" x="133" y="-7.5" font-family="Helvetica,sans-Serif" font-size="10.00" fill="#000000">config.h</text>
</a>
</g>
</g>
<!-- Node0&#45;&gt;Node2 -->
<g id="edge2" class="edge">
<title>Node0&#45;&gt;Node2</title>
<path fill="none" stroke="#191970" d="M118.8558,-168.4375C122.5001,-158.3058 126.8834,-144.5559 129,-132 135.0212,-96.2806 134.785,-53.871 133.9632,-29.6295"/>
<polygon fill="#191970" stroke="#191970" points="137.4579,-29.426 133.5511,-19.5778 130.4637,-29.7128 137.4579,-29.426"/>
</g>
<!-- Node3 -->
<g id="node4" class="node">
<title>Node3</title>
<g id="a_node4"><a xlink:href="../../de/dc0/ess__backend_8h.html" target="_top" xlink:title="ess_backend.h">
<polygon fill="#ffffff" stroke="#000000" points="36.5,-112.5 36.5,-131.5 119.5,-131.5 119.5,-112.5 36.5,-112.5"/>
<text text-anchor="middle" x="78" y="-119.5" font-family="Helvetica,sans-Serif" font-size="10.00" fill="#000000">ess_backend.h</text>
</a>
</g>
</g>
<!-- Node0&#45;&gt;Node3 -->
<g id="edge3" class="edge">
<title>Node0&#45;&gt;Node3</title>
<path fill="none" stroke="#191970" d="M104.3483,-168.2977C99.5912,-159.9388 93.6502,-149.4997 88.6143,-140.6509"/>
<polygon fill="#191970" stroke="#191970" points="91.5921,-138.8069 83.6039,-131.8469 85.5083,-142.2692 91.5921,-138.8069"/>
</g>
<!-- Node5 -->
<g id="node6" class="node">
<title>Node5</title>
<polygon fill="#ffffff" stroke="#bfbfbf" points="176,-112.5 176,-131.5 222,-131.5 222,-112.5 176,-112.5"/>
<text text-anchor="middle" x="199" y="-119.5" font-family="Helvetica,sans-Serif" font-size="10.00" fill="#000000">stdio.h</text>
</g>
<!-- Node0&#45;&gt;Node5 -->
<g id="edge7" class="edge">
<title>Node0&#45;&gt;Node5</title>
<path fill="none" stroke="#191970" d="M134.2584,-168.2977C147.2718,-158.9917 163.8903,-147.1075 177.0317,-137.7099"/>
<polygon fill="#191970" stroke="#191970" points="179.3889,-140.3271 185.4871,-131.6633 175.3171,-134.6332 179.3889,-140.3271"/>
</g>
<!-- Node4 -->
<g id="node5" class="node">
<title>Node4</title>
<g id="a_node5"><a xlink:href="../../da/dfe/ess_8h.html" target="_top" xlink:title="ess.h">
<polygon fill="#ffffff" stroke="#000000" points="57.5,-56.5 57.5,-75.5 98.5,-75.5 98.5,-56.5 57.5,-56.5"/>
<text text-anchor="middle" x="78" y="-63.5" font-family="Helvetica,sans-Serif" font-size="10.00" fill="#000000">ess.h</text>
</a>
</g>
</g>
<!-- Node3&#45;&gt;Node4 -->
<g id="edge4" class="edge">
<title>Node3&#45;&gt;Node4</title>
<path fill="none" stroke="#191970" d="M78,-112.2455C78,-104.9382 78,-94.6944 78,-85.7046"/>
<polygon fill="#191970" stroke="#191970" points="81.5001,-85.6426 78,-75.6427 74.5001,-85.6427 81.5001,-85.6426"/>
</g>
<!-- Node4&#45;&gt;Node1 -->
<g id="edge6" class="edge">
<title>Node4&#45;&gt;Node1</title>
<path fill="none" stroke="#191970" d="M70.8583,-56.2455C65.1556,-48.4564 57.01,-37.3308 50.1375,-27.9439"/>
<polygon fill="#191970" stroke="#191970" points="52.7913,-25.6437 44.0598,-19.6427 47.1432,-29.7789 52.7913,-25.6437"/>
</g>
<!-- Node4&#45;&gt;Node2 -->
<g id="edge5" class="edge">
<title>Node4&#45;&gt;Node2</title>
<path fill="none" stroke="#191970" d="M87.5803,-56.2455C95.5458,-48.1352 107.0641,-36.4075 116.5079,-26.7919"/>
<polygon fill="#191970" stroke="#191970" points="119.0195,-29.2297 123.5295,-19.6427 114.0253,-24.3247 119.0195,-29.2297"/>
</g>
</g>
</svg>
