<?xml version="1.0" encoding="UTF-8" standalone="no"?>
<!DOCTYPE svg PUBLIC "-//W3C//DTD SVG 1.1//EN"
 "http://www.w3.org/Graphics/SVG/1.1/DTD/svg11.dtd">
<!-- Generated by graphviz version 2.40.1 (20161225.0304)
 -->
<!-- Title: src/platform/generic/backend/null_backend.c Pages: 1 -->
<svg width="447pt" height="207pt"
 viewBox="0.00 0.00 447.00 207.00" xmlns="http://www.w3.org/2000/svg" xmlns:xlink="http://www.w3.org/1999/xlink">
<g id="graph0" class="graph" transform="scale(1 1) rotate(0) translate(4 203)">
<title>src/platform/generic/backend/null_backend.c</title>
<polygon fill="#ffffff" stroke="transparent" points="-4,4 -4,-203 443,-203 443,4 -4,4"/>
<!-- Node0 -->
<g id="node1" class="node">
<title>Node0</title>
<polygon fill="#bfbfbf" stroke="#000000" points="91.5,-168.5 91.5,-198.5 216.5,-198.5 216.5,-168.5 91.5,-168.5"/>
<text text-anchor="start" x="99.5" y="-186.5" font-family="Helvetica,sans-Serif" font-size="10.00" fill="#000000">src/platform/generic</text>
<text text-anchor="middle" x="154" y="-175.5" font-family="Helvetica,sans-Serif" font-size="10.00" fill="#000000">/backend/null_backend.c</text>
</g>
<!-- Node1 -->
<g id="node2" class="node">
<title>Node1</title>
<g id="a_node2"><a xlink:href="../../d7/d35/ess__format_8h.html" target="_top" xlink:title="ess_format.h">
<polygon fill="#ffffff" stroke="#000000" points="0,-.5 0,-19.5 74,-19.5 74,-.5 0,-.5"/>
<text text-anchor="middle" x="37" y="-7.5" font-family="Helvetica,sans-Serif" font-size="10.00" fill="#000000">ess_format.h</text>
</a>
</g>
</g>
<!-- Node0&#45;&gt;Node1 -->
<g id="edge1" class="edge">
<title>Node0&#45;&gt;Node1</title>
<path fill="none" stroke="#191970" d="M143.8217,-168.4065C122.3762,-136.6049 72.613,-62.8108 49.3729,-28.3478"/>
<polygon fill="#191970" stroke="#191970" points="52.0598,-26.0721 43.5668,-19.738 46.2561,-29.9859 52.0598,-26.0721"/>
</g>
<!-- Node2 -->
<g id="node3" class="node">
<title>Node2</title>
<g id="a_node3"><a xlink:href="../../db/d16/config_8h.html" target="_top" xlink:title="File containing configurations. ">
<polygon fill="#ffffff" stroke="#000000" points="92.5,-.5 92.5,-19.5 143.5,-19.5 143.5,-.5 92.5,-.5"/>
<text text-anchor="middle" x="118" y="-7.5" font-family="Helvetica,sans-Serif" font-size="10.00" fill="#000000">config.h</text>
</a>
</g>
</g>
<!-- Node0&#45;&gt;Node2 -->
<g id="edge2" class="edge">
<title>Node0&#45;&gt;Node2</title>
<path fill="none" stroke="#191970" d="M149.4836,-168.2636C146.5514,-158.0584 142.7735,-144.292 140,-132 131.9029,-96.1144 124.8106,-53.7605 120.9912,-29.5744"/>
<polygon fill="#191970" stroke="#191970" points="124.4271,-28.8914 119.4318,-19.5481 117.5103,-29.9672 124.4271,-28.8914"/>
</g>
<!-- Node3 -->
<g id="node4" class="node">
<title>Node3</title>
<g id="a_node4"><a xlink:href="../../de/dc0/ess__backend_8h.html" target="_top" xlink:title="ess_backend.h">
<polygon fill="#ffffff" stroke="#000000" points="149.5,-112.5 149.5,-131.5 232.5,-131.5 232.5,-112.5 149.5,-112.5"/>
<text text-anchor="middle" x="191" y="-119.5" font-family="Helvetica,sans-Serif" font-size="10.00" fill="#000000">ess_backend.h</text>
</a>
</g>
</g>
<!-- Node0&#45;&gt;Node3 -->
<g id="edge3" class="edge">
<title>Node0&#45;&gt;Node3</title>
<path fill="none" stroke="#191970" d="M163.1461,-168.2977C168.1751,-159.9388 174.4555,-149.4997 179.7791,-140.6509"/>
<polygon fill="#191970" stroke="#191970" points="182.9197,-142.2201 185.0758,-131.8469 176.9215,-138.6114 182.9197,-142.2201"/>
</g>
<!-- Node10 -->
<g id="node11" class="node">
<title>Node10</title>
<polygon fill="#ffffff" stroke="#bfbfbf" points="251,-112.5 251,-131.5 297,-131.5 297,-112.5 251,-112.5"/>
<text text-anchor="middle" x="274" y="-119.5" font-family="Helvetica,sans-Serif" font-size="10.00" fill="#000000">stdio.h</text>
</g>
<!-- Node0&#45;&gt;Node10 -->
<g id="edge12" class="edge">
<title>Node0&#45;&gt;Node10</title>
<path fill="none" stroke="#191970" d="M183.3553,-168.4554C202.5873,-158.599 227.5612,-145.7999 246.4241,-136.1327"/>
<polygon fill="#191970" stroke="#191970" points="248.1013,-139.206 255.4043,-131.5303 244.9086,-132.9765 248.1013,-139.206"/>
</g>
<!-- Node4 -->
<g id="node5" class="node">
<title>Node4</title>
<g id="a_node5"><a xlink:href="../../da/dfe/ess_8h.html" target="_top" xlink:title="ess.h">
<polygon fill="#ffffff" stroke="#000000" points="171.5,-56.5 171.5,-75.5 212.5,-75.5 212.5,-56.5 171.5,-56.5"/>
<text text-anchor="middle" x="192" y="-63.5" font-family="Helvetica,sans-Serif" font-size="10.00" fill="#000000">ess.h</text>
</a>
</g>
</g>
<!-- Node3&#45;&gt;Node4 -->
<g id="edge4" class="edge">
<title>Node3&#45;&gt;Node4</title>
<path fill="none" stroke="#191970" d="M191.1742,-112.2455C191.3047,-104.9382 191.4876,-94.6944 191.6481,-85.7046"/>
<polygon fill="#191970" stroke="#191970" points="195.1486,-85.7036 191.8278,-75.6427 188.1497,-85.5786 195.1486,-85.7036"/>
</g>
<!-- Node9 -->
<g id="node10" class="node">
<title>Node9</title>
<g id="a_node10"><a xlink:href="../../d1/dea/ess__error_8h.html" target="_top" xlink:title="ess_error.h">
<polygon fill="#ffffff" stroke="#000000" points="230.5,-56.5 230.5,-75.5 295.5,-75.5 295.5,-56.5 230.5,-56.5"/>
<text text-anchor="middle" x="263" y="-63.5" font-family="Helvetica,sans-Serif" font-size="10.00" fill="#000000">ess_error.h</text>
</a>
</g>
</g>
<!-- Node3&#45;&gt;Node9 -->
<g id="edge11" class="edge">
<title>Node3&#45;&gt;Node9</title>
<path fill="none" stroke="#191970" d="M203.5414,-112.2455C214.2787,-103.8943 229.9473,-91.7076 242.5047,-81.9408"/>
<polygon fill="#191970" stroke="#191970" points="244.8575,-84.5449 250.6023,-75.6427 240.5599,-79.0194 244.8575,-84.5449"/>
</g>
<!-- Node4&#45;&gt;Node1 -->
<g id="edge10" class="edge">
<title>Node4&#45;&gt;Node1</title>
<path fill="none" stroke="#191970" d="M171.4172,-58.5636C146.3012,-49.4895 103.4106,-33.9935 72.834,-22.9465"/>
<polygon fill="#191970" stroke="#191970" points="73.9716,-19.6361 63.3773,-19.5299 71.593,-26.2196 73.9716,-19.6361"/>
</g>
<!-- Node4&#45;&gt;Node2 -->
<g id="edge9" class="edge">
<title>Node4&#45;&gt;Node2</title>
<path fill="none" stroke="#191970" d="M179.1102,-56.2455C168.0746,-47.8943 151.9708,-35.7076 139.0647,-25.9408"/>
<polygon fill="#191970" stroke="#191970" points="140.8283,-22.8862 130.7421,-19.6427 136.6041,-28.4681 140.8283,-22.8862"/>
</g>
<!-- Node5 -->
<g id="node6" class="node">
<title>Node5</title>
<polygon fill="#ffffff" stroke="#bfbfbf" points="329.5,-.5 329.5,-19.5 376.5,-19.5 376.5,-.5 329.5,-.5"/>
<text text-anchor="middle" x="353" y="-7.5" font-family="Helvetica,sans-Serif" font-size="10.00" fill="#000000">errno.h</text>
</g>
<!-- Node4&#45;&gt;Node5 -->
<g id="edge5" class="edge">
<title>Node4&#45;&gt;Node5</title>
<path fill="none" stroke="#191970" d="M212.7183,-58.7936C239.7705,-49.3842 287.4574,-32.7974 319.6341,-21.6055"/>
<polygon fill="#191970" stroke="#191970" points="321.1951,-24.7683 329.4903,-18.1773 318.8954,-18.1568 321.1951,-24.7683"/>
</g>
<!-- Node6 -->
<g id="node7" class="node">
<title>Node6</title>
<polygon fill="#ffffff" stroke="#bfbfbf" points="395,-.5 395,-19.5 439,-19.5 439,-.5 395,-.5"/>
<text text-anchor="middle" x="417" y="-7.5" font-family="Helvetica,sans-Serif" font-size="10.00" fill="#000000">time.h</text>
</g>
<!-- Node4&#45;&gt;Node6 -->
<g id="edge6" class="edge">
<title>Node4&#45;&gt;Node6</title>
<path fill="none" stroke="#191970" d="M212.5689,-58.8256C215.7115,-57.822 218.9302,-56.846 222,-56 290.851,-37.0251 312.146,-39.2361 384.642,-20.1685"/>
<polygon fill="#191970" stroke="#191970" points="385.9714,-23.4359 394.7253,-17.4677 384.1602,-16.6742 385.9714,-23.4359"/>
</g>
<!-- Node7 -->
<g id="node8" class="node">
<title>Node7</title>
<polygon fill="#ffffff" stroke="#bfbfbf" points="162,-.5 162,-19.5 224,-19.5 224,-.5 162,-.5"/>
<text text-anchor="middle" x="193" y="-7.5" font-family="Helvetica,sans-Serif" font-size="10.00" fill="#000000">sys/time.h</text>
</g>
<!-- Node4&#45;&gt;Node7 -->
<g id="edge7" class="edge">
<title>Node4&#45;&gt;Node7</title>
<path fill="none" stroke="#191970" d="M192.1742,-56.2455C192.3047,-48.9382 192.4876,-38.6944 192.6481,-29.7046"/>
<polygon fill="#191970" stroke="#191970" points="196.1486,-29.7036 192.8278,-19.6427 189.1497,-29.5786 196.1486,-29.7036"/>
</g>
<!-- Node8 -->
<g id="node9" class="node">
<title>Node8</title>
<polygon fill="#ffffff" stroke="#bfbfbf" points="242.5,-.5 242.5,-19.5 311.5,-19.5 311.5,-.5 242.5,-.5"/>
<text text-anchor="middle" x="277" y="-7.5" font-family="Helvetica,sans-Serif" font-size="10.00" fill="#000000">sys/signal.h</text>
</g>
<!-- Node4&#45;&gt;Node8 -->
<g id="edge8" class="edge">
<title>Node4&#45;&gt;Node8</title>
<path fill="none" stroke="#191970" d="M206.8059,-56.2455C219.7256,-47.7337 238.6931,-35.2375 253.6552,-25.3801"/>
<polygon fill="#191970" stroke="#191970" points="255.9387,-28.067 262.3638,-19.6427 252.0876,-22.2216 255.9387,-28.067"/>
</g>
</g>
</svg>
