<?xml version="1.0" encoding="UTF-8" standalone="no"?>
<!DOCTYPE svg PUBLIC "-//W3C//DTD SVG 1.1//EN"
 "http://www.w3.org/Graphics/SVG/1.1/DTD/svg11.dtd">
<!-- Generated by graphviz version 2.40.1 (20161225.0304)
 -->
<!-- Title: src/platform/esp32/backend/i2s_gerneric_backend.c Pages: 1 -->
<svg width="152pt" height="106pt"
 viewBox="0.00 0.00 151.50 106.00" xmlns="http://www.w3.org/2000/svg" xmlns:xlink="http://www.w3.org/1999/xlink">
<g id="graph0" class="graph" transform="scale(1 1) rotate(0) translate(4 102)">
<title>src/platform/esp32/backend/i2s_gerneric_backend.c</title>
<polygon fill="#ffffff" stroke="transparent" points="-4,4 -4,-102 147.5,-102 147.5,4 -4,4"/>
<!-- Node0 -->
<g id="node1" class="node">
<title>Node0</title>
<polygon fill="#bfbfbf" stroke="#000000" points="21,-56.5 21,-97.5 133,-97.5 133,-56.5 21,-56.5"/>
<text text-anchor="start" x="29" y="-85.5" font-family="Helvetica,sans-Serif" font-size="10.00" fill="#000000">src/platform/esp32</text>
<text text-anchor="start" x="29" y="-74.5" font-family="Helvetica,sans-Serif" font-size="10.00" fill="#000000">/backend/i2s_gerneric</text>
<text text-anchor="middle" x="77" y="-63.5" font-family="Helvetica,sans-Serif" font-size="10.00" fill="#000000">_backend.c</text>
</g>
<!-- Node1 -->
<g id="node2" class="node">
<title>Node1</title>
<g id="a_node2"><a xlink:href="../../d7/d35/ess__format_8h.html" target="_top" xlink:title="ess_format.h">
<polygon fill="#ffffff" stroke="#000000" points="0,-.5 0,-19.5 74,-19.5 74,-.5 0,-.5"/>
<text text-anchor="middle" x="37" y="-7.5" font-family="Helvetica,sans-Serif" font-size="10.00" fill="#000000">ess_format.h</text>
</a>
</g>
</g>
<!-- Node0&#45;&gt;Node1 -->
<g id="edge1" class="edge">
<title>Node0&#45;&gt;Node1</title>
<path fill="none" stroke="#191970" d="M64.563,-56.168C59.2976,-47.3484 53.2119,-37.155 48.1005,-28.5933"/>
<polygon fill="#191970" stroke="#191970" points="50.9704,-26.5725 42.8391,-19.7805 44.9601,-30.1609 50.9704,-26.5725"/>
</g>
<!-- Node2 -->
<g id="node3" class="node">
<title>Node2</title>
<g id="a_node3"><a xlink:href="../../db/d16/config_8h.html" target="_top" xlink:title="File containing configurations. ">
<polygon fill="#ffffff" stroke="#000000" points="92.5,-.5 92.5,-19.5 143.5,-19.5 143.5,-.5 92.5,-.5"/>
<text text-anchor="middle" x="118" y="-7.5" font-family="Helvetica,sans-Serif" font-size="10.00" fill="#000000">config.h</text>
</a>
</g>
</g>
<!-- Node0&#45;&gt;Node2 -->
<g id="edge2" class="edge">
<title>Node0&#45;&gt;Node2</title>
<path fill="none" stroke="#191970" d="M89.7479,-56.168C95.203,-47.2536 101.517,-36.9356 106.7907,-28.3177"/>
<polygon fill="#191970" stroke="#191970" points="109.7806,-30.137 112.0149,-19.7805 103.8099,-26.4833 109.7806,-30.137"/>
</g>
</g>
</svg>
