<?xml version="1.0" encoding="UTF-8" standalone="no"?>
<!DOCTYPE svg PUBLIC "-//W3C//DTD SVG 1.1//EN"
 "http://www.w3.org/Graphics/SVG/1.1/DTD/svg11.dtd">
<!-- Generated by graphviz version 2.40.1 (20161225.0304)
 -->
<!-- Title: include/config.h Pages: 1 -->
<svg width="1736pt" height="296pt"
 viewBox="0.00 0.00 1736.00 296.00" xmlns="http://www.w3.org/2000/svg" xmlns:xlink="http://www.w3.org/1999/xlink">
<g id="graph0" class="graph" transform="scale(1 1) rotate(0) translate(4 292)">
<title>include/config.h</title>
<polygon fill="#ffffff" stroke="transparent" points="-4,4 -4,-292 1732,-292 1732,4 -4,4"/>
<!-- Node1 -->
<g id="node1" class="node">
<title>Node1</title>
<polygon fill="#bfbfbf" stroke="#000000" points="890,-268.5 890,-287.5 975,-287.5 975,-268.5 890,-268.5"/>
<text text-anchor="middle" x="932.5" y="-275.5" font-family="Helvetica,sans-Serif" font-size="10.00" fill="#000000">include/config.h</text>
</g>
<!-- Node2 -->
<g id="node2" class="node">
<title>Node2</title>
<g id="a_node2"><a xlink:href="../../da/dfe/ess_8h.html" target="_top" xlink:title="include/ess.h">
<polygon fill="#ffffff" stroke="#000000" points="285.5,-201.5 285.5,-220.5 359.5,-220.5 359.5,-201.5 285.5,-201.5"/>
<text text-anchor="middle" x="322.5" y="-208.5" font-family="Helvetica,sans-Serif" font-size="10.00" fill="#000000">include/ess.h</text>
</a>
</g>
</g>
<!-- Node1&#45;&gt;Node2 -->
<g id="edge1" class="edge">
<title>Node1&#45;&gt;Node2</title>
<path fill="none" stroke="#191970" d="M879.4694,-272.1753C758.3861,-258.876 464.0234,-226.5444 359.8185,-215.0989"/>
<polygon fill="#191970" stroke="#191970" points="879.2836,-275.6759 889.606,-273.2887 880.0479,-268.7177 879.2836,-275.6759"/>
</g>
<!-- Node6 -->
<g id="node6" class="node">
<title>Node6</title>
<g id="a_node6"><a xlink:href="../../dc/d43/ess__context_8c.html" target="_top" xlink:title="src/ess_context.c">
<polygon fill="#ffffff" stroke="#000000" points="516,-62 516,-81 611,-81 611,-62 516,-62"/>
<text text-anchor="middle" x="563.5" y="-69" font-family="Helvetica,sans-Serif" font-size="10.00" fill="#000000">src/ess_context.c</text>
</a>
</g>
</g>
<!-- Node1&#45;&gt;Node6 -->
<g id="edge16" class="edge">
<title>Node1&#45;&gt;Node6</title>
<path fill="none" stroke="#191970" d="M879.7052,-273.8087C792.1878,-266.3922 624.6445,-250.0282 604.5,-232 559.496,-191.724 560.7373,-109.5233 562.6364,-81.2829"/>
<polygon fill="#191970" stroke="#191970" points="879.4528,-277.2998 889.7102,-274.6472 880.0374,-270.3242 879.4528,-277.2998"/>
</g>
<!-- Node7 -->
<g id="node7" class="node">
<title>Node7</title>
<g id="a_node7"><a xlink:href="../../d1/df2/null__backend_8c.html" target="_top" xlink:title="all generic backend null functions source cource ">
<polygon fill="#ffffff" stroke="#000000" points="629,-56.5 629,-86.5 754,-86.5 754,-56.5 629,-56.5"/>
<text text-anchor="start" x="637" y="-74.5" font-family="Helvetica,sans-Serif" font-size="10.00" fill="#000000">src/platform/generic</text>
<text text-anchor="middle" x="691.5" y="-63.5" font-family="Helvetica,sans-Serif" font-size="10.00" fill="#000000">/backend/null_backend.c</text>
</a>
</g>
</g>
<!-- Node1&#45;&gt;Node7 -->
<g id="edge24" class="edge">
<title>Node1&#45;&gt;Node7</title>
<path fill="none" stroke="#191970" d="M879.6504,-273.9391C795.1009,-266.9009 637.1804,-251.32 620.5,-232 581.6719,-187.0275 643.1913,-117.4432 674.7137,-86.8354"/>
<polygon fill="#191970" stroke="#191970" points="879.5785,-277.4449 889.8314,-274.7749 880.1513,-270.4684 879.5785,-277.4449"/>
</g>
<!-- Node13 -->
<g id="node13" class="node">
<title>Node13</title>
<g id="a_node13"><a xlink:href="../../d7/d06/ess__socket_8c.html" target="_top" xlink:title="src/ess_socket.c">
<polygon fill="#ffffff" stroke="#000000" points="629.5,-201.5 629.5,-220.5 721.5,-220.5 721.5,-201.5 629.5,-201.5"/>
<text text-anchor="middle" x="675.5" y="-208.5" font-family="Helvetica,sans-Serif" font-size="10.00" fill="#000000">src/ess_socket.c</text>
</a>
</g>
</g>
<!-- Node1&#45;&gt;Node13 -->
<g id="edge17" class="edge">
<title>Node1&#45;&gt;Node13</title>
<path fill="none" stroke="#191970" d="M879.8184,-268.1211C838.7429,-259.9114 780.4772,-247.1492 730.5,-232 719.7404,-228.7385 708.0726,-224.4026 698.2637,-220.5178"/>
<polygon fill="#191970" stroke="#191970" points="879.3865,-271.6034 889.8754,-270.1089 880.7439,-264.7362 879.3865,-271.6034"/>
</g>
<!-- Node14 -->
<g id="node14" class="node">
<title>Node14</title>
<g id="a_node14"><a xlink:href="../../d3/d85/i2s__gerneric__backend_8c.html" target="_top" xlink:title="all esp32 backend generic_i2s functions source ">
<polygon fill="#ffffff" stroke="#000000" points="739.5,-190.5 739.5,-231.5 851.5,-231.5 851.5,-190.5 739.5,-190.5"/>
<text text-anchor="start" x="747.5" y="-219.5" font-family="Helvetica,sans-Serif" font-size="10.00" fill="#000000">src/platform/esp32</text>
<text text-anchor="start" x="747.5" y="-208.5" font-family="Helvetica,sans-Serif" font-size="10.00" fill="#000000">/backend/i2s_gerneric</text>
<text text-anchor="middle" x="795.5" y="-197.5" font-family="Helvetica,sans-Serif" font-size="10.00" fill="#000000">_backend.c</text>
</a>
</g>
</g>
<!-- Node1&#45;&gt;Node14 -->
<g id="edge18" class="edge">
<title>Node1&#45;&gt;Node14</title>
<path fill="none" stroke="#191970" d="M903.7588,-263.9441C884.6103,-254.5795 859.1221,-242.1145 837.6873,-231.6318"/>
<polygon fill="#191970" stroke="#191970" points="902.3503,-267.1513 912.8712,-268.4005 905.4256,-260.8631 902.3503,-267.1513"/>
</g>
<!-- Node15 -->
<g id="node15" class="node">
<title>Node15</title>
<g id="a_node15"><a xlink:href="../../d2/d00/uart__backend_8c.html" target="_top" xlink:title="all esp32 backend uart functions source UART 1 ">
<polygon fill="#ffffff" stroke="#000000" points="869.5,-196 869.5,-226 995.5,-226 995.5,-196 869.5,-196"/>
<text text-anchor="start" x="877.5" y="-214" font-family="Helvetica,sans-Serif" font-size="10.00" fill="#000000">src/platform/esp32</text>
<text text-anchor="middle" x="932.5" y="-203" font-family="Helvetica,sans-Serif" font-size="10.00" fill="#000000">/backend/uart_backend.c</text>
</a>
</g>
</g>
<!-- Node1&#45;&gt;Node15 -->
<g id="edge19" class="edge">
<title>Node1&#45;&gt;Node15</title>
<path fill="none" stroke="#191970" d="M932.5,-258.2758C932.5,-247.9641 932.5,-235.5437 932.5,-226.0218"/>
<polygon fill="#191970" stroke="#191970" points="929.0001,-258.4005 932.5,-268.4005 936.0001,-258.4006 929.0001,-258.4005"/>
</g>
<!-- Node16 -->
<g id="node16" class="node">
<title>Node16</title>
<g id="a_node16"><a xlink:href="../../d9/d08/esp32__plaform__mutex_8c.html" target="_top" xlink:title="src/platform/esp32\l/esp32_plaform_mutex.c">
<polygon fill="#ffffff" stroke="#000000" points="1013.5,-196 1013.5,-226 1137.5,-226 1137.5,-196 1013.5,-196"/>
<text text-anchor="start" x="1021.5" y="-214" font-family="Helvetica,sans-Serif" font-size="10.00" fill="#000000">src/platform/esp32</text>
<text text-anchor="middle" x="1075.5" y="-203" font-family="Helvetica,sans-Serif" font-size="10.00" fill="#000000">/esp32_plaform_mutex.c</text>
</a>
</g>
</g>
<!-- Node1&#45;&gt;Node16 -->
<g id="edge20" class="edge">
<title>Node1&#45;&gt;Node16</title>
<path fill="none" stroke="#191970" d="M962.2079,-264.0809C985.9324,-252.9653 1019.116,-237.4177 1043.4386,-226.0218"/>
<polygon fill="#191970" stroke="#191970" points="960.5588,-260.9884 952.9884,-268.4005 963.5287,-267.3271 960.5588,-260.9884"/>
</g>
<!-- Node17 -->
<g id="node17" class="node">
<title>Node17</title>
<g id="a_node17"><a xlink:href="../../d4/dc1/esp32__plaform__spinlock_8c.html" target="_top" xlink:title="src/platform/esp32\l/esp32_plaform_spinlock.c">
<polygon fill="#ffffff" stroke="#000000" points="1156,-196 1156,-226 1289,-226 1289,-196 1156,-196"/>
<text text-anchor="start" x="1164" y="-214" font-family="Helvetica,sans-Serif" font-size="10.00" fill="#000000">src/platform/esp32</text>
<text text-anchor="middle" x="1222.5" y="-203" font-family="Helvetica,sans-Serif" font-size="10.00" fill="#000000">/esp32_plaform_spinlock.c</text>
</a>
</g>
</g>
<!-- Node1&#45;&gt;Node17 -->
<g id="edge21" class="edge">
<title>Node1&#45;&gt;Node17</title>
<path fill="none" stroke="#191970" d="M985.3518,-267.5265C1028.782,-258.7074 1091.8326,-245.4163 1146.5,-232 1153.9449,-230.1729 1161.7693,-228.1403 1169.451,-226.0795"/>
<polygon fill="#191970" stroke="#191970" points="984.4072,-264.1465 975.2992,-269.5591 985.7946,-271.0077 984.4072,-264.1465"/>
</g>
<!-- Node18 -->
<g id="node18" class="node">
<title>Node18</title>
<g id="a_node18"><a xlink:href="../../d0/d87/esp32__platform__ringbuffer_8c.html" target="_top" xlink:title="src/platform/esp32\l/esp32_platform_ringbuffer.c">
<polygon fill="#ffffff" stroke="#000000" points="1307.5,-196 1307.5,-226 1447.5,-226 1447.5,-196 1307.5,-196"/>
<text text-anchor="start" x="1315.5" y="-214" font-family="Helvetica,sans-Serif" font-size="10.00" fill="#000000">src/platform/esp32</text>
<text text-anchor="middle" x="1377.5" y="-203" font-family="Helvetica,sans-Serif" font-size="10.00" fill="#000000">/esp32_platform_ringbuffer.c</text>
</a>
</g>
</g>
<!-- Node1&#45;&gt;Node18 -->
<g id="edge22" class="edge">
<title>Node1&#45;&gt;Node18</title>
<path fill="none" stroke="#191970" d="M985.1565,-273.6296C1056.584,-267.1909 1187.9604,-253.5366 1298.5,-232 1307.1364,-230.3174 1316.2233,-228.218 1325.0358,-226.0025"/>
<polygon fill="#191970" stroke="#191970" points="984.7132,-270.1552 975.0626,-274.5273 985.3333,-277.1276 984.7132,-270.1552"/>
</g>
<!-- Node19 -->
<g id="node19" class="node">
<title>Node19</title>
<g id="a_node19"><a xlink:href="../../d3/d1f/esp32__platform__task_8c.html" target="_top" xlink:title="all esp32 platform task functions source ">
<polygon fill="#ffffff" stroke="#000000" points="1466,-196 1466,-226 1585,-226 1585,-196 1466,-196"/>
<text text-anchor="start" x="1474" y="-214" font-family="Helvetica,sans-Serif" font-size="10.00" fill="#000000">src/platform/esp32</text>
<text text-anchor="middle" x="1525.5" y="-203" font-family="Helvetica,sans-Serif" font-size="10.00" fill="#000000">/esp32_platform_task.c</text>
</a>
</g>
</g>
<!-- Node1&#45;&gt;Node19 -->
<g id="edge23" class="edge">
<title>Node1&#45;&gt;Node19</title>
<path fill="none" stroke="#191970" d="M985.2391,-276.9844C1080.2834,-274.3557 1286.2658,-265.0045 1456.5,-232 1464.4903,-230.4509 1472.8714,-228.3346 1480.9296,-226.039"/>
<polygon fill="#191970" stroke="#191970" points="984.9303,-273.4912 975.0257,-277.2526 985.1141,-280.4888 984.9303,-273.4912"/>
</g>
<!-- Node20 -->
<g id="node20" class="node">
<title>Node20</title>
<g id="a_node20"><a xlink:href="../../d5/da1/udp__backend_8c.html" target="_top" xlink:title="src/platform/generic\l/backend/udp_backend.c">
<polygon fill="#ffffff" stroke="#000000" points="1603,-196 1603,-226 1728,-226 1728,-196 1603,-196"/>
<text text-anchor="start" x="1611" y="-214" font-family="Helvetica,sans-Serif" font-size="10.00" fill="#000000">src/platform/generic</text>
<text text-anchor="middle" x="1665.5" y="-203" font-family="Helvetica,sans-Serif" font-size="10.00" fill="#000000">/backend/udp_backend.c</text>
</a>
</g>
</g>
<!-- Node1&#45;&gt;Node20 -->
<g id="edge25" class="edge">
<title>Node1&#45;&gt;Node20</title>
<path fill="none" stroke="#191970" d="M985.2552,-275.8224C1120.6185,-269.9963 1477.7855,-253.0547 1594.5,-232 1602.849,-230.4939 1611.6123,-228.3685 1620.0212,-226.0434"/>
<polygon fill="#191970" stroke="#191970" points="984.9769,-272.331 975.1355,-276.255 985.2759,-279.3246 984.9769,-272.331"/>
</g>
<!-- Node3 -->
<g id="node3" class="node">
<title>Node3</title>
<g id="a_node3"><a xlink:href="../../de/dc0/ess__backend_8h.html" target="_top" xlink:title="include/ess_backend.h">
<polygon fill="#ffffff" stroke="#000000" points="396.5,-129 396.5,-148 512.5,-148 512.5,-129 396.5,-129"/>
<text text-anchor="middle" x="454.5" y="-136" font-family="Helvetica,sans-Serif" font-size="10.00" fill="#000000">include/ess_backend.h</text>
</a>
</g>
</g>
<!-- Node2&#45;&gt;Node3 -->
<g id="edge2" class="edge">
<title>Node2&#45;&gt;Node3</title>
<path fill="none" stroke="#191970" d="M349.0144,-196.4371C375.1597,-182.0771 414.3776,-160.5369 436.8989,-148.1673"/>
<polygon fill="#191970" stroke="#191970" points="347.1086,-193.4907 340.0286,-201.3726 350.4785,-199.6262 347.1086,-193.4907"/>
</g>
<!-- Node8 -->
<g id="node8" class="node">
<title>Node8</title>
<g id="a_node8"><a xlink:href="../../d7/d36/ess__context_8h.html" target="_top" xlink:title="include/ess_context.h">
<polygon fill="#ffffff" stroke="#000000" points="266.5,-129 266.5,-148 378.5,-148 378.5,-129 266.5,-129"/>
<text text-anchor="middle" x="322.5" y="-136" font-family="Helvetica,sans-Serif" font-size="10.00" fill="#000000">include/ess_context.h</text>
</a>
</g>
</g>
<!-- Node2&#45;&gt;Node8 -->
<g id="edge7" class="edge">
<title>Node2&#45;&gt;Node8</title>
<path fill="none" stroke="#191970" d="M322.5,-191.1054C322.5,-177.1237 322.5,-159.0346 322.5,-148.1228"/>
<polygon fill="#191970" stroke="#191970" points="319.0001,-191.2223 322.5,-201.2223 326.0001,-191.2224 319.0001,-191.2223"/>
</g>
<!-- Node10 -->
<g id="node10" class="node">
<title>Node10</title>
<g id="a_node10"><a xlink:href="../../d6/de1/ess__server_8h.html" target="_top" xlink:title="include/ess_server.h">
<polygon fill="#ffffff" stroke="#000000" points="0,-62 0,-81 107,-81 107,-62 0,-62"/>
<text text-anchor="middle" x="53.5" y="-69" font-family="Helvetica,sans-Serif" font-size="10.00" fill="#000000">include/ess_server.h</text>
</a>
</g>
</g>
<!-- Node2&#45;&gt;Node10 -->
<g id="edge14" class="edge">
<title>Node2&#45;&gt;Node10</title>
<path fill="none" stroke="#191970" d="M303.6959,-194.5927C275.2921,-169.8588 224.2333,-125.61 219.5,-123 197.172,-110.6881 131.9801,-92.1878 90.2487,-81.0352"/>
<polygon fill="#191970" stroke="#191970" points="301.5403,-197.3567 311.3788,-201.2881 306.1393,-192.0794 301.5403,-197.3567"/>
</g>
<!-- Node12 -->
<g id="node12" class="node">
<title>Node12</title>
<g id="a_node12"><a xlink:href="../../d5/d24/esp32__platform_8c.html" target="_top" xlink:title="all esp32 platform functions source ">
<polygon fill="#ffffff" stroke="#000000" points="112.5,-123.5 112.5,-153.5 210.5,-153.5 210.5,-123.5 112.5,-123.5"/>
<text text-anchor="start" x="120.5" y="-141.5" font-family="Helvetica,sans-Serif" font-size="10.00" fill="#000000">src/platform/esp32</text>
<text text-anchor="middle" x="161.5" y="-130.5" font-family="Helvetica,sans-Serif" font-size="10.00" fill="#000000">/esp32_platform.c</text>
</a>
</g>
</g>
<!-- Node2&#45;&gt;Node12 -->
<g id="edge15" class="edge">
<title>Node2&#45;&gt;Node12</title>
<path fill="none" stroke="#191970" d="M291.9166,-197.228C264.2468,-184.768 223.5789,-166.4548 195.0312,-153.5995"/>
<polygon fill="#191970" stroke="#191970" points="290.5652,-200.4579 301.1204,-201.3726 293.4394,-194.0751 290.5652,-200.4579"/>
</g>
<!-- Node4 -->
<g id="node4" class="node">
<title>Node4</title>
<g id="a_node4"><a xlink:href="../../d2/de0/esp32__probe__backends_8c.html" target="_top" xlink:title="examples/esp32_probe\l_backends.c">
<polygon fill="#ffffff" stroke="#000000" points="264,-56.5 264,-86.5 381,-86.5 381,-56.5 264,-56.5"/>
<text text-anchor="start" x="272" y="-74.5" font-family="Helvetica,sans-Serif" font-size="10.00" fill="#000000">examples/esp32_probe</text>
<text text-anchor="middle" x="322.5" y="-63.5" font-family="Helvetica,sans-Serif" font-size="10.00" fill="#000000">_backends.c</text>
</a>
</g>
</g>
<!-- Node3&#45;&gt;Node4 -->
<g id="edge3" class="edge">
<title>Node3&#45;&gt;Node4</title>
<path fill="none" stroke="#191970" d="M426.4913,-124.2834C404.6339,-113.1892 374.3472,-97.8164 352.0951,-86.5218"/>
<polygon fill="#191970" stroke="#191970" points="425.0864,-127.4954 435.5876,-128.9005 428.2547,-121.2534 425.0864,-127.4954"/>
</g>
<!-- Node5 -->
<g id="node5" class="node">
<title>Node5</title>
<g id="a_node5"><a xlink:href="../../d8/d50/ess__backend_8c.html" target="_top" xlink:title="src/ess_backend.c">
<polygon fill="#ffffff" stroke="#000000" points="399,-62 399,-81 498,-81 498,-62 399,-62"/>
<text text-anchor="middle" x="448.5" y="-69" font-family="Helvetica,sans-Serif" font-size="10.00" fill="#000000">src/ess_backend.c</text>
</a>
</g>
</g>
<!-- Node3&#45;&gt;Node5 -->
<g id="edge4" class="edge">
<title>Node3&#45;&gt;Node5</title>
<path fill="none" stroke="#191970" d="M452.7186,-118.6079C451.6087,-106.214 450.2307,-90.8263 449.3581,-81.0817"/>
<polygon fill="#191970" stroke="#191970" points="449.2623,-119.2526 453.6403,-128.9005 456.2344,-118.6282 449.2623,-119.2526"/>
</g>
<!-- Node3&#45;&gt;Node6 -->
<g id="edge5" class="edge">
<title>Node3&#45;&gt;Node6</title>
<path fill="none" stroke="#191970" d="M478.8431,-123.5368C499.9537,-110.5605 529.8748,-92.1687 547.9119,-81.0817"/>
<polygon fill="#191970" stroke="#191970" points="476.8035,-120.6821 470.117,-128.9005 480.4692,-126.6456 476.8035,-120.6821"/>
</g>
<!-- Node3&#45;&gt;Node7 -->
<g id="edge6" class="edge">
<title>Node3&#45;&gt;Node7</title>
<path fill="none" stroke="#191970" d="M498.0738,-126.1817C537.5948,-115.0091 595.9682,-98.5069 638.2445,-86.5553"/>
<polygon fill="#191970" stroke="#191970" points="496.8753,-122.8832 488.2046,-128.9717 498.7797,-129.6192 496.8753,-122.8832"/>
</g>
<!-- Node8&#45;&gt;Node4 -->
<g id="edge9" class="edge">
<title>Node8&#45;&gt;Node4</title>
<path fill="none" stroke="#191970" d="M322.5,-118.7758C322.5,-108.4641 322.5,-96.0437 322.5,-86.5218"/>
<polygon fill="#191970" stroke="#191970" points="319.0001,-118.9005 322.5,-128.9005 326.0001,-118.9006 319.0001,-118.9005"/>
</g>
<!-- Node8&#45;&gt;Node5 -->
<g id="edge12" class="edge">
<title>Node8&#45;&gt;Node5</title>
<path fill="none" stroke="#191970" d="M349.6605,-124.0575C374.1098,-111.0567 409.35,-92.3179 430.4808,-81.0817"/>
<polygon fill="#191970" stroke="#191970" points="347.7388,-121.1152 340.5527,-128.9005 351.0253,-127.2958 347.7388,-121.1152"/>
</g>
<!-- Node8&#45;&gt;Node6 -->
<g id="edge13" class="edge">
<title>Node8&#45;&gt;Node6</title>
<path fill="none" stroke="#191970" d="M366.6203,-126.2342C413.3684,-113.2378 486.2101,-92.9872 528.9546,-81.1039"/>
<polygon fill="#191970" stroke="#191970" points="365.4706,-122.921 356.7735,-128.9717 367.3456,-129.6652 365.4706,-122.921"/>
</g>
<!-- Node9 -->
<g id="node9" class="node">
<title>Node9</title>
<g id="a_node9"><a xlink:href="../../df/dbb/esp32__create__context_8c.html" target="_top" xlink:title="examples/esp32_create\l_context.c">
<polygon fill="#ffffff" stroke="#000000" points="125.5,-56.5 125.5,-86.5 245.5,-86.5 245.5,-56.5 125.5,-56.5"/>
<text text-anchor="start" x="133.5" y="-74.5" font-family="Helvetica,sans-Serif" font-size="10.00" fill="#000000">examples/esp32_create</text>
<text text-anchor="middle" x="185.5" y="-63.5" font-family="Helvetica,sans-Serif" font-size="10.00" fill="#000000">_context.c</text>
</a>
</g>
</g>
<!-- Node8&#45;&gt;Node9 -->
<g id="edge8" class="edge">
<title>Node8&#45;&gt;Node9</title>
<path fill="none" stroke="#191970" d="M293.735,-124.4324C271.0271,-113.3271 239.4147,-97.867 216.2161,-86.5218"/>
<polygon fill="#191970" stroke="#191970" points="292.3503,-127.6513 302.8712,-128.9005 295.4256,-121.3631 292.3503,-127.6513"/>
</g>
<!-- Node8&#45;&gt;Node10 -->
<g id="edge10" class="edge">
<title>Node8&#45;&gt;Node10</title>
<path fill="none" stroke="#191970" d="M274.2347,-126.4785C222.0983,-113.4929 140.0697,-93.062 92.059,-81.1039"/>
<polygon fill="#191970" stroke="#191970" points="273.6951,-129.951 284.2445,-128.9717 275.3869,-123.1585 273.6951,-129.951"/>
</g>
<!-- Node11 -->
<g id="node11" class="node">
<title>Node11</title>
<g id="a_node11"><a xlink:href="../../d0/d9b/ess__server_8c.html" target="_top" xlink:title="src/ess_server.c">
<polygon fill="#ffffff" stroke="#000000" points="9,-.5 9,-19.5 98,-19.5 98,-.5 9,-.5"/>
<text text-anchor="middle" x="53.5" y="-7.5" font-family="Helvetica,sans-Serif" font-size="10.00" fill="#000000">src/ess_server.c</text>
</a>
</g>
</g>
<!-- Node10&#45;&gt;Node11 -->
<g id="edge11" class="edge">
<title>Node10&#45;&gt;Node11</title>
<path fill="none" stroke="#191970" d="M53.5,-51.7462C53.5,-41.0519 53.5,-28.314 53.5,-19.7449"/>
<polygon fill="#191970" stroke="#191970" points="50.0001,-51.8906 53.5,-61.8906 57.0001,-51.8907 50.0001,-51.8906"/>
</g>
</g>
</svg>
