<?xml version="1.0" encoding="UTF-8" standalone="no"?>
<!DOCTYPE svg PUBLIC "-//W3C//DTD SVG 1.1//EN"
 "http://www.w3.org/Graphics/SVG/1.1/DTD/svg11.dtd">
<!-- Generated by graphviz version 2.40.1 (20161225.0304)
 -->
<!-- Title: include/config.h Pages: 1 -->
<!--zoomable 229 -->
<svg id="main" version="1.1" xmlns="http://www.w3.org/2000/svg" xmlns:xlink="http://www.w3.org/1999/xlink" xml:space="preserve" onload="init(evt)">
<style type="text/css"><![CDATA[
.edge:hover path { stroke: red; }
.edge:hover polygon { stroke: red; fill: red; }
]]></style>
<script type="text/javascript"><![CDATA[
var edges = document.getElementsByTagName('g');
if (edges && edges.length) {
  for (var i=0;i<edges.length;i++) {
    if (edges[i].id.substr(0,4)=='edge') {
      edges[i].setAttribute('class','edge');
    }
  }
}
]]></script>
        <defs>
                <circle id="rim" cx="0" cy="0" r="7"/>
                <circle id="rim2" cx="0" cy="0" r="3.5"/>
                <g id="zoomPlus">
                        <use xlink:href="#rim" fill="#404040">
                                <set attributeName="fill" to="#808080" begin="zoomplus.mouseover" end="zoomplus.mouseout"/>
                        </use>
                        <path d="M-4,0h8M0,-4v8" fill="none" stroke="white" stroke-width="1.5" pointer-events="none"/>
                </g>
                <g id="zoomMin">
                        <use xlink:href="#rim" fill="#404040">
                                <set attributeName="fill" to="#808080" begin="zoomminus.mouseover" end="zoomminus.mouseout"/>
                        </use>
                        <path d="M-4,0h8" fill="none" stroke="white" stroke-width="1.5" pointer-events="none"/>
                </g>
                <g id="dirArrow">
                        <path fill="none" stroke="white" stroke-width="1.5" d="M0,-3.0v7 M-2.5,-0.5L0,-3.0L2.5,-0.5"/>
                </g>
               <g id="resetDef">
                       <use xlink:href="#rim2" fill="#404040">
                               <set attributeName="fill" to="#808080" begin="reset.mouseover" end="reset.mouseout"/>
                       </use>
               </g>
        </defs>

<script type="text/javascript">
var viewWidth = 1490;
var viewHeight = 229;
var sectionId = 'dynsection-0';
</script>
<script xlink:href="../../svgpan.js"/>
<svg id="graph" class="graph">
<g id="viewport">
<title>include/config.h</title>
<polygon fill="#ffffff" stroke="transparent" points="-4,4 -4,-225 1485.5,-225 1485.5,4 -4,4"/>
<!-- Node1 -->
<g id="node1" class="node">
<title>Node1</title>
<polygon fill="#bfbfbf" stroke="#000000" points="600.5,-201.5 600.5,-220.5 685.5,-220.5 685.5,-201.5 600.5,-201.5"/>
<text text-anchor="middle" x="643" y="-208.5" font-family="Helvetica,sans-Serif" font-size="10.00" fill="#000000">include/config.h</text>
</g>
<!-- Node2 -->
<g id="node2" class="node">
<title>Node2</title>
<g id="a_node2"><a xlink:href="../../da/dfe/ess_8h.html" target="_top" xlink:title="include/ess.h">
<polygon fill="#ffffff" stroke="#000000" points="151,-134.5 151,-153.5 225,-153.5 225,-134.5 151,-134.5"/>
<text text-anchor="middle" x="188" y="-141.5" font-family="Helvetica,sans-Serif" font-size="10.00" fill="#000000">include/ess.h</text>
</a>
</g>
</g>
<!-- Node1&#45;&gt;Node2 -->
<g id="edge1" class="edge">
<title>Node1&#45;&gt;Node2</title>
<path fill="none" stroke="#191970" d="M590.381,-207.4299C516.1524,-201.7724 376.7159,-188.8616 260,-165 245.5846,-162.0529 229.8669,-157.6159 216.8052,-153.5785"/>
<polygon fill="#191970" stroke="#191970" points="590.1797,-210.9245 600.413,-208.1804 590.702,-203.944 590.1797,-210.9245"/>
</g>
<!-- Node5 -->
<g id="node5" class="node">
<title>Node5</title>
<g id="a_node5"><a xlink:href="../../dc/d43/ess__context_8c.html" target="_top" xlink:title="src/ess_context.c">
<polygon fill="#ffffff" stroke="#000000" points="136.5,-6 136.5,-25 231.5,-25 231.5,-6 136.5,-6"/>
<text text-anchor="middle" x="184" y="-13" font-family="Helvetica,sans-Serif" font-size="10.00" fill="#000000">src/ess_context.c</text>
</a>
</g>
</g>
<!-- Node1&#45;&gt;Node5 -->
<g id="edge9" class="edge">
<title>Node1&#45;&gt;Node5</title>
<path fill="none" stroke="#191970" d="M590.2869,-209.6163C507.2279,-206.4906 350.7318,-196.4847 306,-165 265.8481,-136.7389 287.063,-104.1864 255,-67 239.6866,-49.2397 217.1038,-34.2106 201.5392,-25.0537"/>
<polygon fill="#191970" stroke="#191970" points="590.1647,-213.114 600.2831,-209.9725 590.4141,-206.1185 590.1647,-213.114"/>
</g>
<!-- Node6 -->
<g id="node6" class="node">
<title>Node6</title>
<g id="a_node6"><a xlink:href="../../d1/df2/null__backend_8c.html" target="_top" xlink:title="all generic backend null functions source cource ">
<polygon fill="#ffffff" stroke="#000000" points="249.5,-.5 249.5,-30.5 374.5,-30.5 374.5,-.5 249.5,-.5"/>
<text text-anchor="start" x="257.5" y="-18.5" font-family="Helvetica,sans-Serif" font-size="10.00" fill="#000000">src/platform/generic</text>
<text text-anchor="middle" x="312" y="-7.5" font-family="Helvetica,sans-Serif" font-size="10.00" fill="#000000">/backend/null_backend.c</text>
</a>
</g>
</g>
<!-- Node1&#45;&gt;Node6 -->
<g id="edge16" class="edge">
<title>Node1&#45;&gt;Node6</title>
<path fill="none" stroke="#191970" d="M590.0877,-206.6689C505.8408,-199.2663 348.8444,-183.2044 331,-165 295.286,-128.5657 302.956,-60.8946 308.6389,-30.7137"/>
<polygon fill="#191970" stroke="#191970" points="589.9691,-210.1716 600.2343,-207.5495 590.5744,-203.1978 589.9691,-210.1716"/>
</g>
<!-- Node8 -->
<g id="node8" class="node">
<title>Node8</title>
<g id="a_node8"><a xlink:href="../../d7/d06/ess__socket_8c.html" target="_top" xlink:title="src/ess_socket.c">
<polygon fill="#ffffff" stroke="#000000" points="340,-134.5 340,-153.5 432,-153.5 432,-134.5 340,-134.5"/>
<text text-anchor="middle" x="386" y="-141.5" font-family="Helvetica,sans-Serif" font-size="10.00" fill="#000000">src/ess_socket.c</text>
</a>
</g>
</g>
<!-- Node1&#45;&gt;Node8 -->
<g id="edge10" class="edge">
<title>Node1&#45;&gt;Node8</title>
<path fill="none" stroke="#191970" d="M590.3184,-201.1211C549.2429,-192.9114 490.9772,-180.1492 441,-165 430.2404,-161.7385 418.5726,-157.4026 408.7637,-153.5178"/>
<polygon fill="#191970" stroke="#191970" points="589.8865,-204.6034 600.3754,-203.1089 591.2439,-197.7362 589.8865,-204.6034"/>
</g>
<!-- Node9 -->
<g id="node9" class="node">
<title>Node9</title>
<g id="a_node9"><a xlink:href="../../d3/d85/i2s__gerneric__backend_8c.html" target="_top" xlink:title="all esp32 backend generic_i2s functions source ">
<polygon fill="#ffffff" stroke="#000000" points="450,-123.5 450,-164.5 562,-164.5 562,-123.5 450,-123.5"/>
<text text-anchor="start" x="458" y="-152.5" font-family="Helvetica,sans-Serif" font-size="10.00" fill="#000000">src/platform/esp32</text>
<text text-anchor="start" x="458" y="-141.5" font-family="Helvetica,sans-Serif" font-size="10.00" fill="#000000">/backend/i2s_gerneric</text>
<text text-anchor="middle" x="506" y="-130.5" font-family="Helvetica,sans-Serif" font-size="10.00" fill="#000000">_backend.c</text>
</a>
</g>
</g>
<!-- Node1&#45;&gt;Node9 -->
<g id="edge11" class="edge">
<title>Node1&#45;&gt;Node9</title>
<path fill="none" stroke="#191970" d="M614.2588,-196.9441C595.1103,-187.5795 569.6221,-175.1145 548.1873,-164.6318"/>
<polygon fill="#191970" stroke="#191970" points="612.8503,-200.1513 623.3712,-201.4005 615.9256,-193.8631 612.8503,-200.1513"/>
</g>
<!-- Node10 -->
<g id="node10" class="node">
<title>Node10</title>
<g id="a_node10"><a xlink:href="../../d2/d00/uart__backend_8c.html" target="_top" xlink:title="all esp32 backend uart functions source UART 1 ">
<polygon fill="#ffffff" stroke="#000000" points="580,-129 580,-159 706,-159 706,-129 580,-129"/>
<text text-anchor="start" x="588" y="-147" font-family="Helvetica,sans-Serif" font-size="10.00" fill="#000000">src/platform/esp32</text>
<text text-anchor="middle" x="643" y="-136" font-family="Helvetica,sans-Serif" font-size="10.00" fill="#000000">/backend/uart_backend.c</text>
</a>
</g>
</g>
<!-- Node1&#45;&gt;Node10 -->
<g id="edge12" class="edge">
<title>Node1&#45;&gt;Node10</title>
<path fill="none" stroke="#191970" d="M643,-191.2758C643,-180.9641 643,-168.5437 643,-159.0218"/>
<polygon fill="#191970" stroke="#191970" points="639.5001,-191.4005 643,-201.4005 646.5001,-191.4006 639.5001,-191.4005"/>
</g>
<!-- Node11 -->
<g id="node11" class="node">
<title>Node11</title>
<g id="a_node11"><a xlink:href="../../d0/d87/esp32__platform__ringbuffer_8c.html" target="_top" xlink:title="src/platform/esp32\l/esp32_platform_ringbuffer.c">
<polygon fill="#ffffff" stroke="#000000" points="724,-129 724,-159 864,-159 864,-129 724,-129"/>
<text text-anchor="start" x="732" y="-147" font-family="Helvetica,sans-Serif" font-size="10.00" fill="#000000">src/platform/esp32</text>
<text text-anchor="middle" x="794" y="-136" font-family="Helvetica,sans-Serif" font-size="10.00" fill="#000000">/esp32_platform_ringbuffer.c</text>
</a>
</g>
</g>
<!-- Node1&#45;&gt;Node11 -->
<g id="edge13" class="edge">
<title>Node1&#45;&gt;Node11</title>
<path fill="none" stroke="#191970" d="M674.0365,-197.2289C699.1099,-186.1035 734.3475,-170.4683 760.145,-159.0218"/>
<polygon fill="#191970" stroke="#191970" points="672.3557,-194.1455 664.6346,-201.4005 675.1948,-200.5439 672.3557,-194.1455"/>
</g>
<!-- Node12 -->
<g id="node12" class="node">
<title>Node12</title>
<g id="a_node12"><a xlink:href="../../df/d9f/esp32__platform__semaphore_8c.html" target="_top" xlink:title="all esp32 platform semaphore functions source ">
<polygon fill="#ffffff" stroke="#000000" points="882,-129 882,-159 1030,-159 1030,-129 882,-129"/>
<text text-anchor="start" x="890" y="-147" font-family="Helvetica,sans-Serif" font-size="10.00" fill="#000000">src/platform/esp32</text>
<text text-anchor="middle" x="956" y="-136" font-family="Helvetica,sans-Serif" font-size="10.00" fill="#000000">/esp32_platform_semaphore.c</text>
</a>
</g>
</g>
<!-- Node1&#45;&gt;Node12 -->
<g id="edge14" class="edge">
<title>Node1&#45;&gt;Node12</title>
<path fill="none" stroke="#191970" d="M695.4197,-201.2959C742.1415,-192.4613 812.3174,-178.7358 873,-165 881.1183,-163.1624 889.6566,-161.1238 898.0426,-159.0602"/>
<polygon fill="#191970" stroke="#191970" points="694.706,-197.8687 685.5269,-203.1597 696.002,-204.7477 694.706,-197.8687"/>
</g>
<!-- Node13 -->
<g id="node13" class="node">
<title>Node13</title>
<g id="a_node13"><a xlink:href="../../d3/d1f/esp32__platform__task_8c.html" target="_top" xlink:title="all esp32 platform task functions source ">
<polygon fill="#ffffff" stroke="#000000" points="1048.5,-129 1048.5,-159 1167.5,-159 1167.5,-129 1048.5,-129"/>
<text text-anchor="start" x="1056.5" y="-147" font-family="Helvetica,sans-Serif" font-size="10.00" fill="#000000">src/platform/esp32</text>
<text text-anchor="middle" x="1108" y="-136" font-family="Helvetica,sans-Serif" font-size="10.00" fill="#000000">/esp32_platform_task.c</text>
</a>
</g>
</g>
<!-- Node1&#45;&gt;Node13 -->
<g id="edge15" class="edge">
<title>Node1&#45;&gt;Node13</title>
<path fill="none" stroke="#191970" d="M695.9104,-207.8881C772.3088,-202.7113 917.6656,-190.2966 1039,-165 1046.7226,-163.3899 1054.823,-161.3005 1062.6476,-159.0652"/>
<polygon fill="#191970" stroke="#191970" points="695.3444,-204.4178 685.5975,-208.5711 695.807,-211.4025 695.3444,-204.4178"/>
</g>
<!-- Node14 -->
<g id="node14" class="node">
<title>Node14</title>
<g id="a_node14"><a xlink:href="../../d5/da1/udp__backend_8c.html" target="_top" xlink:title="src/platform/generic\l/backend/udp_backend.c">
<polygon fill="#ffffff" stroke="#000000" points="1185.5,-129 1185.5,-159 1310.5,-159 1310.5,-129 1185.5,-129"/>
<text text-anchor="start" x="1193.5" y="-147" font-family="Helvetica,sans-Serif" font-size="10.00" fill="#000000">src/platform/generic</text>
<text text-anchor="middle" x="1248" y="-136" font-family="Helvetica,sans-Serif" font-size="10.00" fill="#000000">/backend/udp_backend.c</text>
</a>
</g>
</g>
<!-- Node1&#45;&gt;Node14 -->
<g id="edge17" class="edge">
<title>Node1&#45;&gt;Node14</title>
<path fill="none" stroke="#191970" d="M695.691,-209.973C792.043,-207.3198 1002.767,-197.9222 1177,-165 1185.21,-163.4487 1193.8281,-161.3313 1202.1178,-159.0353"/>
<polygon fill="#191970" stroke="#191970" points="695.5263,-206.476 685.6215,-210.237 695.7098,-213.4736 695.5263,-206.476"/>
</g>
<!-- Node15 -->
<g id="node15" class="node">
<title>Node15</title>
<g id="a_node15"><a xlink:href="../../da/d80/generic__platform__semaphore_8c.html" target="_top" xlink:title="all generic backend udp functions source ">
<polygon fill="#ffffff" stroke="#000000" points="1328.5,-129 1328.5,-159 1481.5,-159 1481.5,-129 1328.5,-129"/>
<text text-anchor="start" x="1336.5" y="-147" font-family="Helvetica,sans-Serif" font-size="10.00" fill="#000000">src/platform/generic</text>
<text text-anchor="middle" x="1405" y="-136" font-family="Helvetica,sans-Serif" font-size="10.00" fill="#000000">/generic_platform_semaphore.c</text>
</a>
</g>
</g>
<!-- Node1&#45;&gt;Node15 -->
<g id="edge18" class="edge">
<title>Node1&#45;&gt;Node15</title>
<path fill="none" stroke="#191970" d="M695.9195,-208.6003C833.472,-202.1712 1199.8979,-183.7695 1320,-165 1329.7619,-163.4744 1340.0464,-161.3697 1349.9588,-159.0783"/>
<polygon fill="#191970" stroke="#191970" points="695.4699,-205.1173 685.6434,-209.0782 695.7952,-212.1098 695.4699,-205.1173"/>
</g>
<!-- Node3 -->
<g id="node3" class="node">
<title>Node3</title>
<g id="a_node3"><a xlink:href="../../de/dc0/ess__backend_8h.html" target="_top" xlink:title="include/ess_backend.h">
<polygon fill="#ffffff" stroke="#000000" points="130,-67.5 130,-86.5 246,-86.5 246,-67.5 130,-67.5"/>
<text text-anchor="middle" x="188" y="-74.5" font-family="Helvetica,sans-Serif" font-size="10.00" fill="#000000">include/ess_backend.h</text>
</a>
</g>
</g>
<!-- Node2&#45;&gt;Node3 -->
<g id="edge2" class="edge">
<title>Node2&#45;&gt;Node3</title>
<path fill="none" stroke="#191970" d="M188,-124.1079C188,-111.714 188,-96.3263 188,-86.5817"/>
<polygon fill="#191970" stroke="#191970" points="184.5001,-124.4005 188,-134.4005 191.5001,-124.4006 184.5001,-124.4005"/>
</g>
<!-- Node7 -->
<g id="node7" class="node">
<title>Node7</title>
<g id="a_node7"><a xlink:href="../../d7/d36/ess__context_8h.html" target="_top" xlink:title="include/ess_context.h">
<polygon fill="#ffffff" stroke="#000000" points="0,-67.5 0,-86.5 112,-86.5 112,-67.5 0,-67.5"/>
<text text-anchor="middle" x="56" y="-74.5" font-family="Helvetica,sans-Serif" font-size="10.00" fill="#000000">include/ess_context.h</text>
</a>
</g>
</g>
<!-- Node2&#45;&gt;Node7 -->
<g id="edge6" class="edge">
<title>Node2&#45;&gt;Node7</title>
<path fill="none" stroke="#191970" d="M159.8855,-129.7298C134.2596,-116.7227 97.1122,-97.8676 74.8773,-86.5817"/>
<polygon fill="#191970" stroke="#191970" points="158.5864,-132.9954 169.0876,-134.4005 161.7547,-126.7534 158.5864,-132.9954"/>
</g>
<!-- Node4 -->
<g id="node4" class="node">
<title>Node4</title>
<g id="a_node4"><a xlink:href="../../d8/d50/ess__backend_8c.html" target="_top" xlink:title="src/ess_backend.c">
<polygon fill="#ffffff" stroke="#000000" points="13.5,-6 13.5,-25 112.5,-25 112.5,-6 13.5,-6"/>
<text text-anchor="middle" x="63" y="-13" font-family="Helvetica,sans-Serif" font-size="10.00" fill="#000000">src/ess_backend.c</text>
</a>
</g>
</g>
<!-- Node3&#45;&gt;Node4 -->
<g id="edge3" class="edge">
<title>Node3&#45;&gt;Node4</title>
<path fill="none" stroke="#191970" d="M159.3035,-62.8813C135.7301,-51.2832 102.9798,-35.1701 82.3941,-25.0419"/>
<polygon fill="#191970" stroke="#191970" points="157.9508,-66.1164 168.4688,-67.3906 161.0411,-59.8355 157.9508,-66.1164"/>
</g>
<!-- Node3&#45;&gt;Node5 -->
<g id="edge4" class="edge">
<title>Node3&#45;&gt;Node5</title>
<path fill="none" stroke="#191970" d="M186.7152,-57.2462C186.0196,-46.5519 185.1912,-33.814 184.6338,-25.2449"/>
<polygon fill="#191970" stroke="#191970" points="183.2333,-57.6389 187.375,-67.3906 190.2185,-57.1845 183.2333,-57.6389"/>
</g>
<!-- Node3&#45;&gt;Node6 -->
<g id="edge5" class="edge">
<title>Node3&#45;&gt;Node6</title>
<path fill="none" stroke="#191970" d="M216.3849,-62.922C235.8894,-53.2484 261.7557,-40.4196 281.6662,-30.5446"/>
<polygon fill="#191970" stroke="#191970" points="214.7785,-59.8118 207.375,-67.3906 217.8888,-66.0829 214.7785,-59.8118"/>
</g>
<!-- Node7&#45;&gt;Node4 -->
<g id="edge7" class="edge">
<title>Node7&#45;&gt;Node4</title>
<path fill="none" stroke="#191970" d="M58.2484,-57.2462C59.4656,-46.5519 60.9155,-33.814 61.8908,-25.2449"/>
<polygon fill="#191970" stroke="#191970" points="54.7472,-57.0589 57.0938,-67.3906 61.7023,-57.8506 54.7472,-57.0589"/>
</g>
<!-- Node7&#45;&gt;Node5 -->
<g id="edge8" class="edge">
<title>Node7&#45;&gt;Node5</title>
<path fill="none" stroke="#191970" d="M85.0639,-63.0357C109.2261,-51.4265 142.967,-35.2151 164.1404,-25.0419"/>
<polygon fill="#191970" stroke="#191970" points="83.4978,-59.9051 76,-67.3906 86.5294,-66.2146 83.4978,-59.9051"/>
</g>
</g>
</svg>
        <g id="navigator" transform="translate(0 0)" fill="#404254">
                <rect fill="#f2f5e9" fill-opacity="0.5" stroke="#606060" stroke-width=".5" x="0" y="0" width="60" height="60"/>
                <use id="zoomplus" xlink:href="#zoomPlus" x="17" y="9" onmousedown="handleZoom(evt,'in')"/>
                <use id="zoomminus" xlink:href="#zoomMin" x="42" y="9" onmousedown="handleZoom(evt,'out')"/>
                <use id="reset" xlink:href="#resetDef" x="30" y="36" onmousedown="handleReset()"/>
                <g id="arrowUp" xlink:href="#dirArrow" transform="translate(30 24)" onmousedown="handlePan(0,-1)">
                  <use xlink:href="#rim" fill="#404040">
                        <set attributeName="fill" to="#808080" begin="arrowUp.mouseover" end="arrowUp.mouseout"/>
                  </use>
                  <path fill="none" stroke="white" stroke-width="1.5" d="M0,-3.0v7 M-2.5,-0.5L0,-3.0L2.5,-0.5"/>
                </g>
                <g id="arrowRight" xlink:href="#dirArrow" transform="rotate(90) translate(36 -43)" onmousedown="handlePan(1,0)">
                  <use xlink:href="#rim" fill="#404040">
                        <set attributeName="fill" to="#808080" begin="arrowRight.mouseover" end="arrowRight.mouseout"/>
                  </use>
                  <path fill="none" stroke="white" stroke-width="1.5" d="M0,-3.0v7 M-2.5,-0.5L0,-3.0L2.5,-0.5"/>
                </g>
                <g id="arrowDown" xlink:href="#dirArrow" transform="rotate(180) translate(-30 -48)" onmousedown="handlePan(0,1)">
                  <use xlink:href="#rim" fill="#404040">
                        <set attributeName="fill" to="#808080" begin="arrowDown.mouseover" end="arrowDown.mouseout"/>
                  </use>
                  <path fill="none" stroke="white" stroke-width="1.5" d="M0,-3.0v7 M-2.5,-0.5L0,-3.0L2.5,-0.5"/>
                </g>
                <g id="arrowLeft" xlink:href="#dirArrow" transform="rotate(270) translate(-36 17)" onmousedown="handlePan(-1,0)">
                  <use xlink:href="#rim" fill="#404040">
                        <set attributeName="fill" to="#808080" begin="arrowLeft.mouseover" end="arrowLeft.mouseout"/>
                  </use>
                  <path fill="none" stroke="white" stroke-width="1.5" d="M0,-3.0v7 M-2.5,-0.5L0,-3.0L2.5,-0.5"/>
                </g>
        </g>
        <svg viewBox="0 0 15 15" width="100%" height="30px" preserveAspectRatio="xMaxYMin meet">
         <g id="arrow_out" transform="scale(0.3 0.3)">
          <a xlink:href="config_8h__dep__incl_org.svg" target="_base">
           <rect id="button" ry="5" rx="5" y="6" x="6" height="38" width="38"
                fill="#f2f5e9" fill-opacity="0.5" stroke="#606060" stroke-width="1.0"/>
           <path id="arrow"
             d="M 11.500037,31.436501 C 11.940474,20.09759 22.043105,11.32322 32.158766,21.979434 L 37.068811,17.246167 C 37.068811,17.246167 37.088388,32 37.088388,32 L 22.160133,31.978069 C 22.160133,31.978069 26.997745,27.140456 26.997745,27.140456 C 18.528582,18.264221 13.291696,25.230495 11.500037,31.436501 z"
             style="fill:#404040;"/>
          </a>
         </g>
        </svg>
</svg>
