<?xml version="1.0" encoding="UTF-8" standalone="no"?>
<!DOCTYPE svg PUBLIC "-//W3C//DTD SVG 1.1//EN"
 "http://www.w3.org/Graphics/SVG/1.1/DTD/svg11.dtd">
<!-- Generated by graphviz version 2.40.1 (20161225.0304)
 -->
<!-- Title: src/platform/esp32/esp32_platform.c Pages: 1 -->
<!--zoomable 151 -->
<svg id="main" version="1.1" xmlns="http://www.w3.org/2000/svg" xmlns:xlink="http://www.w3.org/1999/xlink" xml:space="preserve" onload="init(evt)">
<style type="text/css"><![CDATA[
.edge:hover path { stroke: red; }
.edge:hover polygon { stroke: red; fill: red; }
]]></style>
<script type="text/javascript"><![CDATA[
var edges = document.getElementsByTagName('g');
if (edges && edges.length) {
  for (var i=0;i<edges.length;i++) {
    if (edges[i].id.substr(0,4)=='edge') {
      edges[i].setAttribute('class','edge');
    }
  }
}
]]></script>
        <defs>
                <circle id="rim" cx="0" cy="0" r="7"/>
                <circle id="rim2" cx="0" cy="0" r="3.5"/>
                <g id="zoomPlus">
                        <use xlink:href="#rim" fill="#404040">
                                <set attributeName="fill" to="#808080" begin="zoomplus.mouseover" end="zoomplus.mouseout"/>
                        </use>
                        <path d="M-4,0h8M0,-4v8" fill="none" stroke="white" stroke-width="1.5" pointer-events="none"/>
                </g>
                <g id="zoomMin">
                        <use xlink:href="#rim" fill="#404040">
                                <set attributeName="fill" to="#808080" begin="zoomminus.mouseover" end="zoomminus.mouseout"/>
                        </use>
                        <path d="M-4,0h8" fill="none" stroke="white" stroke-width="1.5" pointer-events="none"/>
                </g>
                <g id="dirArrow">
                        <path fill="none" stroke="white" stroke-width="1.5" d="M0,-3.0v7 M-2.5,-0.5L0,-3.0L2.5,-0.5"/>
                </g>
               <g id="resetDef">
                       <use xlink:href="#rim2" fill="#404040">
                               <set attributeName="fill" to="#808080" begin="reset.mouseover" end="reset.mouseout"/>
                       </use>
               </g>
        </defs>

<script type="text/javascript">
var viewWidth = 1393;
var viewHeight = 151;
var sectionId = 'dynsection-0';
</script>
<script xlink:href="../../svgpan.js"/>
<svg id="graph" class="graph">
<g id="viewport">
<title>src/platform/esp32/esp32_platform.c</title>
<polygon fill="#ffffff" stroke="transparent" points="-4,4 -4,-147 1389,-147 1389,4 -4,4"/>
<!-- Node0 -->
<g id="node1" class="node">
<title>Node0</title>
<polygon fill="#bfbfbf" stroke="#000000" points="723,-112.5 723,-142.5 821,-142.5 821,-112.5 723,-112.5"/>
<text text-anchor="start" x="731" y="-130.5" font-family="Helvetica,sans-Serif" font-size="10.00" fill="#000000">src/platform/esp32</text>
<text text-anchor="middle" x="772" y="-119.5" font-family="Helvetica,sans-Serif" font-size="10.00" fill="#000000">/esp32_platform.c</text>
</g>
<!-- Node1 -->
<g id="node2" class="node">
<title>Node1</title>
<g id="a_node2"><a xlink:href="../../da/dfe/ess_8h.html" target="_top" xlink:title="ess.h">
<polygon fill="#ffffff" stroke="#000000" points="184.5,-56.5 184.5,-75.5 225.5,-75.5 225.5,-56.5 184.5,-56.5"/>
<text text-anchor="middle" x="205" y="-63.5" font-family="Helvetica,sans-Serif" font-size="10.00" fill="#000000">ess.h</text>
</a>
</g>
</g>
<!-- Node0&#45;&gt;Node1 -->
<g id="edge1" class="edge">
<title>Node0&#45;&gt;Node1</title>
<path fill="none" stroke="#191970" d="M722.9398,-126.4927C629.4841,-123.7776 419.613,-113.8534 235.6625,-75.6837"/>
<polygon fill="#191970" stroke="#191970" points="236.321,-72.2457 225.8141,-73.6076 234.877,-79.0951 236.321,-72.2457"/>
</g>
<!-- Node4 -->
<g id="node5" class="node">
<title>Node4</title>
<polygon fill="#ffffff" stroke="#bfbfbf" points="0,-.5 0,-19.5 62,-19.5 62,-.5 0,-.5"/>
<text text-anchor="middle" x="31" y="-7.5" font-family="Helvetica,sans-Serif" font-size="10.00" fill="#000000">sys/time.h</text>
</g>
<!-- Node0&#45;&gt;Node4 -->
<g id="edge21" class="edge">
<title>Node0&#45;&gt;Node4</title>
<path fill="none" stroke="#191970" d="M722.722,-125.4002C599.2112,-119.7921 278.9668,-103.0247 176,-76 131.7746,-64.3926 84.2021,-40.2545 56.0471,-24.6094"/>
<polygon fill="#191970" stroke="#191970" points="57.7053,-21.5263 47.2762,-19.6596 54.2649,-27.6225 57.7053,-21.5263"/>
</g>
<!-- Node8 -->
<g id="node9" class="node">
<title>Node8</title>
<g id="a_node9"><a xlink:href="../../dc/d7b/ess__platform_8h.html" target="_top" xlink:title="all platform specific functions ">
<polygon fill="#ffffff" stroke="#000000" points="243.5,-56.5 243.5,-75.5 324.5,-75.5 324.5,-56.5 243.5,-56.5"/>
<text text-anchor="middle" x="284" y="-63.5" font-family="Helvetica,sans-Serif" font-size="10.00" fill="#000000">ess_platform.h</text>
</a>
</g>
</g>
<!-- Node0&#45;&gt;Node8 -->
<g id="edge8" class="edge">
<title>Node0&#45;&gt;Node8</title>
<path fill="none" stroke="#191970" d="M722.8863,-123.0246C643.5117,-115.5074 481.9349,-99.0297 334.7328,-76.0033"/>
<polygon fill="#191970" stroke="#191970" points="335.0334,-72.5075 324.61,-74.4057 333.9421,-79.4219 335.0334,-72.5075"/>
</g>
<!-- Node10 -->
<g id="node11" class="node">
<title>Node10</title>
<polygon fill="#ffffff" stroke="#bfbfbf" points="343,-56.5 343,-75.5 451,-75.5 451,-56.5 343,-56.5"/>
<text text-anchor="middle" x="397" y="-63.5" font-family="Helvetica,sans-Serif" font-size="10.00" fill="#000000">freertos/FreeRTOS.h</text>
</g>
<!-- Node0&#45;&gt;Node10 -->
<g id="edge10" class="edge">
<title>Node0&#45;&gt;Node10</title>
<path fill="none" stroke="#191970" d="M722.9753,-119.4599C655.947,-108.4673 535.5746,-88.7262 461.3556,-76.5543"/>
<polygon fill="#191970" stroke="#191970" points="461.6342,-73.0533 451.1996,-74.8887 460.5013,-79.9611 461.6342,-73.0533"/>
</g>
<!-- Node11 -->
<g id="node12" class="node">
<title>Node11</title>
<polygon fill="#ffffff" stroke="#bfbfbf" points="469,-56.5 469,-75.5 549,-75.5 549,-56.5 469,-56.5"/>
<text text-anchor="middle" x="509" y="-63.5" font-family="Helvetica,sans-Serif" font-size="10.00" fill="#000000">freertos/task.h</text>
</g>
<!-- Node0&#45;&gt;Node11 -->
<g id="edge11" class="edge">
<title>Node0&#45;&gt;Node11</title>
<path fill="none" stroke="#191970" d="M722.8402,-116.0045C676.1617,-105.0891 606.3213,-88.7576 559.2774,-77.7569"/>
<polygon fill="#191970" stroke="#191970" points="559.8425,-74.2947 549.3082,-75.4257 558.2485,-81.1108 559.8425,-74.2947"/>
</g>
<!-- Node12 -->
<g id="node13" class="node">
<title>Node12</title>
<polygon fill="#ffffff" stroke="#bfbfbf" points="567.5,-56.5 567.5,-75.5 686.5,-75.5 686.5,-56.5 567.5,-56.5"/>
<text text-anchor="middle" x="627" y="-63.5" font-family="Helvetica,sans-Serif" font-size="10.00" fill="#000000">freertos/event_groups.h</text>
</g>
<!-- Node0&#45;&gt;Node12 -->
<g id="edge12" class="edge">
<title>Node0&#45;&gt;Node12</title>
<path fill="none" stroke="#191970" d="M736.529,-112.4554C712.7598,-102.374 681.732,-89.2139 658.7715,-79.4755"/>
<polygon fill="#191970" stroke="#191970" points="660.0427,-76.2129 649.4699,-75.5303 657.3094,-82.6572 660.0427,-76.2129"/>
</g>
<!-- Node13 -->
<g id="node14" class="node">
<title>Node13</title>
<polygon fill="#ffffff" stroke="#bfbfbf" points="704.5,-56.5 704.5,-75.5 763.5,-75.5 763.5,-56.5 704.5,-56.5"/>
<text text-anchor="middle" x="734" y="-63.5" font-family="Helvetica,sans-Serif" font-size="10.00" fill="#000000">esp_log.h</text>
</g>
<!-- Node0&#45;&gt;Node13 -->
<g id="edge13" class="edge">
<title>Node0&#45;&gt;Node13</title>
<path fill="none" stroke="#191970" d="M762.6067,-112.2977C757.3869,-103.8498 750.8543,-93.2773 745.35,-84.369"/>
<polygon fill="#191970" stroke="#191970" points="748.3182,-82.5143 740.0843,-75.8469 742.3632,-86.1938 748.3182,-82.5143"/>
</g>
<!-- Node14 -->
<g id="node15" class="node">
<title>Node14</title>
<polygon fill="#ffffff" stroke="#bfbfbf" points="781.5,-56.5 781.5,-75.5 838.5,-75.5 838.5,-56.5 781.5,-56.5"/>
<text text-anchor="middle" x="810" y="-63.5" font-family="Helvetica,sans-Serif" font-size="10.00" fill="#000000">esp_err.h</text>
</g>
<!-- Node0&#45;&gt;Node14 -->
<g id="edge14" class="edge">
<title>Node0&#45;&gt;Node14</title>
<path fill="none" stroke="#191970" d="M781.3933,-112.2977C786.6131,-103.8498 793.1457,-93.2773 798.65,-84.369"/>
<polygon fill="#191970" stroke="#191970" points="801.6368,-86.1938 803.9157,-75.8469 795.6818,-82.5143 801.6368,-86.1938"/>
</g>
<!-- Node15 -->
<g id="node16" class="node">
<title>Node15</title>
<polygon fill="#ffffff" stroke="#bfbfbf" points="856.5,-56.5 856.5,-75.5 923.5,-75.5 923.5,-56.5 856.5,-56.5"/>
<text text-anchor="middle" x="890" y="-63.5" font-family="Helvetica,sans-Serif" font-size="10.00" fill="#000000">nvs_flash.h</text>
</g>
<!-- Node0&#45;&gt;Node15 -->
<g id="edge15" class="edge">
<title>Node0&#45;&gt;Node15</title>
<path fill="none" stroke="#191970" d="M800.866,-112.4554C819.6911,-102.644 844.111,-89.9167 862.6292,-80.2653"/>
<polygon fill="#191970" stroke="#191970" points="864.464,-83.2559 871.7142,-75.5303 861.2287,-77.0484 864.464,-83.2559"/>
</g>
<!-- Node16 -->
<g id="node17" class="node">
<title>Node16</title>
<polygon fill="#ffffff" stroke="#bfbfbf" points="942,-56.5 942,-75.5 1020,-75.5 1020,-56.5 942,-56.5"/>
<text text-anchor="middle" x="981" y="-63.5" font-family="Helvetica,sans-Serif" font-size="10.00" fill="#000000">esp_system.h</text>
</g>
<!-- Node0&#45;&gt;Node16 -->
<g id="edge16" class="edge">
<title>Node0&#45;&gt;Node16</title>
<path fill="none" stroke="#191970" d="M821.0012,-113.081C856.8001,-102.5468 904.8405,-88.4106 938.9116,-78.3849"/>
<polygon fill="#191970" stroke="#191970" points="939.9624,-81.7241 948.5677,-75.5435 937.9864,-75.0088 939.9624,-81.7241"/>
</g>
<!-- Node17 -->
<g id="node18" class="node">
<title>Node17</title>
<polygon fill="#ffffff" stroke="#bfbfbf" points="1038.5,-56.5 1038.5,-75.5 1123.5,-75.5 1123.5,-56.5 1038.5,-56.5"/>
<text text-anchor="middle" x="1081" y="-63.5" font-family="Helvetica,sans-Serif" font-size="10.00" fill="#000000">esp_spi_flash.h</text>
</g>
<!-- Node0&#45;&gt;Node17 -->
<g id="edge17" class="edge">
<title>Node0&#45;&gt;Node17</title>
<path fill="none" stroke="#191970" d="M821.3036,-117.6871C877.8834,-106.4261 970.3084,-88.0308 1028.284,-76.492"/>
<polygon fill="#191970" stroke="#191970" points="1029.2146,-79.8755 1038.339,-74.4908 1027.8482,-73.0102 1029.2146,-79.8755"/>
</g>
<!-- Node18 -->
<g id="node19" class="node">
<title>Node18</title>
<polygon fill="#ffffff" stroke="#bfbfbf" points="1141.5,-56.5 1141.5,-75.5 1208.5,-75.5 1208.5,-56.5 1141.5,-56.5"/>
<text text-anchor="middle" x="1175" y="-63.5" font-family="Helvetica,sans-Serif" font-size="10.00" fill="#000000">sdkconfig.h</text>
</g>
<!-- Node0&#45;&gt;Node18 -->
<g id="edge18" class="edge">
<title>Node0&#45;&gt;Node18</title>
<path fill="none" stroke="#191970" d="M821.2848,-121.9275C889.0334,-113.9461 1014.9046,-97.9684 1131.0065,-76.2594"/>
<polygon fill="#191970" stroke="#191970" points="1131.9551,-79.6422 1141.1315,-74.3466 1130.6556,-72.7638 1131.9551,-79.6422"/>
</g>
<!-- Node19 -->
<g id="node20" class="node">
<title>Node19</title>
<polygon fill="#ffffff" stroke="#bfbfbf" points="1227,-56.5 1227,-75.5 1287,-75.5 1287,-56.5 1227,-56.5"/>
<text text-anchor="middle" x="1257" y="-63.5" font-family="Helvetica,sans-Serif" font-size="10.00" fill="#000000">esp_attr.h</text>
</g>
<!-- Node0&#45;&gt;Node19 -->
<g id="edge19" class="edge">
<title>Node0&#45;&gt;Node19</title>
<path fill="none" stroke="#191970" d="M821.1614,-124.0225C901.8264,-117.8373 1067.4055,-103.1318 1216.5995,-76.0475"/>
<polygon fill="#191970" stroke="#191970" points="1217.6546,-79.4123 1226.8565,-74.1609 1216.3883,-72.5278 1217.6546,-79.4123"/>
</g>
<!-- Node20 -->
<g id="node21" class="node">
<title>Node20</title>
<polygon fill="#ffffff" stroke="#bfbfbf" points="1305,-56.5 1305,-75.5 1385,-75.5 1385,-56.5 1305,-56.5"/>
<text text-anchor="middle" x="1345" y="-63.5" font-family="Helvetica,sans-Serif" font-size="10.00" fill="#000000">esp_partition.h</text>
</g>
<!-- Node0&#45;&gt;Node20 -->
<g id="edge20" class="edge">
<title>Node0&#45;&gt;Node20</title>
<path fill="none" stroke="#191970" d="M821.335,-124.3592C912.7939,-118.1655 1114.9759,-102.7365 1295.0335,-76.0114"/>
<polygon fill="#191970" stroke="#191970" points="1295.5783,-79.4689 1304.9487,-74.5248 1294.5403,-72.5463 1295.5783,-79.4689"/>
</g>
<!-- Node2 -->
<g id="node3" class="node">
<title>Node2</title>
<polygon fill="#ffffff" stroke="#bfbfbf" points="80.5,-.5 80.5,-19.5 127.5,-19.5 127.5,-.5 80.5,-.5"/>
<text text-anchor="middle" x="104" y="-7.5" font-family="Helvetica,sans-Serif" font-size="10.00" fill="#000000">errno.h</text>
</g>
<!-- Node1&#45;&gt;Node2 -->
<g id="edge2" class="edge">
<title>Node1&#45;&gt;Node2</title>
<path fill="none" stroke="#191970" d="M187.4071,-56.2455C171.621,-47.4928 148.2361,-34.527 130.2413,-24.5496"/>
<polygon fill="#191970" stroke="#191970" points="131.8341,-21.4308 121.3913,-19.6427 128.4397,-27.5528 131.8341,-21.4308"/>
</g>
<!-- Node3 -->
<g id="node4" class="node">
<title>Node3</title>
<polygon fill="#ffffff" stroke="#bfbfbf" points="146,-.5 146,-19.5 190,-19.5 190,-.5 146,-.5"/>
<text text-anchor="middle" x="168" y="-7.5" font-family="Helvetica,sans-Serif" font-size="10.00" fill="#000000">time.h</text>
</g>
<!-- Node1&#45;&gt;Node3 -->
<g id="edge3" class="edge">
<title>Node1&#45;&gt;Node3</title>
<path fill="none" stroke="#191970" d="M198.5551,-56.2455C193.4618,-48.5367 186.2092,-37.5598 180.048,-28.2348"/>
<polygon fill="#191970" stroke="#191970" points="182.8038,-26.0566 174.3711,-19.6427 176.9635,-29.9155 182.8038,-26.0566"/>
</g>
<!-- Node1&#45;&gt;Node4 -->
<g id="edge4" class="edge">
<title>Node1&#45;&gt;Node4</title>
<path fill="none" stroke="#191970" d="M184.3566,-59.3562C156.2975,-50.3256 105.5661,-33.9983 70.1663,-22.6053"/>
<polygon fill="#191970" stroke="#191970" points="71.2114,-19.2648 60.6199,-19.5328 69.0668,-25.9282 71.2114,-19.2648"/>
</g>
<!-- Node5 -->
<g id="node6" class="node">
<title>Node5</title>
<polygon fill="#ffffff" stroke="#bfbfbf" points="208.5,-.5 208.5,-19.5 277.5,-19.5 277.5,-.5 208.5,-.5"/>
<text text-anchor="middle" x="243" y="-7.5" font-family="Helvetica,sans-Serif" font-size="10.00" fill="#000000">sys/signal.h</text>
</g>
<!-- Node1&#45;&gt;Node5 -->
<g id="edge5" class="edge">
<title>Node1&#45;&gt;Node5</title>
<path fill="none" stroke="#191970" d="M211.6191,-56.2455C216.9046,-48.4564 224.4541,-37.3308 230.8238,-27.9439"/>
<polygon fill="#191970" stroke="#191970" points="233.7379,-29.8827 236.4568,-19.6427 227.9455,-25.9522 233.7379,-29.8827"/>
</g>
<!-- Node6 -->
<g id="node7" class="node">
<title>Node6</title>
<g id="a_node7"><a xlink:href="../../db/d16/config_8h.html" target="_top" xlink:title="File containing configurations. ">
<polygon fill="#ffffff" stroke="#000000" points="295.5,-.5 295.5,-19.5 346.5,-19.5 346.5,-.5 295.5,-.5"/>
<text text-anchor="middle" x="321" y="-7.5" font-family="Helvetica,sans-Serif" font-size="10.00" fill="#000000">config.h</text>
</a>
</g>
</g>
<!-- Node1&#45;&gt;Node6 -->
<g id="edge6" class="edge">
<title>Node1&#45;&gt;Node6</title>
<path fill="none" stroke="#191970" d="M224.9411,-56.3733C243.4786,-47.4241 271.3028,-33.9917 292.2413,-23.8835"/>
<polygon fill="#191970" stroke="#191970" points="293.8352,-27.0006 301.3191,-19.5011 290.7919,-20.6967 293.8352,-27.0006"/>
</g>
<!-- Node7 -->
<g id="node8" class="node">
<title>Node7</title>
<g id="a_node8"><a xlink:href="../../d7/d35/ess__format_8h.html" target="_top" xlink:title="ess_format.h">
<polygon fill="#ffffff" stroke="#000000" points="365,-.5 365,-19.5 439,-19.5 439,-.5 365,-.5"/>
<text text-anchor="middle" x="402" y="-7.5" font-family="Helvetica,sans-Serif" font-size="10.00" fill="#000000">ess_format.h</text>
</a>
</g>
</g>
<!-- Node1&#45;&gt;Node7 -->
<g id="edge7" class="edge">
<title>Node1&#45;&gt;Node7</title>
<path fill="none" stroke="#191970" d="M225.6108,-58.9702C228.7476,-57.9466 231.9536,-56.9266 235,-56 275.2845,-43.7472 321.4591,-31.137 355.0302,-22.2256"/>
<polygon fill="#191970" stroke="#191970" points="356.2506,-25.5233 365.0237,-19.5833 354.4612,-18.7558 356.2506,-25.5233"/>
</g>
<!-- Node9 -->
<g id="node10" class="node">
<title>Node9</title>
<g id="a_node10"><a xlink:href="../../d1/dea/ess__error_8h.html" target="_top" xlink:title="ess_error.h">
<polygon fill="#ffffff" stroke="#000000" points="457.5,-.5 457.5,-19.5 522.5,-19.5 522.5,-.5 457.5,-.5"/>
<text text-anchor="middle" x="490" y="-7.5" font-family="Helvetica,sans-Serif" font-size="10.00" fill="#000000">ess_error.h</text>
</a>
</g>
</g>
<!-- Node8&#45;&gt;Node9 -->
<g id="edge9" class="edge">
<title>Node8&#45;&gt;Node9</title>
<path fill="none" stroke="#191970" d="M319.4127,-56.3733C354.9997,-46.6991 409.8589,-31.7859 447.7097,-21.4964"/>
<polygon fill="#191970" stroke="#191970" points="448.6919,-24.8565 457.4235,-18.8557 446.8556,-18.1016 448.6919,-24.8565"/>
</g>
</g>
</svg>
        <g id="navigator" transform="translate(0 0)" fill="#404254">
                <rect fill="#f2f5e9" fill-opacity="0.5" stroke="#606060" stroke-width=".5" x="0" y="0" width="60" height="60"/>
                <use id="zoomplus" xlink:href="#zoomPlus" x="17" y="9" onmousedown="handleZoom(evt,'in')"/>
                <use id="zoomminus" xlink:href="#zoomMin" x="42" y="9" onmousedown="handleZoom(evt,'out')"/>
                <use id="reset" xlink:href="#resetDef" x="30" y="36" onmousedown="handleReset()"/>
                <g id="arrowUp" xlink:href="#dirArrow" transform="translate(30 24)" onmousedown="handlePan(0,-1)">
                  <use xlink:href="#rim" fill="#404040">
                        <set attributeName="fill" to="#808080" begin="arrowUp.mouseover" end="arrowUp.mouseout"/>
                  </use>
                  <path fill="none" stroke="white" stroke-width="1.5" d="M0,-3.0v7 M-2.5,-0.5L0,-3.0L2.5,-0.5"/>
                </g>
                <g id="arrowRight" xlink:href="#dirArrow" transform="rotate(90) translate(36 -43)" onmousedown="handlePan(1,0)">
                  <use xlink:href="#rim" fill="#404040">
                        <set attributeName="fill" to="#808080" begin="arrowRight.mouseover" end="arrowRight.mouseout"/>
                  </use>
                  <path fill="none" stroke="white" stroke-width="1.5" d="M0,-3.0v7 M-2.5,-0.5L0,-3.0L2.5,-0.5"/>
                </g>
                <g id="arrowDown" xlink:href="#dirArrow" transform="rotate(180) translate(-30 -48)" onmousedown="handlePan(0,1)">
                  <use xlink:href="#rim" fill="#404040">
                        <set attributeName="fill" to="#808080" begin="arrowDown.mouseover" end="arrowDown.mouseout"/>
                  </use>
                  <path fill="none" stroke="white" stroke-width="1.5" d="M0,-3.0v7 M-2.5,-0.5L0,-3.0L2.5,-0.5"/>
                </g>
                <g id="arrowLeft" xlink:href="#dirArrow" transform="rotate(270) translate(-36 17)" onmousedown="handlePan(-1,0)">
                  <use xlink:href="#rim" fill="#404040">
                        <set attributeName="fill" to="#808080" begin="arrowLeft.mouseover" end="arrowLeft.mouseout"/>
                  </use>
                  <path fill="none" stroke="white" stroke-width="1.5" d="M0,-3.0v7 M-2.5,-0.5L0,-3.0L2.5,-0.5"/>
                </g>
        </g>
        <svg viewBox="0 0 15 15" width="100%" height="30px" preserveAspectRatio="xMaxYMin meet">
         <g id="arrow_out" transform="scale(0.3 0.3)">
          <a xlink:href="esp32__platform_8c__incl_org.svg" target="_base">
           <rect id="button" ry="5" rx="5" y="6" x="6" height="38" width="38"
                fill="#f2f5e9" fill-opacity="0.5" stroke="#606060" stroke-width="1.0"/>
           <path id="arrow"
             d="M 11.500037,31.436501 C 11.940474,20.09759 22.043105,11.32322 32.158766,21.979434 L 37.068811,17.246167 C 37.068811,17.246167 37.088388,32 37.088388,32 L 22.160133,31.978069 C 22.160133,31.978069 26.997745,27.140456 26.997745,27.140456 C 18.528582,18.264221 13.291696,25.230495 11.500037,31.436501 z"
             style="fill:#404040;"/>
          </a>
         </g>
        </svg>
</svg>
