<?xml version="1.0" encoding="UTF-8" standalone="no"?>
<!DOCTYPE svg PUBLIC "-//W3C//DTD SVG 1.1//EN"
 "http://www.w3.org/Graphics/SVG/1.1/DTD/svg11.dtd">
<!-- Generated by graphviz version 2.40.1 (20161225.0304)
 -->
<!-- Title: include/ess_socket.h Pages: 1 -->
<svg width="226pt" height="140pt"
 viewBox="0.00 0.00 225.50 140.00" xmlns="http://www.w3.org/2000/svg" xmlns:xlink="http://www.w3.org/1999/xlink">
<g id="graph0" class="graph" transform="scale(1 1) rotate(0) translate(4 136)">
<title>include/ess_socket.h</title>
<polygon fill="#ffffff" stroke="transparent" points="-4,4 -4,-136 221.5,-136 221.5,4 -4,4"/>
<!-- Node2 -->
<g id="node1" class="node">
<title>Node2</title>
<polygon fill="#bfbfbf" stroke="#000000" points="58,-112.5 58,-131.5 167,-131.5 167,-112.5 58,-112.5"/>
<text text-anchor="middle" x="112.5" y="-119.5" font-family="Helvetica,sans-Serif" font-size="10.00" fill="#000000">include/ess_socket.h</text>
</g>
<!-- Node3 -->
<g id="node2" class="node">
<title>Node3</title>
<g id="a_node2"><a xlink:href="../../d6/de1/ess__server_8h.html" target="_top" xlink:title="include/ess_server.h">
<polygon fill="#ffffff" stroke="#000000" points="0,-56.5 0,-75.5 107,-75.5 107,-56.5 0,-56.5"/>
<text text-anchor="middle" x="53.5" y="-63.5" font-family="Helvetica,sans-Serif" font-size="10.00" fill="#000000">include/ess_server.h</text>
</a>
</g>
</g>
<!-- Node2&#45;&gt;Node3 -->
<g id="edge1" class="edge">
<title>Node2&#45;&gt;Node3</title>
<path fill="none" stroke="#191970" d="M94.9693,-105.3607C84.7623,-95.6727 72.2531,-83.7995 63.6592,-75.6427"/>
<polygon fill="#191970" stroke="#191970" points="92.5604,-107.8998 102.223,-112.2455 97.3794,-102.8227 92.5604,-107.8998"/>
</g>
<!-- Node5 -->
<g id="node4" class="node">
<title>Node5</title>
<g id="a_node4"><a xlink:href="../../d7/d06/ess__socket_8c.html" target="_top" xlink:title="src/ess_socket.c">
<polygon fill="#ffffff" stroke="#000000" points="125.5,-56.5 125.5,-75.5 217.5,-75.5 217.5,-56.5 125.5,-56.5"/>
<text text-anchor="middle" x="171.5" y="-63.5" font-family="Helvetica,sans-Serif" font-size="10.00" fill="#000000">src/ess_socket.c</text>
</a>
</g>
</g>
<!-- Node2&#45;&gt;Node5 -->
<g id="edge3" class="edge">
<title>Node2&#45;&gt;Node5</title>
<path fill="none" stroke="#191970" d="M130.0307,-105.3607C140.2377,-95.6727 152.7469,-83.7995 161.3408,-75.6427"/>
<polygon fill="#191970" stroke="#191970" points="127.6206,-102.8227 122.777,-112.2455 132.4396,-107.8998 127.6206,-102.8227"/>
</g>
<!-- Node4 -->
<g id="node3" class="node">
<title>Node4</title>
<g id="a_node3"><a xlink:href="../../d0/d9b/ess__server_8c.html" target="_top" xlink:title="src/ess_server.c">
<polygon fill="#ffffff" stroke="#000000" points="9,-.5 9,-19.5 98,-19.5 98,-.5 9,-.5"/>
<text text-anchor="middle" x="53.5" y="-7.5" font-family="Helvetica,sans-Serif" font-size="10.00" fill="#000000">src/ess_server.c</text>
</a>
</g>
</g>
<!-- Node3&#45;&gt;Node4 -->
<g id="edge2" class="edge">
<title>Node3&#45;&gt;Node4</title>
<path fill="none" stroke="#191970" d="M53.5,-46.1575C53.5,-37.155 53.5,-26.9199 53.5,-19.6427"/>
<polygon fill="#191970" stroke="#191970" points="50.0001,-46.2455 53.5,-56.2455 57.0001,-46.2456 50.0001,-46.2455"/>
</g>
</g>
</svg>
