<?xml version="1.0" encoding="UTF-8" standalone="no"?>
<!DOCTYPE svg PUBLIC "-//W3C//DTD SVG 1.1//EN"
 "http://www.w3.org/Graphics/SVG/1.1/DTD/svg11.dtd">
<!-- Generated by graphviz version 2.40.1 (20161225.0304)
 -->
<!-- Title: include/ess_context.h Pages: 1 -->
<svg width="619pt" height="151pt"
 viewBox="0.00 0.00 618.50 151.00" xmlns="http://www.w3.org/2000/svg" xmlns:xlink="http://www.w3.org/1999/xlink">
<g id="graph0" class="graph" transform="scale(1 1) rotate(0) translate(4 147)">
<title>include/ess_context.h</title>
<polygon fill="#ffffff" stroke="transparent" points="-4,4 -4,-147 614.5,-147 614.5,4 -4,4"/>
<!-- Node9 -->
<g id="node1" class="node">
<title>Node9</title>
<polygon fill="#bfbfbf" stroke="#000000" points="271,-123.5 271,-142.5 383,-142.5 383,-123.5 271,-123.5"/>
<text text-anchor="middle" x="327" y="-130.5" font-family="Helvetica,sans-Serif" font-size="10.00" fill="#000000">include/ess_context.h</text>
</g>
<!-- Node10 -->
<g id="node2" class="node">
<title>Node10</title>
<g id="a_node2"><a xlink:href="../../df/dbb/esp32__create__context_8c.html" target="_top" xlink:title="examples/esp32_create\l_context.c">
<polygon fill="#ffffff" stroke="#000000" points="0,-56.5 0,-86.5 120,-86.5 120,-56.5 0,-56.5"/>
<text text-anchor="start" x="8" y="-74.5" font-family="Helvetica,sans-Serif" font-size="10.00" fill="#000000">examples/esp32_create</text>
<text text-anchor="middle" x="60" y="-63.5" font-family="Helvetica,sans-Serif" font-size="10.00" fill="#000000">_context.c</text>
</a>
</g>
</g>
<!-- Node9&#45;&gt;Node10 -->
<g id="edge1" class="edge">
<title>Node9&#45;&gt;Node10</title>
<path fill="none" stroke="#191970" d="M275.5724,-121.1543C231.1539,-110.9231 166.9282,-96.1295 120.1394,-85.3523"/>
<polygon fill="#191970" stroke="#191970" points="275.0437,-124.6241 285.5742,-123.4581 276.615,-117.8027 275.0437,-124.6241"/>
</g>
<!-- Node11 -->
<g id="node3" class="node">
<title>Node11</title>
<g id="a_node3"><a xlink:href="../../d2/de0/esp32__probe__backends_8c.html" target="_top" xlink:title="examples/esp32_probe\l_backends.c">
<polygon fill="#ffffff" stroke="#000000" points="138.5,-56.5 138.5,-86.5 255.5,-86.5 255.5,-56.5 138.5,-56.5"/>
<text text-anchor="start" x="146.5" y="-74.5" font-family="Helvetica,sans-Serif" font-size="10.00" fill="#000000">examples/esp32_probe</text>
<text text-anchor="middle" x="197" y="-63.5" font-family="Helvetica,sans-Serif" font-size="10.00" fill="#000000">_backends.c</text>
</a>
</g>
</g>
<!-- Node9&#45;&gt;Node11 -->
<g id="edge2" class="edge">
<title>Node9&#45;&gt;Node11</title>
<path fill="none" stroke="#191970" d="M297.52,-119.0537C277.04,-109.3651 249.7704,-96.4644 228.8016,-86.5446"/>
<polygon fill="#191970" stroke="#191970" points="296.1512,-122.278 306.6875,-123.3906 299.1447,-115.9504 296.1512,-122.278"/>
</g>
<!-- Node12 -->
<g id="node4" class="node">
<title>Node12</title>
<g id="a_node4"><a xlink:href="../../d6/de1/ess__server_8h.html" target="_top" xlink:title="include/ess_server.h">
<polygon fill="#ffffff" stroke="#000000" points="273.5,-62 273.5,-81 380.5,-81 380.5,-62 273.5,-62"/>
<text text-anchor="middle" x="327" y="-69" font-family="Helvetica,sans-Serif" font-size="10.00" fill="#000000">include/ess_server.h</text>
</a>
</g>
</g>
<!-- Node9&#45;&gt;Node12 -->
<g id="edge3" class="edge">
<title>Node9&#45;&gt;Node12</title>
<path fill="none" stroke="#191970" d="M327,-113.2462C327,-102.5519 327,-89.814 327,-81.2449"/>
<polygon fill="#191970" stroke="#191970" points="323.5001,-113.3906 327,-123.3906 330.5001,-113.3907 323.5001,-113.3906"/>
</g>
<!-- Node14 -->
<g id="node6" class="node">
<title>Node14</title>
<g id="a_node6"><a xlink:href="../../d8/d50/ess__backend_8c.html" target="_top" xlink:title="src/ess_backend.c">
<polygon fill="#ffffff" stroke="#000000" points="398.5,-62 398.5,-81 497.5,-81 497.5,-62 398.5,-62"/>
<text text-anchor="middle" x="448" y="-69" font-family="Helvetica,sans-Serif" font-size="10.00" fill="#000000">src/ess_backend.c</text>
</a>
</g>
</g>
<!-- Node9&#45;&gt;Node14 -->
<g id="edge5" class="edge">
<title>Node9&#45;&gt;Node14</title>
<path fill="none" stroke="#191970" d="M355.083,-118.7264C377.8789,-107.1401 409.3881,-91.1251 429.2265,-81.0419"/>
<polygon fill="#191970" stroke="#191970" points="353.235,-115.7395 345.9063,-123.3906 356.4067,-121.9797 353.235,-115.7395"/>
</g>
<!-- Node15 -->
<g id="node7" class="node">
<title>Node15</title>
<g id="a_node7"><a xlink:href="../../dc/d43/ess__context_8c.html" target="_top" xlink:title="src/ess_context.c">
<polygon fill="#ffffff" stroke="#000000" points="515.5,-62 515.5,-81 610.5,-81 610.5,-62 515.5,-62"/>
<text text-anchor="middle" x="563" y="-69" font-family="Helvetica,sans-Serif" font-size="10.00" fill="#000000">src/ess_context.c</text>
</a>
</g>
</g>
<!-- Node9&#45;&gt;Node15 -->
<g id="edge6" class="edge">
<title>Node9&#45;&gt;Node15</title>
<path fill="none" stroke="#191970" d="M375.1602,-120.9681C411.4502,-111.8348 462.4121,-98.8667 507,-87 514.1163,-85.106 521.7277,-83.0319 528.9732,-81.0342"/>
<polygon fill="#191970" stroke="#191970" points="374.1765,-117.6064 365.3312,-123.4383 375.8827,-124.3953 374.1765,-117.6064"/>
</g>
<!-- Node13 -->
<g id="node5" class="node">
<title>Node13</title>
<g id="a_node5"><a xlink:href="../../d0/d9b/ess__server_8c.html" target="_top" xlink:title="src/ess_server.c">
<polygon fill="#ffffff" stroke="#000000" points="282.5,-.5 282.5,-19.5 371.5,-19.5 371.5,-.5 282.5,-.5"/>
<text text-anchor="middle" x="327" y="-7.5" font-family="Helvetica,sans-Serif" font-size="10.00" fill="#000000">src/ess_server.c</text>
</a>
</g>
</g>
<!-- Node12&#45;&gt;Node13 -->
<g id="edge4" class="edge">
<title>Node12&#45;&gt;Node13</title>
<path fill="none" stroke="#191970" d="M327,-51.7462C327,-41.0519 327,-28.314 327,-19.7449"/>
<polygon fill="#191970" stroke="#191970" points="323.5001,-51.8906 327,-61.8906 330.5001,-51.8907 323.5001,-51.8906"/>
</g>
</g>
</svg>
