<?xml version="1.0" encoding="UTF-8" standalone="no"?>
<!DOCTYPE svg PUBLIC "-//W3C//DTD SVG 1.1//EN"
 "http://www.w3.org/Graphics/SVG/1.1/DTD/svg11.dtd">
<!-- Generated by graphviz version 2.40.1 (20161225.0304)
 -->
<!-- Title: include/ess_context.h Pages: 1 -->
<svg width="220pt" height="84pt"
 viewBox="0.00 0.00 220.00 84.00" xmlns="http://www.w3.org/2000/svg" xmlns:xlink="http://www.w3.org/1999/xlink">
<g id="graph0" class="graph" transform="scale(1 1) rotate(0) translate(4 80)">
<title>include/ess_context.h</title>
<polygon fill="#ffffff" stroke="transparent" points="-4,4 -4,-80 216,-80 216,4 -4,4"/>
<!-- Node4 -->
<g id="node1" class="node">
<title>Node4</title>
<polygon fill="#bfbfbf" stroke="#000000" points="50.5,-56.5 50.5,-75.5 162.5,-75.5 162.5,-56.5 50.5,-56.5"/>
<text text-anchor="middle" x="106.5" y="-63.5" font-family="Helvetica,sans-Serif" font-size="10.00" fill="#000000">include/ess_context.h</text>
</g>
<!-- Node5 -->
<g id="node2" class="node">
<title>Node5</title>
<g id="a_node2"><a xlink:href="../../d8/d50/ess__backend_8c.html" target="_top" xlink:title="src/ess_backend.c">
<polygon fill="#ffffff" stroke="#000000" points="0,-.5 0,-19.5 99,-19.5 99,-.5 0,-.5"/>
<text text-anchor="middle" x="49.5" y="-7.5" font-family="Helvetica,sans-Serif" font-size="10.00" fill="#000000">src/ess_backend.c</text>
</a>
</g>
</g>
<!-- Node4&#45;&gt;Node5 -->
<g id="edge1" class="edge">
<title>Node4&#45;&gt;Node5</title>
<path fill="none" stroke="#191970" d="M89.2729,-49.0751C79.4659,-39.4402 67.536,-27.7196 59.3149,-19.6427"/>
<polygon fill="#191970" stroke="#191970" points="86.9851,-51.734 96.5714,-56.2455 91.8909,-46.7406 86.9851,-51.734"/>
</g>
<!-- Node6 -->
<g id="node3" class="node">
<title>Node6</title>
<g id="a_node3"><a xlink:href="../../dc/d43/ess__context_8c.html" target="_top" xlink:title="src/ess_context.c">
<polygon fill="#ffffff" stroke="#000000" points="117,-.5 117,-19.5 212,-19.5 212,-.5 117,-.5"/>
<text text-anchor="middle" x="164.5" y="-7.5" font-family="Helvetica,sans-Serif" font-size="10.00" fill="#000000">src/ess_context.c</text>
</a>
</g>
</g>
<!-- Node4&#45;&gt;Node6 -->
<g id="edge2" class="edge">
<title>Node4&#45;&gt;Node6</title>
<path fill="none" stroke="#191970" d="M124.0293,-49.0751C134.0083,-39.4402 146.1476,-27.7196 154.5129,-19.6427"/>
<polygon fill="#191970" stroke="#191970" points="121.3658,-46.7817 116.6028,-56.2455 126.228,-51.8175 121.3658,-46.7817"/>
</g>
</g>
</svg>
