<?xml version="1.0" encoding="UTF-8" standalone="no"?>
<!DOCTYPE svg PUBLIC "-//W3C//DTD SVG 1.1//EN"
 "http://www.w3.org/Graphics/SVG/1.1/DTD/svg11.dtd">
<!-- Generated by graphviz version 2.40.1 (20161225.0304)
 -->
<!-- Title: examples/esp32_probe_backends.c Pages: 1 -->
<svg width="633pt" height="207pt"
 viewBox="0.00 0.00 632.50 207.00" xmlns="http://www.w3.org/2000/svg" xmlns:xlink="http://www.w3.org/1999/xlink">
<g id="graph0" class="graph" transform="scale(1 1) rotate(0) translate(4 203)">
<title>examples/esp32_probe_backends.c</title>
<polygon fill="#ffffff" stroke="transparent" points="-4,4 -4,-203 628.5,-203 628.5,4 -4,4"/>
<!-- Node0 -->
<g id="node1" class="node">
<title>Node0</title>
<polygon fill="#bfbfbf" stroke="#000000" points="381.5,-168.5 381.5,-198.5 498.5,-198.5 498.5,-168.5 381.5,-168.5"/>
<text text-anchor="start" x="389.5" y="-186.5" font-family="Helvetica,sans-Serif" font-size="10.00" fill="#000000">examples/esp32_probe</text>
<text text-anchor="middle" x="440" y="-175.5" font-family="Helvetica,sans-Serif" font-size="10.00" fill="#000000">_backends.c</text>
</g>
<!-- Node1 -->
<g id="node2" class="node">
<title>Node1</title>
<g id="a_node2"><a xlink:href="../../d7/d36/ess__context_8h.html" target="_top" xlink:title="ess_context.h">
<polygon fill="#ffffff" stroke="#000000" points="309,-112.5 309,-131.5 387,-131.5 387,-112.5 309,-112.5"/>
<text text-anchor="middle" x="348" y="-119.5" font-family="Helvetica,sans-Serif" font-size="10.00" fill="#000000">ess_context.h</text>
</a>
</g>
</g>
<!-- Node0&#45;&gt;Node1 -->
<g id="edge1" class="edge">
<title>Node0&#45;&gt;Node1</title>
<path fill="none" stroke="#191970" d="M417.2584,-168.2977C403.2033,-158.9022 385.217,-146.8787 371.0964,-137.4395"/>
<polygon fill="#191970" stroke="#191970" points="372.7143,-134.311 362.4556,-131.6633 368.8241,-140.1305 372.7143,-134.311"/>
</g>
<!-- Node8 -->
<g id="node9" class="node">
<title>Node8</title>
<g id="a_node9"><a xlink:href="../../d7/d35/ess__format_8h.html" target="_top" xlink:title="ess_format.h">
<polygon fill="#ffffff" stroke="#000000" points="364,-.5 364,-19.5 438,-19.5 438,-.5 364,-.5"/>
<text text-anchor="middle" x="401" y="-7.5" font-family="Helvetica,sans-Serif" font-size="10.00" fill="#000000">ess_format.h</text>
</a>
</g>
</g>
<!-- Node0&#45;&gt;Node8 -->
<g id="edge14" class="edge">
<title>Node0&#45;&gt;Node8</title>
<path fill="none" stroke="#191970" d="M436.6072,-168.4065C429.5504,-137.0126 413.2948,-64.6961 405.4266,-29.6925"/>
<polygon fill="#191970" stroke="#191970" points="408.7969,-28.7269 403.1889,-19.738 401.9673,-30.2622 408.7969,-28.7269"/>
</g>
<!-- Node10 -->
<g id="node11" class="node">
<title>Node10</title>
<g id="a_node11"><a xlink:href="../../de/dc0/ess__backend_8h.html" target="_top" xlink:title="ess_backend.h">
<polygon fill="#ffffff" stroke="#000000" points="207.5,-112.5 207.5,-131.5 290.5,-131.5 290.5,-112.5 207.5,-112.5"/>
<text text-anchor="middle" x="249" y="-119.5" font-family="Helvetica,sans-Serif" font-size="10.00" fill="#000000">ess_backend.h</text>
</a>
</g>
</g>
<!-- Node0&#45;&gt;Node10 -->
<g id="edge11" class="edge">
<title>Node0&#45;&gt;Node10</title>
<path fill="none" stroke="#191970" d="M393.2761,-168.4554C361.1277,-158.104 318.8989,-144.5067 288.4436,-134.7004"/>
<polygon fill="#191970" stroke="#191970" points="289.1897,-131.2638 278.5982,-131.5303 287.0442,-137.9269 289.1897,-131.2638"/>
</g>
<!-- Node11 -->
<g id="node12" class="node">
<title>Node11</title>
<polygon fill="#ffffff" stroke="#bfbfbf" points="443,-112.5 443,-131.5 489,-131.5 489,-112.5 443,-112.5"/>
<text text-anchor="middle" x="466" y="-119.5" font-family="Helvetica,sans-Serif" font-size="10.00" fill="#000000">stdio.h</text>
</g>
<!-- Node0&#45;&gt;Node11 -->
<g id="edge15" class="edge">
<title>Node0&#45;&gt;Node11</title>
<path fill="none" stroke="#191970" d="M446.427,-168.2977C449.8857,-160.1166 454.1867,-149.943 457.8754,-141.2179"/>
<polygon fill="#191970" stroke="#191970" points="461.1668,-142.4205 461.8371,-131.8469 454.7193,-139.6947 461.1668,-142.4205"/>
</g>
<!-- Node12 -->
<g id="node13" class="node">
<title>Node12</title>
<polygon fill="#ffffff" stroke="#bfbfbf" points="507,-112.5 507,-131.5 555,-131.5 555,-112.5 507,-112.5"/>
<text text-anchor="middle" x="531" y="-119.5" font-family="Helvetica,sans-Serif" font-size="10.00" fill="#000000">stdlib.h</text>
</g>
<!-- Node0&#45;&gt;Node12 -->
<g id="edge16" class="edge">
<title>Node0&#45;&gt;Node12</title>
<path fill="none" stroke="#191970" d="M462.4944,-168.2977C476.3967,-158.9022 494.1876,-146.8787 508.1546,-137.4395"/>
<polygon fill="#191970" stroke="#191970" points="510.376,-140.1626 516.7015,-131.6633 506.4564,-134.3629 510.376,-140.1626"/>
</g>
<!-- Node13 -->
<g id="node14" class="node">
<title>Node13</title>
<polygon fill="#ffffff" stroke="#bfbfbf" points="573.5,-112.5 573.5,-131.5 624.5,-131.5 624.5,-112.5 573.5,-112.5"/>
<text text-anchor="middle" x="599" y="-119.5" font-family="Helvetica,sans-Serif" font-size="10.00" fill="#000000">unistd.h</text>
</g>
<!-- Node0&#45;&gt;Node13 -->
<g id="edge17" class="edge">
<title>Node0&#45;&gt;Node13</title>
<path fill="none" stroke="#191970" d="M478.8958,-168.4554C505.1926,-158.284 539.5917,-144.9787 564.8332,-135.2155"/>
<polygon fill="#191970" stroke="#191970" points="566.2966,-138.4022 574.3606,-131.5303 563.7714,-131.8735 566.2966,-138.4022"/>
</g>
<!-- Node2 -->
<g id="node3" class="node">
<title>Node2</title>
<g id="a_node3"><a xlink:href="../../da/dfe/ess_8h.html" target="_top" xlink:title="ess.h">
<polygon fill="#ffffff" stroke="#000000" points="224.5,-56.5 224.5,-75.5 265.5,-75.5 265.5,-56.5 224.5,-56.5"/>
<text text-anchor="middle" x="245" y="-63.5" font-family="Helvetica,sans-Serif" font-size="10.00" fill="#000000">ess.h</text>
</a>
</g>
</g>
<!-- Node1&#45;&gt;Node2 -->
<g id="edge2" class="edge">
<title>Node1&#45;&gt;Node2</title>
<path fill="none" stroke="#191970" d="M330.0588,-112.2455C313.96,-103.4928 290.1121,-90.527 271.7609,-80.5496"/>
<polygon fill="#191970" stroke="#191970" points="273.1929,-77.3444 262.7356,-75.6427 269.8493,-83.4942 273.1929,-77.3444"/>
</g>
<!-- Node1&#45;&gt;Node8 -->
<g id="edge9" class="edge">
<title>Node1&#45;&gt;Node8</title>
<path fill="none" stroke="#191970" d="M352.5188,-112.4509C361.2803,-93.936 380.7185,-52.8591 392.1421,-28.7187"/>
<polygon fill="#191970" stroke="#191970" points="395.3789,-30.061 396.4927,-19.5249 389.0516,-27.0668 395.3789,-30.061"/>
</g>
<!-- Node9 -->
<g id="node10" class="node">
<title>Node9</title>
<g id="a_node10"><a xlink:href="../../d1/dea/ess__error_8h.html" target="_top" xlink:title="ess_error.h">
<polygon fill="#ffffff" stroke="#000000" points="283.5,-56.5 283.5,-75.5 348.5,-75.5 348.5,-56.5 283.5,-56.5"/>
<text text-anchor="middle" x="316" y="-63.5" font-family="Helvetica,sans-Serif" font-size="10.00" fill="#000000">ess_error.h</text>
</a>
</g>
</g>
<!-- Node1&#45;&gt;Node9 -->
<g id="edge10" class="edge">
<title>Node1&#45;&gt;Node9</title>
<path fill="none" stroke="#191970" d="M342.426,-112.2455C338.0669,-104.617 331.8789,-93.7881 326.5867,-84.5267"/>
<polygon fill="#191970" stroke="#191970" points="329.5104,-82.5886 321.5101,-75.6427 323.4327,-86.0616 329.5104,-82.5886"/>
</g>
<!-- Node3 -->
<g id="node4" class="node">
<title>Node3</title>
<polygon fill="#ffffff" stroke="#bfbfbf" points="236.5,-.5 236.5,-19.5 283.5,-19.5 283.5,-.5 236.5,-.5"/>
<text text-anchor="middle" x="260" y="-7.5" font-family="Helvetica,sans-Serif" font-size="10.00" fill="#000000">errno.h</text>
</g>
<!-- Node2&#45;&gt;Node3 -->
<g id="edge3" class="edge">
<title>Node2&#45;&gt;Node3</title>
<path fill="none" stroke="#191970" d="M247.6128,-56.2455C249.5916,-48.8579 252.3744,-38.4689 254.8012,-29.4087"/>
<polygon fill="#191970" stroke="#191970" points="258.2105,-30.2078 257.4171,-19.6427 251.4489,-28.3966 258.2105,-30.2078"/>
</g>
<!-- Node4 -->
<g id="node5" class="node">
<title>Node4</title>
<polygon fill="#ffffff" stroke="#bfbfbf" points="302,-.5 302,-19.5 346,-19.5 346,-.5 302,-.5"/>
<text text-anchor="middle" x="324" y="-7.5" font-family="Helvetica,sans-Serif" font-size="10.00" fill="#000000">time.h</text>
</g>
<!-- Node2&#45;&gt;Node4 -->
<g id="edge4" class="edge">
<title>Node2&#45;&gt;Node4</title>
<path fill="none" stroke="#191970" d="M258.7607,-56.2455C270.6552,-47.814 288.065,-35.4729 301.9085,-25.6598"/>
<polygon fill="#191970" stroke="#191970" points="304.2628,-28.2811 310.3969,-19.6427 300.2146,-22.5704 304.2628,-28.2811"/>
</g>
<!-- Node5 -->
<g id="node6" class="node">
<title>Node5</title>
<polygon fill="#ffffff" stroke="#bfbfbf" points="0,-.5 0,-19.5 62,-19.5 62,-.5 0,-.5"/>
<text text-anchor="middle" x="31" y="-7.5" font-family="Helvetica,sans-Serif" font-size="10.00" fill="#000000">sys/time.h</text>
</g>
<!-- Node2&#45;&gt;Node5 -->
<g id="edge5" class="edge">
<title>Node2&#45;&gt;Node5</title>
<path fill="none" stroke="#191970" d="M224.4808,-60.6305C189.4677,-51.4682 117.5543,-32.6497 71.9443,-20.7144"/>
<polygon fill="#191970" stroke="#191970" points="72.6349,-17.2773 62.0745,-18.1317 70.8627,-24.0493 72.6349,-17.2773"/>
</g>
<!-- Node6 -->
<g id="node7" class="node">
<title>Node6</title>
<polygon fill="#ffffff" stroke="#bfbfbf" points="80.5,-.5 80.5,-19.5 149.5,-19.5 149.5,-.5 80.5,-.5"/>
<text text-anchor="middle" x="115" y="-7.5" font-family="Helvetica,sans-Serif" font-size="10.00" fill="#000000">sys/signal.h</text>
</g>
<!-- Node2&#45;&gt;Node6 -->
<g id="edge6" class="edge">
<title>Node2&#45;&gt;Node6</title>
<path fill="none" stroke="#191970" d="M224.4011,-57.1266C203.51,-48.1274 170.8973,-34.0788 146.7092,-23.6593"/>
<polygon fill="#191970" stroke="#191970" points="147.8127,-20.3238 137.2439,-19.582 145.0433,-26.7527 147.8127,-20.3238"/>
</g>
<!-- Node7 -->
<g id="node8" class="node">
<title>Node7</title>
<g id="a_node8"><a xlink:href="../../db/d16/config_8h.html" target="_top" xlink:title="File containing configurations. ">
<polygon fill="#ffffff" stroke="#000000" points="167.5,-.5 167.5,-19.5 218.5,-19.5 218.5,-.5 167.5,-.5"/>
<text text-anchor="middle" x="193" y="-7.5" font-family="Helvetica,sans-Serif" font-size="10.00" fill="#000000">config.h</text>
</a>
</g>
</g>
<!-- Node2&#45;&gt;Node7 -->
<g id="edge7" class="edge">
<title>Node2&#45;&gt;Node7</title>
<path fill="none" stroke="#191970" d="M235.9423,-56.2455C228.4858,-48.2155 217.7366,-36.6394 208.8583,-27.0781"/>
<polygon fill="#191970" stroke="#191970" points="211.3232,-24.589 201.9539,-19.6427 206.1937,-29.3522 211.3232,-24.589"/>
</g>
<!-- Node2&#45;&gt;Node8 -->
<g id="edge8" class="edge">
<title>Node2&#45;&gt;Node8</title>
<path fill="none" stroke="#191970" d="M265.7156,-58.5636C290.9936,-49.4895 334.1609,-33.9935 364.9348,-22.9465"/>
<polygon fill="#191970" stroke="#191970" points="366.2231,-26.2028 374.4525,-19.5299 363.858,-19.6144 366.2231,-26.2028"/>
</g>
<!-- Node10&#45;&gt;Node2 -->
<g id="edge12" class="edge">
<title>Node10&#45;&gt;Node2</title>
<path fill="none" stroke="#191970" d="M248.3033,-112.2455C247.7813,-104.9382 247.0496,-94.6944 246.4075,-85.7046"/>
<polygon fill="#191970" stroke="#191970" points="249.8924,-85.3679 245.6888,-75.6427 242.9102,-85.8667 249.8924,-85.3679"/>
</g>
<!-- Node10&#45;&gt;Node9 -->
<g id="edge13" class="edge">
<title>Node10&#45;&gt;Node9</title>
<path fill="none" stroke="#191970" d="M260.6705,-112.2455C270.5661,-103.9746 284.9627,-91.9416 296.5901,-82.2232"/>
<polygon fill="#191970" stroke="#191970" points="299.035,-84.7413 304.4632,-75.6427 294.5458,-79.3703 299.035,-84.7413"/>
</g>
</g>
</svg>
